<?xml version="1.0" encoding="UTF-8"?>

<!DOCTYPE svg PUBLIC '-//W3C//DTD SVG 20001102//EN' 'http://www.w3.org/TR/2000/CR-SVG-20001102/DTD/svg-20001102.dtd'>
<svg style="fill-opacity:1; color-interpolation:sRGB; color-rendering:auto; text-rendering:auto; stroke:black; stroke-linecap:square; stroke-miterlimit:10; stroke-opacity:1; shape-rendering:auto; fill:black; stroke-dasharray:none; font-weight:normal; stroke-width:1; font-family:&apos;Lucida Sans&apos;; font-style:normal; stroke-linejoin:miter; font-size:12; image-rendering:auto; stroke-dashoffset:0;" width="1141" height="676">
  <!--Generated by the Batik Graphics2D SVG Generator-->
  <defs id="genericDefs" />
  <g>
    <defs id="defs1">
      <clipPath clipPathUnits="userSpaceOnUse" id="clipPath1">
        <path d="M0 0 L1141 0 L1141 676 L0 676 L0 0 Z" />
      </clipPath>
      <clipPath clipPathUnits="userSpaceOnUse" id="clipPath2">
        <path d="M536 20 L536 405 L808 405 L808 20 Z" />
      </clipPath>
      <clipPath clipPathUnits="userSpaceOnUse" id="clipPath3">
        <path d="M537 21 L537 35 L808 35 L808 21 Z" />
      </clipPath>
      <clipPath clipPathUnits="userSpaceOnUse" id="clipPath4">
        <path d="M536 60 L536 337 L808 337 L808 60 Z" />
      </clipPath>
      <clipPath clipPathUnits="userSpaceOnUse" id="clipPath5">
        <path d="M538 62 L538 336 L807 336 L807 62 Z" />
      </clipPath>
      <clipPath clipPathUnits="userSpaceOnUse" id="clipPath6">
        <path d="M536 349 L536 366 L808 366 L808 349 Z" />
      </clipPath>
      <clipPath clipPathUnits="userSpaceOnUse" id="clipPath7">
        <path d="M538 351 L538 365 L807 365 L807 351 Z" />
      </clipPath>
      <clipPath clipPathUnits="userSpaceOnUse" id="clipPath8">
        <path d="M536 378 L536 395 L808 395 L808 378 Z" />
      </clipPath>
      <clipPath clipPathUnits="userSpaceOnUse" id="clipPath9">
        <path d="M538 380 L538 394 L807 394 L807 380 Z" />
      </clipPath>
      <clipPath clipPathUnits="userSpaceOnUse" id="clipPath10">
        <path d="M836 20 L836 428 L1128 428 L1128 20 Z" />
      </clipPath>
      <clipPath clipPathUnits="userSpaceOnUse" id="clipPath11">
        <path d="M837 21 L837 35 L1128 35 L1128 21 Z" />
      </clipPath>
      <clipPath clipPathUnits="userSpaceOnUse" id="clipPath12">
        <path d="M836 60 L836 350 L1128 350 L1128 60 Z" />
      </clipPath>
      <clipPath clipPathUnits="userSpaceOnUse" id="clipPath13">
        <path d="M838 62 L838 349 L1127 349 L1127 62 Z" />
      </clipPath>
      <clipPath clipPathUnits="userSpaceOnUse" id="clipPath14">
        <path d="M836 362 L836 379 L1128 379 L1128 362 Z" />
      </clipPath>
      <clipPath clipPathUnits="userSpaceOnUse" id="clipPath15">
        <path d="M838 364 L838 378 L1127 378 L1127 364 Z" />
      </clipPath>
      <clipPath clipPathUnits="userSpaceOnUse" id="clipPath16">
        <path d="M836 391 L836 418 L1128 418 L1128 391 Z" />
      </clipPath>
      <clipPath clipPathUnits="userSpaceOnUse" id="clipPath17">
        <path d="M838 393 L838 417 L1127 417 L1127 393 Z" />
      </clipPath>
      <clipPath clipPathUnits="userSpaceOnUse" id="clipPath18">
        <path d="M550 540 L550 633 L748 633 L748 540 Z" />
      </clipPath>
      <clipPath clipPathUnits="userSpaceOnUse" id="clipPath19">
        <path d="M551 541 L551 568 L748 568 L748 541 Z" />
      </clipPath>
      <clipPath clipPathUnits="userSpaceOnUse" id="clipPath20">
        <path d="M550 593 L550 623 L748 623 L748 593 Z" />
      </clipPath>
      <clipPath clipPathUnits="userSpaceOnUse" id="clipPath21">
        <path d="M552 595 L552 622 L747 622 L747 595 Z" />
      </clipPath>
      <clipPath clipPathUnits="userSpaceOnUse" id="clipPath22">
        <path d="M246 20 L246 386 L488 386 L488 20 Z" />
      </clipPath>
      <clipPath clipPathUnits="userSpaceOnUse" id="clipPath23">
        <path d="M247 21 L247 48 L488 48 L488 21 Z" />
      </clipPath>
      <clipPath clipPathUnits="userSpaceOnUse" id="clipPath24">
        <path d="M246 83 L246 347 L488 347 L488 83 Z" />
      </clipPath>
      <clipPath clipPathUnits="userSpaceOnUse" id="clipPath25">
        <path d="M248 85 L248 346 L487 346 L487 85 Z" />
      </clipPath>
      <clipPath clipPathUnits="userSpaceOnUse" id="clipPath26">
        <path d="M246 359 L246 376 L488 376 L488 359 Z" />
      </clipPath>
      <clipPath clipPathUnits="userSpaceOnUse" id="clipPath27">
        <path d="M248 361 L248 375 L487 375 L487 361 Z" />
      </clipPath>
      <clipPath clipPathUnits="userSpaceOnUse" id="clipPath28">
        <path d="M20 100 L20 401 L194 401 L194 100 Z" />
      </clipPath>
      <clipPath clipPathUnits="userSpaceOnUse" id="clipPath29">
        <path d="M21 101 L21 141 L194 141 L194 101 Z" />
      </clipPath>
      <clipPath clipPathUnits="userSpaceOnUse" id="clipPath30">
        <path d="M20 166 L20 391 L194 391 L194 166 Z" />
      </clipPath>
      <clipPath clipPathUnits="userSpaceOnUse" id="clipPath31">
        <path d="M22 168 L22 390 L193 390 L193 168 Z" />
      </clipPath>
      <clipPath clipPathUnits="userSpaceOnUse" id="clipPath32">
        <path d="M694 444 L694 477 L764 477 L764 444 Z" />
      </clipPath>
      <clipPath clipPathUnits="userSpaceOnUse" id="clipPath33">
        <path d="M944 474 L944 507 L1029 507 L1029 474 Z" />
      </clipPath>
      <clipPath clipPathUnits="userSpaceOnUse" id="clipPath34">
        <path d="M344 444 L344 477 L411 477 L411 444 Z" />
      </clipPath>
      <clipPath clipPathUnits="userSpaceOnUse" id="clipPath35">
        <path d="M244 594 L244 662 L469 662 L469 594 Z" />
      </clipPath>
      <clipPath clipPathUnits="userSpaceOnUse" id="clipPath36">
        <path d="M34 484 L34 567 L198 567 L198 484 Z" />
      </clipPath>
    </defs>
    <g style="fill:purple; stroke:purple;">
      <line x1="993" x2="993" y1="470" style="clip-path:url(#clipPath1); fill:none;" y2="470" />
      <line x1="993" x2="993" y1="470" style="clip-path:url(#clipPath1); fill:none;" y2="460" />
      <line x1="993" x2="993" y1="455" style="clip-path:url(#clipPath1); fill:none;" y2="445" />
      <line x1="993" x2="993" y1="440" style="clip-path:url(#clipPath1); fill:none;" y2="430" />
      <line x1="735" x2="735" y1="440" style="clip-path:url(#clipPath1); fill:none;" y2="440" />
      <line x1="735" x2="735" y1="440" style="clip-path:url(#clipPath1); fill:none;" y2="430" />
      <line x1="735" x2="735" y1="425" style="clip-path:url(#clipPath1); fill:none;" y2="415" />
      <line x1="735" x2="735" y1="410" style="clip-path:url(#clipPath1); fill:none;" y2="407" />
      <line x1="610" x2="470" y1="540" style="clip-path:url(#clipPath1); fill:none; stroke:rgb(0,0,130);" y2="490" />
      <line x1="470" x2="470" y1="490" style="clip-path:url(#clipPath1); fill:none; stroke:rgb(0,0,130);" y2="388" />
      <line x1="710" x2="860" y1="540" style="clip-path:url(#clipPath1); fill:none; stroke:rgb(0,0,130);" y2="490" />
      <line x1="860" x2="860" y1="490" style="clip-path:url(#clipPath1); fill:none; stroke:rgb(0,0,130);" y2="430" />
      <line x1="670" x2="670" y1="540" style="clip-path:url(#clipPath1); fill:none; stroke:rgb(0,0,130);" y2="407" />
      <line x1="154" x2="157" y1="403" style="clip-path:url(#clipPath1); fill:none; stroke:black;" y2="404" />
      <line x1="161" x2="170" y1="407" style="clip-path:url(#clipPath1); fill:none; stroke:black;" y2="412" />
      <line x1="174" x2="183" y1="414" style="clip-path:url(#clipPath1); fill:none; stroke:black;" y2="419" />
      <line x1="187" x2="196" y1="421" style="clip-path:url(#clipPath1); fill:none; stroke:black;" y2="426" />
      <line x1="201" x2="209" y1="428" style="clip-path:url(#clipPath1); fill:none; stroke:black;" y2="433" />
      <line x1="214" x2="223" y1="435" style="clip-path:url(#clipPath1); fill:none; stroke:black;" y2="440" />
      <line x1="227" x2="236" y1="443" style="clip-path:url(#clipPath1); fill:none; stroke:black;" y2="447" />
      <line x1="240" x2="249" y1="450" style="clip-path:url(#clipPath1); fill:none; stroke:black;" y2="454" />
      <line x1="253" x2="262" y1="457" style="clip-path:url(#clipPath1); fill:none; stroke:black;" y2="462" />
      <line x1="267" x2="275" y1="464" style="clip-path:url(#clipPath1); fill:none; stroke:black;" y2="469" />
      <line x1="280" x2="289" y1="471" style="clip-path:url(#clipPath1); fill:none; stroke:black;" y2="476" />
      <line x1="293" x2="302" y1="478" style="clip-path:url(#clipPath1); fill:none; stroke:black;" y2="483" />
      <line x1="306" x2="315" y1="485" style="clip-path:url(#clipPath1); fill:none; stroke:black;" y2="490" />
      <line x1="319" x2="328" y1="493" style="clip-path:url(#clipPath1); fill:none; stroke:black;" y2="497" />
      <line x1="332" x2="341" y1="500" style="clip-path:url(#clipPath1); fill:none; stroke:black;" y2="504" />
      <line x1="346" x2="354" y1="507" style="clip-path:url(#clipPath1); fill:none; stroke:black;" y2="512" />
      <line x1="359" x2="368" y1="514" style="clip-path:url(#clipPath1); fill:none; stroke:black;" y2="519" />
      <line x1="370" x2="379" y1="520" style="clip-path:url(#clipPath1); fill:none; stroke:black;" y2="522" />
      <line x1="384" x2="393" y1="523" style="clip-path:url(#clipPath1); fill:none; stroke:black;" y2="525" />
      <line x1="398" x2="408" y1="526" style="clip-path:url(#clipPath1); fill:none; stroke:black;" y2="528" />
      <line x1="413" x2="423" y1="529" style="clip-path:url(#clipPath1); fill:none; stroke:black;" y2="531" />
      <line x1="428" x2="437" y1="532" style="clip-path:url(#clipPath1); fill:none; stroke:black;" y2="535" />
      <line x1="442" x2="452" y1="536" style="clip-path:url(#clipPath1); fill:none; stroke:black;" y2="538" />
      <line x1="457" x2="467" y1="539" style="clip-path:url(#clipPath1); fill:none; stroke:black;" y2="541" />
      <line x1="472" x2="481" y1="542" style="clip-path:url(#clipPath1); fill:none; stroke:black;" y2="544" />
      <line x1="486" x2="496" y1="545" style="clip-path:url(#clipPath1); fill:none; stroke:black;" y2="547" />
      <line x1="501" x2="511" y1="548" style="clip-path:url(#clipPath1); fill:none; stroke:black;" y2="550" />
      <line x1="516" x2="525" y1="552" style="clip-path:url(#clipPath1); fill:none; stroke:black;" y2="554" />
      <line x1="530" x2="540" y1="555" style="clip-path:url(#clipPath1); fill:none; stroke:black;" y2="557" />
      <line x1="545" x2="550" y1="558" style="clip-path:url(#clipPath1); fill:none; stroke:black;" y2="559" />
      <line x1="384" x2="384" y1="440" style="clip-path:url(#clipPath1); fill:none;" y2="440" />
      <line x1="384" x2="384" y1="440" style="clip-path:url(#clipPath1); fill:none;" y2="430" />
      <line x1="384" x2="384" y1="425" style="clip-path:url(#clipPath1); fill:none;" y2="415" />
      <line x1="384" x2="384" y1="410" style="clip-path:url(#clipPath1); fill:none;" y2="400" />
      <line x1="384" x2="384" y1="395" style="clip-path:url(#clipPath1); fill:none;" y2="388" />
      <line x1="486" x2="495" y1="612" style="clip-path:url(#clipPath1); fill:none;" y2="612" />
      <line x1="500" x2="510" y1="612" style="clip-path:url(#clipPath1); fill:none;" y2="612" />
      <line x1="515" x2="525" y1="612" style="clip-path:url(#clipPath1); fill:none;" y2="612" />
      <line x1="530" x2="540" y1="612" style="clip-path:url(#clipPath1); fill:none;" y2="612" />
      <line x1="545" x2="550" y1="612" style="clip-path:url(#clipPath1); fill:none;" y2="612" />
      <line x1="215" x2="215" y1="552" style="clip-path:url(#clipPath1); fill:none;" y2="552" />
      <line x1="216" x2="226" y1="552" style="clip-path:url(#clipPath1); fill:none;" y2="553" />
      <line x1="231" x2="241" y1="553" style="clip-path:url(#clipPath1); fill:none;" y2="553" />
      <line x1="246" x2="256" y1="554" style="clip-path:url(#clipPath1); fill:none;" y2="554" />
      <line x1="261" x2="271" y1="554" style="clip-path:url(#clipPath1); fill:none;" y2="555" />
      <line x1="276" x2="286" y1="555" style="clip-path:url(#clipPath1); fill:none;" y2="556" />
      <line x1="291" x2="301" y1="556" style="clip-path:url(#clipPath1); fill:none;" y2="557" />
      <line x1="306" x2="316" y1="557" style="clip-path:url(#clipPath1); fill:none;" y2="557" />
      <line x1="321" x2="331" y1="558" style="clip-path:url(#clipPath1); fill:none;" y2="558" />
      <line x1="336" x2="346" y1="558" style="clip-path:url(#clipPath1); fill:none;" y2="559" />
      <line x1="351" x2="361" y1="559" style="clip-path:url(#clipPath1); fill:none;" y2="560" />
      <line x1="366" x2="376" y1="560" style="clip-path:url(#clipPath1); fill:none;" y2="561" />
      <line x1="381" x2="391" y1="561" style="clip-path:url(#clipPath1); fill:none;" y2="561" />
      <line x1="396" x2="406" y1="562" style="clip-path:url(#clipPath1); fill:none;" y2="562" />
      <line x1="411" x2="421" y1="563" style="clip-path:url(#clipPath1); fill:none;" y2="563" />
      <line x1="426" x2="436" y1="563" style="clip-path:url(#clipPath1); fill:none;" y2="564" />
      <line x1="441" x2="451" y1="564" style="clip-path:url(#clipPath1); fill:none;" y2="565" />
      <line x1="456" x2="466" y1="565" style="clip-path:url(#clipPath1); fill:none;" y2="565" />
      <line x1="471" x2="481" y1="566" style="clip-path:url(#clipPath1); fill:none;" y2="566" />
      <line x1="486" x2="496" y1="567" style="clip-path:url(#clipPath1); fill:none;" y2="567" />
      <line x1="501" x2="511" y1="567" style="clip-path:url(#clipPath1); fill:none;" y2="568" />
      <line x1="516" x2="526" y1="568" style="clip-path:url(#clipPath1); fill:none;" y2="569" />
      <line x1="531" x2="541" y1="569" style="clip-path:url(#clipPath1); fill:none;" y2="569" />
      <line x1="546" x2="550" y1="570" style="clip-path:url(#clipPath1); fill:none;" y2="570" />
      <line x1="113" x2="113" y1="480" style="clip-path:url(#clipPath1); fill:none;" y2="475" />
      <line x1="113" x2="113" y1="470" style="clip-path:url(#clipPath1); fill:none;" y2="460" />
      <line x1="113" x2="113" y1="455" style="clip-path:url(#clipPath1); fill:none;" y2="445" />
      <line x1="113" x2="113" y1="440" style="clip-path:url(#clipPath1); fill:none;" y2="430" />
      <line x1="113" x2="113" y1="425" style="clip-path:url(#clipPath1); fill:none;" y2="415" />
      <line x1="113" x2="113" y1="410" style="clip-path:url(#clipPath1); fill:none;" y2="403" />
      <polygon style="fill:white; clip-path:url(#clipPath1); stroke:none;" points=" 610 540 601 541 595 535 604 534" />
      <polygon style="fill:none; clip-path:url(#clipPath1); stroke:rgb(0,0,130);" points=" 610 540 601 541 595 535 604 534" />
      <line x1="604" x2="610" y1="534" style="clip-path:url(#clipPath1); fill:none; stroke:rgb(0,0,130);" y2="540" />
      <line x1="470" x2="465" y1="388" style="clip-path:url(#clipPath1); fill:none; stroke:rgb(0,0,130);" y2="400" />
      <line x1="470" x2="475" y1="388" style="clip-path:url(#clipPath1); fill:none; stroke:rgb(0,0,130);" y2="400" />
      <polygon style="fill:white; clip-path:url(#clipPath1); stroke:none;" points=" 710 540 716 534 725 535 719 541" />
      <polygon style="fill:none; clip-path:url(#clipPath1); stroke:rgb(0,0,130);" points=" 710 540 716 534 725 535 719 541" />
      <line x1="719" x2="710" y1="541" style="clip-path:url(#clipPath1); fill:none; stroke:rgb(0,0,130);" y2="540" />
      <line x1="860" x2="855" y1="430" style="clip-path:url(#clipPath1); fill:none; stroke:rgb(0,0,130);" y2="442" />
      <line x1="860" x2="865" y1="430" style="clip-path:url(#clipPath1); fill:none; stroke:rgb(0,0,130);" y2="442" />
      <polygon style="fill:white; clip-path:url(#clipPath1); stroke:none;" points=" 670 540 666 532 670 524 674 532" />
      <polygon style="fill:none; clip-path:url(#clipPath1); stroke:rgb(0,0,130);" points=" 670 540 666 532 670 524 674 532" />
      <line x1="674" x2="670" y1="532" style="clip-path:url(#clipPath1); fill:none; stroke:rgb(0,0,130);" y2="540" />
      <line x1="670" x2="665" y1="407" style="clip-path:url(#clipPath1); fill:none; stroke:rgb(0,0,130);" y2="419" />
      <line x1="670" x2="675" y1="407" style="clip-path:url(#clipPath1); fill:none; stroke:rgb(0,0,130);" y2="419" />
      <line x1="550" x2="539" y1="559" style="clip-path:url(#clipPath1); fill:none; stroke:black;" y2="552" />
      <line x1="550" x2="537" y1="559" style="clip-path:url(#clipPath1); fill:none; stroke:black;" y2="561" />
      <text x="547" y="533" style="clip-path:url(#clipPath1); fill:rgb(0,0,130); font-family:sans-serif; stroke:none;">1
      </text>
      <text x="454" y="398" style="clip-path:url(#clipPath1); fill:rgb(0,0,130); font-family:sans-serif; stroke:none;">1
      </text>
      <text x="694" y="533" style="clip-path:url(#clipPath1); fill:rgb(0,0,130); font-family:sans-serif; stroke:none;">1
      </text>
      <text x="844" y="440" style="clip-path:url(#clipPath1); fill:rgb(0,0,130); font-family:sans-serif; stroke:none;">1
      </text>
      <text x="654" y="533" style="clip-path:url(#clipPath1); fill:rgb(0,0,130); font-family:sans-serif; stroke:none;">1
      </text>
      <text x="654" y="417" style="clip-path:url(#clipPath1); fill:rgb(0,0,130); font-family:sans-serif; stroke:none;">1
      </text>
      <polygon points=" 531 23 810 23 810 407 531 407 531 37 523 37 523 29 531 29 531 23" style="fill:navy; clip-path:url(#clipPath1); font-family:sans-serif; stroke:none;" />
      <polygon points=" 528 20 807 20 807 404 528 404 528 34 520 34 520 26 528 26 528 20" style="fill:white; clip-path:url(#clipPath1); font-family:sans-serif; stroke:none;" />
      <polygon points=" 528 20 807 20 807 404 528 404 528 34 520 34 520 26 528 26 528 20" style="fill:none; clip-path:url(#clipPath1); font-family:sans-serif; stroke:black;" />
      <line x1="528" x2="536" y1="34" style="clip-path:url(#clipPath1); fill:none; font-family:sans-serif; stroke:black;" y2="34" />
      <line x1="536" x2="536" y1="34" style="clip-path:url(#clipPath1); fill:none; font-family:sans-serif; stroke:black;" y2="26" />
      <line x1="536" x2="528" y1="26" style="clip-path:url(#clipPath1); fill:none; font-family:sans-serif; stroke:black;" y2="26" />
    </g>
    <g style="font-weight:bold; font-family:sans-serif;">
      <text x="549" y="31" style="clip-path:url(#clipPath3); stroke:none;">snx::OpenALSoundImplementation
      </text>
    </g>
    <g style="font-family:sans-serif;">
      <line x1="536" x2="807" y1="40" style="clip-path:url(#clipPath2); fill:none;" y2="40" />
      <line x1="536" x2="807" y1="53" style="clip-path:url(#clipPath2); fill:none;" y2="53" />
    </g>
    <g style="font-family:sans-serif;">
      <text x="542" y="72" style="clip-path:url(#clipPath5); stroke:none;">+OpenALSoundImplementation
      </text>
      <text x="542" y="85" style="clip-path:url(#clipPath5); stroke:none;">+~OpenALSoundImplementation
      </text>
      <text x="542" y="98" style="clip-path:url(#clipPath5); stroke:none;">+clone:void
      </text>
      <text x="542" y="111" style="clip-path:url(#clipPath5); stroke:none;">+trigger:void
      </text>
      <text x="542" y="124" style="clip-path:url(#clipPath5); stroke:none;">+setRetriggerable:void
      </text>
      <text x="542" y="137" style="clip-path:url(#clipPath5); stroke:none;">+setAmbient:void
      </text>
      <text x="542" y="150" style="clip-path:url(#clipPath5); stroke:none;">+isPlaying:bool
      </text>
      <text x="542" y="163" style="clip-path:url(#clipPath5); stroke:none;">+stop:void
      </text>
      <text x="542" y="176" style="clip-path:url(#clipPath5); stroke:none;">+setPosition:void
      </text>
      <text x="542" y="189" style="clip-path:url(#clipPath5); stroke:none;">+getPosition:void
      </text>
      <text x="542" y="202" style="clip-path:url(#clipPath5); stroke:none;">+getListenerPosition:void
      </text>
      <text x="542" y="215" style="clip-path:url(#clipPath5); stroke:none;">+startAPI:void
      </text>
      <text x="542" y="228" style="clip-path:url(#clipPath5); stroke:none;">+shutdownAPI:void
      </text>
      <text x="542" y="241" style="clip-path:url(#clipPath5); stroke:none;">+isStarted:bool
      </text>
      <text x="542" y="254" style="clip-path:url(#clipPath5); stroke:none;">+configure:void
      </text>
      <text x="542" y="267" style="clip-path:url(#clipPath5); stroke:none;">+configure:void
      </text>
      <text x="542" y="280" style="clip-path:url(#clipPath5); stroke:none;">+remove:void
      </text>
      <text x="542" y="293" style="clip-path:url(#clipPath5); stroke:none;">+clear:void
      </text>
      <text x="542" y="306" style="clip-path:url(#clipPath5); stroke:none;">+bind:void
      </text>
      <text x="542" y="319" style="clip-path:url(#clipPath5); stroke:none;">+unbind:void
      </text>
      <text x="542" y="332" style="clip-path:url(#clipPath5); stroke:none;">+step:void
      </text>
    </g>
    <g style="font-family:sans-serif;">
      <line x1="536" x2="807" y1="342" style="clip-path:url(#clipPath2); fill:none;" y2="342" />
    </g>
    <g style="font-family:sans-serif;">
      <text x="542" y="361" style="clip-path:url(#clipPath7); stroke:none;"> AlSoundInfo
      </text>
    </g>
    <g style="font-family:sans-serif;">
      <line x1="536" x2="807" y1="371" style="clip-path:url(#clipPath2); fill:none;" y2="371" />
    </g>
    <g style="font-family:sans-serif;">
      <text x="542" y="390" style="clip-path:url(#clipPath9); stroke:none;"> listenerPosition:const vrj::Matrix
      </text>
    </g>
    <g style="fill:navy; font-family:sans-serif; stroke:navy;">
      <polygon style="clip-path:url(#clipPath1); stroke:none;" points=" 831 23 1130 23 1130 430 831 430 831 37 823 37 823 29 831 29 831 23" />
      <polygon style="fill:white; clip-path:url(#clipPath1); stroke:none;" points=" 828 20 1127 20 1127 427 828 427 828 34 820 34 820 26 828 26 828 20" />
      <polygon style="fill:none; clip-path:url(#clipPath1); stroke:black;" points=" 828 20 1127 20 1127 427 828 427 828 34 820 34 820 26 828 26 828 20" />
      <line x1="828" x2="836" y1="34" style="clip-path:url(#clipPath1); fill:none; stroke:black;" y2="34" />
      <line x1="836" x2="836" y1="34" style="clip-path:url(#clipPath1); fill:none; stroke:black;" y2="26" />
      <line x1="836" x2="828" y1="26" style="clip-path:url(#clipPath1); fill:none; stroke:black;" y2="26" />
    </g>
    <g style="font-weight:bold; font-family:sans-serif;">
      <text x="844" y="31" style="clip-path:url(#clipPath11); stroke:none;">snx::AudioWorksSoundImplementation
      </text>
    </g>
    <g style="font-family:sans-serif;">
      <line x1="836" x2="1127" y1="40" style="clip-path:url(#clipPath10); fill:none;" y2="40" />
      <line x1="836" x2="1127" y1="53" style="clip-path:url(#clipPath10); fill:none;" y2="53" />
    </g>
    <g style="font-family:sans-serif;">
      <text x="842" y="72" style="clip-path:url(#clipPath13); stroke:none;">+AudioWorksSoundImplementation
      </text>
      <text x="842" y="85" style="clip-path:url(#clipPath13); stroke:none;">+~AudioWorksSoundImplementation
      </text>
      <text x="842" y="98" style="clip-path:url(#clipPath13); stroke:none;">+clone:void
      </text>
      <text x="842" y="111" style="clip-path:url(#clipPath13); stroke:none;">+trigger:void
      </text>
      <text x="842" y="124" style="clip-path:url(#clipPath13); stroke:none;">+setRetriggerable:void
      </text>
      <text x="842" y="137" style="clip-path:url(#clipPath13); stroke:none;">+setAmbient:void
      </text>
      <text x="842" y="150" style="clip-path:url(#clipPath13); stroke:none;">+mute:void
      </text>
      <text x="842" y="163" style="clip-path:url(#clipPath13); stroke:none;">+unmute:void
      </text>
      <text x="842" y="176" style="clip-path:url(#clipPath13); stroke:none;">+stop:void
      </text>
      <text x="842" y="189" style="clip-path:url(#clipPath13); stroke:none;">+setPosition:void
      </text>
      <text x="842" y="202" style="clip-path:url(#clipPath13); stroke:none;">+getPosition:void
      </text>
      <text x="842" y="215" style="clip-path:url(#clipPath13); stroke:none;">+getListenerPosition:void
      </text>
      <text x="842" y="228" style="clip-path:url(#clipPath13); stroke:none;">+startAPI:void
      </text>
      <text x="842" y="241" style="clip-path:url(#clipPath13); stroke:none;">+shutdownAPI:void
      </text>
      <text x="842" y="254" style="clip-path:url(#clipPath13); stroke:none;">+isStarted:bool
      </text>
      <text x="842" y="267" style="clip-path:url(#clipPath13); stroke:none;">+configure:void
      </text>
      <text x="842" y="280" style="clip-path:url(#clipPath13); stroke:none;">+configure:void
      </text>
      <text x="842" y="293" style="clip-path:url(#clipPath13); stroke:none;">+remove:void
      </text>
      <text x="842" y="306" style="clip-path:url(#clipPath13); stroke:none;">+clear:void
      </text>
      <text x="842" y="319" style="clip-path:url(#clipPath13); stroke:none;">+bind:void
      </text>
      <text x="842" y="332" style="clip-path:url(#clipPath13); stroke:none;">+unbind:void
      </text>
      <text x="842" y="345" style="clip-path:url(#clipPath13); stroke:none;">+step:void
      </text>
    </g>
    <g style="font-family:sans-serif;">
      <line x1="836" x2="1127" y1="355" style="clip-path:url(#clipPath10); fill:none;" y2="355" />
    </g>
    <g style="font-family:sans-serif;">
      <text x="842" y="374" style="clip-path:url(#clipPath15); stroke:none;"> AWSoundInfo
      </text>
    </g>
    <g style="font-family:sans-serif;">
      <line x1="836" x2="1127" y1="384" style="clip-path:url(#clipPath10); fill:none;" y2="384" />
    </g>
    <g style="font-family:sans-serif;">
      <text x="842" y="403" style="clip-path:url(#clipPath17); stroke:none;"> listenerPosition:const vrj::Matrix
      </text>
    </g>
    <g style="fill:navy; font-family:sans-serif; stroke:navy;">
      <rect x="553" y="543" width="197" style="clip-path:url(#clipPath1); stroke:none;" height="92" />
      <rect x="550" y="540" width="197" style="clip-path:url(#clipPath1); fill:white; stroke:none;" height="92" />
      <rect x="550" y="540" width="197" style="clip-path:url(#clipPath1); fill:none; stroke:black;" height="92" />
    </g>
    <g style="font-family:sans-serif;">
      <text x="551" y="551" style="clip-path:url(#clipPath19); stroke:none;">vpr::Singleton&lt;SoundFactory&gt;
      </text>
      <text x="584" y="564" style="font-weight:bold; clip-path:url(#clipPath19); stroke:none;">snx::SoundFactory
      </text>
    </g>
    <g style="font-family:sans-serif;">
      <line x1="550" x2="747" y1="573" style="clip-path:url(#clipPath18); fill:none;" y2="573" />
      <line x1="550" x2="747" y1="586" style="clip-path:url(#clipPath18); fill:none;" y2="586" />
    </g>
    <g style="font-family:sans-serif;">
      <text x="556" y="605" style="clip-path:url(#clipPath21); stroke:none;">+createImplementation:void
      </text>
      <text x="556" y="618" style="clip-path:url(#clipPath21); stroke:none;">+reg:void
      </text>
    </g>
    <g style="fill:navy; font-family:sans-serif; stroke:navy;">
      <polygon style="clip-path:url(#clipPath1); stroke:none;" points=" 241 23 490 23 490 388 241 388 241 37 233 37 233 29 241 29 241 23" />
      <polygon style="fill:white; clip-path:url(#clipPath1); stroke:none;" points=" 238 20 487 20 487 385 238 385 238 34 230 34 230 26 238 26 238 20" />
      <polygon style="fill:none; clip-path:url(#clipPath1); stroke:black;" points=" 238 20 487 20 487 385 238 385 238 34 230 34 230 26 238 26 238 20" />
      <line x1="238" x2="246" y1="34" style="clip-path:url(#clipPath1); fill:none; stroke:black;" y2="34" />
      <line x1="246" x2="246" y1="34" style="clip-path:url(#clipPath1); fill:none; stroke:black;" y2="26" />
      <line x1="246" x2="238" y1="26" style="clip-path:url(#clipPath1); fill:none; stroke:black;" y2="26" />
    </g>
    <g style="font-family:sans-serif;">
      <text x="314" y="31" style="clip-path:url(#clipPath23); stroke:none;">snx::SoundImplementation
      </text>
      <text x="256" y="44" style="font-weight:bold; clip-path:url(#clipPath23); stroke:none;">snx::StubSoundImplementation
      </text>
    </g>
    <g style="font-family:sans-serif;">
      <line x1="246" x2="487" y1="53" style="clip-path:url(#clipPath22); fill:none;" y2="53" />
      <line x1="246" x2="487" y1="76" style="clip-path:url(#clipPath22); fill:none;" y2="76" />
    </g>
    <g style="font-family:sans-serif;">
      <text x="252" y="95" style="clip-path:url(#clipPath25); stroke:none;">+StubSoundImplementation
      </text>
      <text x="252" y="108" style="clip-path:url(#clipPath25); stroke:none;">+~StubSoundImplementation
      </text>
      <text x="252" y="121" style="clip-path:url(#clipPath25); stroke:none;">+clone:void
      </text>
      <text x="252" y="134" style="clip-path:url(#clipPath25); stroke:none;">+trigger:void
      </text>
      <text x="252" y="147" style="clip-path:url(#clipPath25); stroke:none;">+stop:void
      </text>
      <text x="252" y="160" style="clip-path:url(#clipPath25); stroke:none;">+setPosition:void
      </text>
      <text x="252" y="173" style="clip-path:url(#clipPath25); stroke:none;">+getPosition:void
      </text>
      <text x="252" y="186" style="clip-path:url(#clipPath25); stroke:none;">+getListenerPosition:void
      </text>
      <text x="252" y="199" style="clip-path:url(#clipPath25); stroke:none;">+startAPI:void
      </text>
      <text x="252" y="212" style="clip-path:url(#clipPath25); stroke:none;">+shutdownAPI:void
      </text>
      <text x="252" y="225" style="clip-path:url(#clipPath25); stroke:none;">+isStarted:bool
      </text>
      <text x="252" y="238" style="clip-path:url(#clipPath25); stroke:none;">+configure:void
      </text>
      <text x="252" y="251" style="clip-path:url(#clipPath25); stroke:none;">+configure:void
      </text>
      <text x="252" y="264" style="clip-path:url(#clipPath25); stroke:none;">+remove:void
      </text>
      <text x="252" y="277" style="clip-path:url(#clipPath25); stroke:none;">+clear:void
      </text>
      <text x="252" y="290" style="clip-path:url(#clipPath25); stroke:none;">+bindAll:void
      </text>
      <text x="252" y="303" style="clip-path:url(#clipPath25); stroke:none;">+unbindAll:void
      </text>
      <text x="252" y="316" style="clip-path:url(#clipPath25); stroke:none;">+bind:void
      </text>
      <text x="252" y="329" style="clip-path:url(#clipPath25); stroke:none;">+unbind:void
      </text>
      <text x="252" y="342" style="clip-path:url(#clipPath25); stroke:none;">+step:void
      </text>
    </g>
    <g style="font-family:sans-serif;">
      <line x1="246" x2="487" y1="352" style="clip-path:url(#clipPath22); fill:none;" y2="352" />
    </g>
    <g style="font-family:sans-serif;">
      <text x="252" y="371" style="clip-path:url(#clipPath27); stroke:none;"> listenerPosition:const vrj::Matrix
      </text>
    </g>
    <g style="fill:navy; font-family:sans-serif; stroke:navy;">
      <rect x="23" y="103" width="173" style="clip-path:url(#clipPath1); stroke:none;" height="300" />
      <rect x="20" y="100" width="173" style="clip-path:url(#clipPath1); fill:white; stroke:none;" height="300" />
      <rect x="20" y="100" width="173" style="clip-path:url(#clipPath1); fill:none; stroke:black;" height="300" />
    </g>
    <g style="font-family:sans-serif;">
      <text x="150" y="111" style="clip-path:url(#clipPath29); stroke:none;">Isonix
      </text>
      <text x="47" y="124" style="clip-path:url(#clipPath29); stroke:none;">vpr::Singleton&lt;sonix&gt;
      </text>
      <text x="87" y="137" style="font-weight:bold; clip-path:url(#clipPath29); stroke:none;">sonix
      </text>
    </g>
    <g style="font-family:sans-serif;">
      <line x1="20" x2="193" y1="146" style="clip-path:url(#clipPath28); fill:none;" y2="146" />
      <line x1="20" x2="193" y1="159" style="clip-path:url(#clipPath28); fill:none;" y2="159" />
    </g>
    <g style="font-family:sans-serif;">
      <text x="26" y="178" style="clip-path:url(#clipPath31); stroke:none;">+trigger:void
      </text>
      <text x="26" y="191" style="clip-path:url(#clipPath31); stroke:none;">+setRetriggerable:void
      </text>
      <text x="26" y="204" style="clip-path:url(#clipPath31); stroke:none;">+setAmbient:void
      </text>
      <text x="26" y="217" style="clip-path:url(#clipPath31); stroke:none;">+stop:void
      </text>
      <text x="26" y="230" style="clip-path:url(#clipPath31); stroke:none;">+pause:void
      </text>
      <text x="26" y="243" style="clip-path:url(#clipPath31); stroke:none;">+unpause:void
      </text>
      <text x="26" y="256" style="clip-path:url(#clipPath31); stroke:none;">+mute:void
      </text>
      <text x="26" y="269" style="clip-path:url(#clipPath31); stroke:none;">+unmute:void
      </text>
      <text x="26" y="282" style="clip-path:url(#clipPath31); stroke:none;">+setPosition:void
      </text>
      <text x="26" y="295" style="clip-path:url(#clipPath31); stroke:none;">+getPosition:void
      </text>
      <text x="26" y="308" style="clip-path:url(#clipPath31); stroke:none;">+setListenerPosition:void
      </text>
      <text x="26" y="321" style="clip-path:url(#clipPath31); stroke:none;">+getListenerPosition:void
      </text>
      <text x="26" y="334" style="clip-path:url(#clipPath31); stroke:none;">+changeAPI:void
      </text>
      <text x="26" y="347" style="clip-path:url(#clipPath31); stroke:none;">+configure:void
      </text>
      <text x="26" y="360" style="clip-path:url(#clipPath31); stroke:none;">+configure:void
      </text>
      <text x="26" y="373" style="clip-path:url(#clipPath31); stroke:none;">+remove:void
      </text>
      <text x="26" y="386" style="clip-path:url(#clipPath31); stroke:none;">+step:void
      </text>
    </g>
    <g style="fill:navy; font-family:sans-serif; stroke:navy;">
      <polygon style="clip-path:url(#clipPath1); stroke:none;" points=" 693 443 767 443 782 458 782 481 693 481" />
      <polygon style="fill:white; clip-path:url(#clipPath1); stroke:none;" points=" 690 440 764 440 779 455 779 478 690 478" />
      <line x1="690" x2="764" y1="440" style="clip-path:url(#clipPath1); fill:none; stroke:black;" y2="440" />
      <line x1="764" x2="779" y1="440" style="clip-path:url(#clipPath1); fill:none; stroke:black;" y2="455" />
      <line x1="779" x2="779" y1="455" style="clip-path:url(#clipPath1); fill:none; stroke:black;" y2="478" />
      <line x1="779" x2="690" y1="478" style="clip-path:url(#clipPath1); fill:none; stroke:black;" y2="478" />
      <line x1="690" x2="690" y1="478" style="clip-path:url(#clipPath1); fill:none; stroke:black;" y2="440" />
      <line x1="764" x2="764" y1="440" style="clip-path:url(#clipPath1); fill:none; stroke:black;" y2="455" />
      <line x1="764" x2="779" y1="455" style="clip-path:url(#clipPath1); fill:none; stroke:black;" y2="455" />
    </g>
    <g style="font-family:sans-serif;">
      <text x="698" y="454" style="clip-path:url(#clipPath32); stroke:none;">OpenAL
      </text>
      <text x="698" y="467" style="clip-path:url(#clipPath32); stroke:none;">back end
      </text>
    </g>
    <g style="fill:navy; font-family:sans-serif; stroke:navy;">
      <polygon style="clip-path:url(#clipPath1); stroke:none;" points=" 943 473 1032 473 1047 488 1047 511 943 511" />
      <polygon style="fill:white; clip-path:url(#clipPath1); stroke:none;" points=" 940 470 1029 470 1044 485 1044 508 940 508" />
      <line x1="940" x2="1029" y1="470" style="clip-path:url(#clipPath1); fill:none; stroke:black;" y2="470" />
      <line x1="1029" x2="1044" y1="470" style="clip-path:url(#clipPath1); fill:none; stroke:black;" y2="485" />
      <line x1="1044" x2="1044" y1="485" style="clip-path:url(#clipPath1); fill:none; stroke:black;" y2="508" />
      <line x1="1044" x2="940" y1="508" style="clip-path:url(#clipPath1); fill:none; stroke:black;" y2="508" />
      <line x1="940" x2="940" y1="508" style="clip-path:url(#clipPath1); fill:none; stroke:black;" y2="470" />
      <line x1="1029" x2="1029" y1="470" style="clip-path:url(#clipPath1); fill:none; stroke:black;" y2="485" />
      <line x1="1029" x2="1044" y1="485" style="clip-path:url(#clipPath1); fill:none; stroke:black;" y2="485" />
    </g>
    <g style="font-family:sans-serif;">
      <text x="948" y="484" style="clip-path:url(#clipPath33); stroke:none;">AudioWorks
      </text>
      <text x="948" y="497" style="clip-path:url(#clipPath33); stroke:none;">back end
      </text>
    </g>
    <g style="fill:navy; font-family:sans-serif; stroke:navy;">
      <polygon style="clip-path:url(#clipPath1); stroke:none;" points=" 343 443 414 443 429 458 429 481 343 481" />
      <polygon style="fill:white; clip-path:url(#clipPath1); stroke:none;" points=" 340 440 411 440 426 455 426 478 340 478" />
      <line x1="340" x2="411" y1="440" style="clip-path:url(#clipPath1); fill:none; stroke:black;" y2="440" />
      <line x1="411" x2="426" y1="440" style="clip-path:url(#clipPath1); fill:none; stroke:black;" y2="455" />
      <line x1="426" x2="426" y1="455" style="clip-path:url(#clipPath1); fill:none; stroke:black;" y2="478" />
      <line x1="426" x2="340" y1="478" style="clip-path:url(#clipPath1); fill:none; stroke:black;" y2="478" />
      <line x1="340" x2="340" y1="478" style="clip-path:url(#clipPath1); fill:none; stroke:black;" y2="440" />
      <line x1="411" x2="411" y1="440" style="clip-path:url(#clipPath1); fill:none; stroke:black;" y2="455" />
      <line x1="411" x2="426" y1="455" style="clip-path:url(#clipPath1); fill:none; stroke:black;" y2="455" />
    </g>
    <g style="font-family:sans-serif;">
      <text x="348" y="454" style="clip-path:url(#clipPath34); stroke:none;">Dummy
      </text>
      <text x="348" y="467" style="clip-path:url(#clipPath34); stroke:none;">backend
      </text>
    </g>
    <g style="fill:navy; font-family:sans-serif; stroke:navy;">
      <polygon style="clip-path:url(#clipPath1); stroke:none;" points=" 243 593 472 593 487 608 487 666 243 666" />
      <polygon style="fill:white; clip-path:url(#clipPath1); stroke:none;" points=" 240 590 469 590 484 605 484 663 240 663" />
      <line x1="240" x2="469" y1="590" style="clip-path:url(#clipPath1); fill:none; stroke:black;" y2="590" />
      <line x1="469" x2="484" y1="590" style="clip-path:url(#clipPath1); fill:none; stroke:black;" y2="605" />
      <line x1="484" x2="484" y1="605" style="clip-path:url(#clipPath1); fill:none; stroke:black;" y2="663" />
      <line x1="484" x2="240" y1="663" style="clip-path:url(#clipPath1); fill:none; stroke:black;" y2="663" />
      <line x1="240" x2="240" y1="663" style="clip-path:url(#clipPath1); fill:none; stroke:black;" y2="590" />
      <line x1="469" x2="469" y1="590" style="clip-path:url(#clipPath1); fill:none; stroke:black;" y2="605" />
      <line x1="469" x2="484" y1="605" style="clip-path:url(#clipPath1); fill:none; stroke:black;" y2="605" />
    </g>
    <g style="font-family:sans-serif;">
      <text x="248" y="604" style="clip-path:url(#clipPath35); stroke:none;">SoundFactory knows how to
      </text>
      <text x="248" y="617" style="clip-path:url(#clipPath35); stroke:none;">create the API back ends.  It
      </text>
      <text x="248" y="630" style="clip-path:url(#clipPath35); stroke:none;">returns Stub if if doesn't know
      </text>
      <text x="248" y="643" style="clip-path:url(#clipPath35); stroke:none;">how to create what was requested
      </text>
    </g>
    <g style="fill:navy; font-family:sans-serif; stroke:navy;">
      <polygon style="clip-path:url(#clipPath1); stroke:none;" points=" 33 483 201 483 216 498 216 571 33 571" />
      <polygon style="fill:white; clip-path:url(#clipPath1); stroke:none;" points=" 30 480 198 480 213 495 213 568 30 568" />
      <line x1="30" x2="198" y1="480" style="clip-path:url(#clipPath1); fill:none; stroke:black;" y2="480" />
      <line x1="198" x2="213" y1="480" style="clip-path:url(#clipPath1); fill:none; stroke:black;" y2="495" />
      <line x1="213" x2="213" y1="495" style="clip-path:url(#clipPath1); fill:none; stroke:black;" y2="568" />
      <line x1="213" x2="30" y1="568" style="clip-path:url(#clipPath1); fill:none; stroke:black;" y2="568" />
      <line x1="30" x2="30" y1="568" style="clip-path:url(#clipPath1); fill:none; stroke:black;" y2="480" />
      <line x1="198" x2="198" y1="480" style="clip-path:url(#clipPath1); fill:none; stroke:black;" y2="495" />
      <line x1="198" x2="213" y1="495" style="clip-path:url(#clipPath1); fill:none; stroke:black;" y2="495" />
    </g>
    <g style="font-family:sans-serif;">
      <text x="38" y="494" style="clip-path:url(#clipPath36); stroke:none;">When sonix::changeAPI()
      </text>
      <text x="38" y="507" style="clip-path:url(#clipPath36); stroke:none;">is called, sonix asks the
      </text>
      <text x="38" y="520" style="clip-path:url(#clipPath36); stroke:none;">SoundFactory for the
      </text>
      <text x="38" y="533" style="clip-path:url(#clipPath36); stroke:none;">requested API then it
      </text>
      <text x="38" y="546" style="clip-path:url(#clipPath36); stroke:none;">changes to that one.
      </text>
    </g>
  </g>
</svg>
