<?xml version="1.0" encoding="UTF-8"?>

<!DOCTYPE svg PUBLIC '-//W3C//DTD SVG 20001102//EN' 'http://www.w3.org/TR/2000/CR-SVG-20001102/DTD/svg-20001102.dtd'>
<svg style="fill-opacity:1; color-interpolation:sRGB; color-rendering:auto; text-rendering:auto; stroke:black; stroke-linecap:square; stroke-miterlimit:10; stroke-opacity:1; shape-rendering:auto; fill:black; stroke-dasharray:none; font-weight:normal; stroke-width:1; font-family:&apos;Lucida Sans&apos;; font-style:normal; stroke-linejoin:miter; font-size:12; image-rendering:auto; stroke-dashoffset:0;" width="421" height="331">
  <!--Generated by the Batik Graphics2D SVG Generator-->
  <defs id="genericDefs" />
  <g>
    <defs id="defs1">
      <clipPath clipPathUnits="userSpaceOnUse" id="clipPath1">
        <path d="M0 0 L421 0 L421 331 L0 331 L0 0 Z" />
      </clipPath>
      <clipPath clipPathUnits="userSpaceOnUse" id="clipPath2">
        <path d="M10 10 L10 318 L198 318 L198 10 Z" />
      </clipPath>
      <clipPath clipPathUnits="userSpaceOnUse" id="clipPath3">
        <path d="M11 11 L11 25 L198 25 L198 11 Z" />
      </clipPath>
      <clipPath clipPathUnits="userSpaceOnUse" id="clipPath4">
        <path d="M10 50 L10 301 L198 301 L198 50 Z" />
      </clipPath>
      <clipPath clipPathUnits="userSpaceOnUse" id="clipPath5">
        <path d="M12 52 L12 300 L197 300 L197 52 Z" />
      </clipPath>
      <clipPath clipPathUnits="userSpaceOnUse" id="clipPath6">
        <path d="M220 10 L220 158 L408 158 L408 10 Z" />
      </clipPath>
      <clipPath clipPathUnits="userSpaceOnUse" id="clipPath7">
        <path d="M221 11 L221 38 L408 38 L408 11 Z" />
      </clipPath>
      <clipPath clipPathUnits="userSpaceOnUse" id="clipPath8">
        <path d="M220 73 L220 142 L408 142 L408 73 Z" />
      </clipPath>
      <clipPath clipPathUnits="userSpaceOnUse" id="clipPath9">
        <path d="M222 75 L222 141 L407 141 L407 75 Z" />
      </clipPath>
    </defs>
    <g style="fill:navy; stroke:navy;">
      <rect x="13" y="13" width="187" style="clip-path:url(#clipPath1); stroke:none;" height="307" />
      <rect x="10" y="10" width="187" style="clip-path:url(#clipPath1); fill:white; stroke:none;" height="307" />
      <rect x="10" y="10" width="187" style="clip-path:url(#clipPath1); fill:none; stroke:black;" height="307" />
    </g>
    <g style="font-weight:bold; font-family:sans-serif;">
      <text x="41" y="21" style="clip-path:url(#clipPath3); stroke:none;">snx::SoundHandle
      </text>
    </g>
    <g>
      <line x1="10" x2="197" y1="30" style="clip-path:url(#clipPath2); fill:none;" y2="30" />
      <line x1="10" x2="197" y1="43" style="clip-path:url(#clipPath2); fill:none;" y2="43" />
    </g>
    <g style="font-family:sans-serif;">
      <text x="16" y="62" style="clip-path:url(#clipPath5); stroke:none;">+init:void
      </text>
      <text x="16" y="75" style="clip-path:url(#clipPath5); stroke:none;">+trigger:void
      </text>
      <text x="16" y="88" style="clip-path:url(#clipPath5); stroke:none;">+isPlaying:bool
      </text>
      <text x="16" y="101" style="clip-path:url(#clipPath5); stroke:none;">+setRetriggerable:void
      </text>
      <text x="16" y="114" style="clip-path:url(#clipPath5); stroke:none;">+isRetriggerable:bool
      </text>
      <text x="16" y="127" style="clip-path:url(#clipPath5); stroke:none;">+stop:void
      </text>
      <text x="16" y="140" style="clip-path:url(#clipPath5); stroke:none;">+pause:void
      </text>
      <text x="16" y="153" style="clip-path:url(#clipPath5); stroke:none;">+unpause:void
      </text>
      <text x="16" y="166" style="clip-path:url(#clipPath5); stroke:none;">+isPaused:bool
      </text>
      <text x="16" y="179" style="clip-path:url(#clipPath5); stroke:none;">+setAmbient:void
      </text>
      <text x="16" y="192" style="clip-path:url(#clipPath5); stroke:none;">+isAmbient:bool
      </text>
      <text x="16" y="205" style="clip-path:url(#clipPath5); stroke:none;">+setPitchBend:void
      </text>
      <text x="16" y="218" style="clip-path:url(#clipPath5); stroke:none;">+setVolume:void
      </text>
      <text x="16" y="231" style="clip-path:url(#clipPath5); stroke:none;">+setCutoff:void
      </text>
      <text x="16" y="244" style="clip-path:url(#clipPath5); stroke:none;">+setPosition:void
      </text>
      <text x="16" y="257" style="clip-path:url(#clipPath5); stroke:none;">+getPosition:void
      </text>
      <text x="16" y="270" style="clip-path:url(#clipPath5); stroke:none;">+setListenerPosition:void
      </text>
      <text x="16" y="283" style="clip-path:url(#clipPath5); stroke:none;">+configure:void
      </text>
      <text x="16" y="296" style="clip-path:url(#clipPath5); stroke:none;">+remove:void
      </text>
    </g>
    <g style="fill:navy; stroke:navy;">
      <rect x="223" y="13" width="187" style="clip-path:url(#clipPath1); stroke:none;" height="147" />
      <rect x="220" y="10" width="187" style="clip-path:url(#clipPath1); fill:white; stroke:none;" height="147" />
      <rect x="220" y="10" width="187" style="clip-path:url(#clipPath1); fill:none; stroke:black;" height="147" />
    </g>
    <g style="font-family:sans-serif;">
      <text x="258" y="21" style="clip-path:url(#clipPath7); stroke:none;">snx::Singleton&lt;sonix&gt;
      </text>
      <text x="294" y="34" style="font-weight:bold; clip-path:url(#clipPath7); stroke:none;">sonix
      </text>
    </g>
    <g>
      <line x1="220" x2="407" y1="43" style="clip-path:url(#clipPath6); fill:none;" y2="43" />
      <line x1="220" x2="407" y1="66" style="clip-path:url(#clipPath6); fill:none;" y2="66" />
    </g>
    <g style="font-family:sans-serif;">
      <text x="226" y="85" style="clip-path:url(#clipPath9); stroke:none;">+setListenerPosition:void
      </text>
      <text x="226" y="98" style="clip-path:url(#clipPath9); stroke:none;">+getListenerPosition:void
      </text>
      <text x="226" y="111" style="clip-path:url(#clipPath9); stroke:none;">+changeAPI:void
      </text>
      <text x="226" y="124" style="clip-path:url(#clipPath9); stroke:none;">+configure:void
      </text>
      <text x="226" y="137" style="clip-path:url(#clipPath9); stroke:none;">+step:void
      </text>
    </g>
  </g>
</svg>
