<?xml version="1.0" encoding="UTF-8"?>

<!DOCTYPE svg PUBLIC '-//W3C//DTD SVG 20001102//EN' 'http://www.w3.org/TR/2000/CR-SVG-20001102/DTD/svg-20001102.dtd'>
<svg style="fill-opacity:1; color-interpolation:sRGB; color-rendering:auto; text-rendering:auto; stroke:black; stroke-linecap:square; stroke-miterlimit:10; stroke-opacity:1; shape-rendering:auto; fill:black; stroke-dasharray:none; font-weight:normal; stroke-width:1; font-family:&apos;Lucida Sans&apos;; font-style:normal; stroke-linejoin:miter; font-size:12; image-rendering:auto; stroke-dashoffset:0;" width="831" height="671">
  <!--Generated by the Batik Graphics2D SVG Generator-->
  <defs id="genericDefs" />
  <g>
    <defs id="defs1">
      <clipPath clipPathUnits="userSpaceOnUse" id="clipPath1">
        <path d="M0 0 L831 0 L831 671 L0 671 L0 0 Z" />
      </clipPath>
      <clipPath clipPathUnits="userSpaceOnUse" id="clipPath2">
        <path d="M320 20 L320 383 L494 383 L494 20 Z" />
      </clipPath>
      <clipPath clipPathUnits="userSpaceOnUse" id="clipPath3">
        <path d="M321 21 L321 48 L494 48 L494 21 Z" />
      </clipPath>
      <clipPath clipPathUnits="userSpaceOnUse" id="clipPath4">
        <path d="M320 83 L320 373 L494 373 L494 83 Z" />
      </clipPath>
      <clipPath clipPathUnits="userSpaceOnUse" id="clipPath5">
        <path d="M322 85 L322 372 L493 372 L493 85 Z" />
      </clipPath>
      <clipPath clipPathUnits="userSpaceOnUse" id="clipPath6">
        <path d="M20 20 L20 388 L268 388 L268 20 Z" />
      </clipPath>
      <clipPath clipPathUnits="userSpaceOnUse" id="clipPath7">
        <path d="M21 21 L21 35 L268 35 L268 21 Z" />
      </clipPath>
      <clipPath clipPathUnits="userSpaceOnUse" id="clipPath8">
        <path d="M20 70 L20 373 L268 373 L268 70 Z" />
      </clipPath>
      <clipPath clipPathUnits="userSpaceOnUse" id="clipPath9">
        <path d="M22 72 L22 372 L267 372 L267 72 Z" />
      </clipPath>
      <clipPath clipPathUnits="userSpaceOnUse" id="clipPath10">
        <path d="M20 410 L20 658 L268 658 L268 410 Z" />
      </clipPath>
      <clipPath clipPathUnits="userSpaceOnUse" id="clipPath11">
        <path d="M21 411 L21 438 L268 438 L268 411 Z" />
      </clipPath>
      <clipPath clipPathUnits="userSpaceOnUse" id="clipPath12">
        <path d="M20 450 L20 584 L268 584 L268 450 Z" />
      </clipPath>
      <clipPath clipPathUnits="userSpaceOnUse" id="clipPath13">
        <path d="M22 452 L22 583 L267 583 L267 452 Z" />
      </clipPath>
      <clipPath clipPathUnits="userSpaceOnUse" id="clipPath14">
        <path d="M20 596 L20 613 L268 613 L268 596 Z" />
      </clipPath>
      <clipPath clipPathUnits="userSpaceOnUse" id="clipPath15">
        <path d="M22 598 L22 612 L267 612 L267 598 Z" />
      </clipPath>
      <clipPath clipPathUnits="userSpaceOnUse" id="clipPath16">
        <path d="M20 625 L20 642 L268 642 L268 625 Z" />
      </clipPath>
      <clipPath clipPathUnits="userSpaceOnUse" id="clipPath17">
        <path d="M22 627 L22 641 L267 641 L267 627 Z" />
      </clipPath>
      <clipPath clipPathUnits="userSpaceOnUse" id="clipPath18">
        <path d="M320 470 L320 579 L518 579 L518 470 Z" />
      </clipPath>
      <clipPath clipPathUnits="userSpaceOnUse" id="clipPath19">
        <path d="M321 471 L321 498 L518 498 L518 471 Z" />
      </clipPath>
      <clipPath clipPathUnits="userSpaceOnUse" id="clipPath20">
        <path d="M320 510 L320 527 L518 527 L518 510 Z" />
      </clipPath>
      <clipPath clipPathUnits="userSpaceOnUse" id="clipPath21">
        <path d="M322 512 L322 526 L517 526 L517 512 Z" />
      </clipPath>
      <clipPath clipPathUnits="userSpaceOnUse" id="clipPath22">
        <path d="M320 539 L320 569 L518 569 L518 539 Z" />
      </clipPath>
      <clipPath clipPathUnits="userSpaceOnUse" id="clipPath23">
        <path d="M322 541 L322 568 L517 568 L517 541 Z" />
      </clipPath>
      <clipPath clipPathUnits="userSpaceOnUse" id="clipPath24">
        <path d="M570 20 L570 638 L818 638 L818 20 Z" />
      </clipPath>
      <clipPath clipPathUnits="userSpaceOnUse" id="clipPath25">
        <path d="M571 21 L571 35 L818 35 L818 21 Z" />
      </clipPath>
      <clipPath clipPathUnits="userSpaceOnUse" id="clipPath26">
        <path d="M570 70 L570 542 L818 542 L818 70 Z" />
      </clipPath>
      <clipPath clipPathUnits="userSpaceOnUse" id="clipPath27">
        <path d="M572 72 L572 541 L817 541 L817 72 Z" />
      </clipPath>
    </defs>
    <g>
      <line x1="320" x2="316" y1="350" style="clip-path:url(#clipPath1); fill:none;" y2="358" />
      <line x1="314" x2="310" y1="363" style="clip-path:url(#clipPath1); fill:none;" y2="372" />
      <line x1="308" x2="304" y1="376" style="clip-path:url(#clipPath1); fill:none;" y2="386" />
      <line x1="302" x2="298" y1="390" style="clip-path:url(#clipPath1); fill:none;" y2="399" />
      <line x1="296" x2="291" y1="404" style="clip-path:url(#clipPath1); fill:none;" y2="413" />
      <line x1="289" x2="285" y1="417" style="clip-path:url(#clipPath1); fill:none;" y2="426" />
      <line x1="283" x2="279" y1="431" style="clip-path:url(#clipPath1); fill:none;" y2="440" />
      <line x1="277" x2="273" y1="445" style="clip-path:url(#clipPath1); fill:none;" y2="454" />
      <line x1="271" x2="270" y1="458" style="clip-path:url(#clipPath1); fill:none;" y2="460" />
      <line x1="408" x2="408" y1="385" style="clip-path:url(#clipPath1); fill:none;" y2="390" />
      <line x1="408" x2="408" y1="395" style="clip-path:url(#clipPath1); fill:none;" y2="405" />
      <line x1="408" x2="408" y1="410" style="clip-path:url(#clipPath1); fill:none;" y2="420" />
      <line x1="408" x2="408" y1="425" style="clip-path:url(#clipPath1); fill:none;" y2="435" />
      <line x1="408" x2="408" y1="440" style="clip-path:url(#clipPath1); fill:none;" y2="450" />
      <line x1="408" x2="408" y1="455" style="clip-path:url(#clipPath1); fill:none;" y2="465" />
      <line x1="408" x2="408" y1="470" style="clip-path:url(#clipPath1); fill:none;" y2="470" />
      <line x1="570" x2="270" y1="610" style="clip-path:url(#clipPath1); fill:none; stroke:rgb(0,0,130);" y2="610" />
      <line x1="520" x2="570" y1="500" style="clip-path:url(#clipPath1); fill:none; stroke:rgb(0,0,130);" y2="500" />
      <line x1="520" x2="525" y1="544" style="clip-path:url(#clipPath1); fill:none;" y2="544" />
      <line x1="530" x2="540" y1="544" style="clip-path:url(#clipPath1); fill:none;" y2="544" />
      <line x1="545" x2="555" y1="544" style="clip-path:url(#clipPath1); fill:none;" y2="544" />
      <line x1="560" x2="570" y1="544" style="clip-path:url(#clipPath1); fill:none;" y2="544" />
      <line x1="496" x2="570" y1="141" style="clip-path:url(#clipPath1); fill:none; stroke:rgb(0,0,130);" y2="141" />
      <line x1="270" x2="280" y1="460" style="clip-path:url(#clipPath1); fill:none;" y2="451" />
      <line x1="270" x2="270" y1="460" style="clip-path:url(#clipPath1); fill:none;" y2="447" />
      <line x1="408" x2="413" y1="470" style="clip-path:url(#clipPath1); fill:none;" y2="458" />
      <line x1="408" x2="403" y1="470" style="clip-path:url(#clipPath1); fill:none;" y2="458" />
      <polygon style="fill:white; clip-path:url(#clipPath1); stroke:none;" points=" 570 610 562 614 554 610 562 606" />
      <polygon style="fill:none; clip-path:url(#clipPath1); stroke:rgb(0,0,130);" points=" 570 610 562 614 554 610 562 606" />
      <line x1="562" x2="570" y1="606" style="clip-path:url(#clipPath1); fill:none; stroke:rgb(0,0,130);" y2="610" />
      <line x1="270" x2="282" y1="610" style="clip-path:url(#clipPath1); fill:none; stroke:rgb(0,0,130);" y2="615" />
      <line x1="270" x2="282" y1="610" style="clip-path:url(#clipPath1); fill:none; stroke:rgb(0,0,130);" y2="605" />
      <text x="554" y="603" style="clip-path:url(#clipPath1); fill:rgb(0,0,130); font-family:sans-serif; stroke:none;">1
      </text>
      <text x="278" y="603" style="clip-path:url(#clipPath1); fill:rgb(0,0,130); font-family:sans-serif; stroke:none;">0..*
      </text>
      <polygon points=" 520 500 528 496 536 500 528 504" style="fill:white; clip-path:url(#clipPath1); font-family:sans-serif; stroke:none;" />
      <polygon points=" 520 500 528 496 536 500 528 504" style="fill:none; clip-path:url(#clipPath1); font-family:sans-serif; stroke:rgb(0,0,130);" />
      <line x1="528" x2="520" y1="504" style="clip-path:url(#clipPath1); fill:none; font-family:sans-serif; stroke:rgb(0,0,130);" y2="500" />
      <line x1="570" x2="558" y1="500" style="clip-path:url(#clipPath1); fill:none; font-family:sans-serif; stroke:rgb(0,0,130);" y2="495" />
      <line x1="570" x2="558" y1="500" style="clip-path:url(#clipPath1); fill:none; font-family:sans-serif; stroke:rgb(0,0,130);" y2="505" />
      <text x="528" y="493" style="clip-path:url(#clipPath1); fill:rgb(0,0,130); font-family:sans-serif; stroke:none;">1
      </text>
      <text x="540" y="493" style="clip-path:url(#clipPath1); fill:rgb(0,0,130); font-family:sans-serif; stroke:none;">0..*
      </text>
      <line x1="570" x2="558" y1="544" style="clip-path:url(#clipPath1); fill:none; font-family:sans-serif;" y2="539" />
      <line x1="570" x2="558" y1="544" style="clip-path:url(#clipPath1); fill:none; font-family:sans-serif;" y2="549" />
      <polygon points=" 496 141 504 137 512 141 504 145" style="fill:white; clip-path:url(#clipPath1); font-family:sans-serif; stroke:none;" />
      <polygon points=" 496 141 504 137 512 141 504 145" style="fill:none; clip-path:url(#clipPath1); font-family:sans-serif; stroke:rgb(0,0,130);" />
      <line x1="504" x2="496" y1="145" style="clip-path:url(#clipPath1); fill:none; font-family:sans-serif; stroke:rgb(0,0,130);" y2="141" />
      <line x1="570" x2="558" y1="141" style="clip-path:url(#clipPath1); fill:none; font-family:sans-serif; stroke:rgb(0,0,130);" y2="136" />
      <line x1="570" x2="558" y1="141" style="clip-path:url(#clipPath1); fill:none; font-family:sans-serif; stroke:rgb(0,0,130);" y2="146" />
      <text x="504" y="134" style="clip-path:url(#clipPath1); fill:rgb(0,0,130); font-family:sans-serif; stroke:none;">1
      </text>
      <text x="554" y="134" style="clip-path:url(#clipPath1); fill:rgb(0,0,130); font-family:sans-serif; stroke:none;">1
      </text>
      <rect x="323" y="23" width="173" style="clip-path:url(#clipPath1); fill:navy; font-family:sans-serif; stroke:none;" height="362" />
      <rect x="320" y="20" width="173" style="clip-path:url(#clipPath1); fill:white; font-family:sans-serif; stroke:none;" height="362" />
      <rect x="320" y="20" width="173" style="clip-path:url(#clipPath1); fill:none; font-family:sans-serif;" height="362" />
    </g>
    <g style="font-family:sans-serif;">
      <text x="344" y="31" style="clip-path:url(#clipPath3); stroke:none;">snx::Singleton&lt;sonix&gt;
      </text>
      <text x="387" y="44" style="font-weight:bold; clip-path:url(#clipPath3); stroke:none;">sonix
      </text>
    </g>
    <g style="font-family:sans-serif;">
      <line x1="320" x2="493" y1="53" style="clip-path:url(#clipPath2); fill:none;" y2="53" />
      <line x1="320" x2="493" y1="76" style="clip-path:url(#clipPath2); fill:none;" y2="76" />
    </g>
    <g style="font-family:sans-serif;">
      <text x="326" y="95" style="clip-path:url(#clipPath5); stroke:none;">+trigger:void
      </text>
      <text x="326" y="108" style="clip-path:url(#clipPath5); stroke:none;">+isPlaying:bool
      </text>
      <text x="326" y="121" style="clip-path:url(#clipPath5); stroke:none;">+setRetriggerable:void
      </text>
      <text x="326" y="134" style="clip-path:url(#clipPath5); stroke:none;">+isRetriggerable:bool
      </text>
      <text x="326" y="147" style="clip-path:url(#clipPath5); stroke:none;">+stop:void
      </text>
      <text x="326" y="160" style="clip-path:url(#clipPath5); stroke:none;">+pause:void
      </text>
      <text x="326" y="173" style="clip-path:url(#clipPath5); stroke:none;">+unpause:void
      </text>
      <text x="326" y="186" style="clip-path:url(#clipPath5); stroke:none;">+isPaused:bool
      </text>
      <text x="326" y="199" style="clip-path:url(#clipPath5); stroke:none;">+setAmbient:void
      </text>
      <text x="326" y="212" style="clip-path:url(#clipPath5); stroke:none;">+isAmbient:bool
      </text>
      <text x="326" y="225" style="clip-path:url(#clipPath5); stroke:none;">+setPitchBend:void
      </text>
      <text x="326" y="238" style="clip-path:url(#clipPath5); stroke:none;">+setVolume:void
      </text>
      <text x="326" y="251" style="clip-path:url(#clipPath5); stroke:none;">+setCutoff:void
      </text>
      <text x="326" y="264" style="clip-path:url(#clipPath5); stroke:none;">+setPosition:void
      </text>
      <text x="326" y="277" style="clip-path:url(#clipPath5); stroke:none;">+getPosition:void
      </text>
      <text x="326" y="290" style="clip-path:url(#clipPath5); stroke:none;">+setListenerPosition:void
      </text>
      <text x="326" y="303" style="clip-path:url(#clipPath5); stroke:none;">+getListenerPosition:void
      </text>
      <text x="326" y="316" style="clip-path:url(#clipPath5); stroke:none;">+changeAPI:void
      </text>
      <text x="326" y="329" style="clip-path:url(#clipPath5); stroke:none;">+configure:void
      </text>
      <text x="326" y="342" style="clip-path:url(#clipPath5); stroke:none;">+configure:void
      </text>
      <text x="326" y="355" style="clip-path:url(#clipPath5); stroke:none;">+remove:void
      </text>
      <text x="326" y="368" style="clip-path:url(#clipPath5); stroke:none;">+step:void
      </text>
    </g>
    <g style="fill:navy; font-family:sans-serif; stroke:navy;">
      <rect x="23" y="23" width="247" style="clip-path:url(#clipPath1); stroke:none;" height="367" />
      <rect x="20" y="20" width="247" style="clip-path:url(#clipPath1); fill:white; stroke:none;" height="367" />
      <rect x="20" y="20" width="247" style="clip-path:url(#clipPath1); fill:none; stroke:black;" height="367" />
    </g>
    <g style="font-weight:bold; font-family:sans-serif;">
      <text x="81" y="31" style="clip-path:url(#clipPath7); stroke:none;">snx::SoundHandle
      </text>
    </g>
    <g style="font-family:sans-serif;">
      <line x1="20" x2="267" y1="40" style="clip-path:url(#clipPath6); fill:none;" y2="40" />
      <line x1="20" x2="267" y1="63" style="clip-path:url(#clipPath6); fill:none;" y2="63" />
    </g>
    <g style="font-family:sans-serif;">
      <text x="26" y="82" style="clip-path:url(#clipPath9); stroke:none;">+SoundHandle
      </text>
      <text x="26" y="95" style="clip-path:url(#clipPath9); stroke:none;">+SoundHandle
      </text>
      <text x="26" y="108" style="clip-path:url(#clipPath9); stroke:none;">+init:void
      </text>
      <text x="26" y="121" style="clip-path:url(#clipPath9); stroke:none;">+~SoundHandle
      </text>
      <text x="26" y="134" style="clip-path:url(#clipPath9); stroke:none;">+trigger:void
      </text>
      <text x="26" y="147" style="clip-path:url(#clipPath9); stroke:none;">+isPlaying:bool
      </text>
      <text x="26" y="160" style="clip-path:url(#clipPath9); stroke:none;">+setRetriggerable:void
      </text>
      <text x="26" y="173" style="clip-path:url(#clipPath9); stroke:none;">+isRetriggerable:bool
      </text>
      <text x="26" y="186" style="clip-path:url(#clipPath9); stroke:none;">+stop:void
      </text>
      <text x="26" y="199" style="clip-path:url(#clipPath9); stroke:none;">+pause:void
      </text>
      <text x="26" y="212" style="clip-path:url(#clipPath9); stroke:none;">+unpause:void
      </text>
      <text x="26" y="225" style="clip-path:url(#clipPath9); stroke:none;">+isPaused:bool
      </text>
      <text x="26" y="238" style="clip-path:url(#clipPath9); stroke:none;">+setAmbient:void
      </text>
      <text x="26" y="251" style="clip-path:url(#clipPath9); stroke:none;">+isAmbient:bool
      </text>
      <text x="26" y="264" style="clip-path:url(#clipPath9); stroke:none;">+setPitchBend:void
      </text>
      <text x="26" y="277" style="clip-path:url(#clipPath9); stroke:none;">+setVolume:void
      </text>
      <text x="26" y="290" style="clip-path:url(#clipPath9); stroke:none;">+setCutoff:void
      </text>
      <text x="26" y="303" style="clip-path:url(#clipPath9); stroke:none;">+setPosition:void
      </text>
      <text x="26" y="316" style="clip-path:url(#clipPath9); stroke:none;">+getPosition:void
      </text>
      <text x="26" y="329" style="clip-path:url(#clipPath9); stroke:none;">+setListenerPosition:void
      </text>
      <text x="26" y="342" style="clip-path:url(#clipPath9); stroke:none;">+getListenerPosition:void
      </text>
      <text x="26" y="355" style="clip-path:url(#clipPath9); stroke:none;">+configure:void
      </text>
      <text x="26" y="368" style="clip-path:url(#clipPath9); stroke:none;">+remove:void
      </text>
    </g>
    <g style="fill:navy; font-family:sans-serif; stroke:navy;">
      <rect x="23" y="413" width="247" style="clip-path:url(#clipPath1); stroke:none;" height="247" />
      <rect x="20" y="410" width="247" style="clip-path:url(#clipPath1); fill:white; stroke:none;" height="247" />
      <rect x="20" y="410" width="247" style="clip-path:url(#clipPath1); fill:none; stroke:black;" height="247" />
    </g>
    <g style="font-family:sans-serif;">
      <text x="125" y="421" style="clip-path:url(#clipPath11); stroke:none;">struct
      </text>
      <text x="91" y="434" style="font-weight:bold; clip-path:url(#clipPath11); stroke:none;">snx::SoundInfo
      </text>
    </g>
    <g style="font-family:sans-serif;">
      <line x1="20" x2="267" y1="443" style="clip-path:url(#clipPath10); fill:none;" y2="443" />
    </g>
    <g style="font-family:sans-serif;">
      <text x="26" y="462" style="clip-path:url(#clipPath13); stroke:none;">+alias:std::string
      </text>
      <text x="26" y="475" style="clip-path:url(#clipPath13); stroke:none;">+datasource:DataSource
      </text>
      <text x="26" y="488" style="clip-path:url(#clipPath13); stroke:none;">+filename:std::string
      </text>
      <text x="26" y="501" style="clip-path:url(#clipPath13); stroke:none;">+position:gmtl::Vec3f
      </text>
      <text x="26" y="514" style="clip-path:url(#clipPath13); stroke:none;">+ambient:bool
      </text>
      <text x="26" y="527" style="clip-path:url(#clipPath13); stroke:none;">+retriggerable:bool
      </text>
      <text x="26" y="540" style="clip-path:url(#clipPath13); stroke:none;">+repeat:int
      </text>
      <text x="26" y="553" style="clip-path:url(#clipPath13); stroke:none;">+pitchbend:float
      </text>
      <text x="26" y="566" style="clip-path:url(#clipPath13); stroke:none;">+cutoff:float
      </text>
      <text x="26" y="579" style="clip-path:url(#clipPath13); stroke:none;">+volume:float
      </text>
    </g>
    <g style="font-family:sans-serif;">
      <line x1="20" x2="267" y1="589" style="clip-path:url(#clipPath10); fill:none;" y2="589" />
    </g>
    <g style="font-family:sans-serif;">
      <text x="26" y="608" style="clip-path:url(#clipPath15); stroke:none;">+SoundInfo
      </text>
    </g>
    <g style="font-family:sans-serif;">
      <line x1="20" x2="267" y1="618" style="clip-path:url(#clipPath10); fill:none;" y2="618" />
    </g>
    <g style="font-family:sans-serif;">
      <text x="26" y="637" style="clip-path:url(#clipPath17); stroke:none;"> DataSource
      </text>
    </g>
    <g style="fill:navy; font-family:sans-serif; stroke:navy;">
      <rect x="323" y="473" width="197" style="clip-path:url(#clipPath1); stroke:none;" height="108" />
      <rect x="320" y="470" width="197" style="clip-path:url(#clipPath1); fill:white; stroke:none;" height="108" />
      <rect x="320" y="470" width="197" style="clip-path:url(#clipPath1); fill:none; stroke:black;" height="108" />
    </g>
    <g style="font-family:sans-serif;">
      <text x="321" y="481" style="clip-path:url(#clipPath19); stroke:none;">snx::Singleton&lt;SoundFactory&gt;
      </text>
      <text x="354" y="494" style="font-weight:bold; clip-path:url(#clipPath19); stroke:none;">snx::SoundFactory
      </text>
    </g>
    <g style="font-family:sans-serif;">
      <line x1="320" x2="517" y1="503" style="clip-path:url(#clipPath18); fill:none;" y2="503" />
    </g>
    <g style="font-family:sans-serif;">
      <text x="326" y="522" style="clip-path:url(#clipPath21); stroke:none;">+mRegisteredImplementations:std::map&lt; std::string, snx::SoundImplementation* &gt;
      </text>
    </g>
    <g style="font-family:sans-serif;">
      <line x1="320" x2="517" y1="532" style="clip-path:url(#clipPath18); fill:none;" y2="532" />
    </g>
    <g style="font-family:sans-serif;">
      <text x="326" y="551" style="clip-path:url(#clipPath23); stroke:none;">+createImplementation:void
      </text>
      <text x="326" y="564" style="clip-path:url(#clipPath23); stroke:none;">+reg:void
      </text>
    </g>
    <g style="fill:navy; font-family:sans-serif; stroke:navy;">
      <rect x="573" y="23" width="247" style="clip-path:url(#clipPath1); stroke:none;" height="617" />
      <rect x="570" y="20" width="247" style="clip-path:url(#clipPath1); fill:white; stroke:none;" height="617" />
      <rect x="570" y="20" width="247" style="clip-path:url(#clipPath1); fill:none; stroke:black;" height="617" />
    </g>
    <g style="font-style:italic; font-weight:bold; font-family:sans-serif;">
      <text x="599" y="31" style="clip-path:url(#clipPath25); stroke:none;">snx::SoundImplementation
      </text>
    </g>
    <g style="font-family:sans-serif;">
      <line x1="570" x2="817" y1="40" style="clip-path:url(#clipPath24); fill:none;" y2="40" />
      <line x1="570" x2="817" y1="63" style="clip-path:url(#clipPath24); fill:none;" y2="63" />
    </g>
    <g style="font-family:sans-serif;">
      <text x="576" y="82" style="clip-path:url(#clipPath27); stroke:none;">+SoundImplementation
      </text>
      <text x="576" y="95" style="font-style:italic; clip-path:url(#clipPath27); stroke:none;">+clone:void
      </text>
      <text x="576" y="108" style="clip-path:url(#clipPath27); stroke:none;">+~SoundImplementation
      </text>
      <text x="576" y="121" style="clip-path:url(#clipPath27); stroke:none;">+copy:void
      </text>
      <text x="576" y="134" style="clip-path:url(#clipPath27); stroke:none;">+trigger:void
      </text>
      <text x="576" y="147" style="clip-path:url(#clipPath27); stroke:none;">+isPlaying:bool
      </text>
      <text x="576" y="160" style="clip-path:url(#clipPath27); stroke:none;">+setRetriggerable:void
      </text>
      <text x="576" y="173" style="clip-path:url(#clipPath27); stroke:none;">+isRetriggerable:bool
      </text>
      <text x="576" y="186" style="clip-path:url(#clipPath27); stroke:none;">+stop:void
      </text>
      <text x="576" y="199" style="clip-path:url(#clipPath27); stroke:none;">+pause:void
      </text>
      <text x="576" y="212" style="clip-path:url(#clipPath27); stroke:none;">+unpause:void
      </text>
      <text x="576" y="225" style="clip-path:url(#clipPath27); stroke:none;">+isPaused:bool
      </text>
      <text x="576" y="238" style="clip-path:url(#clipPath27); stroke:none;">+setAmbient:void
      </text>
      <text x="576" y="251" style="clip-path:url(#clipPath27); stroke:none;">+isAmbient:bool
      </text>
      <text x="576" y="264" style="clip-path:url(#clipPath27); stroke:none;">+setPitchBend:void
      </text>
      <text x="576" y="277" style="clip-path:url(#clipPath27); stroke:none;">+setVolume:void
      </text>
      <text x="576" y="290" style="clip-path:url(#clipPath27); stroke:none;">+setCutoff:void
      </text>
      <text x="576" y="303" style="clip-path:url(#clipPath27); stroke:none;">+setPosition:void
      </text>
      <text x="576" y="316" style="clip-path:url(#clipPath27); stroke:none;">+getPosition:void
      </text>
      <text x="576" y="329" style="clip-path:url(#clipPath27); stroke:none;">+setListenerPosition:void
      </text>
      <text x="576" y="342" style="clip-path:url(#clipPath27); stroke:none;">+getListenerPosition:void
      </text>
      <text x="576" y="355" style="font-style:italic; clip-path:url(#clipPath27); stroke:none;">+startAPI:void
      </text>
      <text x="576" y="368" style="font-style:italic; clip-path:url(#clipPath27); stroke:none;">+isStarted:bool
      </text>
      <text x="576" y="381" style="clip-path:url(#clipPath27); stroke:none;">+shutdownAPI:void
      </text>
      <text x="576" y="394" style="clip-path:url(#clipPath27); stroke:none;">+configure:void
      </text>
      <text x="576" y="407" style="clip-path:url(#clipPath27); stroke:none;">+configure:void
      </text>
      <text x="576" y="420" style="clip-path:url(#clipPath27); stroke:none;">+remove:void
      </text>
      <text x="576" y="433" style="clip-path:url(#clipPath27); stroke:none;">+step:void
      </text>
      <text x="576" y="446" style="clip-path:url(#clipPath27); stroke:none;">+clear:void
      </text>
      <text x="576" y="459" style="clip-path:url(#clipPath27); stroke:none;">+bindAll:void
      </text>
      <text x="576" y="472" style="clip-path:url(#clipPath27); stroke:none;">+unbindAll:void
      </text>
      <text x="576" y="485" style="font-style:italic; clip-path:url(#clipPath27); stroke:none;">+bind:void
      </text>
      <text x="576" y="498" style="font-style:italic; clip-path:url(#clipPath27); stroke:none;">+unbind:void
      </text>
      <text x="576" y="511" style="clip-path:url(#clipPath27); stroke:none;">+lookup:snx::SoundInfo &amp;
      </text>
      <text x="576" y="524" style="clip-path:url(#clipPath27); stroke:none;">+setName:void
      </text>
      <text x="576" y="537" style="clip-path:url(#clipPath27); stroke:none;">+name:std::string &amp;
      </text>
    </g>
  </g>
</svg>
