<?xml version="1.0" encoding="UTF-8"?>

<!DOCTYPE svg PUBLIC '-//W3C//DTD SVG 20001102//EN' 'http://www.w3.org/TR/2000/CR-SVG-20001102/DTD/svg-20001102.dtd'>
<svg style="fill-opacity:1; color-interpolation:sRGB; color-rendering:auto; text-rendering:auto; stroke:black; stroke-linecap:square; stroke-miterlimit:10; stroke-opacity:1; shape-rendering:auto; fill:black; stroke-dasharray:none; font-weight:normal; stroke-width:1; font-family:&apos;Lucida Sans&apos;; font-style:normal; stroke-linejoin:miter; font-size:12; image-rendering:auto; stroke-dashoffset:0;" width="473" height="621">
  <!--Generated by the Batik Graphics2D SVG Generator-->
  <defs id="genericDefs" />
  <g>
    <defs id="defs1">
      <clipPath clipPathUnits="userSpaceOnUse" id="clipPath1">
        <path d="M0 0 L473 0 L473 621 L0 621 L0 0 Z" />
      </clipPath>
      <clipPath clipPathUnits="userSpaceOnUse" id="clipPath2">
        <path d="M204 20 L204 238 L382 238 L382 20 Z" />
      </clipPath>
      <clipPath clipPathUnits="userSpaceOnUse" id="clipPath3">
        <path d="M205 21 L205 66 L382 66 L382 21 Z" />
      </clipPath>
      <clipPath clipPathUnits="userSpaceOnUse" id="clipPath4">
        <path d="M204 91 L204 227 L382 227 L382 91 Z" />
      </clipPath>
      <clipPath clipPathUnits="userSpaceOnUse" id="clipPath5">
        <path d="M206 93 L206 226 L381 226 L381 93 Z" />
      </clipPath>
      <clipPath clipPathUnits="userSpaceOnUse" id="clipPath6">
        <path d="M90 280 L90 438 L280 438 L280 280 Z" />
      </clipPath>
      <clipPath clipPathUnits="userSpaceOnUse" id="clipPath7">
        <path d="M91 281 L91 304 L280 304 L280 281 Z" />
      </clipPath>
      <clipPath clipPathUnits="userSpaceOnUse" id="clipPath8">
        <path d="M90 329 L90 421 L280 421 L280 329 Z" />
      </clipPath>
      <clipPath clipPathUnits="userSpaceOnUse" id="clipPath9">
        <path d="M92 331 L92 420 L279 420 L279 331 Z" />
      </clipPath>
      <clipPath clipPathUnits="userSpaceOnUse" id="clipPath10">
        <path d="M302 280 L302 418 L460 418 L460 280 Z" />
      </clipPath>
      <clipPath clipPathUnits="userSpaceOnUse" id="clipPath11">
        <path d="M303 281 L303 304 L460 304 L460 281 Z" />
      </clipPath>
      <clipPath clipPathUnits="userSpaceOnUse" id="clipPath12">
        <path d="M302 329 L302 399 L460 399 L460 329 Z" />
      </clipPath>
      <clipPath clipPathUnits="userSpaceOnUse" id="clipPath13">
        <path d="M304 331 L304 398 L459 398 L459 331 Z" />
      </clipPath>
      <clipPath clipPathUnits="userSpaceOnUse" id="clipPath14">
        <path d="M20 480 L20 588 L188 588 L188 480 Z" />
      </clipPath>
      <clipPath clipPathUnits="userSpaceOnUse" id="clipPath15">
        <path d="M21 481 L21 504 L188 504 L188 481 Z" />
      </clipPath>
      <clipPath clipPathUnits="userSpaceOnUse" id="clipPath16">
        <path d="M20 529 L20 577 L188 577 L188 529 Z" />
      </clipPath>
      <clipPath clipPathUnits="userSpaceOnUse" id="clipPath17">
        <path d="M22 531 L22 576 L187 576 L187 531 Z" />
      </clipPath>
      <clipPath clipPathUnits="userSpaceOnUse" id="clipPath18">
        <path d="M210 480 L210 608 L408 608 L408 480 Z" />
      </clipPath>
      <clipPath clipPathUnits="userSpaceOnUse" id="clipPath19">
        <path d="M211 481 L211 504 L408 504 L408 481 Z" />
      </clipPath>
      <clipPath clipPathUnits="userSpaceOnUse" id="clipPath20">
        <path d="M210 529 L210 577 L408 577 L408 529 Z" />
      </clipPath>
      <clipPath clipPathUnits="userSpaceOnUse" id="clipPath21">
        <path d="M212 531 L212 576 L407 576 L407 531 Z" />
      </clipPath>
    </defs>
    <g style="fill:rgb(0,64,64); stroke:rgb(0,64,64);">
      <line x1="343" x2="343" y1="280" style="clip-path:url(#clipPath1); fill:none;" y2="240" />
      <line x1="243" x2="243" y1="280" style="clip-path:url(#clipPath1); fill:none;" y2="240" />
      <line x1="246" x2="246" y1="480" style="clip-path:url(#clipPath1); fill:none;" y2="440" />
      <line x1="140" x2="140" y1="480" style="clip-path:url(#clipPath1); fill:none;" y2="440" />
      <polygon style="fill:white; clip-path:url(#clipPath1); stroke:none;" points=" 343 240 349 258 337 258" />
      <polygon style="fill:none; clip-path:url(#clipPath1);" points=" 343 240 349 258 337 258" />
      <line x1="337" x2="343" y1="258" style="clip-path:url(#clipPath1); fill:none;" y2="240" />
      <polygon style="fill:white; clip-path:url(#clipPath1); stroke:none;" points=" 243 240 249 258 237 258" />
      <polygon style="fill:none; clip-path:url(#clipPath1);" points=" 243 240 249 258 237 258" />
      <line x1="237" x2="243" y1="258" style="clip-path:url(#clipPath1); fill:none;" y2="240" />
      <polygon style="fill:white; clip-path:url(#clipPath1); stroke:none;" points=" 246 440 252 458 240 458" />
      <polygon style="fill:none; clip-path:url(#clipPath1);" points=" 246 440 252 458 240 458" />
      <line x1="240" x2="246" y1="458" style="clip-path:url(#clipPath1); fill:none;" y2="440" />
      <polygon style="fill:white; clip-path:url(#clipPath1); stroke:none;" points=" 140 440 146 458 134 458" />
      <polygon style="fill:none; clip-path:url(#clipPath1);" points=" 140 440 146 458 134 458" />
      <line x1="134" x2="140" y1="458" style="clip-path:url(#clipPath1); fill:none;" y2="440" />
      <rect x="207" y="23" width="177" style="clip-path:url(#clipPath1); fill:navy; stroke:none;" height="217" />
      <rect x="204" y="20" width="177" style="clip-path:url(#clipPath1); fill:white; stroke:none;" height="217" />
      <rect x="204" y="20" width="177" style="clip-path:url(#clipPath1); fill:none; stroke:black;" height="217" />
    </g>
    <g style="font-family:sans-serif;">
      <text x="216" y="38" style="clip-path:url(#clipPath3); stroke:none;">jccl::ConfigChunkHandler
      </text>
      <text x="265" y="60" style="clip-path:url(#clipPath3); font-style:italic; stroke:none; font-weight:bold;">vrj::App
      </text>
    </g>
    <g>
      <line x1="204" x2="381" y1="71" style="clip-path:url(#clipPath2); fill:none;" y2="71" />
      <line x1="204" x2="381" y1="84" style="clip-path:url(#clipPath2); fill:none;" y2="84" />
    </g>
    <g style="font-family:sans-serif;">
      <text x="210" y="110" style="clip-path:url(#clipPath5); stroke:none;">+init:void
      </text>
      <text x="210" y="132" style="clip-path:url(#clipPath5); stroke:none;">+apiInit:void
      </text>
      <text x="210" y="154" style="clip-path:url(#clipPath5); stroke:none;">+exit:void
      </text>
      <text x="210" y="176" style="clip-path:url(#clipPath5); stroke:none;">+preFrame:void
      </text>
      <text x="210" y="198" style="clip-path:url(#clipPath5); stroke:none;">+intraFrame:void
      </text>
      <text x="210" y="220" style="clip-path:url(#clipPath5); stroke:none;">+postFrame:void
      </text>
    </g>
    <g style="fill:navy; stroke:navy;">
      <rect x="93" y="283" width="189" style="clip-path:url(#clipPath1); stroke:none;" height="157" />
      <rect x="90" y="280" width="189" style="clip-path:url(#clipPath1); fill:white; stroke:none;" height="157" />
      <rect x="90" y="280" width="189" style="clip-path:url(#clipPath1); fill:none; stroke:black;" height="157" />
    </g>
    <g style="font-style:italic; font-weight:bold; font-family:sans-serif;">
      <text x="150" y="298" style="clip-path:url(#clipPath7); stroke:none;">vrj::GlApp
      </text>
    </g>
    <g>
      <line x1="90" x2="279" y1="309" style="clip-path:url(#clipPath6); fill:none;" y2="309" />
      <line x1="90" x2="279" y1="322" style="clip-path:url(#clipPath6); fill:none;" y2="322" />
    </g>
    <g style="font-family:sans-serif;">
      <text x="96" y="348" style="clip-path:url(#clipPath9); stroke:none;">+getDrawScaleFactor:float
      </text>
      <text x="96" y="370" style="font-style:italic; clip-path:url(#clipPath9); stroke:none;">+draw:void
      </text>
      <text x="96" y="392" style="clip-path:url(#clipPath9); stroke:none;">+contextInit:void
      </text>
      <text x="96" y="414" style="clip-path:url(#clipPath9); stroke:none;">+bufferPreDraw:void
      </text>
    </g>
    <g style="fill:navy; stroke:navy;">
      <rect x="305" y="283" width="157" style="clip-path:url(#clipPath1); stroke:none;" height="137" />
      <rect x="302" y="280" width="157" style="clip-path:url(#clipPath1); fill:white; stroke:none;" height="137" />
      <rect x="302" y="280" width="157" style="clip-path:url(#clipPath1); fill:none; stroke:black;" height="137" />
    </g>
    <g style="font-style:italic; font-weight:bold; font-family:sans-serif;">
      <text x="346" y="298" style="clip-path:url(#clipPath11); stroke:none;">vrj::PfApp
      </text>
    </g>
    <g>
      <line x1="302" x2="459" y1="309" style="clip-path:url(#clipPath10); fill:none;" y2="309" />
      <line x1="302" x2="459" y1="322" style="clip-path:url(#clipPath10); fill:none;" y2="322" />
    </g>
    <g style="font-family:sans-serif; font-style:italic;">
      <text x="308" y="348" style="clip-path:url(#clipPath13); stroke:none;">+initScene:void
      </text>
      <text x="308" y="370" style="clip-path:url(#clipPath13); stroke:none;">+getScene:pfGroup *
      </text>
      <text x="308" y="392" style="font-style:normal; clip-path:url(#clipPath13); stroke:none;">+drawChan:void
      </text>
    </g>
    <g style="fill:navy; stroke:navy;">
      <rect x="23" y="483" width="167" style="clip-path:url(#clipPath1); stroke:none;" height="107" />
      <rect x="20" y="480" width="167" style="clip-path:url(#clipPath1); fill:white; stroke:none;" height="107" />
      <rect x="20" y="480" width="167" style="clip-path:url(#clipPath1); fill:none; stroke:black;" height="107" />
    </g>
    <g style="font-style:italic; font-weight:bold; font-family:sans-serif;">
      <text x="62" y="498" style="clip-path:url(#clipPath15); stroke:none;">vrj::OsgApp
      </text>
    </g>
    <g>
      <line x1="20" x2="187" y1="509" style="clip-path:url(#clipPath14); fill:none;" y2="509" />
      <line x1="20" x2="187" y1="522" style="clip-path:url(#clipPath14); fill:none;" y2="522" />
    </g>
    <g style="font-family:sans-serif; font-style:italic;">
      <text x="26" y="548" style="clip-path:url(#clipPath17); stroke:none;">+initScene:void
      </text>
      <text x="26" y="570" style="clip-path:url(#clipPath17); stroke:none;">+getScene:osg::Group *
      </text>
    </g>
    <g style="fill:navy; stroke:navy;">
      <rect x="213" y="483" width="197" style="clip-path:url(#clipPath1); stroke:none;" height="127" />
      <rect x="210" y="480" width="197" style="clip-path:url(#clipPath1); fill:white; stroke:none;" height="127" />
      <rect x="210" y="480" width="197" style="clip-path:url(#clipPath1); fill:none; stroke:black;" height="127" />
    </g>
    <g style="font-style:italic; font-weight:bold; font-family:sans-serif;">
      <text x="254" y="498" style="clip-path:url(#clipPath19); stroke:none;">vrj::OpenSGApp
      </text>
    </g>
    <g>
      <line x1="210" x2="407" y1="509" style="clip-path:url(#clipPath18); fill:none;" y2="509" />
      <line x1="210" x2="407" y1="522" style="clip-path:url(#clipPath18); fill:none;" y2="522" />
    </g>
    <g style="font-family:sans-serif; font-style:italic;">
      <text x="216" y="548" style="clip-path:url(#clipPath21); stroke:none;">+initScene:void
      </text>
      <text x="216" y="570" style="clip-path:url(#clipPath21); stroke:none;">+getSceneRoot:OSG::NodePtr
      </text>
    </g>
    <g>
      <line x1="210" x2="407" y1="582" style="clip-path:url(#clipPath18); fill:none;" y2="582" />
    </g>
  </g>
</svg>
