<?xml version="1.0" encoding="UTF-8"?>

<!DOCTYPE svg PUBLIC '-//W3C//DTD SVG 20001102//EN' 'http://www.w3.org/TR/2000/CR-SVG-20001102/DTD/svg-20001102.dtd'>
<svg style="fill-opacity:1; color-interpolation:sRGB; color-rendering:auto; text-rendering:auto; stroke:black; stroke-linecap:square; stroke-miterlimit:10; stroke-opacity:1; shape-rendering:auto; fill:black; stroke-dasharray:none; font-weight:normal; stroke-width:1; font-family:&apos;Lucida Sans&apos;; font-style:normal; stroke-linejoin:miter; font-size:12; image-rendering:auto; stroke-dashoffset:0;" width="551" height="281">
  <!--Generated by the Batik Graphics2D SVG Generator-->
  <defs id="genericDefs" />
  <g>
    <defs id="defs1">
      <clipPath clipPathUnits="userSpaceOnUse" id="clipPath1">
        <path d="M0 0 L551 0 L551 281 L0 281 L0 0 Z" />
      </clipPath>
      <clipPath clipPathUnits="userSpaceOnUse" id="clipPath2">
        <path d="M310 20 L310 268 L538 268 L538 20 Z" />
      </clipPath>
      <clipPath clipPathUnits="userSpaceOnUse" id="clipPath3">
        <path d="M311 21 L311 44 L538 44 L538 21 Z" />
      </clipPath>
      <clipPath clipPathUnits="userSpaceOnUse" id="clipPath4">
        <path d="M310 69 L310 249 L538 249 L538 69 Z" />
      </clipPath>
      <clipPath clipPathUnits="userSpaceOnUse" id="clipPath5">
        <path d="M312 71 L312 248 L537 248 L537 71 Z" />
      </clipPath>
      <clipPath clipPathUnits="userSpaceOnUse" id="clipPath6">
        <path d="M20 30 L20 248 L258 248 L258 30 Z" />
      </clipPath>
      <clipPath clipPathUnits="userSpaceOnUse" id="clipPath7">
        <path d="M21 31 L21 76 L258 76 L258 31 Z" />
      </clipPath>
      <clipPath clipPathUnits="userSpaceOnUse" id="clipPath8">
        <path d="M20 101 L20 237 L258 237 L258 101 Z" />
      </clipPath>
      <clipPath clipPathUnits="userSpaceOnUse" id="clipPath9">
        <path d="M22 103 L22 236 L257 236 L257 103 Z" />
      </clipPath>
    </defs>
    <g style="fill:rgb(0,64,64); stroke:rgb(0,64,64);">
      <line x1="310" x2="260" y1="130" style="clip-path:url(#clipPath1); fill:none;" y2="130" />
      <polygon style="fill:white; clip-path:url(#clipPath1); stroke:none;" points=" 260 130 278 124 278 136" />
      <polygon style="fill:none; clip-path:url(#clipPath1);" points=" 260 130 278 124 278 136" />
      <line x1="278" x2="260" y1="136" style="clip-path:url(#clipPath1); fill:none;" y2="130" />
      <rect x="313" y="23" width="227" style="clip-path:url(#clipPath1); fill:navy; stroke:none;" height="247" />
      <rect x="310" y="20" width="227" style="clip-path:url(#clipPath1); fill:white; stroke:none;" height="247" />
      <rect x="310" y="20" width="227" style="clip-path:url(#clipPath1); fill:none; stroke:black;" height="247" />
    </g>
    <g style="font-style:italic; font-weight:bold; font-family:sans-serif;">
      <text x="389" y="38" style="clip-path:url(#clipPath3); stroke:none;">vrj::GlApp
      </text>
    </g>
    <g>
      <line x1="310" x2="537" y1="49" style="clip-path:url(#clipPath2); fill:none;" y2="49" />
      <line x1="310" x2="537" y1="62" style="clip-path:url(#clipPath2); fill:none;" y2="62" />
    </g>
    <g style="font-family:sans-serif;">
      <text x="316" y="88" style="clip-path:url(#clipPath5); stroke:none;">+getDrawScaleFactor:float
      </text>
      <text x="316" y="110" style="font-style:italic; clip-path:url(#clipPath5); stroke:none;">+draw:void
      </text>
      <text x="316" y="132" style="clip-path:url(#clipPath5); stroke:none;">+contextInit:void
      </text>
      <text x="316" y="154" style="clip-path:url(#clipPath5); stroke:none;">+contextClose:void
      </text>
      <text x="316" y="176" style="clip-path:url(#clipPath5); stroke:none;">+contextPreDraw:void
      </text>
      <text x="316" y="198" style="clip-path:url(#clipPath5); stroke:none;">+contextPostDraw:void
      </text>
      <text x="316" y="220" style="clip-path:url(#clipPath5); stroke:none;">+bufferPreDraw:void
      </text>
      <text x="316" y="242" style="clip-path:url(#clipPath5); stroke:none;">+pipePreDraw:void
      </text>
    </g>
    <g style="fill:navy; stroke:navy;">
      <rect x="23" y="33" width="237" style="clip-path:url(#clipPath1); stroke:none;" height="217" />
      <rect x="20" y="30" width="237" style="clip-path:url(#clipPath1); fill:white; stroke:none;" height="217" />
      <rect x="20" y="30" width="237" style="clip-path:url(#clipPath1); fill:none; stroke:black;" height="217" />
    </g>
    <g style="font-family:sans-serif;">
      <text x="92" y="48" style="clip-path:url(#clipPath7); stroke:none;">jccl::ConfigChunkHandler
      </text>
      <text x="111" y="70" style="clip-path:url(#clipPath7); font-style:italic; stroke:none; font-weight:bold;">vrj::App
      </text>
    </g>
    <g>
      <line x1="20" x2="257" y1="81" style="clip-path:url(#clipPath6); fill:none;" y2="81" />
      <line x1="20" x2="257" y1="94" style="clip-path:url(#clipPath6); fill:none;" y2="94" />
    </g>
    <g style="font-family:sans-serif;">
      <text x="26" y="120" style="clip-path:url(#clipPath9); stroke:none;">+init:void
      </text>
      <text x="26" y="142" style="clip-path:url(#clipPath9); stroke:none;">+apiInit:void
      </text>
      <text x="26" y="164" style="clip-path:url(#clipPath9); stroke:none;">+exit:void
      </text>
      <text x="26" y="186" style="clip-path:url(#clipPath9); stroke:none;">+preFrame:void
      </text>
      <text x="26" y="208" style="clip-path:url(#clipPath9); stroke:none;">+intraFrame:void
      </text>
      <text x="26" y="230" style="clip-path:url(#clipPath9); stroke:none;">+postFrame:void
      </text>
    </g>
  </g>
</svg>
