<?xml version="1.0" encoding="UTF-8"?>

<!DOCTYPE svg PUBLIC '-//W3C//DTD SVG 20001102//EN' 'http://www.w3.org/TR/2000/CR-SVG-20001102/DTD/svg-20001102.dtd'>
<svg style="fill-opacity:1; color-interpolation:sRGB; color-rendering:auto; text-rendering:auto; stroke:black; stroke-linecap:square; stroke-miterlimit:10; stroke-opacity:1; shape-rendering:auto; fill:black; stroke-dasharray:none; font-weight:normal; stroke-width:1; font-family:&apos;Lucida Sans&apos;; font-style:normal; stroke-linejoin:miter; font-size:12; image-rendering:auto; stroke-dashoffset:0;" width="809" height="680">
  <!--Generated by the Batik Graphics2D SVG Generator-->
  <defs id="genericDefs" />
  <g>
    <defs id="defs1">
      <clipPath clipPathUnits="userSpaceOnUse" id="clipPath1">
        <path d="M0 0 L809 0 L809 680 L0 680 L0 0 Z" />
      </clipPath>
      <clipPath clipPathUnits="userSpaceOnUse" id="clipPath2">
        <path d="M220 50 L220 116 L308 116 L308 50 Z" />
      </clipPath>
      <clipPath clipPathUnits="userSpaceOnUse" id="clipPath3">
        <path d="M220 50 L220 106 L308 106 L308 50 Z" />
      </clipPath>
      <clipPath clipPathUnits="userSpaceOnUse" id="clipPath4">
        <path d="M410 50 L410 116 L498 116 L498 50 Z" />
      </clipPath>
      <clipPath clipPathUnits="userSpaceOnUse" id="clipPath5">
        <path d="M410 50 L410 106 L498 106 L498 50 Z" />
      </clipPath>
      <clipPath clipPathUnits="userSpaceOnUse" id="clipPath6">
        <path d="M540 50 L540 116 L657 116 L657 50 Z" />
      </clipPath>
      <clipPath clipPathUnits="userSpaceOnUse" id="clipPath7">
        <path d="M540 50 L540 106 L657 106 L657 50 Z" />
      </clipPath>
      <clipPath clipPathUnits="userSpaceOnUse" id="clipPath8">
        <path d="M690 50 L690 116 L796 116 L796 50 Z" />
      </clipPath>
      <clipPath clipPathUnits="userSpaceOnUse" id="clipPath9">
        <path d="M690 50 L690 106 L796 106 L796 50 Z" />
      </clipPath>
      <clipPath clipPathUnits="userSpaceOnUse" id="clipPath10">
        <path d="M204 294 L204 312 L321 312 L321 294 Z" />
      </clipPath>
    </defs>
    <g style="fill:navy; stroke:navy;">
      <rect x="223" y="53" width="87" style="clip-path:url(#clipPath1); stroke:none;" height="65" />
      <rect x="220" y="50" width="87" style="clip-path:url(#clipPath1); fill:white; stroke:none;" height="65" />
      <rect x="220" y="50" width="87" style="clip-path:url(#clipPath1); fill:none; stroke:black;" height="65" />
    </g>
    <g style="font-family:sans-serif;">
      <text x="238" y="73" style="clip-path:url(#clipPath3); stroke:none;">vjKernel
      </text>
    </g>
    <g>
      <rect x="258" y="119" width="14" style="clip-path:url(#clipPath1); fill:none;" height="549" />
      <rect x="259" y="120" width="13" style="clip-path:url(#clipPath1); fill:white; stroke:none;" height="548" />
      <rect x="413" y="53" width="87" style="clip-path:url(#clipPath1); fill:navy; stroke:none;" height="65" />
      <rect x="410" y="50" width="87" style="clip-path:url(#clipPath1); fill:white; stroke:none;" height="65" />
      <rect x="410" y="50" width="87" style="clip-path:url(#clipPath1); fill:none;" height="65" />
    </g>
    <g style="font-family:sans-serif;">
      <text x="429" y="73" style="clip-path:url(#clipPath5); stroke:none;">vjGlApp
      </text>
    </g>
    <g>
      <line x1="455" x2="455" y1="118" style="clip-path:url(#clipPath1); fill:none;" y2="128" />
      <line x1="455" x2="455" y1="133" style="clip-path:url(#clipPath1); fill:none;" y2="143" />
      <line x1="455" x2="455" y1="148" style="clip-path:url(#clipPath1); fill:none;" y2="158" />
      <line x1="455" x2="455" y1="163" style="clip-path:url(#clipPath1); fill:none;" y2="173" />
      <line x1="455" x2="455" y1="178" style="clip-path:url(#clipPath1); fill:none;" y2="188" />
      <line x1="455" x2="455" y1="193" style="clip-path:url(#clipPath1); fill:none;" y2="203" />
      <line x1="455" x2="455" y1="208" style="clip-path:url(#clipPath1); fill:none;" y2="218" />
      <line x1="455" x2="455" y1="223" style="clip-path:url(#clipPath1); fill:none;" y2="233" />
      <line x1="455" x2="455" y1="238" style="clip-path:url(#clipPath1); fill:none;" y2="248" />
      <line x1="455" x2="455" y1="253" style="clip-path:url(#clipPath1); fill:none;" y2="263" />
      <line x1="455" x2="455" y1="268" style="clip-path:url(#clipPath1); fill:none;" y2="278" />
      <line x1="455" x2="455" y1="283" style="clip-path:url(#clipPath1); fill:none;" y2="293" />
      <line x1="455" x2="455" y1="298" style="clip-path:url(#clipPath1); fill:none;" y2="308" />
      <line x1="455" x2="455" y1="313" style="clip-path:url(#clipPath1); fill:none;" y2="323" />
      <line x1="455" x2="455" y1="328" style="clip-path:url(#clipPath1); fill:none;" y2="338" />
      <line x1="455" x2="455" y1="343" style="clip-path:url(#clipPath1); fill:none;" y2="353" />
      <line x1="455" x2="455" y1="358" style="clip-path:url(#clipPath1); fill:none;" y2="368" />
      <line x1="455" x2="455" y1="373" style="clip-path:url(#clipPath1); fill:none;" y2="383" />
      <line x1="455" x2="455" y1="388" style="clip-path:url(#clipPath1); fill:none;" y2="398" />
      <line x1="455" x2="455" y1="403" style="clip-path:url(#clipPath1); fill:none;" y2="413" />
      <line x1="455" x2="455" y1="418" style="clip-path:url(#clipPath1); fill:none;" y2="428" />
      <line x1="455" x2="455" y1="433" style="clip-path:url(#clipPath1); fill:none;" y2="443" />
      <line x1="455" x2="455" y1="448" style="clip-path:url(#clipPath1); fill:none;" y2="458" />
      <line x1="455" x2="455" y1="463" style="clip-path:url(#clipPath1); fill:none;" y2="473" />
      <line x1="455" x2="455" y1="478" style="clip-path:url(#clipPath1); fill:none;" y2="488" />
      <line x1="455" x2="455" y1="493" style="clip-path:url(#clipPath1); fill:none;" y2="503" />
      <line x1="455" x2="455" y1="508" style="clip-path:url(#clipPath1); fill:none;" y2="518" />
      <line x1="455" x2="455" y1="523" style="clip-path:url(#clipPath1); fill:none;" y2="533" />
      <line x1="455" x2="455" y1="538" style="clip-path:url(#clipPath1); fill:none;" y2="548" />
      <line x1="455" x2="455" y1="553" style="clip-path:url(#clipPath1); fill:none;" y2="563" />
      <line x1="455" x2="455" y1="568" style="clip-path:url(#clipPath1); fill:none;" y2="578" />
      <line x1="455" x2="455" y1="583" style="clip-path:url(#clipPath1); fill:none;" y2="593" />
      <line x1="455" x2="455" y1="598" style="clip-path:url(#clipPath1); fill:none;" y2="608" />
      <line x1="455" x2="455" y1="613" style="clip-path:url(#clipPath1); fill:none;" y2="623" />
      <line x1="455" x2="455" y1="628" style="clip-path:url(#clipPath1); fill:none;" y2="638" />
      <line x1="455" x2="455" y1="643" style="clip-path:url(#clipPath1); fill:none;" y2="653" />
      <line x1="455" x2="455" y1="658" style="clip-path:url(#clipPath1); fill:none;" y2="668" />
      <rect x="448" y="148" width="14" style="clip-path:url(#clipPath1); fill:none;" height="20" />
      <rect x="449" y="149" width="13" style="clip-path:url(#clipPath1); fill:white; stroke:none;" height="19" />
      <rect x="448" y="250" width="14" style="clip-path:url(#clipPath1); fill:none;" height="20" />
      <rect x="449" y="251" width="13" style="clip-path:url(#clipPath1); fill:white; stroke:none;" height="19" />
      <rect x="448" y="340" width="14" style="clip-path:url(#clipPath1); fill:none;" height="20" />
      <rect x="449" y="341" width="13" style="clip-path:url(#clipPath1); fill:white; stroke:none;" height="19" />
      <rect x="448" y="420" width="14" style="clip-path:url(#clipPath1); fill:none;" height="20" />
      <rect x="449" y="421" width="13" style="clip-path:url(#clipPath1); fill:white; stroke:none;" height="19" />
      <rect x="448" y="516" width="14" style="clip-path:url(#clipPath1); fill:none;" height="20" />
      <rect x="449" y="517" width="13" style="clip-path:url(#clipPath1); fill:white; stroke:none;" height="19" />
      <rect x="543" y="53" width="116" style="clip-path:url(#clipPath1); fill:navy; stroke:none;" height="65" />
      <rect x="540" y="50" width="116" style="clip-path:url(#clipPath1); fill:white; stroke:none;" height="65" />
      <rect x="540" y="50" width="116" style="clip-path:url(#clipPath1); fill:none;" height="65" />
    </g>
    <g style="font-family:sans-serif;">
      <text x="544" y="73" style="clip-path:url(#clipPath7); stroke:none;">vjGlDrawManager
      </text>
    </g>
    <g>
      <line x1="599" x2="599" y1="118" style="clip-path:url(#clipPath1); fill:none;" y2="128" />
      <line x1="599" x2="599" y1="133" style="clip-path:url(#clipPath1); fill:none;" y2="143" />
      <line x1="599" x2="599" y1="148" style="clip-path:url(#clipPath1); fill:none;" y2="158" />
      <line x1="599" x2="599" y1="163" style="clip-path:url(#clipPath1); fill:none;" y2="173" />
      <line x1="599" x2="599" y1="178" style="clip-path:url(#clipPath1); fill:none;" y2="188" />
      <line x1="599" x2="599" y1="193" style="clip-path:url(#clipPath1); fill:none;" y2="203" />
      <line x1="599" x2="599" y1="208" style="clip-path:url(#clipPath1); fill:none;" y2="218" />
      <line x1="599" x2="599" y1="223" style="clip-path:url(#clipPath1); fill:none;" y2="233" />
      <line x1="599" x2="599" y1="238" style="clip-path:url(#clipPath1); fill:none;" y2="248" />
      <line x1="599" x2="599" y1="253" style="clip-path:url(#clipPath1); fill:none;" y2="263" />
      <line x1="599" x2="599" y1="268" style="clip-path:url(#clipPath1); fill:none;" y2="278" />
      <line x1="599" x2="599" y1="283" style="clip-path:url(#clipPath1); fill:none;" y2="293" />
      <line x1="599" x2="599" y1="298" style="clip-path:url(#clipPath1); fill:none;" y2="308" />
      <line x1="599" x2="599" y1="313" style="clip-path:url(#clipPath1); fill:none;" y2="323" />
      <line x1="599" x2="599" y1="328" style="clip-path:url(#clipPath1); fill:none;" y2="338" />
      <line x1="599" x2="599" y1="343" style="clip-path:url(#clipPath1); fill:none;" y2="353" />
      <line x1="599" x2="599" y1="358" style="clip-path:url(#clipPath1); fill:none;" y2="368" />
      <line x1="599" x2="599" y1="373" style="clip-path:url(#clipPath1); fill:none;" y2="383" />
      <line x1="599" x2="599" y1="388" style="clip-path:url(#clipPath1); fill:none;" y2="398" />
      <line x1="599" x2="599" y1="403" style="clip-path:url(#clipPath1); fill:none;" y2="413" />
      <line x1="599" x2="599" y1="418" style="clip-path:url(#clipPath1); fill:none;" y2="428" />
      <line x1="599" x2="599" y1="433" style="clip-path:url(#clipPath1); fill:none;" y2="443" />
      <line x1="599" x2="599" y1="448" style="clip-path:url(#clipPath1); fill:none;" y2="458" />
      <line x1="599" x2="599" y1="463" style="clip-path:url(#clipPath1); fill:none;" y2="473" />
      <line x1="599" x2="599" y1="478" style="clip-path:url(#clipPath1); fill:none;" y2="488" />
      <line x1="599" x2="599" y1="493" style="clip-path:url(#clipPath1); fill:none;" y2="503" />
      <line x1="599" x2="599" y1="508" style="clip-path:url(#clipPath1); fill:none;" y2="518" />
      <line x1="599" x2="599" y1="523" style="clip-path:url(#clipPath1); fill:none;" y2="533" />
      <line x1="599" x2="599" y1="538" style="clip-path:url(#clipPath1); fill:none;" y2="548" />
      <line x1="599" x2="599" y1="553" style="clip-path:url(#clipPath1); fill:none;" y2="563" />
      <line x1="599" x2="599" y1="568" style="clip-path:url(#clipPath1); fill:none;" y2="578" />
      <line x1="599" x2="599" y1="583" style="clip-path:url(#clipPath1); fill:none;" y2="593" />
      <line x1="599" x2="599" y1="598" style="clip-path:url(#clipPath1); fill:none;" y2="608" />
      <line x1="599" x2="599" y1="613" style="clip-path:url(#clipPath1); fill:none;" y2="623" />
      <line x1="599" x2="599" y1="628" style="clip-path:url(#clipPath1); fill:none;" y2="638" />
      <line x1="599" x2="599" y1="643" style="clip-path:url(#clipPath1); fill:none;" y2="653" />
      <line x1="599" x2="599" y1="658" style="clip-path:url(#clipPath1); fill:none;" y2="668" />
      <rect x="592" y="192" width="14" style="clip-path:url(#clipPath1); fill:none;" height="20" />
      <rect x="593" y="193" width="13" style="clip-path:url(#clipPath1); fill:white; stroke:none;" height="19" />
      <line x1="599" x2="604" y1="430" style="clip-path:url(#clipPath1); fill:none;" y2="438" />
      <line x1="607" x2="612" y1="443" style="clip-path:url(#clipPath1); fill:none;" y2="451" />
      <line x1="615" x2="620" y1="455" style="clip-path:url(#clipPath1); fill:none;" y2="464" />
      <line x1="623" x2="624" y1="468" style="clip-path:url(#clipPath1); fill:none;" y2="470" />
      <line x1="624" x2="619" y1="490" style="clip-path:url(#clipPath1); fill:none;" y2="498" />
      <line x1="616" x2="611" y1="503" style="clip-path:url(#clipPath1); fill:none;" y2="511" />
      <line x1="608" x2="603" y1="515" style="clip-path:url(#clipPath1); fill:none;" y2="524" />
      <line x1="600" x2="599" y1="528" style="clip-path:url(#clipPath1); fill:none;" y2="530" />
      <rect x="592" y="387" width="14" style="clip-path:url(#clipPath1); fill:none;" height="93" />
      <rect x="593" y="388" width="13" style="clip-path:url(#clipPath1); fill:white; stroke:none;" height="92" />
      <rect x="617" y="470" width="14" style="clip-path:url(#clipPath1); fill:none;" height="20" />
      <rect x="618" y="471" width="13" style="clip-path:url(#clipPath1); fill:white; stroke:none;" height="19" />
      <rect x="693" y="53" width="105" style="clip-path:url(#clipPath1); fill:navy; stroke:none;" height="65" />
      <rect x="690" y="50" width="105" style="clip-path:url(#clipPath1); fill:white; stroke:none;" height="65" />
      <rect x="690" y="50" width="105" style="clip-path:url(#clipPath1); fill:none;" height="65" />
    </g>
    <g style="font-family:sans-serif;">
      <text x="694" y="73" style="clip-path:url(#clipPath9); stroke:none;">vjInputManager
      </text>
    </g>
    <g>
      <line x1="744" x2="744" y1="118" style="clip-path:url(#clipPath1); fill:none;" y2="128" />
      <line x1="744" x2="744" y1="133" style="clip-path:url(#clipPath1); fill:none;" y2="143" />
      <line x1="744" x2="744" y1="148" style="clip-path:url(#clipPath1); fill:none;" y2="158" />
      <line x1="744" x2="744" y1="163" style="clip-path:url(#clipPath1); fill:none;" y2="173" />
      <line x1="744" x2="744" y1="178" style="clip-path:url(#clipPath1); fill:none;" y2="188" />
      <line x1="744" x2="744" y1="193" style="clip-path:url(#clipPath1); fill:none;" y2="203" />
      <line x1="744" x2="744" y1="208" style="clip-path:url(#clipPath1); fill:none;" y2="218" />
      <line x1="744" x2="744" y1="223" style="clip-path:url(#clipPath1); fill:none;" y2="233" />
      <line x1="744" x2="744" y1="238" style="clip-path:url(#clipPath1); fill:none;" y2="248" />
      <line x1="744" x2="744" y1="253" style="clip-path:url(#clipPath1); fill:none;" y2="263" />
      <line x1="744" x2="744" y1="268" style="clip-path:url(#clipPath1); fill:none;" y2="278" />
      <line x1="744" x2="744" y1="283" style="clip-path:url(#clipPath1); fill:none;" y2="293" />
      <line x1="744" x2="744" y1="298" style="clip-path:url(#clipPath1); fill:none;" y2="308" />
      <line x1="744" x2="744" y1="313" style="clip-path:url(#clipPath1); fill:none;" y2="323" />
      <line x1="744" x2="744" y1="328" style="clip-path:url(#clipPath1); fill:none;" y2="338" />
      <line x1="744" x2="744" y1="343" style="clip-path:url(#clipPath1); fill:none;" y2="353" />
      <line x1="744" x2="744" y1="358" style="clip-path:url(#clipPath1); fill:none;" y2="368" />
      <line x1="744" x2="744" y1="373" style="clip-path:url(#clipPath1); fill:none;" y2="383" />
      <line x1="744" x2="744" y1="388" style="clip-path:url(#clipPath1); fill:none;" y2="398" />
      <line x1="744" x2="744" y1="403" style="clip-path:url(#clipPath1); fill:none;" y2="413" />
      <line x1="744" x2="744" y1="418" style="clip-path:url(#clipPath1); fill:none;" y2="428" />
      <line x1="744" x2="744" y1="433" style="clip-path:url(#clipPath1); fill:none;" y2="443" />
      <line x1="744" x2="744" y1="448" style="clip-path:url(#clipPath1); fill:none;" y2="458" />
      <line x1="744" x2="744" y1="463" style="clip-path:url(#clipPath1); fill:none;" y2="473" />
      <line x1="744" x2="744" y1="478" style="clip-path:url(#clipPath1); fill:none;" y2="488" />
      <line x1="744" x2="744" y1="493" style="clip-path:url(#clipPath1); fill:none;" y2="503" />
      <line x1="744" x2="744" y1="508" style="clip-path:url(#clipPath1); fill:none;" y2="518" />
      <line x1="744" x2="744" y1="523" style="clip-path:url(#clipPath1); fill:none;" y2="533" />
      <line x1="744" x2="744" y1="538" style="clip-path:url(#clipPath1); fill:none;" y2="548" />
      <line x1="744" x2="744" y1="553" style="clip-path:url(#clipPath1); fill:none;" y2="563" />
      <line x1="744" x2="744" y1="568" style="clip-path:url(#clipPath1); fill:none;" y2="578" />
      <line x1="744" x2="744" y1="583" style="clip-path:url(#clipPath1); fill:none;" y2="593" />
      <line x1="744" x2="744" y1="598" style="clip-path:url(#clipPath1); fill:none;" y2="608" />
      <line x1="744" x2="744" y1="613" style="clip-path:url(#clipPath1); fill:none;" y2="623" />
      <line x1="744" x2="744" y1="628" style="clip-path:url(#clipPath1); fill:none;" y2="638" />
      <line x1="744" x2="744" y1="643" style="clip-path:url(#clipPath1); fill:none;" y2="653" />
      <line x1="744" x2="744" y1="658" style="clip-path:url(#clipPath1); fill:none;" y2="668" />
      <rect x="737" y="569" width="14" style="clip-path:url(#clipPath1); fill:none;" height="20" />
      <rect x="738" y="570" width="13" style="clip-path:url(#clipPath1); fill:white; stroke:none;" height="19" />
      <line x1="272" x2="737" y1="569" style="clip-path:url(#clipPath1); fill:none; stroke:rgb(50,50,0);" y2="569" />
      <line x1="737" x2="727" y1="589" style="clip-path:url(#clipPath1); fill:none; stroke:rgb(50,50,0);" y2="589" />
      <line x1="722" x2="712" y1="589" style="clip-path:url(#clipPath1); fill:none; stroke:rgb(50,50,0);" y2="589" />
      <line x1="707" x2="697" y1="589" style="clip-path:url(#clipPath1); fill:none; stroke:rgb(50,50,0);" y2="589" />
      <line x1="692" x2="682" y1="589" style="clip-path:url(#clipPath1); fill:none; stroke:rgb(50,50,0);" y2="589" />
      <line x1="677" x2="667" y1="589" style="clip-path:url(#clipPath1); fill:none; stroke:rgb(50,50,0);" y2="589" />
      <line x1="662" x2="652" y1="589" style="clip-path:url(#clipPath1); fill:none; stroke:rgb(50,50,0);" y2="589" />
      <line x1="647" x2="637" y1="589" style="clip-path:url(#clipPath1); fill:none; stroke:rgb(50,50,0);" y2="589" />
      <line x1="632" x2="622" y1="589" style="clip-path:url(#clipPath1); fill:none; stroke:rgb(50,50,0);" y2="589" />
      <line x1="617" x2="607" y1="589" style="clip-path:url(#clipPath1); fill:none; stroke:rgb(50,50,0);" y2="589" />
      <line x1="602" x2="592" y1="589" style="clip-path:url(#clipPath1); fill:none; stroke:rgb(50,50,0);" y2="589" />
      <line x1="587" x2="577" y1="589" style="clip-path:url(#clipPath1); fill:none; stroke:rgb(50,50,0);" y2="589" />
      <line x1="572" x2="562" y1="589" style="clip-path:url(#clipPath1); fill:none; stroke:rgb(50,50,0);" y2="589" />
      <line x1="557" x2="547" y1="589" style="clip-path:url(#clipPath1); fill:none; stroke:rgb(50,50,0);" y2="589" />
      <line x1="542" x2="532" y1="589" style="clip-path:url(#clipPath1); fill:none; stroke:rgb(50,50,0);" y2="589" />
      <line x1="527" x2="517" y1="589" style="clip-path:url(#clipPath1); fill:none; stroke:rgb(50,50,0);" y2="589" />
      <line x1="512" x2="502" y1="589" style="clip-path:url(#clipPath1); fill:none; stroke:rgb(50,50,0);" y2="589" />
      <line x1="497" x2="487" y1="589" style="clip-path:url(#clipPath1); fill:none; stroke:rgb(50,50,0);" y2="589" />
      <line x1="482" x2="472" y1="589" style="clip-path:url(#clipPath1); fill:none; stroke:rgb(50,50,0);" y2="589" />
      <line x1="467" x2="457" y1="589" style="clip-path:url(#clipPath1); fill:none; stroke:rgb(50,50,0);" y2="589" />
      <line x1="452" x2="442" y1="589" style="clip-path:url(#clipPath1); fill:none; stroke:rgb(50,50,0);" y2="589" />
      <line x1="437" x2="427" y1="589" style="clip-path:url(#clipPath1); fill:none; stroke:rgb(50,50,0);" y2="589" />
      <line x1="422" x2="412" y1="589" style="clip-path:url(#clipPath1); fill:none; stroke:rgb(50,50,0);" y2="589" />
      <line x1="407" x2="397" y1="589" style="clip-path:url(#clipPath1); fill:none; stroke:rgb(50,50,0);" y2="589" />
      <line x1="392" x2="382" y1="589" style="clip-path:url(#clipPath1); fill:none; stroke:rgb(50,50,0);" y2="589" />
      <line x1="377" x2="367" y1="589" style="clip-path:url(#clipPath1); fill:none; stroke:rgb(50,50,0);" y2="589" />
      <line x1="362" x2="352" y1="589" style="clip-path:url(#clipPath1); fill:none; stroke:rgb(50,50,0);" y2="589" />
      <line x1="347" x2="337" y1="589" style="clip-path:url(#clipPath1); fill:none; stroke:rgb(50,50,0);" y2="589" />
      <line x1="332" x2="322" y1="589" style="clip-path:url(#clipPath1); fill:none; stroke:rgb(50,50,0);" y2="589" />
      <line x1="317" x2="307" y1="589" style="clip-path:url(#clipPath1); fill:none; stroke:rgb(50,50,0);" y2="589" />
      <line x1="302" x2="292" y1="589" style="clip-path:url(#clipPath1); fill:none; stroke:rgb(50,50,0);" y2="589" />
      <line x1="287" x2="277" y1="589" style="clip-path:url(#clipPath1); fill:none; stroke:rgb(50,50,0);" y2="589" />
      <line x1="272" x2="272" y1="589" style="clip-path:url(#clipPath1); fill:none; stroke:rgb(50,50,0);" y2="589" />
      <line x1="272" x2="284" y1="589" style="clip-path:url(#clipPath1); fill:none;" y2="592" />
      <line x1="272" x2="284" y1="589" style="clip-path:url(#clipPath1); fill:none;" y2="586" />
      <line x1="272" x2="448" y1="516" style="clip-path:url(#clipPath1); fill:none; stroke:rgb(50,50,0);" y2="516" />
      <line x1="448" x2="438" y1="536" style="clip-path:url(#clipPath1); fill:none; stroke:rgb(50,50,0);" y2="536" />
      <line x1="433" x2="423" y1="536" style="clip-path:url(#clipPath1); fill:none; stroke:rgb(50,50,0);" y2="536" />
      <line x1="418" x2="408" y1="536" style="clip-path:url(#clipPath1); fill:none; stroke:rgb(50,50,0);" y2="536" />
      <line x1="403" x2="393" y1="536" style="clip-path:url(#clipPath1); fill:none; stroke:rgb(50,50,0);" y2="536" />
      <line x1="388" x2="378" y1="536" style="clip-path:url(#clipPath1); fill:none; stroke:rgb(50,50,0);" y2="536" />
      <line x1="373" x2="363" y1="536" style="clip-path:url(#clipPath1); fill:none; stroke:rgb(50,50,0);" y2="536" />
      <line x1="358" x2="348" y1="536" style="clip-path:url(#clipPath1); fill:none; stroke:rgb(50,50,0);" y2="536" />
      <line x1="343" x2="333" y1="536" style="clip-path:url(#clipPath1); fill:none; stroke:rgb(50,50,0);" y2="536" />
      <line x1="328" x2="318" y1="536" style="clip-path:url(#clipPath1); fill:none; stroke:rgb(50,50,0);" y2="536" />
      <line x1="313" x2="303" y1="536" style="clip-path:url(#clipPath1); fill:none; stroke:rgb(50,50,0);" y2="536" />
      <line x1="298" x2="288" y1="536" style="clip-path:url(#clipPath1); fill:none; stroke:rgb(50,50,0);" y2="536" />
      <line x1="283" x2="273" y1="536" style="clip-path:url(#clipPath1); fill:none; stroke:rgb(50,50,0);" y2="536" />
      <line x1="272" x2="284" y1="536" style="clip-path:url(#clipPath1); fill:none;" y2="539" />
      <line x1="272" x2="284" y1="536" style="clip-path:url(#clipPath1); fill:none;" y2="533" />
      <line x1="272" x2="617" y1="470" style="clip-path:url(#clipPath1); fill:none; stroke:rgb(50,50,0);" y2="470" />
      <line x1="617" x2="607" y1="490" style="clip-path:url(#clipPath1); fill:none; stroke:rgb(50,50,0);" y2="490" />
      <line x1="602" x2="592" y1="490" style="clip-path:url(#clipPath1); fill:none; stroke:rgb(50,50,0);" y2="490" />
      <line x1="587" x2="577" y1="490" style="clip-path:url(#clipPath1); fill:none; stroke:rgb(50,50,0);" y2="490" />
      <line x1="572" x2="562" y1="490" style="clip-path:url(#clipPath1); fill:none; stroke:rgb(50,50,0);" y2="490" />
      <line x1="557" x2="547" y1="490" style="clip-path:url(#clipPath1); fill:none; stroke:rgb(50,50,0);" y2="490" />
      <line x1="542" x2="532" y1="490" style="clip-path:url(#clipPath1); fill:none; stroke:rgb(50,50,0);" y2="490" />
      <line x1="527" x2="517" y1="490" style="clip-path:url(#clipPath1); fill:none; stroke:rgb(50,50,0);" y2="490" />
      <line x1="512" x2="502" y1="490" style="clip-path:url(#clipPath1); fill:none; stroke:rgb(50,50,0);" y2="490" />
      <line x1="497" x2="487" y1="490" style="clip-path:url(#clipPath1); fill:none; stroke:rgb(50,50,0);" y2="490" />
      <line x1="482" x2="472" y1="490" style="clip-path:url(#clipPath1); fill:none; stroke:rgb(50,50,0);" y2="490" />
      <line x1="467" x2="457" y1="490" style="clip-path:url(#clipPath1); fill:none; stroke:rgb(50,50,0);" y2="490" />
      <line x1="452" x2="442" y1="490" style="clip-path:url(#clipPath1); fill:none; stroke:rgb(50,50,0);" y2="490" />
      <line x1="437" x2="427" y1="490" style="clip-path:url(#clipPath1); fill:none; stroke:rgb(50,50,0);" y2="490" />
      <line x1="422" x2="412" y1="490" style="clip-path:url(#clipPath1); fill:none; stroke:rgb(50,50,0);" y2="490" />
      <line x1="407" x2="397" y1="490" style="clip-path:url(#clipPath1); fill:none; stroke:rgb(50,50,0);" y2="490" />
      <line x1="392" x2="382" y1="490" style="clip-path:url(#clipPath1); fill:none; stroke:rgb(50,50,0);" y2="490" />
      <line x1="377" x2="367" y1="490" style="clip-path:url(#clipPath1); fill:none; stroke:rgb(50,50,0);" y2="490" />
      <line x1="362" x2="352" y1="490" style="clip-path:url(#clipPath1); fill:none; stroke:rgb(50,50,0);" y2="490" />
      <line x1="347" x2="337" y1="490" style="clip-path:url(#clipPath1); fill:none; stroke:rgb(50,50,0);" y2="490" />
      <line x1="332" x2="322" y1="490" style="clip-path:url(#clipPath1); fill:none; stroke:rgb(50,50,0);" y2="490" />
      <line x1="317" x2="307" y1="490" style="clip-path:url(#clipPath1); fill:none; stroke:rgb(50,50,0);" y2="490" />
      <line x1="302" x2="292" y1="490" style="clip-path:url(#clipPath1); fill:none; stroke:rgb(50,50,0);" y2="490" />
      <line x1="287" x2="277" y1="490" style="clip-path:url(#clipPath1); fill:none; stroke:rgb(50,50,0);" y2="490" />
      <line x1="272" x2="272" y1="490" style="clip-path:url(#clipPath1); fill:none; stroke:rgb(50,50,0);" y2="490" />
      <line x1="272" x2="284" y1="490" style="clip-path:url(#clipPath1); fill:none;" y2="493" />
      <line x1="272" x2="284" y1="490" style="clip-path:url(#clipPath1); fill:none;" y2="487" />
      <line x1="272" x2="448" y1="420" style="clip-path:url(#clipPath1); fill:none; stroke:rgb(50,50,0);" y2="420" />
      <line x1="448" x2="438" y1="440" style="clip-path:url(#clipPath1); fill:none; stroke:rgb(50,50,0);" y2="440" />
      <line x1="433" x2="423" y1="440" style="clip-path:url(#clipPath1); fill:none; stroke:rgb(50,50,0);" y2="440" />
      <line x1="418" x2="408" y1="440" style="clip-path:url(#clipPath1); fill:none; stroke:rgb(50,50,0);" y2="440" />
      <line x1="403" x2="393" y1="440" style="clip-path:url(#clipPath1); fill:none; stroke:rgb(50,50,0);" y2="440" />
      <line x1="388" x2="378" y1="440" style="clip-path:url(#clipPath1); fill:none; stroke:rgb(50,50,0);" y2="440" />
      <line x1="373" x2="363" y1="440" style="clip-path:url(#clipPath1); fill:none; stroke:rgb(50,50,0);" y2="440" />
      <line x1="358" x2="348" y1="440" style="clip-path:url(#clipPath1); fill:none; stroke:rgb(50,50,0);" y2="440" />
      <line x1="343" x2="333" y1="440" style="clip-path:url(#clipPath1); fill:none; stroke:rgb(50,50,0);" y2="440" />
      <line x1="328" x2="318" y1="440" style="clip-path:url(#clipPath1); fill:none; stroke:rgb(50,50,0);" y2="440" />
      <line x1="313" x2="303" y1="440" style="clip-path:url(#clipPath1); fill:none; stroke:rgb(50,50,0);" y2="440" />
      <line x1="298" x2="288" y1="440" style="clip-path:url(#clipPath1); fill:none; stroke:rgb(50,50,0);" y2="440" />
      <line x1="283" x2="273" y1="440" style="clip-path:url(#clipPath1); fill:none; stroke:rgb(50,50,0);" y2="440" />
      <line x1="272" x2="284" y1="440" style="clip-path:url(#clipPath1); fill:none;" y2="443" />
      <line x1="272" x2="284" y1="440" style="clip-path:url(#clipPath1); fill:none;" y2="437" />
      <line x1="272" x2="592" y1="387" style="clip-path:url(#clipPath1); fill:none; stroke:rgb(50,50,0);" y2="387" />
      <line x1="272" x2="448" y1="340" style="clip-path:url(#clipPath1); fill:none; stroke:rgb(50,50,0);" y2="340" />
      <line x1="448" x2="438" y1="360" style="clip-path:url(#clipPath1); fill:none; stroke:rgb(50,50,0);" y2="360" />
      <line x1="433" x2="423" y1="360" style="clip-path:url(#clipPath1); fill:none; stroke:rgb(50,50,0);" y2="360" />
      <line x1="418" x2="408" y1="360" style="clip-path:url(#clipPath1); fill:none; stroke:rgb(50,50,0);" y2="360" />
      <line x1="403" x2="393" y1="360" style="clip-path:url(#clipPath1); fill:none; stroke:rgb(50,50,0);" y2="360" />
      <line x1="388" x2="378" y1="360" style="clip-path:url(#clipPath1); fill:none; stroke:rgb(50,50,0);" y2="360" />
      <line x1="373" x2="363" y1="360" style="clip-path:url(#clipPath1); fill:none; stroke:rgb(50,50,0);" y2="360" />
      <line x1="358" x2="348" y1="360" style="clip-path:url(#clipPath1); fill:none; stroke:rgb(50,50,0);" y2="360" />
      <line x1="343" x2="333" y1="360" style="clip-path:url(#clipPath1); fill:none; stroke:rgb(50,50,0);" y2="360" />
      <line x1="328" x2="318" y1="360" style="clip-path:url(#clipPath1); fill:none; stroke:rgb(50,50,0);" y2="360" />
      <line x1="313" x2="303" y1="360" style="clip-path:url(#clipPath1); fill:none; stroke:rgb(50,50,0);" y2="360" />
      <line x1="298" x2="288" y1="360" style="clip-path:url(#clipPath1); fill:none; stroke:rgb(50,50,0);" y2="360" />
      <line x1="283" x2="273" y1="360" style="clip-path:url(#clipPath1); fill:none; stroke:rgb(50,50,0);" y2="360" />
      <line x1="272" x2="284" y1="360" style="clip-path:url(#clipPath1); fill:none;" y2="363" />
      <line x1="272" x2="284" y1="360" style="clip-path:url(#clipPath1); fill:none;" y2="357" />
      <line x1="272" x2="592" y1="192" style="clip-path:url(#clipPath1); fill:none; stroke:rgb(50,50,0);" y2="192" />
      <line x1="592" x2="582" y1="212" style="clip-path:url(#clipPath1); fill:none; stroke:rgb(50,50,0);" y2="212" />
      <line x1="577" x2="567" y1="212" style="clip-path:url(#clipPath1); fill:none; stroke:rgb(50,50,0);" y2="212" />
      <line x1="562" x2="552" y1="212" style="clip-path:url(#clipPath1); fill:none; stroke:rgb(50,50,0);" y2="212" />
      <line x1="547" x2="537" y1="212" style="clip-path:url(#clipPath1); fill:none; stroke:rgb(50,50,0);" y2="212" />
      <line x1="532" x2="522" y1="212" style="clip-path:url(#clipPath1); fill:none; stroke:rgb(50,50,0);" y2="212" />
      <line x1="517" x2="507" y1="212" style="clip-path:url(#clipPath1); fill:none; stroke:rgb(50,50,0);" y2="212" />
      <line x1="502" x2="492" y1="212" style="clip-path:url(#clipPath1); fill:none; stroke:rgb(50,50,0);" y2="212" />
      <line x1="487" x2="477" y1="212" style="clip-path:url(#clipPath1); fill:none; stroke:rgb(50,50,0);" y2="212" />
      <line x1="472" x2="462" y1="212" style="clip-path:url(#clipPath1); fill:none; stroke:rgb(50,50,0);" y2="212" />
      <line x1="457" x2="447" y1="212" style="clip-path:url(#clipPath1); fill:none; stroke:rgb(50,50,0);" y2="212" />
      <line x1="442" x2="432" y1="212" style="clip-path:url(#clipPath1); fill:none; stroke:rgb(50,50,0);" y2="212" />
      <line x1="427" x2="417" y1="212" style="clip-path:url(#clipPath1); fill:none; stroke:rgb(50,50,0);" y2="212" />
      <line x1="412" x2="402" y1="212" style="clip-path:url(#clipPath1); fill:none; stroke:rgb(50,50,0);" y2="212" />
      <line x1="397" x2="387" y1="212" style="clip-path:url(#clipPath1); fill:none; stroke:rgb(50,50,0);" y2="212" />
      <line x1="382" x2="372" y1="212" style="clip-path:url(#clipPath1); fill:none; stroke:rgb(50,50,0);" y2="212" />
      <line x1="367" x2="357" y1="212" style="clip-path:url(#clipPath1); fill:none; stroke:rgb(50,50,0);" y2="212" />
      <line x1="352" x2="342" y1="212" style="clip-path:url(#clipPath1); fill:none; stroke:rgb(50,50,0);" y2="212" />
      <line x1="337" x2="327" y1="212" style="clip-path:url(#clipPath1); fill:none; stroke:rgb(50,50,0);" y2="212" />
      <line x1="322" x2="312" y1="212" style="clip-path:url(#clipPath1); fill:none; stroke:rgb(50,50,0);" y2="212" />
      <line x1="307" x2="297" y1="212" style="clip-path:url(#clipPath1); fill:none; stroke:rgb(50,50,0);" y2="212" />
      <line x1="292" x2="282" y1="212" style="clip-path:url(#clipPath1); fill:none; stroke:rgb(50,50,0);" y2="212" />
      <line x1="277" x2="272" y1="212" style="clip-path:url(#clipPath1); fill:none; stroke:rgb(50,50,0);" y2="212" />
      <line x1="272" x2="284" y1="212" style="clip-path:url(#clipPath1); fill:none;" y2="215" />
      <line x1="272" x2="284" y1="212" style="clip-path:url(#clipPath1); fill:none;" y2="209" />
      <line x1="272" x2="448" y1="250" style="clip-path:url(#clipPath1); fill:none; stroke:rgb(50,50,0);" y2="250" />
      <line x1="448" x2="438" y1="270" style="clip-path:url(#clipPath1); fill:none; stroke:rgb(50,50,0);" y2="270" />
      <line x1="433" x2="423" y1="270" style="clip-path:url(#clipPath1); fill:none; stroke:rgb(50,50,0);" y2="270" />
      <line x1="418" x2="408" y1="270" style="clip-path:url(#clipPath1); fill:none; stroke:rgb(50,50,0);" y2="270" />
      <line x1="403" x2="393" y1="270" style="clip-path:url(#clipPath1); fill:none; stroke:rgb(50,50,0);" y2="270" />
      <line x1="388" x2="378" y1="270" style="clip-path:url(#clipPath1); fill:none; stroke:rgb(50,50,0);" y2="270" />
      <line x1="373" x2="363" y1="270" style="clip-path:url(#clipPath1); fill:none; stroke:rgb(50,50,0);" y2="270" />
      <line x1="358" x2="348" y1="270" style="clip-path:url(#clipPath1); fill:none; stroke:rgb(50,50,0);" y2="270" />
      <line x1="343" x2="333" y1="270" style="clip-path:url(#clipPath1); fill:none; stroke:rgb(50,50,0);" y2="270" />
      <line x1="328" x2="318" y1="270" style="clip-path:url(#clipPath1); fill:none; stroke:rgb(50,50,0);" y2="270" />
      <line x1="313" x2="303" y1="270" style="clip-path:url(#clipPath1); fill:none; stroke:rgb(50,50,0);" y2="270" />
      <line x1="298" x2="288" y1="270" style="clip-path:url(#clipPath1); fill:none; stroke:rgb(50,50,0);" y2="270" />
      <line x1="283" x2="273" y1="270" style="clip-path:url(#clipPath1); fill:none; stroke:rgb(50,50,0);" y2="270" />
      <line x1="272" x2="284" y1="270" style="clip-path:url(#clipPath1); fill:none;" y2="273" />
      <line x1="272" x2="284" y1="270" style="clip-path:url(#clipPath1); fill:none;" y2="267" />
      <line x1="272" x2="448" y1="148" style="clip-path:url(#clipPath1); fill:none; stroke:rgb(50,50,0);" y2="148" />
      <line x1="448" x2="438" y1="168" style="clip-path:url(#clipPath1); fill:none; stroke:rgb(50,50,0);" y2="168" />
      <line x1="433" x2="423" y1="168" style="clip-path:url(#clipPath1); fill:none; stroke:rgb(50,50,0);" y2="168" />
      <line x1="418" x2="408" y1="168" style="clip-path:url(#clipPath1); fill:none; stroke:rgb(50,50,0);" y2="168" />
      <line x1="403" x2="393" y1="168" style="clip-path:url(#clipPath1); fill:none; stroke:rgb(50,50,0);" y2="168" />
      <line x1="388" x2="378" y1="168" style="clip-path:url(#clipPath1); fill:none; stroke:rgb(50,50,0);" y2="168" />
      <line x1="373" x2="363" y1="168" style="clip-path:url(#clipPath1); fill:none; stroke:rgb(50,50,0);" y2="168" />
      <line x1="358" x2="348" y1="168" style="clip-path:url(#clipPath1); fill:none; stroke:rgb(50,50,0);" y2="168" />
      <line x1="343" x2="333" y1="168" style="clip-path:url(#clipPath1); fill:none; stroke:rgb(50,50,0);" y2="168" />
      <line x1="328" x2="318" y1="168" style="clip-path:url(#clipPath1); fill:none; stroke:rgb(50,50,0);" y2="168" />
      <line x1="313" x2="303" y1="168" style="clip-path:url(#clipPath1); fill:none; stroke:rgb(50,50,0);" y2="168" />
      <line x1="298" x2="288" y1="168" style="clip-path:url(#clipPath1); fill:none; stroke:rgb(50,50,0);" y2="168" />
      <line x1="283" x2="273" y1="168" style="clip-path:url(#clipPath1); fill:none; stroke:rgb(50,50,0);" y2="168" />
      <line x1="272" x2="284" y1="168" style="clip-path:url(#clipPath1); fill:none;" y2="171" />
      <line x1="272" x2="284" y1="168" style="clip-path:url(#clipPath1); fill:none;" y2="165" />
      <polygon style="fill:gray; clip-path:url(#clipPath1); stroke:none;" points=" 737 569 719 573 719 565" />
      <polygon style="fill:none; clip-path:url(#clipPath1); stroke:rgb(50,50,0);" points=" 737 569 719 573 719 565" />
      <line x1="719" x2="737" y1="565" style="clip-path:url(#clipPath1); fill:none; stroke:rgb(50,50,0);" y2="569" />
      <text x="280" y="562" style="clip-path:url(#clipPath1); fill:rgb(50,50,0); font-family:sans-serif; stroke:none;"> updateAllData():void
      </text>
      <polygon points=" 448 516 430 520 430 512" style="fill:gray; clip-path:url(#clipPath1); font-family:sans-serif; stroke:none;" />
      <polygon points=" 448 516 430 520 430 512" style="fill:none; clip-path:url(#clipPath1); font-family:sans-serif; stroke:rgb(50,50,0);" />
      <line x1="430" x2="448" y1="512" style="clip-path:url(#clipPath1); fill:none; font-family:sans-serif; stroke:rgb(50,50,0);" y2="516" />
      <text x="280" y="509" style="clip-path:url(#clipPath1); fill:rgb(50,50,0); font-family:sans-serif; stroke:none;"> postFrame():void
      </text>
      <polygon points=" 617 470 599 474 599 466" style="fill:gray; clip-path:url(#clipPath1); font-family:sans-serif; stroke:none;" />
      <polygon points=" 617 470 599 474 599 466" style="fill:none; clip-path:url(#clipPath1); font-family:sans-serif; stroke:rgb(50,50,0);" />
      <line x1="599" x2="617" y1="466" style="clip-path:url(#clipPath1); fill:none; font-family:sans-serif; stroke:rgb(50,50,0);" y2="470" />
      <text x="280" y="463" style="clip-path:url(#clipPath1); fill:rgb(50,50,0); font-family:sans-serif; stroke:none;"> sync():void
      </text>
      <polygon points=" 448 420 430 424 430 416" style="fill:gray; clip-path:url(#clipPath1); font-family:sans-serif; stroke:none;" />
      <polygon points=" 448 420 430 424 430 416" style="fill:none; clip-path:url(#clipPath1); font-family:sans-serif; stroke:rgb(50,50,0);" />
      <line x1="430" x2="448" y1="416" style="clip-path:url(#clipPath1); fill:none; font-family:sans-serif; stroke:rgb(50,50,0);" y2="420" />
      <text x="280" y="413" style="clip-path:url(#clipPath1); fill:rgb(50,50,0); font-family:sans-serif; stroke:none;"> intraFrame():void
      </text>
      <line x1="592" x2="574" y1="387" style="clip-path:url(#clipPath1); fill:none; font-family:sans-serif; stroke:rgb(50,50,0);" y2="383" />
      <text x="280" y="380" style="clip-path:url(#clipPath1); fill:rgb(50,50,0); font-family:sans-serif; stroke:none;"> draw():void
      </text>
      <polygon points=" 448 340 430 344 430 336" style="fill:gray; clip-path:url(#clipPath1); font-family:sans-serif; stroke:none;" />
      <polygon points=" 448 340 430 344 430 336" style="fill:none; clip-path:url(#clipPath1); font-family:sans-serif; stroke:rgb(50,50,0);" />
      <line x1="430" x2="448" y1="336" style="clip-path:url(#clipPath1); fill:none; font-family:sans-serif; stroke:rgb(50,50,0);" y2="340" />
      <text x="280" y="333" style="clip-path:url(#clipPath1); fill:rgb(50,50,0); font-family:sans-serif; stroke:none;"> preFrame():void
      </text>
      <polygon points=" 592 192 574 196 574 188" style="fill:gray; clip-path:url(#clipPath1); font-family:sans-serif; stroke:none;" />
      <polygon points=" 592 192 574 196 574 188" style="fill:none; clip-path:url(#clipPath1); font-family:sans-serif; stroke:rgb(50,50,0);" />
      <line x1="574" x2="592" y1="188" style="clip-path:url(#clipPath1); fill:none; font-family:sans-serif; stroke:rgb(50,50,0);" y2="192" />
      <text x="280" y="185" style="clip-path:url(#clipPath1); fill:rgb(50,50,0); font-family:sans-serif; stroke:none;"> initAPI():void
      </text>
      <polygon points=" 448 250 430 254 430 246" style="fill:gray; clip-path:url(#clipPath1); font-family:sans-serif; stroke:none;" />
      <polygon points=" 448 250 430 254 430 246" style="fill:none; clip-path:url(#clipPath1); font-family:sans-serif; stroke:rgb(50,50,0);" />
      <line x1="430" x2="448" y1="246" style="clip-path:url(#clipPath1); fill:none; font-family:sans-serif; stroke:rgb(50,50,0);" y2="250" />
      <text x="280" y="243" style="clip-path:url(#clipPath1); fill:rgb(50,50,0); font-family:sans-serif; stroke:none;"> apiInit():void
      </text>
      <polygon points=" 448 148 430 152 430 144" style="fill:gray; clip-path:url(#clipPath1); font-family:sans-serif; stroke:none;" />
      <polygon points=" 448 148 430 152 430 144" style="fill:none; clip-path:url(#clipPath1); font-family:sans-serif; stroke:rgb(50,50,0);" />
      <line x1="430" x2="448" y1="144" style="clip-path:url(#clipPath1); fill:none; font-family:sans-serif; stroke:rgb(50,50,0);" y2="148" />
      <text x="280" y="141" style="clip-path:url(#clipPath1); fill:rgb(50,50,0); font-family:sans-serif; stroke:none;"> init():void
      </text>
      <polygon points=" 203 293 324 293 339 308 339 316 203 316" style="fill:navy; clip-path:url(#clipPath1); font-family:sans-serif; stroke:none;" />
      <polygon points=" 200 290 321 290 336 305 336 313 200 313" style="fill:white; clip-path:url(#clipPath1); font-family:sans-serif; stroke:none;" />
      <line x1="200" x2="321" y1="290" style="clip-path:url(#clipPath1); fill:none; font-family:sans-serif;" y2="290" />
      <line x1="321" x2="336" y1="290" style="clip-path:url(#clipPath1); fill:none; font-family:sans-serif;" y2="305" />
      <line x1="336" x2="336" y1="305" style="clip-path:url(#clipPath1); fill:none; font-family:sans-serif;" y2="313" />
      <line x1="336" x2="200" y1="313" style="clip-path:url(#clipPath1); fill:none; font-family:sans-serif;" y2="313" />
      <line x1="200" x2="200" y1="313" style="clip-path:url(#clipPath1); fill:none; font-family:sans-serif;" y2="290" />
      <line x1="321" x2="321" y1="290" style="clip-path:url(#clipPath1); fill:none; font-family:sans-serif;" y2="305" />
      <line x1="321" x2="336" y1="305" style="clip-path:url(#clipPath1); fill:none; font-family:sans-serif;" y2="305" />
    </g>
    <g style="font-family:sans-serif;">
      <text x="208" y="304" style="clip-path:url(#clipPath10); stroke:none;">while(running)
      </text>
    </g>
  </g>
</svg>
