<?xml version="1.0" encoding="UTF-8"?>

<!DOCTYPE svg PUBLIC '-//W3C//DTD SVG 20001102//EN' 'http://www.w3.org/TR/2000/CR-SVG-20001102/DTD/svg-20001102.dtd'>
<svg style="fill-opacity:1; color-interpolation:sRGB; color-rendering:auto; text-rendering:auto; stroke:black; stroke-linecap:square; stroke-miterlimit:10; stroke-opacity:1; shape-rendering:auto; fill:black; stroke-dasharray:none; font-weight:normal; stroke-width:1; font-family:&apos;Lucida Sans&apos;; font-style:normal; stroke-linejoin:miter; font-size:12; image-rendering:auto; stroke-dashoffset:0;" width="423" height="571">
  <!--Generated by the Batik Graphics2D SVG Generator-->
  <defs id="genericDefs" />
  <g>
    <defs id="defs1">
      <clipPath clipPathUnits="userSpaceOnUse" id="clipPath1">
        <path d="M0 0 L423 0 L423 571 L0 571 L0 0 Z" />
      </clipPath>
      <clipPath clipPathUnits="userSpaceOnUse" id="clipPath2">
        <path d="M30 20 L30 238 L208 238 L208 20 Z" />
      </clipPath>
      <clipPath clipPathUnits="userSpaceOnUse" id="clipPath3">
        <path d="M31 21 L31 66 L208 66 L208 21 Z" />
      </clipPath>
      <clipPath clipPathUnits="userSpaceOnUse" id="clipPath4">
        <path d="M30 91 L30 227 L208 227 L208 91 Z" />
      </clipPath>
      <clipPath clipPathUnits="userSpaceOnUse" id="clipPath5">
        <path d="M32 93 L32 226 L207 226 L207 93 Z" />
      </clipPath>
      <clipPath clipPathUnits="userSpaceOnUse" id="clipPath6">
        <path d="M290 310 L290 537 L410 537 L410 310 Z" />
      </clipPath>
      <clipPath clipPathUnits="userSpaceOnUse" id="clipPath7">
        <path d="M291 311 L291 334 L410 334 L410 311 Z" />
      </clipPath>
      <clipPath clipPathUnits="userSpaceOnUse" id="clipPath8">
        <path d="M290 369 L290 527 L410 527 L410 369 Z" />
      </clipPath>
      <clipPath clipPathUnits="userSpaceOnUse" id="clipPath9">
        <path d="M292 371 L292 526 L409 526 L409 371 Z" />
      </clipPath>
      <clipPath clipPathUnits="userSpaceOnUse" id="clipPath10">
        <path d="M30 300 L30 558 L208 558 L208 300 Z" />
      </clipPath>
      <clipPath clipPathUnits="userSpaceOnUse" id="clipPath11">
        <path d="M31 301 L31 324 L208 324 L208 301 Z" />
      </clipPath>
      <clipPath clipPathUnits="userSpaceOnUse" id="clipPath12">
        <path d="M30 359 L30 539 L208 539 L208 359 Z" />
      </clipPath>
      <clipPath clipPathUnits="userSpaceOnUse" id="clipPath13">
        <path d="M32 361 L32 538 L207 538 L207 361 Z" />
      </clipPath>
    </defs>
    <g style="fill:rgb(0,64,64); stroke:rgb(0,64,64);">
      <line x1="120" x2="120" y1="300" style="clip-path:url(#clipPath1); fill:none;" y2="240" />
      <line x1="290" x2="210" y1="424" style="clip-path:url(#clipPath1); fill:none;" y2="424" />
      <polygon style="fill:white; clip-path:url(#clipPath1); stroke:none;" points=" 120 240 126 258 114 258" />
      <polygon style="fill:none; clip-path:url(#clipPath1);" points=" 120 240 126 258 114 258" />
      <line x1="114" x2="120" y1="258" style="clip-path:url(#clipPath1); fill:none;" y2="240" />
      <polygon style="fill:white; clip-path:url(#clipPath1); stroke:none;" points=" 210 424 228 418 228 430" />
      <polygon style="fill:none; clip-path:url(#clipPath1);" points=" 210 424 228 418 228 430" />
      <line x1="228" x2="210" y1="430" style="clip-path:url(#clipPath1); fill:none;" y2="424" />
      <rect x="33" y="23" width="177" style="clip-path:url(#clipPath1); fill:navy; stroke:none;" height="217" />
      <rect x="30" y="20" width="177" style="clip-path:url(#clipPath1); fill:white; stroke:none;" height="217" />
      <rect x="30" y="20" width="177" style="clip-path:url(#clipPath1); fill:none; stroke:black;" height="217" />
    </g>
    <g style="font-family:sans-serif;">
      <text x="42" y="38" style="clip-path:url(#clipPath3); stroke:none;">jccl::ConfigChunkHandler
      </text>
      <text x="91" y="60" style="clip-path:url(#clipPath3); font-style:italic; stroke:none; font-weight:bold;">vrj::App
      </text>
    </g>
    <g>
      <line x1="30" x2="207" y1="71" style="clip-path:url(#clipPath2); fill:none;" y2="71" />
      <line x1="30" x2="207" y1="84" style="clip-path:url(#clipPath2); fill:none;" y2="84" />
    </g>
    <g style="font-family:sans-serif;">
      <text x="36" y="110" style="clip-path:url(#clipPath5); stroke:none;">+init:void
      </text>
      <text x="36" y="132" style="clip-path:url(#clipPath5); stroke:none;">+apiInit:void
      </text>
      <text x="36" y="154" style="clip-path:url(#clipPath5); stroke:none;">+exit:void
      </text>
      <text x="36" y="176" style="clip-path:url(#clipPath5); stroke:none;">+preFrame:void
      </text>
      <text x="36" y="198" style="clip-path:url(#clipPath5); stroke:none;">+intraFrame:void
      </text>
      <text x="36" y="220" style="clip-path:url(#clipPath5); stroke:none;">+postFrame:void
      </text>
    </g>
    <g style="fill:navy; stroke:navy;">
      <rect x="293" y="313" width="119" style="clip-path:url(#clipPath1); stroke:none;" height="226" />
      <rect x="290" y="310" width="119" style="clip-path:url(#clipPath1); fill:white; stroke:none;" height="226" />
      <rect x="290" y="310" width="119" style="clip-path:url(#clipPath1); fill:none; stroke:black;" height="226" />
    </g>
    <g style="font-weight:bold; font-family:sans-serif;">
      <text x="313" y="328" style="clip-path:url(#clipPath7); stroke:none;">userPfApp
      </text>
    </g>
    <g>
      <line x1="290" x2="409" y1="339" style="clip-path:url(#clipPath6); fill:none;" y2="339" />
      <line x1="290" x2="409" y1="362" style="clip-path:url(#clipPath6); fill:none;" y2="362" />
    </g>
    <g style="font-family:sans-serif;">
      <text x="296" y="388" style="clip-path:url(#clipPath9); stroke:none;">+init:void
      </text>
      <text x="296" y="410" style="clip-path:url(#clipPath9); stroke:none;">+apiInit:void
      </text>
      <text x="296" y="432" style="clip-path:url(#clipPath9); stroke:none;">+preFrame:void
      </text>
      <text x="296" y="454" style="clip-path:url(#clipPath9); stroke:none;">+intraFrame:void
      </text>
      <text x="296" y="476" style="clip-path:url(#clipPath9); stroke:none;">+postFrame:void
      </text>
      <text x="296" y="498" style="clip-path:url(#clipPath9); stroke:none;">+initScene:void
      </text>
      <text x="296" y="520" style="clip-path:url(#clipPath9); stroke:none;">+getScene:void
      </text>
    </g>
    <g style="fill:navy; stroke:navy;">
      <rect x="33" y="303" width="177" style="clip-path:url(#clipPath1); stroke:none;" height="257" />
      <rect x="30" y="300" width="177" style="clip-path:url(#clipPath1); fill:white; stroke:none;" height="257" />
      <rect x="30" y="300" width="177" style="clip-path:url(#clipPath1); fill:none; stroke:black;" height="257" />
    </g>
    <g style="font-style:italic; font-weight:bold; font-family:sans-serif;">
      <text x="84" y="318" style="clip-path:url(#clipPath11); stroke:none;">vrj::PfApp
      </text>
    </g>
    <g>
      <line x1="30" x2="207" y1="329" style="clip-path:url(#clipPath10); fill:none;" y2="329" />
      <line x1="30" x2="207" y1="352" style="clip-path:url(#clipPath10); fill:none;" y2="352" />
    </g>
    <g style="font-family:sans-serif; font-style:italic;">
      <text x="36" y="378" style="clip-path:url(#clipPath13); stroke:none;">+initScene:void
      </text>
      <text x="36" y="400" style="font-style:normal; clip-path:url(#clipPath13); stroke:none;">+preForkInit:void
      </text>
      <text x="36" y="422" style="font-style:normal; clip-path:url(#clipPath13); stroke:none;">+appChanFunc:void
      </text>
      <text x="36" y="444" style="clip-path:url(#clipPath13); stroke:none;">+getScene:pfGroup *
      </text>
      <text x="36" y="466" style="font-style:normal; clip-path:url(#clipPath13); stroke:none;">+configPWin:void
      </text>
      <text x="36" y="488" style="font-style:normal; clip-path:url(#clipPath13); stroke:none;">+drawChan:void
      </text>
      <text x="36" y="510" style="font-style:normal; clip-path:url(#clipPath13); stroke:none;">+preDrawChan:void
      </text>
      <text x="36" y="532" style="font-style:normal; clip-path:url(#clipPath13); stroke:none;">+postDrawChan:void
      </text>
    </g>
  </g>
</svg>
