<?xml version="1.0" encoding="UTF-8"?>

<!DOCTYPE svg PUBLIC '-//W3C//DTD SVG 20001102//EN' 'http://www.w3.org/TR/2000/CR-SVG-20001102/DTD/svg-20001102.dtd'>
<svg style="fill-opacity:1; color-interpolation:sRGB; color-rendering:auto; text-rendering:auto; stroke:black; stroke-linecap:square; stroke-miterlimit:10; stroke-opacity:1; shape-rendering:auto; fill:black; stroke-dasharray:none; font-weight:normal; stroke-width:1; font-family:&apos;Lucida Sans&apos;; font-style:normal; stroke-linejoin:miter; font-size:12; image-rendering:auto; stroke-dashoffset:0;" width="491" height="464">
  <!--Generated by the Batik Graphics2D SVG Generator-->
  <defs id="genericDefs" />
  <g>
    <defs id="defs1">
      <clipPath clipPathUnits="userSpaceOnUse" id="clipPath1">
        <path d="M0 0 L491 0 L491 464 L0 464 L0 0 Z" />
      </clipPath>
      <clipPath clipPathUnits="userSpaceOnUse" id="clipPath2">
        <path d="M20 20 L20 259 L191 259 L191 20 Z" />
      </clipPath>
      <clipPath clipPathUnits="userSpaceOnUse" id="clipPath3">
        <path d="M21 21 L21 66 L191 66 L191 21 Z" />
      </clipPath>
      <clipPath clipPathUnits="userSpaceOnUse" id="clipPath4">
        <path d="M20 91 L20 249 L191 249 L191 91 Z" />
      </clipPath>
      <clipPath clipPathUnits="userSpaceOnUse" id="clipPath5">
        <path d="M22 93 L22 248 L190 248 L190 93 Z" />
      </clipPath>
      <clipPath clipPathUnits="userSpaceOnUse" id="clipPath6">
        <path d="M280 50 L280 233 L457 233 L457 50 Z" />
      </clipPath>
      <clipPath clipPathUnits="userSpaceOnUse" id="clipPath7">
        <path d="M281 51 L281 74 L457 74 L457 51 Z" />
      </clipPath>
      <clipPath clipPathUnits="userSpaceOnUse" id="clipPath8">
        <path d="M280 109 L280 223 L457 223 L457 109 Z" />
      </clipPath>
      <clipPath clipPathUnits="userSpaceOnUse" id="clipPath9">
        <path d="M282 111 L282 222 L456 222 L456 111 Z" />
      </clipPath>
      <clipPath clipPathUnits="userSpaceOnUse" id="clipPath10">
        <path d="M280 310 L280 438 L478 438 L478 310 Z" />
      </clipPath>
      <clipPath clipPathUnits="userSpaceOnUse" id="clipPath11">
        <path d="M281 311 L281 334 L478 334 L478 311 Z" />
      </clipPath>
      <clipPath clipPathUnits="userSpaceOnUse" id="clipPath12">
        <path d="M280 359 L280 407 L478 407 L478 359 Z" />
      </clipPath>
      <clipPath clipPathUnits="userSpaceOnUse" id="clipPath13">
        <path d="M282 361 L282 406 L477 406 L477 361 Z" />
      </clipPath>
      <clipPath clipPathUnits="userSpaceOnUse" id="clipPath14">
        <path d="M20 290 L20 451 L214 451 L214 290 Z" />
      </clipPath>
      <clipPath clipPathUnits="userSpaceOnUse" id="clipPath15">
        <path d="M21 291 L21 314 L214 314 L214 291 Z" />
      </clipPath>
      <clipPath clipPathUnits="userSpaceOnUse" id="clipPath16">
        <path d="M20 349 L20 441 L214 441 L214 349 Z" />
      </clipPath>
      <clipPath clipPathUnits="userSpaceOnUse" id="clipPath17">
        <path d="M22 351 L22 440 L213 440 L213 351 Z" />
      </clipPath>
    </defs>
    <g style="fill:rgb(0,64,64); stroke:rgb(0,64,64);">
      <line x1="216" x2="280" y1="375" style="clip-path:url(#clipPath1); fill:none;" y2="375" />
      <line x1="369" x2="369" y1="310" style="clip-path:url(#clipPath1); fill:none;" y2="235" />
      <line x1="280" x2="193" y1="142" style="clip-path:url(#clipPath1); fill:none;" y2="142" />
      <polygon style="fill:white; clip-path:url(#clipPath1); stroke:none;" points=" 280 375 262 381 262 369" />
      <polygon style="fill:none; clip-path:url(#clipPath1);" points=" 280 375 262 381 262 369" />
      <line x1="262" x2="280" y1="369" style="clip-path:url(#clipPath1); fill:none;" y2="375" />
      <polygon style="fill:white; clip-path:url(#clipPath1); stroke:none;" points=" 369 235 375 253 363 253" />
      <polygon style="fill:none; clip-path:url(#clipPath1);" points=" 369 235 375 253 363 253" />
      <line x1="363" x2="369" y1="253" style="clip-path:url(#clipPath1); fill:none;" y2="235" />
      <polygon style="fill:white; clip-path:url(#clipPath1); stroke:none;" points=" 193 142 211 136 211 148" />
      <polygon style="fill:none; clip-path:url(#clipPath1);" points=" 193 142 211 136 211 148" />
      <line x1="211" x2="193" y1="148" style="clip-path:url(#clipPath1); fill:none;" y2="142" />
      <rect x="23" y="23" width="170" style="clip-path:url(#clipPath1); fill:navy; stroke:none;" height="238" />
      <rect x="20" y="20" width="170" style="clip-path:url(#clipPath1); fill:white; stroke:none;" height="238" />
      <rect x="20" y="20" width="170" style="clip-path:url(#clipPath1); fill:none; stroke:black;" height="238" />
    </g>
    <g style="font-family:sans-serif;">
      <text x="25" y="38" style="clip-path:url(#clipPath3); stroke:none;">jccl::ConfigChunkHandler
      </text>
      <text x="78" y="60" style="clip-path:url(#clipPath3); font-style:italic; stroke:none; font-weight:bold;">vrj::App
      </text>
    </g>
    <g>
      <line x1="20" x2="190" y1="71" style="clip-path:url(#clipPath2); fill:none;" y2="71" />
      <line x1="20" x2="190" y1="84" style="clip-path:url(#clipPath2); fill:none;" y2="84" />
    </g>
    <g style="font-family:sans-serif;">
      <text x="26" y="110" style="clip-path:url(#clipPath5); stroke:none;">+~App
      </text>
      <text x="26" y="132" style="clip-path:url(#clipPath5); stroke:none;">+init:void
      </text>
      <text x="26" y="154" style="clip-path:url(#clipPath5); stroke:none;">+apiInit:void
      </text>
      <text x="26" y="176" style="clip-path:url(#clipPath5); stroke:none;">+exit:void
      </text>
      <text x="26" y="198" style="clip-path:url(#clipPath5); stroke:none;">+preFrame:void
      </text>
      <text x="26" y="220" style="clip-path:url(#clipPath5); stroke:none;">+intraFrame:void
      </text>
      <text x="26" y="242" style="clip-path:url(#clipPath5); stroke:none;">+postFrame:void
      </text>
    </g>
    <g style="fill:navy; stroke:navy;">
      <rect x="283" y="53" width="176" style="clip-path:url(#clipPath1); stroke:none;" height="182" />
      <rect x="280" y="50" width="176" style="clip-path:url(#clipPath1); fill:white; stroke:none;" height="182" />
      <rect x="280" y="50" width="176" style="clip-path:url(#clipPath1); fill:none; stroke:black;" height="182" />
    </g>
    <g style="font-style:italic; font-weight:bold; font-family:sans-serif;">
      <text x="333" y="68" style="clip-path:url(#clipPath7); stroke:none;">vrj::GlApp
      </text>
    </g>
    <g>
      <line x1="280" x2="456" y1="79" style="clip-path:url(#clipPath6); fill:none;" y2="79" />
      <line x1="280" x2="456" y1="102" style="clip-path:url(#clipPath6); fill:none;" y2="102" />
    </g>
    <g style="font-family:sans-serif;">
      <text x="286" y="128" style="clip-path:url(#clipPath9); stroke:none;">+~GlApp
      </text>
      <text x="286" y="150" style="clip-path:url(#clipPath9); stroke:none;">+getDrawScaleFactor:float
      </text>
      <text x="286" y="172" style="font-style:italic; clip-path:url(#clipPath9); stroke:none;">+draw:void
      </text>
      <text x="286" y="194" style="clip-path:url(#clipPath9); stroke:none;">+contextInit:void
      </text>
      <text x="286" y="216" style="clip-path:url(#clipPath9); stroke:none;">+bufferPreDraw:void
      </text>
    </g>
    <g style="fill:navy; stroke:navy;">
      <rect x="283" y="313" width="197" style="clip-path:url(#clipPath1); stroke:none;" height="127" />
      <rect x="280" y="310" width="197" style="clip-path:url(#clipPath1); fill:white; stroke:none;" height="127" />
      <rect x="280" y="310" width="197" style="clip-path:url(#clipPath1); fill:none; stroke:black;" height="127" />
    </g>
    <g style="font-style:italic; font-weight:bold; font-family:sans-serif;">
      <text x="324" y="328" style="clip-path:url(#clipPath11); stroke:none;">vrj::OpenSGApp
      </text>
    </g>
    <g>
      <line x1="280" x2="477" y1="339" style="clip-path:url(#clipPath10); fill:none;" y2="339" />
      <line x1="280" x2="477" y1="352" style="clip-path:url(#clipPath10); fill:none;" y2="352" />
    </g>
    <g style="font-family:sans-serif; font-style:italic;">
      <text x="286" y="378" style="clip-path:url(#clipPath13); stroke:none;">+initScene:void
      </text>
      <text x="286" y="400" style="clip-path:url(#clipPath13); stroke:none;">+getSceneRoot:OSG::NodePtr
      </text>
    </g>
    <g>
      <line x1="280" x2="477" y1="412" style="clip-path:url(#clipPath10); fill:none;" y2="412" />
    </g>
    <g style="fill:navy; stroke:navy;">
      <rect x="23" y="293" width="193" style="clip-path:url(#clipPath1); stroke:none;" height="160" />
      <rect x="20" y="290" width="193" style="clip-path:url(#clipPath1); fill:white; stroke:none;" height="160" />
      <rect x="20" y="290" width="193" style="clip-path:url(#clipPath1); fill:none; stroke:black;" height="160" />
    </g>
    <g style="font-weight:bold; font-family:sans-serif;">
      <text x="60" y="308" style="clip-path:url(#clipPath15); stroke:none;">userOpenSGApp
      </text>
    </g>
    <g>
      <line x1="20" x2="213" y1="319" style="clip-path:url(#clipPath14); fill:none;" y2="319" />
      <line x1="20" x2="213" y1="342" style="clip-path:url(#clipPath14); fill:none;" y2="342" />
    </g>
    <g style="font-family:sans-serif;">
      <text x="26" y="368" style="clip-path:url(#clipPath17); stroke:none;">+init:void
      </text>
      <text x="26" y="390" style="clip-path:url(#clipPath17); stroke:none;">+initScene:void
      </text>
      <text x="26" y="412" style="clip-path:url(#clipPath17); stroke:none;">+getSceneRoot:OSG::NodePtr
      </text>
      <text x="26" y="434" style="clip-path:url(#clipPath17); stroke:none;">+preFrame:void
      </text>
    </g>
  </g>
</svg>
