<?xml version="1.0" encoding="UTF-8"?>

<!DOCTYPE svg PUBLIC '-//W3C//DTD SVG 20001102//EN' 'http://www.w3.org/TR/2000/CR-SVG-20001102/DTD/svg-20001102.dtd'>
<svg style="fill-opacity:1; color-interpolation:sRGB; color-rendering:auto; text-rendering:auto; stroke:black; stroke-linecap:square; stroke-miterlimit:10; stroke-opacity:1; shape-rendering:auto; fill:black; stroke-dasharray:none; font-weight:normal; stroke-width:1; font-family:&apos;Lucida Sans&apos;; font-style:normal; stroke-linejoin:miter; font-size:12; image-rendering:auto; stroke-dashoffset:0;" width="461" height="551">
  <!--Generated by the Batik Graphics2D SVG Generator-->
  <defs id="genericDefs" />
  <g>
    <defs id="defs1">
      <clipPath clipPathUnits="userSpaceOnUse" id="clipPath1">
        <path d="M0 0 L461 0 L461 551 L0 551 L0 0 Z" />
      </clipPath>
      <clipPath clipPathUnits="userSpaceOnUse" id="clipPath2">
        <path d="M20 20 L20 258 L208 258 L208 20 Z" />
      </clipPath>
      <clipPath clipPathUnits="userSpaceOnUse" id="clipPath3">
        <path d="M21 21 L21 66 L208 66 L208 21 Z" />
      </clipPath>
      <clipPath clipPathUnits="userSpaceOnUse" id="clipPath4">
        <path d="M20 91 L20 227 L208 227 L208 91 Z" />
      </clipPath>
      <clipPath clipPathUnits="userSpaceOnUse" id="clipPath5">
        <path d="M22 93 L22 226 L207 226 L207 93 Z" />
      </clipPath>
      <clipPath clipPathUnits="userSpaceOnUse" id="clipPath6">
        <path d="M270 60 L270 238 L448 238 L448 60 Z" />
      </clipPath>
      <clipPath clipPathUnits="userSpaceOnUse" id="clipPath7">
        <path d="M271 61 L271 84 L448 84 L448 61 Z" />
      </clipPath>
      <clipPath clipPathUnits="userSpaceOnUse" id="clipPath8">
        <path d="M270 119 L270 211 L448 211 L448 119 Z" />
      </clipPath>
      <clipPath clipPathUnits="userSpaceOnUse" id="clipPath9">
        <path d="M272 121 L272 210 L447 210 L447 121 Z" />
      </clipPath>
      <clipPath clipPathUnits="userSpaceOnUse" id="clipPath10">
        <path d="M280 280 L280 538 L438 538 L438 280 Z" />
      </clipPath>
      <clipPath clipPathUnits="userSpaceOnUse" id="clipPath11">
        <path d="M281 281 L281 304 L438 304 L438 281 Z" />
      </clipPath>
      <clipPath clipPathUnits="userSpaceOnUse" id="clipPath12">
        <path d="M280 339 L280 519 L438 519 L438 339 Z" />
      </clipPath>
      <clipPath clipPathUnits="userSpaceOnUse" id="clipPath13">
        <path d="M282 341 L282 518 L437 518 L437 341 Z" />
      </clipPath>
    </defs>
    <g style="fill:rgb(0,64,64); stroke:rgb(0,64,64);">
      <line x1="270" x2="210" y1="150" style="clip-path:url(#clipPath1); fill:none;" y2="150" />
      <line x1="360" x2="360" y1="280" style="clip-path:url(#clipPath1); fill:none;" y2="240" />
      <polygon style="fill:white; clip-path:url(#clipPath1); stroke:none;" points=" 210 150 228 144 228 156" />
      <polygon style="fill:none; clip-path:url(#clipPath1);" points=" 210 150 228 144 228 156" />
      <line x1="228" x2="210" y1="156" style="clip-path:url(#clipPath1); fill:none;" y2="150" />
      <polygon style="fill:white; clip-path:url(#clipPath1); stroke:none;" points=" 360 240 366 258 354 258" />
      <polygon style="fill:none; clip-path:url(#clipPath1);" points=" 360 240 366 258 354 258" />
      <line x1="354" x2="360" y1="258" style="clip-path:url(#clipPath1); fill:none;" y2="240" />
      <rect x="23" y="23" width="187" style="clip-path:url(#clipPath1); fill:navy; stroke:none;" height="237" />
      <rect x="20" y="20" width="187" style="clip-path:url(#clipPath1); fill:white; stroke:none;" height="237" />
      <rect x="20" y="20" width="187" style="clip-path:url(#clipPath1); fill:none; stroke:black;" height="237" />
    </g>
    <g style="font-family:sans-serif;">
      <text x="42" y="38" style="clip-path:url(#clipPath3); stroke:none;">jccl::ConfigChunkHandler
      </text>
      <text x="86" y="60" style="clip-path:url(#clipPath3); font-style:italic; stroke:none; font-weight:bold;">vrj::App
      </text>
    </g>
    <g>
      <line x1="20" x2="207" y1="71" style="clip-path:url(#clipPath2); fill:none;" y2="71" />
      <line x1="20" x2="207" y1="84" style="clip-path:url(#clipPath2); fill:none;" y2="84" />
    </g>
    <g style="font-family:sans-serif;">
      <text x="26" y="110" style="clip-path:url(#clipPath5); stroke:none;">+init:void
      </text>
      <text x="26" y="132" style="clip-path:url(#clipPath5); stroke:none;">+apiInit:void
      </text>
      <text x="26" y="154" style="clip-path:url(#clipPath5); stroke:none;">+exit:void
      </text>
      <text x="26" y="176" style="clip-path:url(#clipPath5); stroke:none;">+preFrame:void
      </text>
      <text x="26" y="198" style="clip-path:url(#clipPath5); stroke:none;">+intraFrame:void
      </text>
      <text x="26" y="220" style="clip-path:url(#clipPath5); stroke:none;">+postFrame:void
      </text>
    </g>
    <g>
      <line x1="20" x2="207" y1="232" style="clip-path:url(#clipPath2); fill:none;" y2="232" />
    </g>
    <g style="fill:navy; stroke:navy;">
      <rect x="273" y="63" width="177" style="clip-path:url(#clipPath1); stroke:none;" height="177" />
      <rect x="270" y="60" width="177" style="clip-path:url(#clipPath1); fill:white; stroke:none;" height="177" />
      <rect x="270" y="60" width="177" style="clip-path:url(#clipPath1); fill:none; stroke:black;" height="177" />
    </g>
    <g style="font-style:italic; font-weight:bold; font-family:sans-serif;">
      <text x="324" y="78" style="clip-path:url(#clipPath7); stroke:none;">vrj::GlApp
      </text>
    </g>
    <g>
      <line x1="270" x2="447" y1="89" style="clip-path:url(#clipPath6); fill:none;" y2="89" />
      <line x1="270" x2="447" y1="112" style="clip-path:url(#clipPath6); fill:none;" y2="112" />
    </g>
    <g style="font-family:sans-serif;">
      <text x="276" y="138" style="clip-path:url(#clipPath9); stroke:none;">+getDrawScaleFactor:float
      </text>
      <text x="276" y="160" style="font-style:italic; clip-path:url(#clipPath9); stroke:none;">+draw:void
      </text>
      <text x="276" y="182" style="clip-path:url(#clipPath9); stroke:none;">+contextInit:void
      </text>
      <text x="276" y="204" style="clip-path:url(#clipPath9); stroke:none;">+bufferPreDraw:void
      </text>
    </g>
    <g style="fill:navy; stroke:navy;">
      <rect x="283" y="283" width="157" style="clip-path:url(#clipPath1); stroke:none;" height="257" />
      <rect x="280" y="280" width="157" style="clip-path:url(#clipPath1); fill:white; stroke:none;" height="257" />
      <rect x="280" y="280" width="157" style="clip-path:url(#clipPath1); fill:none; stroke:black;" height="257" />
    </g>
    <g style="font-weight:bold; font-family:sans-serif;">
      <text x="317" y="298" style="clip-path:url(#clipPath11); stroke:none;">userOglApp
      </text>
    </g>
    <g>
      <line x1="280" x2="437" y1="309" style="clip-path:url(#clipPath10); fill:none;" y2="309" />
      <line x1="280" x2="437" y1="332" style="clip-path:url(#clipPath10); fill:none;" y2="332" />
    </g>
    <g style="font-family:sans-serif;">
      <text x="286" y="358" style="clip-path:url(#clipPath13); stroke:none;">+init:void
      </text>
      <text x="286" y="380" style="clip-path:url(#clipPath13); stroke:none;">+apiInit:void
      </text>
      <text x="286" y="402" style="clip-path:url(#clipPath13); stroke:none;">+preFrame:void
      </text>
      <text x="286" y="424" style="clip-path:url(#clipPath13); stroke:none;">+intraFrame:void
      </text>
      <text x="286" y="446" style="clip-path:url(#clipPath13); stroke:none;">+postFrame:void
      </text>
      <text x="286" y="468" style="clip-path:url(#clipPath13); stroke:none;">+bufferPreDraw:void
      </text>
      <text x="286" y="490" style="clip-path:url(#clipPath13); stroke:none;">+draw:void
      </text>
      <text x="286" y="512" style="clip-path:url(#clipPath13); stroke:none;">+contextInit:void
      </text>
    </g>
  </g>
</svg>
