<?xml version="1.0" encoding="UTF-8"?>

<!DOCTYPE svg PUBLIC '-//W3C//DTD SVG 20001102//EN' 'http://www.w3.org/TR/2000/CR-SVG-20001102/DTD/svg-20001102.dtd'>
<svg style="fill-opacity:1; color-interpolation:sRGB; color-rendering:auto; text-rendering:auto; stroke:black; stroke-linecap:square; stroke-miterlimit:10; stroke-opacity:1; shape-rendering:auto; fill:black; stroke-dasharray:none; font-weight:normal; stroke-width:1; font-family:&apos;Lucida Sans&apos;; font-style:normal; stroke-linejoin:miter; font-size:12; image-rendering:auto; stroke-dashoffset:0;" width="571" height="438">
  <!--Generated by the Batik Graphics2D SVG Generator-->
  <defs id="genericDefs" />
  <g>
    <defs id="defs1">
      <clipPath clipPathUnits="userSpaceOnUse" id="clipPath1">
        <path d="M0 0 L571 0 L571 438 L0 438 L0 0 Z" />
      </clipPath>
      <clipPath clipPathUnits="userSpaceOnUse" id="clipPath2">
        <path d="M180 270 L180 425 L300 425 L300 270 Z" />
      </clipPath>
      <clipPath clipPathUnits="userSpaceOnUse" id="clipPath3">
        <path d="M181 271 L181 285 L300 285 L300 271 Z" />
      </clipPath>
      <clipPath clipPathUnits="userSpaceOnUse" id="clipPath4">
        <path d="M180 320 L180 415 L300 415 L300 320 Z" />
      </clipPath>
      <clipPath clipPathUnits="userSpaceOnUse" id="clipPath5">
        <path d="M182 322 L182 414 L299 414 L299 322 Z" />
      </clipPath>
      <clipPath clipPathUnits="userSpaceOnUse" id="clipPath6">
        <path d="M20 20 L20 204 L258 204 L258 20 Z" />
      </clipPath>
      <clipPath clipPathUnits="userSpaceOnUse" id="clipPath7">
        <path d="M21 21 L21 48 L258 48 L258 21 Z" />
      </clipPath>
      <clipPath clipPathUnits="userSpaceOnUse" id="clipPath8">
        <path d="M20 73 L20 194 L258 194 L258 73 Z" />
      </clipPath>
      <clipPath clipPathUnits="userSpaceOnUse" id="clipPath9">
        <path d="M22 75 L22 193 L257 193 L257 75 Z" />
      </clipPath>
      <clipPath clipPathUnits="userSpaceOnUse" id="clipPath10">
        <path d="M290 20 L290 228 L558 228 L558 20 Z" />
      </clipPath>
      <clipPath clipPathUnits="userSpaceOnUse" id="clipPath11">
        <path d="M291 21 L291 35 L558 35 L558 21 Z" />
      </clipPath>
      <clipPath clipPathUnits="userSpaceOnUse" id="clipPath12">
        <path d="M290 70 L290 217 L558 217 L558 70 Z" />
      </clipPath>
      <clipPath clipPathUnits="userSpaceOnUse" id="clipPath13">
        <path d="M292 72 L292 216 L557 216 L557 72 Z" />
      </clipPath>
    </defs>
    <g style="fill:rgb(0,64,64); stroke:rgb(0,64,64);">
      <line x1="302" x2="340" y1="340" style="clip-path:url(#clipPath1); fill:none;" y2="340" />
      <line x1="340" x2="340" y1="340" style="clip-path:url(#clipPath1); fill:none;" y2="230" />
      <line x1="290" x2="260" y1="113" style="clip-path:url(#clipPath1); fill:none;" y2="113" />
      <polygon style="fill:white; clip-path:url(#clipPath1); stroke:none;" points=" 340 230 346 248 334 248" />
      <polygon style="fill:none; clip-path:url(#clipPath1);" points=" 340 230 346 248 334 248" />
      <line x1="334" x2="340" y1="248" style="clip-path:url(#clipPath1); fill:none;" y2="230" />
      <polygon style="fill:white; clip-path:url(#clipPath1); stroke:none;" points=" 260 113 278 107 278 119" />
      <polygon style="fill:none; clip-path:url(#clipPath1);" points=" 260 113 278 107 278 119" />
      <line x1="278" x2="260" y1="119" style="clip-path:url(#clipPath1); fill:none;" y2="113" />
      <rect x="183" y="273" width="119" style="clip-path:url(#clipPath1); fill:navy; stroke:none;" height="154" />
      <rect x="180" y="270" width="119" style="clip-path:url(#clipPath1); fill:white; stroke:none;" height="154" />
      <rect x="180" y="270" width="119" style="clip-path:url(#clipPath1); fill:none; stroke:black;" height="154" />
    </g>
    <g style="font-weight:bold; font-family:sans-serif;">
      <text x="203" y="281" style="clip-path:url(#clipPath3); stroke:none;">userPfApp
      </text>
    </g>
    <g>
      <line x1="180" x2="299" y1="290" style="clip-path:url(#clipPath2); fill:none;" y2="290" />
      <line x1="180" x2="299" y1="313" style="clip-path:url(#clipPath2); fill:none;" y2="313" />
    </g>
    <g style="font-family:sans-serif;">
      <text x="186" y="332" style="clip-path:url(#clipPath5); stroke:none;">+init:void
      </text>
      <text x="186" y="345" style="clip-path:url(#clipPath5); stroke:none;">+apiInit:void
      </text>
      <text x="186" y="358" style="clip-path:url(#clipPath5); stroke:none;">+preFrame:void
      </text>
      <text x="186" y="371" style="clip-path:url(#clipPath5); stroke:none;">+intraFrame:void
      </text>
      <text x="186" y="384" style="clip-path:url(#clipPath5); stroke:none;">+postFrame:void
      </text>
      <text x="186" y="397" style="clip-path:url(#clipPath5); stroke:none;">+initScene:void
      </text>
      <text x="186" y="410" style="clip-path:url(#clipPath5); stroke:none;">+getScene:void
      </text>
    </g>
    <g style="fill:navy; stroke:navy;">
      <rect x="23" y="23" width="237" style="clip-path:url(#clipPath1); stroke:none;" height="183" />
      <rect x="20" y="20" width="237" style="clip-path:url(#clipPath1); fill:white; stroke:none;" height="183" />
      <rect x="20" y="20" width="237" style="clip-path:url(#clipPath1); fill:none; stroke:black;" height="183" />
    </g>
    <g style="font-family:sans-serif;">
      <text x="111" y="31" style="clip-path:url(#clipPath7); stroke:none;">vjConfigChunkHandler
      </text>
      <text x="118" y="44" style="clip-path:url(#clipPath7); font-style:italic; stroke:none; font-weight:bold;">vjApp
      </text>
    </g>
    <g>
      <line x1="20" x2="257" y1="53" style="clip-path:url(#clipPath6); fill:none;" y2="53" />
      <line x1="20" x2="257" y1="66" style="clip-path:url(#clipPath6); fill:none;" y2="66" />
    </g>
    <g style="font-family:sans-serif;">
      <text x="26" y="85" style="clip-path:url(#clipPath9); stroke:none;">+vjApp
      </text>
      <text x="26" y="98" style="clip-path:url(#clipPath9); stroke:none;">+init:void
      </text>
      <text x="26" y="111" style="clip-path:url(#clipPath9); stroke:none;">+apiInit:void
      </text>
      <text x="26" y="124" style="clip-path:url(#clipPath9); stroke:none;">+exit:void
      </text>
      <text x="26" y="137" style="clip-path:url(#clipPath9); stroke:none;">+preFrame:void
      </text>
      <text x="26" y="150" style="clip-path:url(#clipPath9); stroke:none;">+intraFrame:void
      </text>
      <text x="26" y="163" style="clip-path:url(#clipPath9); stroke:none;">+postFrame:void
      </text>
      <text x="26" y="176" style="clip-path:url(#clipPath9); stroke:none;">+setFocus:void
      </text>
      <text x="26" y="189" style="font-style:italic; clip-path:url(#clipPath9); stroke:none;">+getDrawManager:vjDrawManager *
      </text>
    </g>
    <g style="fill:navy; stroke:navy;">
      <rect x="293" y="23" width="267" style="clip-path:url(#clipPath1); stroke:none;" height="207" />
      <rect x="290" y="20" width="267" style="clip-path:url(#clipPath1); fill:white; stroke:none;" height="207" />
      <rect x="290" y="20" width="267" style="clip-path:url(#clipPath1); fill:none; stroke:black;" height="207" />
    </g>
    <g style="font-style:italic; font-weight:bold; font-family:sans-serif;">
      <text x="396" y="31" style="clip-path:url(#clipPath11); stroke:none;">vjPfApp
      </text>
    </g>
    <g>
      <line x1="290" x2="557" y1="40" style="clip-path:url(#clipPath10); fill:none;" y2="40" />
      <line x1="290" x2="557" y1="63" style="clip-path:url(#clipPath10); fill:none;" y2="63" />
    </g>
    <g style="font-family:sans-serif;">
      <text x="296" y="82" style="clip-path:url(#clipPath13); stroke:none;">+vjPfApp
      </text>
      <text x="296" y="95" style="font-style:italic; clip-path:url(#clipPath13); stroke:none;">+initScene:void
      </text>
      <text x="296" y="108" style="clip-path:url(#clipPath13); stroke:none;">+preForkInit:void
      </text>
      <text x="296" y="121" style="clip-path:url(#clipPath13); stroke:none;">+appChanFunc:void
      </text>
      <text x="296" y="134" style="font-style:italic; clip-path:url(#clipPath13); stroke:none;">+getScene:pfGroup *
      </text>
      <text x="296" y="147" style="clip-path:url(#clipPath13); stroke:none;">+configPWin:void
      </text>
      <text x="296" y="160" style="clip-path:url(#clipPath13); stroke:none;">+getFrameBufferAttrs:std::vector&lt;int&gt;
      </text>
      <text x="296" y="173" style="clip-path:url(#clipPath13); stroke:none;">+drawChan:void
      </text>
      <text x="296" y="186" style="clip-path:url(#clipPath13); stroke:none;">+preDrawChan:void
      </text>
      <text x="296" y="199" style="clip-path:url(#clipPath13); stroke:none;">+postDrawChan:void
      </text>
      <text x="296" y="212" style="clip-path:url(#clipPath13); stroke:none;">+getDrawManager:vjDrawManager *
      </text>
    </g>
  </g>
</svg>
