<?xml version="1.0" encoding="UTF-8"?>

<!DOCTYPE svg PUBLIC '-//W3C//DTD SVG 20001102//EN' 'http://www.w3.org/TR/2000/CR-SVG-20001102/DTD/svg-20001102.dtd'>
<svg style="fill-opacity:1; color-interpolation:sRGB; color-rendering:auto; text-rendering:auto; stroke:black; stroke-linecap:square; stroke-miterlimit:10; stroke-opacity:1; shape-rendering:auto; fill:black; stroke-dasharray:none; font-weight:normal; stroke-width:1; font-family:&apos;Lucida Sans&apos;; font-style:normal; stroke-linejoin:miter; font-size:12; image-rendering:auto; stroke-dashoffset:0;" width="473" height="651">
  <!--Generated by the Batik Graphics2D SVG Generator-->
  <defs id="genericDefs" />
  <g>
    <defs id="defs1">
      <clipPath clipPathUnits="userSpaceOnUse" id="clipPath1">
        <path d="M0 0 L473 0 L473 651 L0 651 L0 0 Z" />
      </clipPath>
      <clipPath clipPathUnits="userSpaceOnUse" id="clipPath2">
        <path d="M204 20 L204 248 L382 248 L382 20 Z" />
      </clipPath>
      <clipPath clipPathUnits="userSpaceOnUse" id="clipPath3">
        <path d="M205 21 L205 66 L382 66 L382 21 Z" />
      </clipPath>
      <clipPath clipPathUnits="userSpaceOnUse" id="clipPath4">
        <path d="M204 101 L204 237 L382 237 L382 101 Z" />
      </clipPath>
      <clipPath clipPathUnits="userSpaceOnUse" id="clipPath5">
        <path d="M206 103 L206 236 L381 236 L381 103 Z" />
      </clipPath>
      <clipPath clipPathUnits="userSpaceOnUse" id="clipPath6">
        <path d="M90 290 L90 458 L280 458 L280 290 Z" />
      </clipPath>
      <clipPath clipPathUnits="userSpaceOnUse" id="clipPath7">
        <path d="M91 291 L91 314 L280 314 L280 291 Z" />
      </clipPath>
      <clipPath clipPathUnits="userSpaceOnUse" id="clipPath8">
        <path d="M90 349 L90 441 L280 441 L280 349 Z" />
      </clipPath>
      <clipPath clipPathUnits="userSpaceOnUse" id="clipPath9">
        <path d="M92 351 L92 440 L279 440 L279 351 Z" />
      </clipPath>
      <clipPath clipPathUnits="userSpaceOnUse" id="clipPath10">
        <path d="M302 290 L302 438 L460 438 L460 290 Z" />
      </clipPath>
      <clipPath clipPathUnits="userSpaceOnUse" id="clipPath11">
        <path d="M303 291 L303 314 L460 314 L460 291 Z" />
      </clipPath>
      <clipPath clipPathUnits="userSpaceOnUse" id="clipPath12">
        <path d="M302 349 L302 419 L460 419 L460 349 Z" />
      </clipPath>
      <clipPath clipPathUnits="userSpaceOnUse" id="clipPath13">
        <path d="M304 351 L304 418 L459 418 L459 351 Z" />
      </clipPath>
      <clipPath clipPathUnits="userSpaceOnUse" id="clipPath14">
        <path d="M20 500 L20 638 L188 638 L188 500 Z" />
      </clipPath>
      <clipPath clipPathUnits="userSpaceOnUse" id="clipPath15">
        <path d="M21 501 L21 524 L188 524 L188 501 Z" />
      </clipPath>
      <clipPath clipPathUnits="userSpaceOnUse" id="clipPath16">
        <path d="M20 559 L20 607 L188 607 L188 559 Z" />
      </clipPath>
      <clipPath clipPathUnits="userSpaceOnUse" id="clipPath17">
        <path d="M22 561 L22 606 L187 606 L187 561 Z" />
      </clipPath>
      <clipPath clipPathUnits="userSpaceOnUse" id="clipPath18">
        <path d="M210 500 L210 638 L408 638 L408 500 Z" />
      </clipPath>
      <clipPath clipPathUnits="userSpaceOnUse" id="clipPath19">
        <path d="M211 501 L211 524 L408 524 L408 501 Z" />
      </clipPath>
      <clipPath clipPathUnits="userSpaceOnUse" id="clipPath20">
        <path d="M210 559 L210 607 L408 607 L408 559 Z" />
      </clipPath>
      <clipPath clipPathUnits="userSpaceOnUse" id="clipPath21">
        <path d="M212 561 L212 606 L407 606 L407 561 Z" />
      </clipPath>
    </defs>
    <g style="fill:rgb(0,64,64); stroke:rgb(0,64,64);">
      <line x1="246" x2="246" y1="500" style="clip-path:url(#clipPath1); fill:none;" y2="460" />
      <line x1="343" x2="343" y1="290" style="clip-path:url(#clipPath1); fill:none;" y2="250" />
      <line x1="243" x2="243" y1="290" style="clip-path:url(#clipPath1); fill:none;" y2="250" />
      <line x1="140" x2="140" y1="500" style="clip-path:url(#clipPath1); fill:none;" y2="460" />
      <polygon style="fill:white; clip-path:url(#clipPath1); stroke:none;" points=" 246 460 252 478 240 478" />
      <polygon style="fill:none; clip-path:url(#clipPath1);" points=" 246 460 252 478 240 478" />
      <line x1="240" x2="246" y1="478" style="clip-path:url(#clipPath1); fill:none;" y2="460" />
      <polygon style="fill:white; clip-path:url(#clipPath1); stroke:none;" points=" 343 250 349 268 337 268" />
      <polygon style="fill:none; clip-path:url(#clipPath1);" points=" 343 250 349 268 337 268" />
      <line x1="337" x2="343" y1="268" style="clip-path:url(#clipPath1); fill:none;" y2="250" />
      <polygon style="fill:white; clip-path:url(#clipPath1); stroke:none;" points=" 243 250 249 268 237 268" />
      <polygon style="fill:none; clip-path:url(#clipPath1);" points=" 243 250 249 268 237 268" />
      <line x1="237" x2="243" y1="268" style="clip-path:url(#clipPath1); fill:none;" y2="250" />
      <polygon style="fill:white; clip-path:url(#clipPath1); stroke:none;" points=" 140 460 146 478 134 478" />
      <polygon style="fill:none; clip-path:url(#clipPath1);" points=" 140 460 146 478 134 478" />
      <line x1="134" x2="140" y1="478" style="clip-path:url(#clipPath1); fill:none;" y2="460" />
      <rect x="207" y="23" width="177" style="clip-path:url(#clipPath1); fill:navy; stroke:none;" height="227" />
      <rect x="204" y="20" width="177" style="clip-path:url(#clipPath1); fill:white; stroke:none;" height="227" />
      <rect x="204" y="20" width="177" style="clip-path:url(#clipPath1); fill:none; stroke:black;" height="227" />
    </g>
    <g style="font-family:sans-serif;">
      <text x="216" y="38" style="clip-path:url(#clipPath3); stroke:none;">jccl::ConfigChunkHandler
      </text>
      <text x="265" y="60" style="clip-path:url(#clipPath3); font-style:italic; stroke:none; font-weight:bold;">vrj::App
      </text>
    </g>
    <g>
      <line x1="204" x2="381" y1="71" style="clip-path:url(#clipPath2); fill:none;" y2="71" />
      <line x1="204" x2="381" y1="94" style="clip-path:url(#clipPath2); fill:none;" y2="94" />
    </g>
    <g style="font-family:sans-serif;">
      <text x="210" y="120" style="clip-path:url(#clipPath5); stroke:none;">+init:void
      </text>
      <text x="210" y="142" style="clip-path:url(#clipPath5); stroke:none;">+apiInit:void
      </text>
      <text x="210" y="164" style="clip-path:url(#clipPath5); stroke:none;">+exit:void
      </text>
      <text x="210" y="186" style="clip-path:url(#clipPath5); stroke:none;">+preFrame:void
      </text>
      <text x="210" y="208" style="clip-path:url(#clipPath5); stroke:none;">+intraFrame:void
      </text>
      <text x="210" y="230" style="clip-path:url(#clipPath5); stroke:none;">+postFrame:void
      </text>
    </g>
    <g style="fill:navy; stroke:navy;">
      <rect x="93" y="293" width="189" style="clip-path:url(#clipPath1); stroke:none;" height="167" />
      <rect x="90" y="290" width="189" style="clip-path:url(#clipPath1); fill:white; stroke:none;" height="167" />
      <rect x="90" y="290" width="189" style="clip-path:url(#clipPath1); fill:none; stroke:black;" height="167" />
    </g>
    <g style="font-style:italic; font-weight:bold; font-family:sans-serif;">
      <text x="150" y="308" style="clip-path:url(#clipPath7); stroke:none;">vrj::GlApp
      </text>
    </g>
    <g>
      <line x1="90" x2="279" y1="319" style="clip-path:url(#clipPath6); fill:none;" y2="319" />
      <line x1="90" x2="279" y1="342" style="clip-path:url(#clipPath6); fill:none;" y2="342" />
    </g>
    <g style="font-family:sans-serif;">
      <text x="96" y="368" style="clip-path:url(#clipPath9); stroke:none;">+getDrawScaleFactor:float
      </text>
      <text x="96" y="390" style="font-style:italic; clip-path:url(#clipPath9); stroke:none;">+draw:void
      </text>
      <text x="96" y="412" style="clip-path:url(#clipPath9); stroke:none;">+contextInit:void
      </text>
      <text x="96" y="434" style="clip-path:url(#clipPath9); stroke:none;">+bufferPreDraw:void
      </text>
    </g>
    <g style="fill:navy; stroke:navy;">
      <rect x="305" y="293" width="157" style="clip-path:url(#clipPath1); stroke:none;" height="147" />
      <rect x="302" y="290" width="157" style="clip-path:url(#clipPath1); fill:white; stroke:none;" height="147" />
      <rect x="302" y="290" width="157" style="clip-path:url(#clipPath1); fill:none; stroke:black;" height="147" />
    </g>
    <g style="font-style:italic; font-weight:bold; font-family:sans-serif;">
      <text x="346" y="308" style="clip-path:url(#clipPath11); stroke:none;">vrj::PfApp
      </text>
    </g>
    <g>
      <line x1="302" x2="459" y1="319" style="clip-path:url(#clipPath10); fill:none;" y2="319" />
      <line x1="302" x2="459" y1="342" style="clip-path:url(#clipPath10); fill:none;" y2="342" />
    </g>
    <g style="font-family:sans-serif; font-style:italic;">
      <text x="308" y="368" style="clip-path:url(#clipPath13); stroke:none;">+initScene:void
      </text>
      <text x="308" y="390" style="clip-path:url(#clipPath13); stroke:none;">+getScene:pfGroup *
      </text>
      <text x="308" y="412" style="font-style:normal; clip-path:url(#clipPath13); stroke:none;">+drawChan:void
      </text>
    </g>
    <g style="fill:navy; stroke:navy;">
      <rect x="23" y="503" width="167" style="clip-path:url(#clipPath1); stroke:none;" height="137" />
      <rect x="20" y="500" width="167" style="clip-path:url(#clipPath1); fill:white; stroke:none;" height="137" />
      <rect x="20" y="500" width="167" style="clip-path:url(#clipPath1); fill:none; stroke:black;" height="137" />
    </g>
    <g style="font-style:italic; font-weight:bold; font-family:sans-serif;">
      <text x="62" y="518" style="clip-path:url(#clipPath15); stroke:none;">vrj::OsgApp
      </text>
    </g>
    <g>
      <line x1="20" x2="187" y1="529" style="clip-path:url(#clipPath14); fill:none;" y2="529" />
      <line x1="20" x2="187" y1="552" style="clip-path:url(#clipPath14); fill:none;" y2="552" />
    </g>
    <g style="font-family:sans-serif; font-style:italic;">
      <text x="26" y="578" style="clip-path:url(#clipPath17); stroke:none;">+initScene:void
      </text>
      <text x="26" y="600" style="clip-path:url(#clipPath17); stroke:none;">+getScene:osg::Group *
      </text>
    </g>
    <g style="fill:navy; stroke:navy;">
      <rect x="213" y="503" width="197" style="clip-path:url(#clipPath1); stroke:none;" height="137" />
      <rect x="210" y="500" width="197" style="clip-path:url(#clipPath1); fill:white; stroke:none;" height="137" />
      <rect x="210" y="500" width="197" style="clip-path:url(#clipPath1); fill:none; stroke:black;" height="137" />
    </g>
    <g style="font-style:italic; font-weight:bold; font-family:sans-serif;">
      <text x="254" y="518" style="clip-path:url(#clipPath19); stroke:none;">vrj::OpenSGApp
      </text>
    </g>
    <g>
      <line x1="210" x2="407" y1="529" style="clip-path:url(#clipPath18); fill:none;" y2="529" />
      <line x1="210" x2="407" y1="552" style="clip-path:url(#clipPath18); fill:none;" y2="552" />
    </g>
    <g style="font-family:sans-serif; font-style:italic;">
      <text x="216" y="578" style="clip-path:url(#clipPath21); stroke:none;">+initScene:void
      </text>
      <text x="216" y="600" style="clip-path:url(#clipPath21); stroke:none;">+getSceneRoot:OSG::NodePtr
      </text>
    </g>
    <g>
      <line x1="210" x2="407" y1="612" style="clip-path:url(#clipPath18); fill:none;" y2="612" />
    </g>
  </g>
</svg>
