<?xml version="1.0" encoding="UTF-8"?>

<!DOCTYPE svg PUBLIC '-//W3C//DTD SVG 20001102//EN' 'http://www.w3.org/TR/2000/CR-SVG-20001102/DTD/svg-20001102.dtd'>
<svg style="fill-opacity:1; color-interpolation:sRGB; color-rendering:auto; text-rendering:auto; stroke:black; stroke-linecap:square; stroke-miterlimit:10; stroke-opacity:1; shape-rendering:auto; fill:black; stroke-dasharray:none; font-weight:normal; stroke-width:1; font-family:&apos;Lucida Sans&apos;; font-style:normal; stroke-linejoin:miter; font-size:12; image-rendering:auto; stroke-dashoffset:0;" width="591" height="431">
  <!--Generated by the Batik Graphics2D SVG Generator-->
  <defs id="genericDefs" />
  <g>
    <defs id="defs1">
      <clipPath clipPathUnits="userSpaceOnUse" id="clipPath1">
        <path d="M0 0 L591 0 L591 431 L0 431 L0 0 Z" />
      </clipPath>
      <clipPath clipPathUnits="userSpaceOnUse" id="clipPath2">
        <path d="M170 250 L170 418 L321 418 L321 250 Z" />
      </clipPath>
      <clipPath clipPathUnits="userSpaceOnUse" id="clipPath3">
        <path d="M171 251 L171 265 L321 265 L321 251 Z" />
      </clipPath>
      <clipPath clipPathUnits="userSpaceOnUse" id="clipPath4">
        <path d="M170 300 L170 408 L321 408 L321 300 Z" />
      </clipPath>
      <clipPath clipPathUnits="userSpaceOnUse" id="clipPath5">
        <path d="M172 302 L172 407 L320 407 L320 302 Z" />
      </clipPath>
      <clipPath clipPathUnits="userSpaceOnUse" id="clipPath6">
        <path d="M330 20 L330 188 L578 188 L578 20 Z" />
      </clipPath>
      <clipPath clipPathUnits="userSpaceOnUse" id="clipPath7">
        <path d="M331 21 L331 35 L578 35 L578 21 Z" />
      </clipPath>
      <clipPath clipPathUnits="userSpaceOnUse" id="clipPath8">
        <path d="M330 70 L330 165 L578 165 L578 70 Z" />
      </clipPath>
      <clipPath clipPathUnits="userSpaceOnUse" id="clipPath9">
        <path d="M332 72 L332 164 L577 164 L577 72 Z" />
      </clipPath>
      <clipPath clipPathUnits="userSpaceOnUse" id="clipPath10">
        <path d="M20 20 L20 217 L258 217 L258 20 Z" />
      </clipPath>
      <clipPath clipPathUnits="userSpaceOnUse" id="clipPath11">
        <path d="M21 21 L21 48 L258 48 L258 21 Z" />
      </clipPath>
      <clipPath clipPathUnits="userSpaceOnUse" id="clipPath12">
        <path d="M20 73 L20 194 L258 194 L258 73 Z" />
      </clipPath>
      <clipPath clipPathUnits="userSpaceOnUse" id="clipPath13">
        <path d="M22 75 L22 193 L257 193 L257 75 Z" />
      </clipPath>
    </defs>
    <g style="fill:rgb(0,64,64); stroke:rgb(0,64,64);">
      <line x1="330" x2="260" y1="105" style="clip-path:url(#clipPath1); fill:none;" y2="105" />
      <line x1="323" x2="380" y1="320" style="clip-path:url(#clipPath1); fill:none;" y2="320" />
      <line x1="380" x2="380" y1="320" style="clip-path:url(#clipPath1); fill:none;" y2="190" />
      <polygon style="fill:white; clip-path:url(#clipPath1); stroke:none;" points=" 260 105 278 99 278 111" />
      <polygon style="fill:none; clip-path:url(#clipPath1);" points=" 260 105 278 99 278 111" />
      <line x1="278" x2="260" y1="111" style="clip-path:url(#clipPath1); fill:none;" y2="105" />
      <polygon style="fill:white; clip-path:url(#clipPath1); stroke:none;" points=" 380 190 386 208 374 208" />
      <polygon style="fill:none; clip-path:url(#clipPath1);" points=" 380 190 386 208 374 208" />
      <line x1="374" x2="380" y1="208" style="clip-path:url(#clipPath1); fill:none;" y2="190" />
      <rect x="173" y="253" width="150" style="clip-path:url(#clipPath1); fill:navy; stroke:none;" height="167" />
      <rect x="170" y="250" width="150" style="clip-path:url(#clipPath1); fill:white; stroke:none;" height="167" />
      <rect x="170" y="250" width="150" style="clip-path:url(#clipPath1); fill:none; stroke:black;" height="167" />
    </g>
    <g style="font-weight:bold; font-family:sans-serif;">
      <text x="203" y="261" style="clip-path:url(#clipPath3); stroke:none;">userOglApp
      </text>
    </g>
    <g>
      <line x1="170" x2="320" y1="270" style="clip-path:url(#clipPath2); fill:none;" y2="270" />
      <line x1="170" x2="320" y1="293" style="clip-path:url(#clipPath2); fill:none;" y2="293" />
    </g>
    <g style="font-family:sans-serif;">
      <text x="176" y="312" style="clip-path:url(#clipPath5); stroke:none;">+init:void
      </text>
      <text x="176" y="325" style="clip-path:url(#clipPath5); stroke:none;">+apiInit:void
      </text>
      <text x="176" y="338" style="clip-path:url(#clipPath5); stroke:none;">+preFrame:void
      </text>
      <text x="176" y="351" style="clip-path:url(#clipPath5); stroke:none;">+intraFrame:void
      </text>
      <text x="176" y="364" style="clip-path:url(#clipPath5); stroke:none;">+postFrame:void
      </text>
      <text x="176" y="377" style="clip-path:url(#clipPath5); stroke:none;">+draw:void
      </text>
      <text x="176" y="390" style="clip-path:url(#clipPath5); stroke:none;">+contextInit:void
      </text>
      <text x="176" y="403" style="clip-path:url(#clipPath5); stroke:none;">+contextPreDraw:void
      </text>
    </g>
    <g style="fill:navy; stroke:navy;">
      <rect x="333" y="23" width="247" style="clip-path:url(#clipPath1); stroke:none;" height="167" />
      <rect x="330" y="20" width="247" style="clip-path:url(#clipPath1); fill:white; stroke:none;" height="167" />
      <rect x="330" y="20" width="247" style="clip-path:url(#clipPath1); fill:none; stroke:black;" height="167" />
    </g>
    <g style="font-style:italic; font-weight:bold; font-family:sans-serif;">
      <text x="426" y="31" style="clip-path:url(#clipPath7); stroke:none;">vjGlApp
      </text>
    </g>
    <g>
      <line x1="330" x2="577" y1="40" style="clip-path:url(#clipPath6); fill:none;" y2="40" />
      <line x1="330" x2="577" y1="63" style="clip-path:url(#clipPath6); fill:none;" y2="63" />
    </g>
    <g style="font-family:sans-serif;">
      <text x="336" y="82" style="clip-path:url(#clipPath9); stroke:none;">+vjGlApp
      </text>
      <text x="336" y="95" style="font-style:italic; clip-path:url(#clipPath9); stroke:none;">+draw:void
      </text>
      <text x="336" y="108" style="clip-path:url(#clipPath9); stroke:none;">+contextInit:void
      </text>
      <text x="336" y="121" style="clip-path:url(#clipPath9); stroke:none;">+contextClose:void
      </text>
      <text x="336" y="134" style="clip-path:url(#clipPath9); stroke:none;">+contextPreDraw:void
      </text>
      <text x="336" y="147" style="clip-path:url(#clipPath9); stroke:none;">+pipePreDraw:void
      </text>
      <text x="336" y="160" style="clip-path:url(#clipPath9); stroke:none;">+getDrawManager:vjDrawManager *
      </text>
    </g>
    <g style="fill:navy; stroke:navy;">
      <rect x="23" y="23" width="237" style="clip-path:url(#clipPath1); stroke:none;" height="196" />
      <rect x="20" y="20" width="237" style="clip-path:url(#clipPath1); fill:white; stroke:none;" height="196" />
      <rect x="20" y="20" width="237" style="clip-path:url(#clipPath1); fill:none; stroke:black;" height="196" />
    </g>
    <g style="font-family:sans-serif;">
      <text x="111" y="31" style="clip-path:url(#clipPath11); stroke:none;">vjConfigChunkHandler
      </text>
      <text x="118" y="44" style="clip-path:url(#clipPath11); font-style:italic; stroke:none; font-weight:bold;">vjApp
      </text>
    </g>
    <g>
      <line x1="20" x2="257" y1="53" style="clip-path:url(#clipPath10); fill:none;" y2="53" />
      <line x1="20" x2="257" y1="66" style="clip-path:url(#clipPath10); fill:none;" y2="66" />
    </g>
    <g style="font-family:sans-serif;">
      <text x="26" y="85" style="clip-path:url(#clipPath13); stroke:none;">+vjApp
      </text>
      <text x="26" y="98" style="clip-path:url(#clipPath13); stroke:none;">+init:void
      </text>
      <text x="26" y="111" style="clip-path:url(#clipPath13); stroke:none;">+apiInit:void
      </text>
      <text x="26" y="124" style="clip-path:url(#clipPath13); stroke:none;">+exit:void
      </text>
      <text x="26" y="137" style="clip-path:url(#clipPath13); stroke:none;">+preFrame:void
      </text>
      <text x="26" y="150" style="clip-path:url(#clipPath13); stroke:none;">+intraFrame:void
      </text>
      <text x="26" y="163" style="clip-path:url(#clipPath13); stroke:none;">+postFrame:void
      </text>
      <text x="26" y="176" style="clip-path:url(#clipPath13); stroke:none;">+setFocus:void
      </text>
      <text x="26" y="189" style="font-style:italic; clip-path:url(#clipPath13); stroke:none;">+getDrawManager:vjDrawManager *
      </text>
    </g>
    <g>
      <line x1="20" x2="257" y1="199" style="clip-path:url(#clipPath10); fill:none;" y2="199" />
    </g>
  </g>
</svg>
