<?xml version="1.0" encoding="UTF-8"?>

<!DOCTYPE svg PUBLIC '-//W3C//DTD SVG 20001102//EN' 'http://www.w3.org/TR/2000/CR-SVG-20001102/DTD/svg-20001102.dtd'>
<svg style="fill-opacity:1; color-interpolation:sRGB; color-rendering:auto; text-rendering:auto; stroke:black; stroke-linecap:square; stroke-miterlimit:10; stroke-opacity:1; shape-rendering:auto; fill:black; stroke-dasharray:none; font-weight:normal; stroke-width:1; font-family:&apos;Lucida Sans&apos;; font-style:normal; stroke-linejoin:miter; font-size:12; image-rendering:auto; stroke-dashoffset:0;" width="213" height="281">
  <!--Generated by the Batik Graphics2D SVG Generator-->
  <defs id="genericDefs" />
  <g>
    <defs id="defs1">
      <clipPath clipPathUnits="userSpaceOnUse" id="clipPath1">
        <path d="M0 0 L213 0 L213 281 L0 281 L0 0 Z" />
      </clipPath>
      <clipPath clipPathUnits="userSpaceOnUse" id="clipPath2">
        <path d="M26 10 L26 268 L200 268 L200 10 Z" />
      </clipPath>
      <clipPath clipPathUnits="userSpaceOnUse" id="clipPath3">
        <path d="M27 11 L27 34 L200 34 L200 11 Z" />
      </clipPath>
      <clipPath clipPathUnits="userSpaceOnUse" id="clipPath4">
        <path d="M26 46 L26 72 L200 72 L200 46 Z" />
      </clipPath>
      <clipPath clipPathUnits="userSpaceOnUse" id="clipPath5">
        <path d="M28 48 L28 71 L199 71 L199 48 Z" />
      </clipPath>
      <clipPath clipPathUnits="userSpaceOnUse" id="clipPath6">
        <path d="M26 84 L26 198 L200 198 L200 84 Z" />
      </clipPath>
      <clipPath clipPathUnits="userSpaceOnUse" id="clipPath7">
        <path d="M28 86 L28 197 L199 197 L199 86 Z" />
      </clipPath>
      <clipPath clipPathUnits="userSpaceOnUse" id="clipPath8">
        <path d="M26 210 L26 258 L200 258 L200 210 Z" />
      </clipPath>
      <clipPath clipPathUnits="userSpaceOnUse" id="clipPath9">
        <path d="M28 212 L28 257 L199 257 L199 212 Z" />
      </clipPath>
    </defs>
    <g style="fill:navy; stroke:navy;">
      <polygon style="clip-path:url(#clipPath1); stroke:none;" points=" 21 13 202 13 202 270 21 270 21 27 13 27 13 19 21 19 21 13" />
      <polygon style="fill:white; clip-path:url(#clipPath1); stroke:none;" points=" 18 10 199 10 199 267 18 267 18 24 10 24 10 16 18 16 18 10" />
      <polygon style="fill:none; clip-path:url(#clipPath1); stroke:black;" points=" 18 10 199 10 199 267 18 267 18 24 10 24 10 16 18 16 18 10" />
      <line x1="18" x2="26" y1="24" style="clip-path:url(#clipPath1); fill:none; stroke:black;" y2="24" />
      <line x1="26" x2="26" y1="24" style="clip-path:url(#clipPath1); fill:none; stroke:black;" y2="16" />
      <line x1="26" x2="18" y1="16" style="clip-path:url(#clipPath1); fill:none; stroke:black;" y2="16" />
    </g>
    <g style="font-style:italic; font-weight:bold; font-family:sans-serif;">
      <text x="36" y="28" style="clip-path:url(#clipPath3); stroke:none;">cluster::ClusterPlugin
      </text>
    </g>
    <g>
      <line x1="26" x2="199" y1="39" style="clip-path:url(#clipPath2); fill:none;" y2="39" />
    </g>
    <g style="font-family:sans-serif;">
      <text x="32" y="65" style="clip-path:url(#clipPath5); stroke:none;">-mActive:bool
      </text>
    </g>
    <g>
      <line x1="26" x2="199" y1="77" style="clip-path:url(#clipPath2); fill:none;" y2="77" />
    </g>
    <g style="font-family:sans-serif;">
      <text x="32" y="103" style="clip-path:url(#clipPath7); stroke:none;">+ClusterPlugin
      </text>
      <text x="32" y="125" style="clip-path:url(#clipPath7); stroke:none;">+~ClusterPlugin
      </text>
      <text x="32" y="147" style="clip-path:url(#clipPath7); stroke:none;">+isActive:bool
      </text>
      <text x="32" y="169" style="font-style:italic; clip-path:url(#clipPath7); stroke:none;">+preDraw:void
      </text>
      <text x="32" y="191" style="font-style:italic; clip-path:url(#clipPath7); stroke:none;">+postPostFrame:void
      </text>
    </g>
    <g>
      <line x1="26" x2="199" y1="203" style="clip-path:url(#clipPath2); fill:none;" y2="203" />
    </g>
    <g style="font-family:sans-serif;">
      <text x="32" y="229" style="clip-path:url(#clipPath9); stroke:none;"> active:bool
      </text>
      <text x="32" y="251" style="clip-path:url(#clipPath9); stroke:none;"> managerName:std::string
      </text>
    </g>
  </g>
</svg>
