<?xml version="1.0" encoding="UTF-8"?>

<!DOCTYPE svg PUBLIC '-//W3C//DTD SVG 20001102//EN' 'http://www.w3.org/TR/2000/CR-SVG-20001102/DTD/svg-20001102.dtd'>
<svg style="fill-opacity:1; color-interpolation:sRGB; color-rendering:auto; text-rendering:auto; stroke:black; stroke-linecap:square; stroke-miterlimit:10; stroke-opacity:1; shape-rendering:auto; fill:black; stroke-dasharray:none; font-weight:normal; stroke-width:1; font-family:&apos;Lucida Sans&apos;; font-style:normal; stroke-linejoin:miter; font-size:12; image-rendering:auto; stroke-dashoffset:0;" width="551" height="311">
  <!--Generated by the Batik Graphics2D SVG Generator-->
  <defs id="genericDefs" />
  <g>
    <defs id="defs1">
      <clipPath clipPathUnits="userSpaceOnUse" id="clipPath1">
        <path d="M0 0 L551 0 L551 311 L0 311 L0 0 Z" />
      </clipPath>
      <clipPath clipPathUnits="userSpaceOnUse" id="clipPath2">
        <path d="M300 10 L300 218 L538 218 L538 10 Z" />
      </clipPath>
      <clipPath clipPathUnits="userSpaceOnUse" id="clipPath3">
        <path d="M301 11 L301 51 L538 51 L538 11 Z" />
      </clipPath>
      <clipPath clipPathUnits="userSpaceOnUse" id="clipPath4">
        <path d="M300 86 L300 194 L538 194 L538 86 Z" />
      </clipPath>
      <clipPath clipPathUnits="userSpaceOnUse" id="clipPath5">
        <path d="M302 88 L302 193 L537 193 L537 88 Z" />
      </clipPath>
      <clipPath clipPathUnits="userSpaceOnUse" id="clipPath6">
        <path d="M26 10 L26 298 L258 298 L258 10 Z" />
      </clipPath>
      <clipPath clipPathUnits="userSpaceOnUse" id="clipPath7">
        <path d="M27 11 L27 25 L258 25 L258 11 Z" />
      </clipPath>
      <clipPath clipPathUnits="userSpaceOnUse" id="clipPath8">
        <path d="M26 60 L26 259 L258 259 L258 60 Z" />
      </clipPath>
      <clipPath clipPathUnits="userSpaceOnUse" id="clipPath9">
        <path d="M28 62 L28 258 L257 258 L257 62 Z" />
      </clipPath>
    </defs>
    <g style="fill:navy; stroke:navy;">
      <rect x="303" y="13" width="237" style="clip-path:url(#clipPath1); stroke:none;" height="207" />
      <rect x="300" y="10" width="237" style="clip-path:url(#clipPath1); fill:white; stroke:none;" height="207" />
      <rect x="300" y="10" width="237" style="clip-path:url(#clipPath1); fill:none; stroke:black;" height="207" />
    </g>
    <g style="font-family:sans-serif;">
      <text x="494" y="21" style="clip-path:url(#clipPath3); stroke:none;">Isonix
      </text>
      <text x="391" y="34" style="clip-path:url(#clipPath3); stroke:none;">vpr::Singleton&lt;sonix&gt;
      </text>
      <text x="399" y="47" style="font-weight:bold; clip-path:url(#clipPath3); stroke:none;">sonix
      </text>
    </g>
    <g>
      <line x1="300" x2="537" y1="56" style="clip-path:url(#clipPath2); fill:none;" y2="56" />
      <line x1="300" x2="537" y1="79" style="clip-path:url(#clipPath2); fill:none;" y2="79" />
    </g>
    <g style="font-family:sans-serif;">
      <text x="306" y="98" style="clip-path:url(#clipPath5); stroke:none;">+trigger:void
      </text>
      <text x="306" y="111" style="clip-path:url(#clipPath5); stroke:none;">+setPosition:void
      </text>
      <text x="306" y="124" style="clip-path:url(#clipPath5); stroke:none;">+setListenerPosition:void
      </text>
      <text x="306" y="137" style="clip-path:url(#clipPath5); stroke:none;">+changeAPI:void
      </text>
      <text x="306" y="150" style="clip-path:url(#clipPath5); stroke:none;">+configure:void
      </text>
      <text x="306" y="163" style="clip-path:url(#clipPath5); stroke:none;">+configure:void
      </text>
      <text x="306" y="176" style="clip-path:url(#clipPath5); stroke:none;">+remove:void
      </text>
      <text x="306" y="189" style="clip-path:url(#clipPath5); stroke:none;">+step:void
      </text>
    </g>
    <g style="fill:navy; stroke:navy;">
      <polygon style="clip-path:url(#clipPath1); stroke:none;" points=" 21 13 260 13 260 300 21 300 21 27 13 27 13 19 21 19 21 13" />
      <polygon style="fill:white; clip-path:url(#clipPath1); stroke:none;" points=" 18 10 257 10 257 297 18 297 18 24 10 24 10 16 18 16 18 10" />
      <polygon style="fill:none; clip-path:url(#clipPath1); stroke:black;" points=" 18 10 257 10 257 297 18 297 18 24 10 24 10 16 18 16 18 10" />
      <line x1="18" x2="26" y1="24" style="clip-path:url(#clipPath1); fill:none; stroke:black;" y2="24" />
      <line x1="26" x2="26" y1="24" style="clip-path:url(#clipPath1); fill:none; stroke:black;" y2="16" />
      <line x1="26" x2="18" y1="16" style="clip-path:url(#clipPath1); fill:none; stroke:black;" y2="16" />
    </g>
    <g style="font-weight:bold; font-family:sans-serif;">
      <text x="79" y="21" style="clip-path:url(#clipPath7); stroke:none;">snx::SoundHandle
      </text>
    </g>
    <g>
      <line x1="26" x2="257" y1="30" style="clip-path:url(#clipPath6); fill:none;" y2="30" />
      <line x1="26" x2="257" y1="53" style="clip-path:url(#clipPath6); fill:none;" y2="53" />
    </g>
    <g style="font-family:sans-serif;">
      <text x="32" y="72" style="clip-path:url(#clipPath9); stroke:none;">+SoundHandle
      </text>
      <text x="32" y="85" style="clip-path:url(#clipPath9); stroke:none;">+SoundHandle
      </text>
      <text x="32" y="98" style="clip-path:url(#clipPath9); stroke:none;">+init:void
      </text>
      <text x="32" y="111" style="clip-path:url(#clipPath9); stroke:none;">+~SoundHandle
      </text>
      <text x="32" y="124" style="clip-path:url(#clipPath9); stroke:none;">+trigger:void
      </text>
      <text x="32" y="137" style="clip-path:url(#clipPath9); stroke:none;">+stop:void
      </text>
      <text x="32" y="150" style="clip-path:url(#clipPath9); stroke:none;">+pause:void
      </text>
      <text x="32" y="163" style="clip-path:url(#clipPath9); stroke:none;">+unpause:void
      </text>
      <text x="32" y="176" style="clip-path:url(#clipPath9); stroke:none;">+mute:void
      </text>
      <text x="32" y="189" style="clip-path:url(#clipPath9); stroke:none;">+unmute:void
      </text>
      <text x="32" y="202" style="clip-path:url(#clipPath9); stroke:none;">+setPosition:void
      </text>
      <text x="32" y="215" style="clip-path:url(#clipPath9); stroke:none;">+getPosition:void
      </text>
      <text x="32" y="228" style="clip-path:url(#clipPath9); stroke:none;">+getListenerPosition:void
      </text>
      <text x="32" y="241" style="clip-path:url(#clipPath9); stroke:none;">+configure:void
      </text>
      <text x="32" y="254" style="clip-path:url(#clipPath9); stroke:none;">+remove:void
      </text>
    </g>
    <g>
      <line x1="26" x2="257" y1="264" style="clip-path:url(#clipPath6); fill:none;" y2="264" />
    </g>
  </g>
</svg>
