<?xml version="1.0" encoding="UTF-8"?>

<!DOCTYPE svg PUBLIC '-//W3C//DTD SVG 20001102//EN' 'http://www.w3.org/TR/2000/CR-SVG-20001102/DTD/svg-20001102.dtd'>
<svg style="fill-opacity:1; color-interpolation:sRGB; color-rendering:auto; text-rendering:auto; stroke:black; stroke-linecap:square; stroke-miterlimit:10; stroke-opacity:1; shape-rendering:auto; fill:black; stroke-dasharray:none; font-weight:normal; stroke-width:1; font-family:&apos;Lucida Sans&apos;; font-style:normal; stroke-linejoin:miter; font-size:12; image-rendering:auto; stroke-dashoffset:0;" width="831" height="561">
  <!--Generated by the Batik Graphics2D SVG Generator-->
  <defs id="genericDefs" />
  <g>
    <defs id="defs1">
      <clipPath clipPathUnits="userSpaceOnUse" id="clipPath1">
        <path d="M0 0 L831 0 L831 561 L0 561 L0 0 Z" />
      </clipPath>
      <clipPath clipPathUnits="userSpaceOnUse" id="clipPath2">
        <path d="M36 20 L36 308 L268 308 L268 20 Z" />
      </clipPath>
      <clipPath clipPathUnits="userSpaceOnUse" id="clipPath3">
        <path d="M37 21 L37 35 L268 35 L268 21 Z" />
      </clipPath>
      <clipPath clipPathUnits="userSpaceOnUse" id="clipPath4">
        <path d="M36 70 L36 256 L268 256 L268 70 Z" />
      </clipPath>
      <clipPath clipPathUnits="userSpaceOnUse" id="clipPath5">
        <path d="M38 72 L38 255 L267 255 L267 72 Z" />
      </clipPath>
      <clipPath clipPathUnits="userSpaceOnUse" id="clipPath6">
        <path d="M36 268 L36 298 L268 298 L268 268 Z" />
      </clipPath>
      <clipPath clipPathUnits="userSpaceOnUse" id="clipPath7">
        <path d="M38 270 L38 297 L267 297 L267 270 Z" />
      </clipPath>
      <clipPath clipPathUnits="userSpaceOnUse" id="clipPath8">
        <path d="M320 20 L320 331 L494 331 L494 20 Z" />
      </clipPath>
      <clipPath clipPathUnits="userSpaceOnUse" id="clipPath9">
        <path d="M321 21 L321 61 L494 61 L494 21 Z" />
      </clipPath>
      <clipPath clipPathUnits="userSpaceOnUse" id="clipPath10">
        <path d="M320 96 L320 321 L494 321 L494 96 Z" />
      </clipPath>
      <clipPath clipPathUnits="userSpaceOnUse" id="clipPath11">
        <path d="M322 98 L322 320 L493 320 L493 98 Z" />
      </clipPath>
      <clipPath clipPathUnits="userSpaceOnUse" id="clipPath12">
        <path d="M586 20 L586 503 L818 503 L818 20 Z" />
      </clipPath>
      <clipPath clipPathUnits="userSpaceOnUse" id="clipPath13">
        <path d="M587 21 L587 35 L818 35 L818 21 Z" />
      </clipPath>
      <clipPath clipPathUnits="userSpaceOnUse" id="clipPath14">
        <path d="M586 70 L586 451 L818 451 L818 70 Z" />
      </clipPath>
      <clipPath clipPathUnits="userSpaceOnUse" id="clipPath15">
        <path d="M588 72 L588 450 L817 450 L817 72 Z" />
      </clipPath>
      <clipPath clipPathUnits="userSpaceOnUse" id="clipPath16">
        <path d="M586 463 L586 493 L818 493 L818 463 Z" />
      </clipPath>
      <clipPath clipPathUnits="userSpaceOnUse" id="clipPath17">
        <path d="M588 465 L588 492 L817 492 L817 465 Z" />
      </clipPath>
      <clipPath clipPathUnits="userSpaceOnUse" id="clipPath18">
        <path d="M320 350 L320 453 L518 453 L518 350 Z" />
      </clipPath>
      <clipPath clipPathUnits="userSpaceOnUse" id="clipPath19">
        <path d="M321 351 L321 378 L518 378 L518 351 Z" />
      </clipPath>
      <clipPath clipPathUnits="userSpaceOnUse" id="clipPath20">
        <path d="M320 413 L320 443 L518 443 L518 413 Z" />
      </clipPath>
      <clipPath clipPathUnits="userSpaceOnUse" id="clipPath21">
        <path d="M322 415 L322 442 L517 442 L517 415 Z" />
      </clipPath>
      <clipPath clipPathUnits="userSpaceOnUse" id="clipPath22">
        <path d="M30 340 L30 548 L278 548 L278 340 Z" />
      </clipPath>
      <clipPath clipPathUnits="userSpaceOnUse" id="clipPath23">
        <path d="M31 341 L31 368 L278 368 L278 341 Z" />
      </clipPath>
      <clipPath clipPathUnits="userSpaceOnUse" id="clipPath24">
        <path d="M30 380 L30 475 L278 475 L278 380 Z" />
      </clipPath>
      <clipPath clipPathUnits="userSpaceOnUse" id="clipPath25">
        <path d="M32 382 L32 474 L277 474 L277 382 Z" />
      </clipPath>
      <clipPath clipPathUnits="userSpaceOnUse" id="clipPath26">
        <path d="M30 487 L30 504 L278 504 L278 487 Z" />
      </clipPath>
      <clipPath clipPathUnits="userSpaceOnUse" id="clipPath27">
        <path d="M32 489 L32 503 L277 503 L277 489 Z" />
      </clipPath>
      <clipPath clipPathUnits="userSpaceOnUse" id="clipPath28">
        <path d="M30 516 L30 533 L278 533 L278 516 Z" />
      </clipPath>
      <clipPath clipPathUnits="userSpaceOnUse" id="clipPath29">
        <path d="M32 518 L32 532 L277 532 L277 518 Z" />
      </clipPath>
    </defs>
    <g>
      <line x1="320" x2="320" y1="298" style="clip-path:url(#clipPath1); fill:none;" y2="298" />
      <line x1="320" x2="315" y1="299" style="clip-path:url(#clipPath1); fill:none;" y2="308" />
      <line x1="312" x2="308" y1="312" style="clip-path:url(#clipPath1); fill:none;" y2="321" />
      <line x1="305" x2="301" y1="325" style="clip-path:url(#clipPath1); fill:none;" y2="334" />
      <line x1="298" x2="293" y1="338" style="clip-path:url(#clipPath1); fill:none;" y2="347" />
      <line x1="291" x2="286" y1="352" style="clip-path:url(#clipPath1); fill:none;" y2="360" />
      <line x1="284" x2="280" y1="365" style="clip-path:url(#clipPath1); fill:none;" y2="372" />
      <line x1="270" x2="270" y1="165" style="clip-path:url(#clipPath1); fill:none;" y2="165" />
      <line x1="275" x2="285" y1="165" style="clip-path:url(#clipPath1); fill:none;" y2="165" />
      <line x1="290" x2="300" y1="165" style="clip-path:url(#clipPath1); fill:none;" y2="165" />
      <line x1="305" x2="315" y1="165" style="clip-path:url(#clipPath1); fill:none;" y2="165" />
      <line x1="320" x2="320" y1="165" style="clip-path:url(#clipPath1); fill:none;" y2="165" />
      <line x1="413" x2="413" y1="333" style="clip-path:url(#clipPath1); fill:none;" y2="333" />
      <line x1="413" x2="413" y1="335" style="clip-path:url(#clipPath1); fill:none;" y2="345" />
      <line x1="413" x2="413" y1="350" style="clip-path:url(#clipPath1); fill:none;" y2="350" />
      <line x1="570" x2="280" y1="467" style="clip-path:url(#clipPath1); fill:none; stroke:rgb(0,0,130);" y2="467" />
      <line x1="520" x2="570" y1="385" style="clip-path:url(#clipPath1); fill:none; stroke:rgb(0,0,130);" y2="385" />
      <line x1="520" x2="525" y1="420" style="clip-path:url(#clipPath1); fill:none;" y2="420" />
      <line x1="530" x2="540" y1="420" style="clip-path:url(#clipPath1); fill:none;" y2="420" />
      <line x1="545" x2="555" y1="420" style="clip-path:url(#clipPath1); fill:none;" y2="420" />
      <line x1="560" x2="570" y1="420" style="clip-path:url(#clipPath1); fill:none;" y2="420" />
      <line x1="496" x2="570" y1="98" style="clip-path:url(#clipPath1); fill:none; stroke:rgb(0,0,130);" y2="98" />
      <line x1="280" x2="290" y1="372" style="clip-path:url(#clipPath1); fill:none;" y2="364" />
      <line x1="280" x2="281" y1="372" style="clip-path:url(#clipPath1); fill:none;" y2="359" />
      <line x1="320" x2="308" y1="165" style="clip-path:url(#clipPath1); fill:none;" y2="160" />
      <line x1="320" x2="308" y1="165" style="clip-path:url(#clipPath1); fill:none;" y2="170" />
      <line x1="413" x2="418" y1="350" style="clip-path:url(#clipPath1); fill:none;" y2="338" />
      <line x1="413" x2="408" y1="350" style="clip-path:url(#clipPath1); fill:none;" y2="338" />
      <polygon style="fill:white; clip-path:url(#clipPath1); stroke:none;" points=" 570 467 562 471 554 467 562 463" />
      <polygon style="fill:none; clip-path:url(#clipPath1); stroke:rgb(0,0,130);" points=" 570 467 562 471 554 467 562 463" />
      <line x1="562" x2="570" y1="463" style="clip-path:url(#clipPath1); fill:none; stroke:rgb(0,0,130);" y2="467" />
      <line x1="280" x2="292" y1="467" style="clip-path:url(#clipPath1); fill:none; stroke:rgb(0,0,130);" y2="472" />
      <line x1="280" x2="292" y1="467" style="clip-path:url(#clipPath1); fill:none; stroke:rgb(0,0,130);" y2="462" />
      <text x="554" y="460" style="clip-path:url(#clipPath1); fill:rgb(0,0,130); font-family:sans-serif; stroke:none;">1
      </text>
      <text x="288" y="460" style="clip-path:url(#clipPath1); fill:rgb(0,0,130); font-family:sans-serif; stroke:none;">0..*
      </text>
      <polygon points=" 520 385 528 381 536 385 528 389" style="fill:white; clip-path:url(#clipPath1); font-family:sans-serif; stroke:none;" />
      <polygon points=" 520 385 528 381 536 385 528 389" style="fill:none; clip-path:url(#clipPath1); font-family:sans-serif; stroke:rgb(0,0,130);" />
      <line x1="528" x2="520" y1="389" style="clip-path:url(#clipPath1); fill:none; font-family:sans-serif; stroke:rgb(0,0,130);" y2="385" />
      <line x1="570" x2="558" y1="385" style="clip-path:url(#clipPath1); fill:none; font-family:sans-serif; stroke:rgb(0,0,130);" y2="380" />
      <line x1="570" x2="558" y1="385" style="clip-path:url(#clipPath1); fill:none; font-family:sans-serif; stroke:rgb(0,0,130);" y2="390" />
      <text x="528" y="378" style="clip-path:url(#clipPath1); fill:rgb(0,0,130); font-family:sans-serif; stroke:none;">1
      </text>
      <text x="540" y="378" style="clip-path:url(#clipPath1); fill:rgb(0,0,130); font-family:sans-serif; stroke:none;">0..*
      </text>
      <line x1="570" x2="558" y1="420" style="clip-path:url(#clipPath1); fill:none; font-family:sans-serif;" y2="415" />
      <line x1="570" x2="558" y1="420" style="clip-path:url(#clipPath1); fill:none; font-family:sans-serif;" y2="425" />
      <polygon points=" 496 98 504 94 512 98 504 102" style="fill:white; clip-path:url(#clipPath1); font-family:sans-serif; stroke:none;" />
      <polygon points=" 496 98 504 94 512 98 504 102" style="fill:none; clip-path:url(#clipPath1); font-family:sans-serif; stroke:rgb(0,0,130);" />
      <line x1="504" x2="496" y1="102" style="clip-path:url(#clipPath1); fill:none; font-family:sans-serif; stroke:rgb(0,0,130);" y2="98" />
      <line x1="570" x2="558" y1="98" style="clip-path:url(#clipPath1); fill:none; font-family:sans-serif; stroke:rgb(0,0,130);" y2="93" />
      <line x1="570" x2="558" y1="98" style="clip-path:url(#clipPath1); fill:none; font-family:sans-serif; stroke:rgb(0,0,130);" y2="103" />
      <text x="504" y="91" style="clip-path:url(#clipPath1); fill:rgb(0,0,130); font-family:sans-serif; stroke:none;">1
      </text>
      <text x="554" y="91" style="clip-path:url(#clipPath1); fill:rgb(0,0,130); font-family:sans-serif; stroke:none;">1
      </text>
      <polygon points=" 31 23 270 23 270 310 31 310 31 37 23 37 23 29 31 29 31 23" style="fill:navy; clip-path:url(#clipPath1); font-family:sans-serif; stroke:none;" />
      <polygon points=" 28 20 267 20 267 307 28 307 28 34 20 34 20 26 28 26 28 20" style="fill:white; clip-path:url(#clipPath1); font-family:sans-serif; stroke:none;" />
      <polygon style="fill:none; clip-path:url(#clipPath1); font-family:sans-serif;" points=" 28 20 267 20 267 307 28 307 28 34 20 34 20 26 28 26 28 20" />
      <line x1="28" x2="36" y1="34" style="clip-path:url(#clipPath1); fill:none; font-family:sans-serif;" y2="34" />
      <line x1="36" x2="36" y1="34" style="clip-path:url(#clipPath1); fill:none; font-family:sans-serif;" y2="26" />
      <line x1="36" x2="28" y1="26" style="clip-path:url(#clipPath1); fill:none; font-family:sans-serif;" y2="26" />
    </g>
    <g style="font-weight:bold; font-family:sans-serif;">
      <text x="89" y="31" style="clip-path:url(#clipPath3); stroke:none;">snx::SoundHandle
      </text>
    </g>
    <g style="font-family:sans-serif;">
      <line x1="36" x2="267" y1="40" style="clip-path:url(#clipPath2); fill:none;" y2="40" />
      <line x1="36" x2="267" y1="63" style="clip-path:url(#clipPath2); fill:none;" y2="63" />
    </g>
    <g style="font-family:sans-serif;">
      <text x="42" y="82" style="clip-path:url(#clipPath5); stroke:none;">+SoundHandle
      </text>
      <text x="42" y="95" style="clip-path:url(#clipPath5); stroke:none;">+SoundHandle
      </text>
      <text x="42" y="108" style="clip-path:url(#clipPath5); stroke:none;">+init:void
      </text>
      <text x="42" y="121" style="clip-path:url(#clipPath5); stroke:none;">+~SoundHandle
      </text>
      <text x="42" y="134" style="clip-path:url(#clipPath5); stroke:none;">+trigger:void
      </text>
      <text x="42" y="147" style="clip-path:url(#clipPath5); stroke:none;">+stop:void
      </text>
      <text x="42" y="160" style="clip-path:url(#clipPath5); stroke:none;">+pause:void
      </text>
      <text x="42" y="173" style="clip-path:url(#clipPath5); stroke:none;">+unpause:void
      </text>
      <text x="42" y="186" style="clip-path:url(#clipPath5); stroke:none;">+mute:void
      </text>
      <text x="42" y="199" style="clip-path:url(#clipPath5); stroke:none;">+unmute:void
      </text>
      <text x="42" y="212" style="clip-path:url(#clipPath5); stroke:none;">+setPosition:void
      </text>
      <text x="42" y="225" style="clip-path:url(#clipPath5); stroke:none;">+getPosition:void
      </text>
      <text x="42" y="238" style="clip-path:url(#clipPath5); stroke:none;">+configure:void
      </text>
      <text x="42" y="251" style="clip-path:url(#clipPath5); stroke:none;">+remove:void
      </text>
    </g>
    <g style="font-family:sans-serif;">
      <line x1="36" x2="267" y1="261" style="clip-path:url(#clipPath2); fill:none;" y2="261" />
    </g>
    <g style="font-family:sans-serif;">
      <text x="42" y="280" style="clip-path:url(#clipPath7); stroke:none;"> retriggerable:bool
      </text>
      <text x="42" y="293" style="clip-path:url(#clipPath7); stroke:none;"> ambient:bool
      </text>
    </g>
    <g style="fill:navy; font-family:sans-serif; stroke:navy;">
      <rect x="323" y="23" width="173" style="clip-path:url(#clipPath1); stroke:none;" height="310" />
      <rect x="320" y="20" width="173" style="clip-path:url(#clipPath1); fill:white; stroke:none;" height="310" />
      <rect x="320" y="20" width="173" style="clip-path:url(#clipPath1); fill:none; stroke:black;" height="310" />
    </g>
    <g style="font-family:sans-serif;">
      <text x="450" y="31" style="clip-path:url(#clipPath9); stroke:none;">Isonix
      </text>
      <text x="347" y="44" style="clip-path:url(#clipPath9); stroke:none;">vpr::Singleton&lt;sonix&gt;
      </text>
      <text x="387" y="57" style="font-weight:bold; clip-path:url(#clipPath9); stroke:none;">sonix
      </text>
    </g>
    <g style="font-family:sans-serif;">
      <line x1="320" x2="493" y1="66" style="clip-path:url(#clipPath8); fill:none;" y2="66" />
      <line x1="320" x2="493" y1="89" style="clip-path:url(#clipPath8); fill:none;" y2="89" />
    </g>
    <g style="font-family:sans-serif;">
      <text x="326" y="108" style="clip-path:url(#clipPath11); stroke:none;">+trigger:void
      </text>
      <text x="326" y="121" style="clip-path:url(#clipPath11); stroke:none;">+setRetriggerable:void
      </text>
      <text x="326" y="134" style="clip-path:url(#clipPath11); stroke:none;">+setAmbient:void
      </text>
      <text x="326" y="147" style="clip-path:url(#clipPath11); stroke:none;">+stop:void
      </text>
      <text x="326" y="160" style="clip-path:url(#clipPath11); stroke:none;">+pause:void
      </text>
      <text x="326" y="173" style="clip-path:url(#clipPath11); stroke:none;">+unpause:void
      </text>
      <text x="326" y="186" style="clip-path:url(#clipPath11); stroke:none;">+mute:void
      </text>
      <text x="326" y="199" style="clip-path:url(#clipPath11); stroke:none;">+unmute:void
      </text>
      <text x="326" y="212" style="clip-path:url(#clipPath11); stroke:none;">+setPosition:void
      </text>
      <text x="326" y="225" style="clip-path:url(#clipPath11); stroke:none;">+getPosition:void
      </text>
      <text x="326" y="238" style="clip-path:url(#clipPath11); stroke:none;">+setListenerPosition:void
      </text>
      <text x="326" y="251" style="clip-path:url(#clipPath11); stroke:none;">+getListenerPosition:void
      </text>
      <text x="326" y="264" style="clip-path:url(#clipPath11); stroke:none;">+changeAPI:void
      </text>
      <text x="326" y="277" style="clip-path:url(#clipPath11); stroke:none;">+configure:void
      </text>
      <text x="326" y="290" style="clip-path:url(#clipPath11); stroke:none;">+configure:void
      </text>
      <text x="326" y="303" style="clip-path:url(#clipPath11); stroke:none;">+remove:void
      </text>
      <text x="326" y="316" style="clip-path:url(#clipPath11); stroke:none;">+step:void
      </text>
    </g>
    <g style="fill:navy; font-family:sans-serif; stroke:navy;">
      <polygon style="clip-path:url(#clipPath1); stroke:none;" points=" 581 23 820 23 820 505 581 505 581 37 573 37 573 29 581 29 581 23" />
      <polygon style="fill:white; clip-path:url(#clipPath1); stroke:none;" points=" 578 20 817 20 817 502 578 502 578 34 570 34 570 26 578 26 578 20" />
      <polygon style="fill:none; clip-path:url(#clipPath1); stroke:black;" points=" 578 20 817 20 817 502 578 502 578 34 570 34 570 26 578 26 578 20" />
      <line x1="578" x2="586" y1="34" style="clip-path:url(#clipPath1); fill:none; stroke:black;" y2="34" />
      <line x1="586" x2="586" y1="34" style="clip-path:url(#clipPath1); fill:none; stroke:black;" y2="26" />
      <line x1="586" x2="578" y1="26" style="clip-path:url(#clipPath1); fill:none; stroke:black;" y2="26" />
    </g>
    <g style="font-style:italic; font-weight:bold; font-family:sans-serif;">
      <text x="607" y="31" style="clip-path:url(#clipPath13); stroke:none;">snx::SoundImplementation
      </text>
    </g>
    <g style="font-family:sans-serif;">
      <line x1="586" x2="817" y1="40" style="clip-path:url(#clipPath12); fill:none;" y2="40" />
      <line x1="586" x2="817" y1="63" style="clip-path:url(#clipPath12); fill:none;" y2="63" />
    </g>
    <g style="font-family:sans-serif;">
      <text x="592" y="82" style="clip-path:url(#clipPath15); stroke:none;">+SoundImplementation
      </text>
      <text x="592" y="95" style="font-style:italic; clip-path:url(#clipPath15); stroke:none;">+clone:void
      </text>
      <text x="592" y="108" style="clip-path:url(#clipPath15); stroke:none;">+~SoundImplementation
      </text>
      <text x="592" y="121" style="clip-path:url(#clipPath15); stroke:none;">+copy:void
      </text>
      <text x="592" y="134" style="clip-path:url(#clipPath15); stroke:none;">+trigger:void
      </text>
      <text x="592" y="147" style="clip-path:url(#clipPath15); stroke:none;">+setRetriggerable:void
      </text>
      <text x="592" y="160" style="clip-path:url(#clipPath15); stroke:none;">+setAmbient:void
      </text>
      <text x="592" y="173" style="clip-path:url(#clipPath15); stroke:none;">+stop:void
      </text>
      <text x="592" y="186" style="clip-path:url(#clipPath15); stroke:none;">+pause:void
      </text>
      <text x="592" y="199" style="clip-path:url(#clipPath15); stroke:none;">+unpause:void
      </text>
      <text x="592" y="212" style="clip-path:url(#clipPath15); stroke:none;">+mute:void
      </text>
      <text x="592" y="225" style="clip-path:url(#clipPath15); stroke:none;">+unmute:void
      </text>
      <text x="592" y="238" style="clip-path:url(#clipPath15); stroke:none;">+setPosition:void
      </text>
      <text x="592" y="251" style="clip-path:url(#clipPath15); stroke:none;">+getPosition:void
      </text>
      <text x="592" y="264" style="clip-path:url(#clipPath15); stroke:none;">+getListenerPosition:void
      </text>
      <text x="592" y="277" style="font-style:italic; clip-path:url(#clipPath15); stroke:none;">+startAPI:void
      </text>
      <text x="592" y="290" style="font-style:italic; clip-path:url(#clipPath15); stroke:none;">+isStarted:bool
      </text>
      <text x="592" y="303" style="clip-path:url(#clipPath15); stroke:none;">+shutdownAPI:void
      </text>
      <text x="592" y="316" style="clip-path:url(#clipPath15); stroke:none;">+configure:void
      </text>
      <text x="592" y="329" style="clip-path:url(#clipPath15); stroke:none;">+configure:void
      </text>
      <text x="592" y="342" style="clip-path:url(#clipPath15); stroke:none;">+remove:void
      </text>
      <text x="592" y="355" style="clip-path:url(#clipPath15); stroke:none;">+step:void
      </text>
      <text x="592" y="368" style="clip-path:url(#clipPath15); stroke:none;">+clear:void
      </text>
      <text x="592" y="381" style="clip-path:url(#clipPath15); stroke:none;">+bindAll:void
      </text>
      <text x="592" y="394" style="clip-path:url(#clipPath15); stroke:none;">+unbindAll:void
      </text>
      <text x="592" y="407" style="font-style:italic; clip-path:url(#clipPath15); stroke:none;">+bind:void
      </text>
      <text x="592" y="420" style="font-style:italic; clip-path:url(#clipPath15); stroke:none;">+unbind:void
      </text>
      <text x="592" y="433" style="clip-path:url(#clipPath15); stroke:none;">+lookup:snx::SoundInfo &amp;
      </text>
      <text x="592" y="446" style="clip-path:url(#clipPath15); stroke:none;">+name:std::string &amp;
      </text>
    </g>
    <g style="font-family:sans-serif;">
      <line x1="586" x2="817" y1="456" style="clip-path:url(#clipPath12); fill:none;" y2="456" />
    </g>
    <g style="font-family:sans-serif;">
      <text x="592" y="475" style="clip-path:url(#clipPath17); stroke:none;"> listenerPosition:const vrj::Matrix
      </text>
      <text x="592" y="488" style="clip-path:url(#clipPath17); stroke:none;"> name:const std::string
      </text>
    </g>
    <g style="fill:navy; font-family:sans-serif; stroke:navy;">
      <rect x="323" y="353" width="197" style="clip-path:url(#clipPath1); stroke:none;" height="102" />
      <rect x="320" y="350" width="197" style="clip-path:url(#clipPath1); fill:white; stroke:none;" height="102" />
      <rect x="320" y="350" width="197" style="clip-path:url(#clipPath1); fill:none; stroke:black;" height="102" />
    </g>
    <g style="font-family:sans-serif;">
      <text x="321" y="361" style="clip-path:url(#clipPath19); stroke:none;">vpr::Singleton&lt;SoundFactory&gt;
      </text>
      <text x="354" y="374" style="font-weight:bold; clip-path:url(#clipPath19); stroke:none;">snx::SoundFactory
      </text>
    </g>
    <g style="font-family:sans-serif;">
      <line x1="320" x2="517" y1="383" style="clip-path:url(#clipPath18); fill:none;" y2="383" />
      <line x1="320" x2="517" y1="406" style="clip-path:url(#clipPath18); fill:none;" y2="406" />
    </g>
    <g style="font-family:sans-serif;">
      <text x="326" y="425" style="clip-path:url(#clipPath21); stroke:none;">+createImplementation:void
      </text>
      <text x="326" y="438" style="clip-path:url(#clipPath21); stroke:none;">+reg:void
      </text>
    </g>
    <g style="fill:navy; font-family:sans-serif; stroke:navy;">
      <rect x="33" y="343" width="247" style="clip-path:url(#clipPath1); stroke:none;" height="207" />
      <rect x="30" y="340" width="247" style="clip-path:url(#clipPath1); fill:white; stroke:none;" height="207" />
      <rect x="30" y="340" width="247" style="clip-path:url(#clipPath1); fill:none; stroke:black;" height="207" />
    </g>
    <g style="font-family:sans-serif;">
      <text x="135" y="351" style="clip-path:url(#clipPath23); stroke:none;">struct
      </text>
      <text x="101" y="364" style="font-weight:bold; clip-path:url(#clipPath23); stroke:none;">snx::SoundInfo
      </text>
    </g>
    <g style="font-family:sans-serif;">
      <line x1="30" x2="277" y1="373" style="clip-path:url(#clipPath22); fill:none;" y2="373" />
    </g>
    <g style="font-family:sans-serif;">
      <text x="36" y="392" style="clip-path:url(#clipPath25); stroke:none;">+alias:std::string
      </text>
      <text x="36" y="405" style="clip-path:url(#clipPath25); stroke:none;">+datasource:DataSource
      </text>
      <text x="36" y="418" style="clip-path:url(#clipPath25); stroke:none;">+filename:std::string
      </text>
      <text x="36" y="431" style="clip-path:url(#clipPath25); stroke:none;">+position:vrj::Vec3
      </text>
      <text x="36" y="444" style="clip-path:url(#clipPath25); stroke:none;">+ambient:bool
      </text>
      <text x="36" y="457" style="clip-path:url(#clipPath25); stroke:none;">+retriggerable:bool
      </text>
      <text x="36" y="470" style="clip-path:url(#clipPath25); stroke:none;">+repeat:int
      </text>
    </g>
    <g style="font-family:sans-serif;">
      <line x1="30" x2="277" y1="480" style="clip-path:url(#clipPath22); fill:none;" y2="480" />
    </g>
    <g style="font-family:sans-serif;">
      <text x="36" y="499" style="clip-path:url(#clipPath27); stroke:none;">+SoundInfo
      </text>
    </g>
    <g style="font-family:sans-serif;">
      <line x1="30" x2="277" y1="509" style="clip-path:url(#clipPath22); fill:none;" y2="509" />
    </g>
    <g style="font-family:sans-serif;">
      <text x="36" y="528" style="clip-path:url(#clipPath29); stroke:none;"> DataSource
      </text>
    </g>
  </g>
</svg>
