<?xml version="1.0" encoding="UTF-8"?>

<!DOCTYPE svg PUBLIC '-//W3C//DTD SVG 20001102//EN' 'http://www.w3.org/TR/2000/CR-SVG-20001102/DTD/svg-20001102.dtd'>
<svg style="fill-opacity:1; color-interpolation:sRGB; color-rendering:auto; text-rendering:auto; stroke:black; stroke-linecap:square; stroke-miterlimit:10; stroke-opacity:1; shape-rendering:auto; fill:black; stroke-dasharray:none; font-weight:normal; stroke-width:1; font-family:&apos;Lucida Sans&apos;; font-style:normal; stroke-linejoin:miter; font-size:12; image-rendering:auto; stroke-dashoffset:0;" width="631" height="789">
  <!--Generated by the Batik Graphics2D SVG Generator-->
  <defs id="genericDefs" />
  <g>
    <defs id="defs1">
      <clipPath clipPathUnits="userSpaceOnUse" id="clipPath1">
        <path d="M0 0 L631 0 L631 789 L0 789 L0 0 Z" />
      </clipPath>
      <clipPath clipPathUnits="userSpaceOnUse" id="clipPath2">
        <path d="M160 40 L160 248 L408 248 L408 40 Z" />
      </clipPath>
      <clipPath clipPathUnits="userSpaceOnUse" id="clipPath3">
        <path d="M161 41 L161 68 L408 68 L408 41 Z" />
      </clipPath>
      <clipPath clipPathUnits="userSpaceOnUse" id="clipPath4">
        <path d="M160 103 L160 237 L408 237 L408 103 Z" />
      </clipPath>
      <clipPath clipPathUnits="userSpaceOnUse" id="clipPath5">
        <path d="M162 105 L162 236 L407 236 L407 105 Z" />
      </clipPath>
      <clipPath clipPathUnits="userSpaceOnUse" id="clipPath6">
        <path d="M420 540 L420 776 L618 776 L618 540 Z" />
      </clipPath>
      <clipPath clipPathUnits="userSpaceOnUse" id="clipPath7">
        <path d="M421 541 L421 555 L618 555 L618 541 Z" />
      </clipPath>
      <clipPath clipPathUnits="userSpaceOnUse" id="clipPath8">
        <path d="M420 590 L420 737 L618 737 L618 590 Z" />
      </clipPath>
      <clipPath clipPathUnits="userSpaceOnUse" id="clipPath9">
        <path d="M422 592 L422 736 L617 736 L617 592 Z" />
      </clipPath>
      <clipPath clipPathUnits="userSpaceOnUse" id="clipPath10">
        <path d="M420 749 L420 766 L618 766 L618 749 Z" />
      </clipPath>
      <clipPath clipPathUnits="userSpaceOnUse" id="clipPath11">
        <path d="M422 751 L422 765 L617 765 L617 751 Z" />
      </clipPath>
      <clipPath clipPathUnits="userSpaceOnUse" id="clipPath12">
        <path d="M230 540 L230 760 L398 760 L398 540 Z" />
      </clipPath>
      <clipPath clipPathUnits="userSpaceOnUse" id="clipPath13">
        <path d="M231 541 L231 555 L398 555 L398 541 Z" />
      </clipPath>
      <clipPath clipPathUnits="userSpaceOnUse" id="clipPath14">
        <path d="M230 590 L230 750 L398 750 L398 590 Z" />
      </clipPath>
      <clipPath clipPathUnits="userSpaceOnUse" id="clipPath15">
        <path d="M232 592 L232 749 L397 749 L397 592 Z" />
      </clipPath>
      <clipPath clipPathUnits="userSpaceOnUse" id="clipPath16">
        <path d="M40 300 L40 448 L268 448 L268 300 Z" />
      </clipPath>
      <clipPath clipPathUnits="userSpaceOnUse" id="clipPath17">
        <path d="M41 301 L41 315 L268 315 L268 301 Z" />
      </clipPath>
      <clipPath clipPathUnits="userSpaceOnUse" id="clipPath18">
        <path d="M40 350 L40 432 L268 432 L268 350 Z" />
      </clipPath>
      <clipPath clipPathUnits="userSpaceOnUse" id="clipPath19">
        <path d="M42 352 L42 431 L267 431 L267 352 Z" />
      </clipPath>
      <clipPath clipPathUnits="userSpaceOnUse" id="clipPath20">
        <path d="M290 300 L290 498 L518 498 L518 300 Z" />
      </clipPath>
      <clipPath clipPathUnits="userSpaceOnUse" id="clipPath21">
        <path d="M291 301 L291 315 L518 315 L518 301 Z" />
      </clipPath>
      <clipPath clipPathUnits="userSpaceOnUse" id="clipPath22">
        <path d="M290 350 L290 484 L518 484 L518 350 Z" />
      </clipPath>
      <clipPath clipPathUnits="userSpaceOnUse" id="clipPath23">
        <path d="M292 352 L292 483 L517 483 L517 352 Z" />
      </clipPath>
    </defs>
    <g style="fill:rgb(0,64,64); stroke:rgb(0,64,64);">
      <line x1="470" x2="470" y1="540" style="clip-path:url(#clipPath1); fill:none;" y2="500" />
      <line x1="345" x2="345" y1="540" style="clip-path:url(#clipPath1); fill:none;" y2="500" />
      <line x1="215" x2="215" y1="300" style="clip-path:url(#clipPath1); fill:none;" y2="250" />
      <line x1="350" x2="350" y1="300" style="clip-path:url(#clipPath1); fill:none;" y2="250" />
      <polygon style="fill:white; clip-path:url(#clipPath1); stroke:none;" points=" 470 500 476 518 464 518" />
      <polygon style="fill:none; clip-path:url(#clipPath1);" points=" 470 500 476 518 464 518" />
      <line x1="464" x2="470" y1="518" style="clip-path:url(#clipPath1); fill:none;" y2="500" />
      <polygon style="fill:white; clip-path:url(#clipPath1); stroke:none;" points=" 345 500 351 518 339 518" />
      <polygon style="fill:none; clip-path:url(#clipPath1);" points=" 345 500 351 518 339 518" />
      <line x1="339" x2="345" y1="518" style="clip-path:url(#clipPath1); fill:none;" y2="500" />
      <polygon style="fill:white; clip-path:url(#clipPath1); stroke:none;" points=" 215 250 221 268 209 268" />
      <polygon style="fill:none; clip-path:url(#clipPath1);" points=" 215 250 221 268 209 268" />
      <line x1="209" x2="215" y1="268" style="clip-path:url(#clipPath1); fill:none;" y2="250" />
      <polygon style="fill:white; clip-path:url(#clipPath1); stroke:none;" points=" 350 250 356 268 344 268" />
      <polygon style="fill:none; clip-path:url(#clipPath1);" points=" 350 250 356 268 344 268" />
      <line x1="344" x2="350" y1="268" style="clip-path:url(#clipPath1); fill:none;" y2="250" />
      <rect x="163" y="43" width="247" style="clip-path:url(#clipPath1); fill:navy; stroke:none;" height="207" />
      <rect x="160" y="40" width="247" style="clip-path:url(#clipPath1); fill:white; stroke:none;" height="207" />
      <rect x="160" y="40" width="247" style="clip-path:url(#clipPath1); fill:none; stroke:black;" height="207" />
    </g>
    <g style="font-family:sans-serif;">
      <text x="242" y="51" style="clip-path:url(#clipPath3); stroke:none;">jccl::ConfigChunkHandler
      </text>
      <text x="256" y="64" style="clip-path:url(#clipPath3); font-style:italic; stroke:none; font-weight:bold;">vrj::App
      </text>
    </g>
    <g>
      <line x1="160" x2="407" y1="73" style="clip-path:url(#clipPath2); fill:none;" y2="73" />
      <line x1="160" x2="407" y1="96" style="clip-path:url(#clipPath2); fill:none;" y2="96" />
    </g>
    <g style="font-family:sans-serif;">
      <text x="166" y="115" style="clip-path:url(#clipPath5); stroke:none;">+App
      </text>
      <text x="166" y="128" style="clip-path:url(#clipPath5); stroke:none;">+App
      </text>
      <text x="166" y="141" style="clip-path:url(#clipPath5); stroke:none;">+init:void
      </text>
      <text x="166" y="154" style="clip-path:url(#clipPath5); stroke:none;">+apiInit:void
      </text>
      <text x="166" y="167" style="clip-path:url(#clipPath5); stroke:none;">+exit:void
      </text>
      <text x="166" y="180" style="clip-path:url(#clipPath5); stroke:none;">+preFrame:void
      </text>
      <text x="166" y="193" style="clip-path:url(#clipPath5); stroke:none;">+intraFrame:void
      </text>
      <text x="166" y="206" style="clip-path:url(#clipPath5); stroke:none;">+postFrame:void
      </text>
      <text x="166" y="219" style="font-style:italic; clip-path:url(#clipPath5); stroke:none;">+getDrawManager:DrawManager *
      </text>
      <text x="166" y="232" style="clip-path:url(#clipPath5); stroke:none;">+getSoundManager:SoundManager *
      </text>
    </g>
    <g style="fill:navy; stroke:navy;">
      <rect x="423" y="543" width="197" style="clip-path:url(#clipPath1); stroke:none;" height="235" />
      <rect x="420" y="540" width="197" style="clip-path:url(#clipPath1); fill:white; stroke:none;" height="235" />
      <rect x="420" y="540" width="197" style="clip-path:url(#clipPath1); fill:none; stroke:black;" height="235" />
    </g>
    <g style="font-style:italic; font-weight:bold; font-family:sans-serif;">
      <text x="464" y="551" style="clip-path:url(#clipPath7); stroke:none;">vrj::OpenSGApp
      </text>
    </g>
    <g>
      <line x1="420" x2="617" y1="560" style="clip-path:url(#clipPath6); fill:none;" y2="560" />
      <line x1="420" x2="617" y1="583" style="clip-path:url(#clipPath6); fill:none;" y2="583" />
    </g>
    <g style="font-family:sans-serif;">
      <text x="426" y="602" style="clip-path:url(#clipPath9); stroke:none;">+OpenSGApp
      </text>
      <text x="426" y="615" style="clip-path:url(#clipPath9); stroke:none;">+~OpenSGApp
      </text>
      <text x="426" y="628" style="font-style:italic; clip-path:url(#clipPath9); stroke:none;">+initScene:void
      </text>
      <text x="426" y="641" style="font-style:italic; clip-path:url(#clipPath9); stroke:none;">+getSceneRoot:OSG::NodePtr
      </text>
      <text x="426" y="654" style="clip-path:url(#clipPath9); stroke:none;">+init:void
      </text>
      <text x="426" y="667" style="clip-path:url(#clipPath9); stroke:none;">+apiInit:void
      </text>
      <text x="426" y="680" style="clip-path:url(#clipPath9); stroke:none;">+contextInit:void
      </text>
      <text x="426" y="693" style="clip-path:url(#clipPath9); stroke:none;">+contextPreDraw:void
      </text>
      <text x="426" y="706" style="clip-path:url(#clipPath9); stroke:none;">+contextPostDraw:void
      </text>
      <text x="426" y="719" style="clip-path:url(#clipPath9); stroke:none;">+draw:void
      </text>
      <text x="426" y="732" style="clip-path:url(#clipPath9); stroke:none;">+bufferPreDraw:void
      </text>
    </g>
    <g>
      <line x1="420" x2="617" y1="742" style="clip-path:url(#clipPath6); fill:none;" y2="742" />
    </g>
    <g style="font-family:sans-serif;">
      <text x="426" y="761" style="clip-path:url(#clipPath11); stroke:none;"> context data
      </text>
    </g>
    <g style="fill:navy; stroke:navy;">
      <rect x="233" y="543" width="167" style="clip-path:url(#clipPath1); stroke:none;" height="219" />
      <rect x="230" y="540" width="167" style="clip-path:url(#clipPath1); fill:white; stroke:none;" height="219" />
      <rect x="230" y="540" width="167" style="clip-path:url(#clipPath1); fill:none; stroke:black;" height="219" />
    </g>
    <g style="font-style:italic; font-weight:bold; font-family:sans-serif;">
      <text x="272" y="551" style="clip-path:url(#clipPath13); stroke:none;">vrj::OsgApp
      </text>
    </g>
    <g>
      <line x1="230" x2="397" y1="560" style="clip-path:url(#clipPath12); fill:none;" y2="560" />
      <line x1="230" x2="397" y1="583" style="clip-path:url(#clipPath12); fill:none;" y2="583" />
    </g>
    <g style="font-family:sans-serif;">
      <text x="236" y="602" style="clip-path:url(#clipPath15); stroke:none;">+OsgApp
      </text>
      <text x="236" y="615" style="clip-path:url(#clipPath15); stroke:none;">+~OsgApp
      </text>
      <text x="236" y="628" style="font-style:italic; clip-path:url(#clipPath15); stroke:none;">+initScene:void
      </text>
      <text x="236" y="641" style="font-style:italic; clip-path:url(#clipPath15); stroke:none;">+getScene:osg::Group *
      </text>
      <text x="236" y="654" style="clip-path:url(#clipPath15); stroke:none;">+configSceneView:void
      </text>
      <text x="236" y="667" style="clip-path:url(#clipPath15); stroke:none;">+draw:void
      </text>
      <text x="236" y="680" style="clip-path:url(#clipPath15); stroke:none;">+init:void
      </text>
      <text x="236" y="693" style="clip-path:url(#clipPath15); stroke:none;">+contextInit:void
      </text>
      <text x="236" y="706" style="clip-path:url(#clipPath15); stroke:none;">+contextClose:void
      </text>
      <text x="236" y="719" style="clip-path:url(#clipPath15); stroke:none;">+contextPreDraw:void
      </text>
      <text x="236" y="732" style="clip-path:url(#clipPath15); stroke:none;">+bufferPreDraw:void
      </text>
      <text x="236" y="745" style="clip-path:url(#clipPath15); stroke:none;">+pipePreDraw:void
      </text>
    </g>
    <g style="fill:navy; stroke:navy;">
      <rect x="43" y="303" width="227" style="clip-path:url(#clipPath1); stroke:none;" height="147" />
      <rect x="40" y="300" width="227" style="clip-path:url(#clipPath1); fill:white; stroke:none;" height="147" />
      <rect x="40" y="300" width="227" style="clip-path:url(#clipPath1); fill:none; stroke:black;" height="147" />
    </g>
    <g style="font-style:italic; font-weight:bold; font-family:sans-serif;">
      <text x="119" y="311" style="clip-path:url(#clipPath17); stroke:none;">vrj::PfApp
      </text>
    </g>
    <g>
      <line x1="40" x2="267" y1="320" style="clip-path:url(#clipPath16); fill:none;" y2="320" />
      <line x1="40" x2="267" y1="343" style="clip-path:url(#clipPath16); fill:none;" y2="343" />
    </g>
    <g style="font-family:sans-serif;">
      <text x="46" y="362" style="clip-path:url(#clipPath19); stroke:none;">+PfApp
      </text>
      <text x="46" y="375" style="clip-path:url(#clipPath19); stroke:none;">+PfApp
      </text>
      <text x="46" y="388" style="font-style:italic; clip-path:url(#clipPath19); stroke:none;">+initScene:void
      </text>
      <text x="46" y="401" style="font-style:italic; clip-path:url(#clipPath19); stroke:none;">+getScene:pfGroup *
      </text>
      <text x="46" y="414" style="clip-path:url(#clipPath19); stroke:none;">+drawChan:void
      </text>
      <text x="46" y="427" style="clip-path:url(#clipPath19); stroke:none;">+getDrawManager:DrawManager *
      </text>
    </g>
    <g style="fill:navy; stroke:navy;">
      <rect x="293" y="303" width="227" style="clip-path:url(#clipPath1); stroke:none;" height="197" />
      <rect x="290" y="300" width="227" style="clip-path:url(#clipPath1); fill:white; stroke:none;" height="197" />
      <rect x="290" y="300" width="227" style="clip-path:url(#clipPath1); fill:none; stroke:black;" height="197" />
    </g>
    <g style="font-style:italic; font-weight:bold; font-family:sans-serif;">
      <text x="369" y="311" style="clip-path:url(#clipPath21); stroke:none;">vrj::GlApp
      </text>
    </g>
    <g>
      <line x1="290" x2="517" y1="320" style="clip-path:url(#clipPath20); fill:none;" y2="320" />
      <line x1="290" x2="517" y1="343" style="clip-path:url(#clipPath20); fill:none;" y2="343" />
    </g>
    <g style="font-family:sans-serif;">
      <text x="296" y="362" style="clip-path:url(#clipPath23); stroke:none;">+GlApp
      </text>
      <text x="296" y="375" style="clip-path:url(#clipPath23); stroke:none;">+GlApp
      </text>
      <text x="296" y="388" style="font-style:italic; clip-path:url(#clipPath23); stroke:none;">+draw:void
      </text>
      <text x="296" y="401" style="clip-path:url(#clipPath23); stroke:none;">+contextInit:void
      </text>
      <text x="296" y="414" style="clip-path:url(#clipPath23); stroke:none;">+contextClose:void
      </text>
      <text x="296" y="427" style="clip-path:url(#clipPath23); stroke:none;">+contextPreDraw:void
      </text>
      <text x="296" y="440" style="clip-path:url(#clipPath23); stroke:none;">+contextPostDraw:void
      </text>
      <text x="296" y="453" style="clip-path:url(#clipPath23); stroke:none;">+bufferPreDraw:void
      </text>
      <text x="296" y="466" style="clip-path:url(#clipPath23); stroke:none;">+pipePreDraw:void
      </text>
      <text x="296" y="479" style="clip-path:url(#clipPath23); stroke:none;">+getDrawManager:DrawManager *
      </text>
    </g>
  </g>
</svg>
