<?xml version="1.0" encoding="UTF-8"?>

<!DOCTYPE svg PUBLIC '-//W3C//DTD SVG 20001102//EN' 'http://www.w3.org/TR/2000/CR-SVG-20001102/DTD/svg-20001102.dtd'>
<svg style="fill-opacity:1; color-interpolation:sRGB; color-rendering:auto; text-rendering:auto; stroke:black; stroke-linecap:square; stroke-miterlimit:10; stroke-opacity:1; shape-rendering:auto; fill:black; stroke-dasharray:none; font-weight:normal; stroke-width:1; font-family:&apos;Lucida Sans&apos;; font-style:normal; stroke-linejoin:miter; font-size:12; image-rendering:auto; stroke-dashoffset:0;" width="617" height="835">
  <!--Generated by the Batik Graphics2D SVG Generator-->
  <defs id="genericDefs" />
  <g>
    <defs id="defs1">
      <clipPath clipPathUnits="userSpaceOnUse" id="clipPath1">
        <path d="M0 0 L617 0 L617 835 L0 835 L0 0 Z" />
      </clipPath>
      <clipPath clipPathUnits="userSpaceOnUse" id="clipPath2">
        <path d="M176 40 L176 278 L398 278 L398 40 Z" />
      </clipPath>
      <clipPath clipPathUnits="userSpaceOnUse" id="clipPath3">
        <path d="M177 41 L177 68 L398 68 L398 41 Z" />
      </clipPath>
      <clipPath clipPathUnits="userSpaceOnUse" id="clipPath4">
        <path d="M176 103 L176 211 L398 211 L398 103 Z" />
      </clipPath>
      <clipPath clipPathUnits="userSpaceOnUse" id="clipPath5">
        <path d="M178 105 L178 210 L397 210 L397 105 Z" />
      </clipPath>
      <clipPath clipPathUnits="userSpaceOnUse" id="clipPath6">
        <path d="M176 223 L176 268 L398 268 L398 223 Z" />
      </clipPath>
      <clipPath clipPathUnits="userSpaceOnUse" id="clipPath7">
        <path d="M178 225 L178 267 L397 267 L397 225 Z" />
      </clipPath>
      <clipPath clipPathUnits="userSpaceOnUse" id="clipPath8">
        <path d="M336 310 L336 518 L498 518 L498 310 Z" />
      </clipPath>
      <clipPath clipPathUnits="userSpaceOnUse" id="clipPath9">
        <path d="M337 311 L337 325 L498 325 L498 311 Z" />
      </clipPath>
      <clipPath clipPathUnits="userSpaceOnUse" id="clipPath10">
        <path d="M336 360 L336 481 L498 481 L498 360 Z" />
      </clipPath>
      <clipPath clipPathUnits="userSpaceOnUse" id="clipPath11">
        <path d="M338 362 L338 480 L497 480 L497 362 Z" />
      </clipPath>
      <clipPath clipPathUnits="userSpaceOnUse" id="clipPath12">
        <path d="M246 570 L246 806 L404 806 L404 570 Z" />
      </clipPath>
      <clipPath clipPathUnits="userSpaceOnUse" id="clipPath13">
        <path d="M247 571 L247 585 L404 585 L404 571 Z" />
      </clipPath>
      <clipPath clipPathUnits="userSpaceOnUse" id="clipPath14">
        <path d="M246 620 L246 767 L404 767 L404 620 Z" />
      </clipPath>
      <clipPath clipPathUnits="userSpaceOnUse" id="clipPath15">
        <path d="M248 622 L248 766 L403 766 L403 622 Z" />
      </clipPath>
      <clipPath clipPathUnits="userSpaceOnUse" id="clipPath16">
        <path d="M246 779 L246 796 L404 796 L404 779 Z" />
      </clipPath>
      <clipPath clipPathUnits="userSpaceOnUse" id="clipPath17">
        <path d="M248 781 L248 795 L403 795 L403 781 Z" />
      </clipPath>
      <clipPath clipPathUnits="userSpaceOnUse" id="clipPath18">
        <path d="M436 570 L436 822 L604 822 L604 570 Z" />
      </clipPath>
      <clipPath clipPathUnits="userSpaceOnUse" id="clipPath19">
        <path d="M437 571 L437 585 L604 585 L604 571 Z" />
      </clipPath>
      <clipPath clipPathUnits="userSpaceOnUse" id="clipPath20">
        <path d="M436 620 L436 754 L604 754 L604 620 Z" />
      </clipPath>
      <clipPath clipPathUnits="userSpaceOnUse" id="clipPath21">
        <path d="M438 622 L438 753 L603 753 L603 622 Z" />
      </clipPath>
      <clipPath clipPathUnits="userSpaceOnUse" id="clipPath22">
        <path d="M436 766 L436 783 L604 783 L604 766 Z" />
      </clipPath>
      <clipPath clipPathUnits="userSpaceOnUse" id="clipPath23">
        <path d="M438 768 L438 782 L603 782 L603 768 Z" />
      </clipPath>
      <clipPath clipPathUnits="userSpaceOnUse" id="clipPath24">
        <path d="M436 795 L436 812 L604 812 L604 795 Z" />
      </clipPath>
      <clipPath clipPathUnits="userSpaceOnUse" id="clipPath25">
        <path d="M438 797 L438 811 L603 811 L603 797 Z" />
      </clipPath>
      <clipPath clipPathUnits="userSpaceOnUse" id="clipPath26">
        <path d="M56 310 L56 488 L288 488 L288 310 Z" />
      </clipPath>
      <clipPath clipPathUnits="userSpaceOnUse" id="clipPath27">
        <path d="M57 311 L57 325 L288 325 L288 311 Z" />
      </clipPath>
      <clipPath clipPathUnits="userSpaceOnUse" id="clipPath28">
        <path d="M56 360 L56 416 L288 416 L288 360 Z" />
      </clipPath>
      <clipPath clipPathUnits="userSpaceOnUse" id="clipPath29">
        <path d="M58 362 L58 415 L287 415 L287 362 Z" />
      </clipPath>
      <clipPath clipPathUnits="userSpaceOnUse" id="clipPath30">
        <path d="M56 428 L56 478 L288 478 L288 428 Z" />
      </clipPath>
      <clipPath clipPathUnits="userSpaceOnUse" id="clipPath31">
        <path d="M58 430 L58 477 L287 477 L287 430 Z" />
      </clipPath>
    </defs>
    <g style="fill:rgb(0,64,64); stroke:rgb(0,64,64);">
      <line x1="460" x2="460" y1="570" style="clip-path:url(#clipPath1); fill:none;" y2="520" />
      <line x1="363" x2="363" y1="570" style="clip-path:url(#clipPath1); fill:none;" y2="520" />
      <line x1="225" x2="225" y1="310" style="clip-path:url(#clipPath1); fill:none;" y2="280" />
      <line x1="360" x2="360" y1="310" style="clip-path:url(#clipPath1); fill:none;" y2="280" />
      <polygon style="fill:white; clip-path:url(#clipPath1); stroke:none;" points=" 460 520 466 538 454 538" />
      <polygon style="fill:none; clip-path:url(#clipPath1);" points=" 460 520 466 538 454 538" />
      <line x1="454" x2="460" y1="538" style="clip-path:url(#clipPath1); fill:none;" y2="520" />
      <polygon style="fill:white; clip-path:url(#clipPath1); stroke:none;" points=" 363 520 369 538 357 538" />
      <polygon style="fill:none; clip-path:url(#clipPath1);" points=" 363 520 369 538 357 538" />
      <line x1="357" x2="363" y1="538" style="clip-path:url(#clipPath1); fill:none;" y2="520" />
      <polygon style="fill:white; clip-path:url(#clipPath1); stroke:none;" points=" 225 280 231 298 219 298" />
      <polygon style="fill:none; clip-path:url(#clipPath1);" points=" 225 280 231 298 219 298" />
      <line x1="219" x2="225" y1="298" style="clip-path:url(#clipPath1); fill:none;" y2="280" />
      <polygon style="fill:white; clip-path:url(#clipPath1); stroke:none;" points=" 360 280 366 298 354 298" />
      <polygon style="fill:none; clip-path:url(#clipPath1);" points=" 360 280 366 298 354 298" />
      <line x1="354" x2="360" y1="298" style="clip-path:url(#clipPath1); fill:none;" y2="280" />
      <polygon style="fill:navy; clip-path:url(#clipPath1); stroke:none;" points=" 171 43 400 43 400 280 171 280 171 57 163 57 163 49 171 49 171 43" />
      <polygon style="fill:white; clip-path:url(#clipPath1); stroke:none;" points=" 168 40 397 40 397 277 168 277 168 54 160 54 160 46 168 46 168 40" />
      <polygon style="fill:none; clip-path:url(#clipPath1); stroke:black;" points=" 168 40 397 40 397 277 168 277 168 54 160 54 160 46 168 46 168 40" />
      <line x1="168" x2="176" y1="54" style="clip-path:url(#clipPath1); fill:none; stroke:black;" y2="54" />
      <line x1="176" x2="176" y1="54" style="clip-path:url(#clipPath1); fill:none; stroke:black;" y2="46" />
      <line x1="176" x2="168" y1="46" style="clip-path:url(#clipPath1); fill:none; stroke:black;" y2="46" />
    </g>
    <g style="font-family:sans-serif;">
      <text x="232" y="51" style="clip-path:url(#clipPath3); stroke:none;">jccl::ConfigChunkHandler
      </text>
      <text x="259" y="64" style="clip-path:url(#clipPath3); font-style:italic; stroke:none; font-weight:bold;">vrj::App
      </text>
    </g>
    <g>
      <line x1="176" x2="397" y1="73" style="clip-path:url(#clipPath2); fill:none;" y2="73" />
      <line x1="176" x2="397" y1="96" style="clip-path:url(#clipPath2); fill:none;" y2="96" />
    </g>
    <g style="font-family:sans-serif;">
      <text x="182" y="115" style="clip-path:url(#clipPath5); stroke:none;">+App
      </text>
      <text x="182" y="128" style="clip-path:url(#clipPath5); stroke:none;">+App
      </text>
      <text x="182" y="141" style="clip-path:url(#clipPath5); stroke:none;">+init:void
      </text>
      <text x="182" y="154" style="clip-path:url(#clipPath5); stroke:none;">+apiInit:void
      </text>
      <text x="182" y="167" style="clip-path:url(#clipPath5); stroke:none;">+exit:void
      </text>
      <text x="182" y="180" style="clip-path:url(#clipPath5); stroke:none;">+preFrame:void
      </text>
      <text x="182" y="193" style="clip-path:url(#clipPath5); stroke:none;">+intraFrame:void
      </text>
      <text x="182" y="206" style="clip-path:url(#clipPath5); stroke:none;">+postFrame:void
      </text>
    </g>
    <g>
      <line x1="176" x2="397" y1="216" style="clip-path:url(#clipPath2); fill:none;" y2="216" />
    </g>
    <g style="font-family:sans-serif;">
      <text x="182" y="235" style="clip-path:url(#clipPath7); stroke:none;"> focus:bool
      </text>
      <text x="182" y="248" style="clip-path:url(#clipPath7); stroke:none;"> drawManager:DrawManager *
      </text>
      <text x="182" y="261" style="clip-path:url(#clipPath7); stroke:none;"> soundManager:SoundManager *
      </text>
    </g>
    <g style="fill:navy; stroke:navy;">
      <polygon style="clip-path:url(#clipPath1); stroke:none;" points=" 331 313 500 313 500 520 331 520 331 327 323 327 323 319 331 319 331 313" />
      <polygon style="fill:white; clip-path:url(#clipPath1); stroke:none;" points=" 328 310 497 310 497 517 328 517 328 324 320 324 320 316 328 316 328 310" />
      <polygon style="fill:none; clip-path:url(#clipPath1); stroke:black;" points=" 328 310 497 310 497 517 328 517 328 324 320 324 320 316 328 316 328 310" />
      <line x1="328" x2="336" y1="324" style="clip-path:url(#clipPath1); fill:none; stroke:black;" y2="324" />
      <line x1="336" x2="336" y1="324" style="clip-path:url(#clipPath1); fill:none; stroke:black;" y2="316" />
      <line x1="336" x2="328" y1="316" style="clip-path:url(#clipPath1); fill:none; stroke:black;" y2="316" />
    </g>
    <g style="font-style:italic; font-weight:bold; font-family:sans-serif;">
      <text x="382" y="321" style="clip-path:url(#clipPath9); stroke:none;">vrj::GlApp
      </text>
    </g>
    <g>
      <line x1="336" x2="497" y1="330" style="clip-path:url(#clipPath8); fill:none;" y2="330" />
      <line x1="336" x2="497" y1="353" style="clip-path:url(#clipPath8); fill:none;" y2="353" />
    </g>
    <g style="font-family:sans-serif;">
      <text x="342" y="372" style="clip-path:url(#clipPath11); stroke:none;">+GlApp
      </text>
      <text x="342" y="385" style="clip-path:url(#clipPath11); stroke:none;">+GlApp
      </text>
      <text x="342" y="398" style="font-style:italic; clip-path:url(#clipPath11); stroke:none;">+draw:void
      </text>
      <text x="342" y="411" style="clip-path:url(#clipPath11); stroke:none;">+contextInit:void
      </text>
      <text x="342" y="424" style="clip-path:url(#clipPath11); stroke:none;">+contextClose:void
      </text>
      <text x="342" y="437" style="clip-path:url(#clipPath11); stroke:none;">+contextPreDraw:void
      </text>
      <text x="342" y="450" style="clip-path:url(#clipPath11); stroke:none;">+contextPostDraw:void
      </text>
      <text x="342" y="463" style="clip-path:url(#clipPath11); stroke:none;">+bufferPreDraw:void
      </text>
      <text x="342" y="476" style="clip-path:url(#clipPath11); stroke:none;">+pipePreDraw:void
      </text>
    </g>
    <g>
      <line x1="336" x2="497" y1="486" style="clip-path:url(#clipPath8); fill:none;" y2="486" />
    </g>
    <g style="fill:navy; stroke:navy;">
      <polygon style="clip-path:url(#clipPath1); stroke:none;" points=" 241 573 406 573 406 808 241 808 241 587 233 587 233 579 241 579 241 573" />
      <polygon style="fill:white; clip-path:url(#clipPath1); stroke:none;" points=" 238 570 403 570 403 805 238 805 238 584 230 584 230 576 238 576 238 570" />
      <polygon style="fill:none; clip-path:url(#clipPath1); stroke:black;" points=" 238 570 403 570 403 805 238 805 238 584 230 584 230 576 238 576 238 570" />
      <line x1="238" x2="246" y1="584" style="clip-path:url(#clipPath1); fill:none; stroke:black;" y2="584" />
      <line x1="246" x2="246" y1="584" style="clip-path:url(#clipPath1); fill:none; stroke:black;" y2="576" />
      <line x1="246" x2="238" y1="576" style="clip-path:url(#clipPath1); fill:none; stroke:black;" y2="576" />
    </g>
    <g style="font-style:italic; font-weight:bold; font-family:sans-serif;">
      <text x="283" y="581" style="clip-path:url(#clipPath13); stroke:none;">vrj::OsgApp
      </text>
    </g>
    <g>
      <line x1="246" x2="403" y1="590" style="clip-path:url(#clipPath12); fill:none;" y2="590" />
      <line x1="246" x2="403" y1="613" style="clip-path:url(#clipPath12); fill:none;" y2="613" />
    </g>
    <g style="font-family:sans-serif;">
      <text x="252" y="632" style="clip-path:url(#clipPath15); stroke:none;">+OsgApp
      </text>
      <text x="252" y="645" style="clip-path:url(#clipPath15); stroke:none;">+~OsgApp
      </text>
      <text x="252" y="658" style="font-style:italic; clip-path:url(#clipPath15); stroke:none;">+initScene:void
      </text>
      <text x="252" y="671" style="clip-path:url(#clipPath15); stroke:none;">+configSceneView:void
      </text>
      <text x="252" y="684" style="clip-path:url(#clipPath15); stroke:none;">+draw:void
      </text>
      <text x="252" y="697" style="clip-path:url(#clipPath15); stroke:none;">+init:void
      </text>
      <text x="252" y="710" style="clip-path:url(#clipPath15); stroke:none;">+contextInit:void
      </text>
      <text x="252" y="723" style="clip-path:url(#clipPath15); stroke:none;">+contextClose:void
      </text>
      <text x="252" y="736" style="clip-path:url(#clipPath15); stroke:none;">+contextPreDraw:void
      </text>
      <text x="252" y="749" style="clip-path:url(#clipPath15); stroke:none;">+bufferPreDraw:void
      </text>
      <text x="252" y="762" style="clip-path:url(#clipPath15); stroke:none;">+pipePreDraw:void
      </text>
    </g>
    <g>
      <line x1="246" x2="403" y1="772" style="clip-path:url(#clipPath12); fill:none;" y2="772" />
    </g>
    <g style="font-family:sans-serif;">
      <text x="252" y="791" style="clip-path:url(#clipPath17); stroke:none;"> scene:osg::Group *
      </text>
    </g>
    <g style="fill:navy; stroke:navy;">
      <polygon style="clip-path:url(#clipPath1); stroke:none;" points=" 431 573 606 573 606 824 431 824 431 587 423 587 423 579 431 579 431 573" />
      <polygon style="fill:white; clip-path:url(#clipPath1); stroke:none;" points=" 428 570 603 570 603 821 428 821 428 584 420 584 420 576 428 576 428 570" />
      <polygon style="fill:none; clip-path:url(#clipPath1); stroke:black;" points=" 428 570 603 570 603 821 428 821 428 584 420 584 420 576 428 576 428 570" />
      <line x1="428" x2="436" y1="584" style="clip-path:url(#clipPath1); fill:none; stroke:black;" y2="584" />
      <line x1="436" x2="436" y1="584" style="clip-path:url(#clipPath1); fill:none; stroke:black;" y2="576" />
      <line x1="436" x2="428" y1="576" style="clip-path:url(#clipPath1); fill:none; stroke:black;" y2="576" />
    </g>
    <g style="font-style:italic; font-weight:bold; font-family:sans-serif;">
      <text x="465" y="581" style="clip-path:url(#clipPath19); stroke:none;">vrj::OpenSGApp
      </text>
    </g>
    <g>
      <line x1="436" x2="603" y1="590" style="clip-path:url(#clipPath18); fill:none;" y2="590" />
      <line x1="436" x2="603" y1="613" style="clip-path:url(#clipPath18); fill:none;" y2="613" />
    </g>
    <g style="font-family:sans-serif;">
      <text x="442" y="632" style="clip-path:url(#clipPath21); stroke:none;">+OpenSGApp
      </text>
      <text x="442" y="645" style="clip-path:url(#clipPath21); stroke:none;">+~OpenSGApp
      </text>
      <text x="442" y="658" style="font-style:italic; clip-path:url(#clipPath21); stroke:none;">+initScene:void
      </text>
      <text x="442" y="671" style="clip-path:url(#clipPath21); stroke:none;">+init:void
      </text>
      <text x="442" y="684" style="clip-path:url(#clipPath21); stroke:none;">+apiInit:void
      </text>
      <text x="442" y="697" style="clip-path:url(#clipPath21); stroke:none;">+contextInit:void
      </text>
      <text x="442" y="710" style="clip-path:url(#clipPath21); stroke:none;">+contextPreDraw:void
      </text>
      <text x="442" y="723" style="clip-path:url(#clipPath21); stroke:none;">+contextPostDraw:void
      </text>
      <text x="442" y="736" style="clip-path:url(#clipPath21); stroke:none;">+draw:void
      </text>
      <text x="442" y="749" style="clip-path:url(#clipPath21); stroke:none;">+bufferPreDraw:void
      </text>
    </g>
    <g>
      <line x1="436" x2="603" y1="759" style="clip-path:url(#clipPath18); fill:none;" y2="759" />
    </g>
    <g style="font-family:sans-serif;">
      <text x="442" y="778" style="clip-path:url(#clipPath23); stroke:none;"> context data
      </text>
    </g>
    <g>
      <line x1="436" x2="603" y1="788" style="clip-path:url(#clipPath18); fill:none;" y2="788" />
    </g>
    <g style="font-family:sans-serif;">
      <text x="442" y="807" style="clip-path:url(#clipPath25); stroke:none;"> sceneRoot:OSG::NodePtr
      </text>
    </g>
    <g style="fill:navy; stroke:navy;">
      <polygon style="clip-path:url(#clipPath1); stroke:none;" points=" 51 313 290 313 290 490 51 490 51 327 43 327 43 319 51 319 51 313" />
      <polygon style="fill:white; clip-path:url(#clipPath1); stroke:none;" points=" 48 310 287 310 287 487 48 487 48 324 40 324 40 316 48 316 48 310" />
      <polygon style="fill:none; clip-path:url(#clipPath1); stroke:black;" points=" 48 310 287 310 287 487 48 487 48 324 40 324 40 316 48 316 48 310" />
      <line x1="48" x2="56" y1="324" style="clip-path:url(#clipPath1); fill:none; stroke:black;" y2="324" />
      <line x1="56" x2="56" y1="324" style="clip-path:url(#clipPath1); fill:none; stroke:black;" y2="316" />
      <line x1="56" x2="48" y1="316" style="clip-path:url(#clipPath1); fill:none; stroke:black;" y2="316" />
    </g>
    <g style="font-style:italic; font-weight:bold; font-family:sans-serif;">
      <text x="137" y="321" style="clip-path:url(#clipPath27); stroke:none;">vrj::PfApp
      </text>
    </g>
    <g>
      <line x1="56" x2="287" y1="330" style="clip-path:url(#clipPath26); fill:none;" y2="330" />
      <line x1="56" x2="287" y1="353" style="clip-path:url(#clipPath26); fill:none;" y2="353" />
    </g>
    <g style="font-family:sans-serif;">
      <text x="62" y="372" style="clip-path:url(#clipPath29); stroke:none;">+PfApp
      </text>
      <text x="62" y="385" style="clip-path:url(#clipPath29); stroke:none;">+PfApp
      </text>
      <text x="62" y="398" style="font-style:italic; clip-path:url(#clipPath29); stroke:none;">+initScene:void
      </text>
      <text x="62" y="411" style="clip-path:url(#clipPath29); stroke:none;">+drawChan:void
      </text>
    </g>
    <g>
      <line x1="56" x2="287" y1="421" style="clip-path:url(#clipPath26); fill:none;" y2="421" />
    </g>
    <g style="font-family:sans-serif;">
      <text x="62" y="440" style="clip-path:url(#clipPath31); stroke:none;"> scene:pfGroup *
      </text>
      <text x="62" y="453" style="clip-path:url(#clipPath31); stroke:none;"> frameBufferAttrs:std::vector&lt;int&gt;
      </text>
      <text x="62" y="466" style="clip-path:url(#clipPath31); stroke:none;"> drawManager:DrawManager *
      </text>
    </g>
  </g>
</svg>
