<?xml version="1.0" encoding="UTF-8"?>

<!DOCTYPE svg PUBLIC '-//W3C//DTD SVG 20001102//EN' 'http://www.w3.org/TR/2000/CR-SVG-20001102/DTD/svg-20001102.dtd'>
<svg style="fill-opacity:1; color-interpolation:sRGB; color-rendering:auto; text-rendering:auto; stroke:black; stroke-linecap:square; stroke-miterlimit:10; stroke-opacity:1; shape-rendering:auto; fill:black; stroke-dasharray:none; font-weight:normal; stroke-width:1; font-family:&apos;Lucida Sans&apos;; font-style:normal; stroke-linejoin:miter; font-size:12; image-rendering:auto; stroke-dashoffset:0;" width="441" height="187">
  <!--Generated by the Batik Graphics2D SVG Generator-->
  <defs id="genericDefs" />
  <g>
    <defs id="defs1">
      <clipPath clipPathUnits="userSpaceOnUse" id="clipPath1">
        <path d="M0 0 L441 0 L441 187 L0 187 L0 0 Z" />
      </clipPath>
      <clipPath clipPathUnits="userSpaceOnUse" id="clipPath2">
        <path d="M20 20 L20 78 L198 78 L198 20 Z" />
      </clipPath>
      <clipPath clipPathUnits="userSpaceOnUse" id="clipPath3">
        <path d="M21 21 L21 48 L198 48 L198 21 Z" />
      </clipPath>
      <clipPath clipPathUnits="userSpaceOnUse" id="clipPath4">
        <path d="M250 20 L250 78 L428 78 L428 20 Z" />
      </clipPath>
      <clipPath clipPathUnits="userSpaceOnUse" id="clipPath5">
        <path d="M251 21 L251 48 L428 48 L428 21 Z" />
      </clipPath>
      <clipPath clipPathUnits="userSpaceOnUse" id="clipPath6">
        <path d="M280 130 L280 174 L388 174 L388 130 Z" />
      </clipPath>
      <clipPath clipPathUnits="userSpaceOnUse" id="clipPath7">
        <path d="M281 131 L281 145 L388 145 L388 131 Z" />
      </clipPath>
    </defs>
    <g style="fill:blue; stroke:blue;">
      <line x1="200" x2="250" y1="50" style="clip-path:url(#clipPath1); fill:none;" y2="50" />
      <line x1="330" x2="330" y1="80" style="clip-path:url(#clipPath1); fill:none;" y2="130" />
      <line x1="250" x2="238" y1="50" style="clip-path:url(#clipPath1); fill:none;" y2="45" />
      <line x1="250" x2="238" y1="50" style="clip-path:url(#clipPath1); fill:none;" y2="55" />
      <text x="218" y="43" style="clip-path:url(#clipPath1); font-family:sans-serif; stroke:none;">0..1
      </text>
      <line x1="330" x2="335" y1="130" style="clip-path:url(#clipPath1); fill:none; font-family:sans-serif;" y2="118" />
      <line x1="330" x2="325" y1="130" style="clip-path:url(#clipPath1); fill:none; font-family:sans-serif;" y2="118" />
      <text x="300" y="123" style="clip-path:url(#clipPath1); font-family:sans-serif; stroke:none;">0..*
      </text>
      <rect x="23" y="23" width="177" style="clip-path:url(#clipPath1); fill:navy; font-family:sans-serif; stroke:none;" height="57" />
      <rect x="20" y="20" width="177" style="clip-path:url(#clipPath1); fill:white; font-family:sans-serif; stroke:none;" height="57" />
      <rect x="20" y="20" width="177" style="clip-path:url(#clipPath1); fill:none; font-family:sans-serif; stroke:black;" height="57" />
    </g>
    <g style="font-family:sans-serif;">
      <text x="32" y="31" style="clip-path:url(#clipPath3); stroke:none;">jccl::ConfigChunkHandler
      </text>
      <text x="73" y="44" style="font-weight:bold; clip-path:url(#clipPath3); stroke:none;">vrj::Kernel
      </text>
    </g>
    <g style="font-family:sans-serif;">
      <line x1="20" x2="197" y1="53" style="clip-path:url(#clipPath2); fill:none;" y2="53" />
      <line x1="20" x2="197" y1="66" style="clip-path:url(#clipPath2); fill:none;" y2="66" />
    </g>
    <g style="fill:navy; font-family:sans-serif; stroke:navy;">
      <rect x="253" y="23" width="177" style="clip-path:url(#clipPath1); stroke:none;" height="57" />
      <rect x="250" y="20" width="177" style="clip-path:url(#clipPath1); fill:white; stroke:none;" height="57" />
      <rect x="250" y="20" width="177" style="clip-path:url(#clipPath1); fill:none; stroke:black;" height="57" />
    </g>
    <g style="font-family:sans-serif;">
      <text x="262" y="31" style="clip-path:url(#clipPath5); stroke:none;">jccl::ConfigChunkHandler
      </text>
      <text x="269" y="44" style="font-weight:bold; clip-path:url(#clipPath5); stroke:none;">vrj::DisplayManager
      </text>
    </g>
    <g style="font-family:sans-serif;">
      <line x1="250" x2="427" y1="53" style="clip-path:url(#clipPath4); fill:none;" y2="53" />
      <line x1="250" x2="427" y1="66" style="clip-path:url(#clipPath4); fill:none;" y2="66" />
    </g>
    <g style="fill:navy; font-family:sans-serif; stroke:navy;">
      <rect x="283" y="133" width="107" style="clip-path:url(#clipPath1); stroke:none;" height="43" />
      <rect x="280" y="130" width="107" style="clip-path:url(#clipPath1); fill:white; stroke:none;" height="43" />
      <rect x="280" y="130" width="107" style="clip-path:url(#clipPath1); fill:none; stroke:black;" height="43" />
    </g>
    <g style="font-weight:bold; font-family:sans-serif;">
      <text x="294" y="141" style="clip-path:url(#clipPath7); stroke:none;">vrj::Display
      </text>
    </g>
    <g style="font-family:sans-serif;">
      <line x1="280" x2="387" y1="150" style="clip-path:url(#clipPath6); fill:none;" y2="150" />
      <line x1="280" x2="387" y1="163" style="clip-path:url(#clipPath6); fill:none;" y2="163" />
    </g>
  </g>
</svg>
