<?xml version="1.0" encoding="UTF-8"?>

<!DOCTYPE svg PUBLIC '-//W3C//DTD SVG 20001102//EN' 'http://www.w3.org/TR/2000/CR-SVG-20001102/DTD/svg-20001102.dtd'>
<svg style="fill-opacity:1; color-rendering:auto; color-interpolation:sRGB; text-rendering:auto; stroke:black; stroke-linecap:square; stroke-miterlimit:10; shape-rendering:auto; stroke-opacity:1; fill:black; stroke-dasharray:none; font-weight:normal; stroke-width:1; font-family:&apos;sansserif&apos;; font-style:normal; stroke-linejoin:miter; font-size:12; stroke-dashoffset:0; image-rendering:auto;" width="395" height="187">
  <!--Generated by the Batik Graphics2D SVG Generator-->
  <defs id="genericDefs" />
  <g>
    <defs id="defs1">
      <clipPath clipPathUnits="userSpaceOnUse" id="clipPath1">
        <path d="M0 0 L395 0 L395 187 L0 187 L0 0 Z" />
      </clipPath>
      <clipPath clipPathUnits="userSpaceOnUse" id="clipPath2">
        <path d="M230 20 L230 78 L382 78 L382 20 Z" />
      </clipPath>
      <clipPath clipPathUnits="userSpaceOnUse" id="clipPath3">
        <path d="M231 21 L231 54 L382 54 L382 21 Z" />
      </clipPath>
      <clipPath clipPathUnits="userSpaceOnUse" id="clipPath4">
        <path d="M260 130 L260 174 L341 174 L341 130 Z" />
      </clipPath>
      <clipPath clipPathUnits="userSpaceOnUse" id="clipPath5">
        <path d="M261 131 L261 148 L341 148 L341 131 Z" />
      </clipPath>
      <clipPath clipPathUnits="userSpaceOnUse" id="clipPath6">
        <path d="M20 20 L20 78 L172 78 L172 20 Z" />
      </clipPath>
      <clipPath clipPathUnits="userSpaceOnUse" id="clipPath7">
        <path d="M21 21 L21 54 L172 54 L172 21 Z" />
      </clipPath>
    </defs>
    <g style="fill:blue; stroke:blue;">
      <line x1="174" x2="230" y1="50" style="clip-path:url(#clipPath1); fill:none;" y2="50" />
      <line x1="301" x2="301" y1="80" style="clip-path:url(#clipPath1); fill:none;" y2="130" />
      <line x1="230" x2="218" y1="50" style="clip-path:url(#clipPath1); fill:none;" y2="45" />
      <line x1="230" x2="218" y1="50" style="clip-path:url(#clipPath1); fill:none;" y2="55" />
      <text x="198" y="45" style="font-family:sans-serif; clip-path:url(#clipPath1); stroke:none;">0..1
      </text>
      <line x1="301" x2="306" y1="130" style="clip-path:url(#clipPath1); fill:none; font-family:sans-serif;" y2="118" />
      <line x1="301" x2="296" y1="130" style="clip-path:url(#clipPath1); fill:none; font-family:sans-serif;" y2="118" />
      <text x="271" y="125" style="font-family:sans-serif; clip-path:url(#clipPath1); stroke:none;">0..*
      </text>
      <rect x="233" y="23" width="151" style="clip-path:url(#clipPath1); fill:navy; font-family:sans-serif; stroke:none;" height="57" />
      <rect x="230" y="20" width="151" style="clip-path:url(#clipPath1); fill:white; font-family:sans-serif; stroke:none;" height="57" />
      <rect x="230" y="20" width="151" style="clip-path:url(#clipPath1); fill:none; font-family:sans-serif; stroke:black;" height="57" />
    </g>
    <g style="font-family:sans-serif;">
      <text x="232" y="33" style="clip-path:url(#clipPath3); stroke:none;">jccl::ConfigChunkHandler
      </text>
      <text x="245" y="49" style="clip-path:url(#clipPath3); font-weight:bold; stroke:none;">vrj::DisplayManager
      </text>
    </g>
    <g style="font-family:sans-serif;">
      <line x1="230" x2="381" y1="59" style="clip-path:url(#clipPath2); fill:none;" y2="59" />
      <line x1="230" x2="381" y1="72" style="clip-path:url(#clipPath2); fill:none;" y2="72" />
    </g>
    <g style="fill:navy; font-family:sans-serif; stroke:navy;">
      <rect x="263" y="133" width="80" style="clip-path:url(#clipPath1); stroke:none;" height="43" />
      <rect x="260" y="130" width="80" style="clip-path:url(#clipPath1); fill:white; stroke:none;" height="43" />
      <rect x="260" y="130" width="80" style="clip-path:url(#clipPath1); fill:none; stroke:black;" height="43" />
    </g>
    <g style="font-family:sans-serif; font-weight:bold;">
      <text x="266" y="143" style="clip-path:url(#clipPath5); stroke:none;">vrj::Display
      </text>
    </g>
    <g style="font-family:sans-serif;">
      <line x1="260" x2="340" y1="153" style="clip-path:url(#clipPath4); fill:none;" y2="153" />
      <line x1="260" x2="340" y1="166" style="clip-path:url(#clipPath4); fill:none;" y2="166" />
    </g>
    <g style="fill:navy; font-family:sans-serif; stroke:navy;">
      <rect x="23" y="23" width="151" style="clip-path:url(#clipPath1); stroke:none;" height="57" />
      <rect x="20" y="20" width="151" style="clip-path:url(#clipPath1); fill:white; stroke:none;" height="57" />
      <rect x="20" y="20" width="151" style="clip-path:url(#clipPath1); fill:none; stroke:black;" height="57" />
    </g>
    <g style="font-family:sans-serif;">
      <text x="22" y="33" style="clip-path:url(#clipPath7); stroke:none;">jccl::ConfigChunkHandler
      </text>
      <text x="65" y="49" style="clip-path:url(#clipPath7); font-weight:bold; stroke:none;">vrj::Kernel
      </text>
    </g>
    <g style="font-family:sans-serif;">
      <line x1="20" x2="171" y1="59" style="clip-path:url(#clipPath6); fill:none;" y2="59" />
      <line x1="20" x2="171" y1="72" style="clip-path:url(#clipPath6); fill:none;" y2="72" />
    </g>
  </g>
</svg>
