<?xml version="1.0" encoding="UTF-8"?>

<!DOCTYPE svg PUBLIC '-//W3C//DTD SVG 20001102//EN' 'http://www.w3.org/TR/2000/CR-SVG-20001102/DTD/svg-20001102.dtd'>
<svg style="fill-opacity:1; color-interpolation:sRGB; color-rendering:auto; text-rendering:auto; stroke:black; stroke-linecap:square; stroke-miterlimit:10; stroke-opacity:1; shape-rendering:auto; fill:black; stroke-dasharray:none; font-weight:normal; stroke-width:1; font-family:&apos;Lucida Sans&apos;; font-style:normal; stroke-linejoin:miter; font-size:12; image-rendering:auto; stroke-dashoffset:0;" width="470" height="431">
  <!--Generated by the Batik Graphics2D SVG Generator-->
  <defs id="genericDefs" />
  <g>
    <defs id="defs1">
      <clipPath clipPathUnits="userSpaceOnUse" id="clipPath1">
        <path d="M0 0 L470 0 L470 431 L0 431 L0 0 Z" />
      </clipPath>
      <clipPath clipPathUnits="userSpaceOnUse" id="clipPath2">
        <path d="M36 20 L36 191 L188 191 L188 20 Z" />
      </clipPath>
      <clipPath clipPathUnits="userSpaceOnUse" id="clipPath3">
        <path d="M37 21 L37 48 L188 48 L188 21 Z" />
      </clipPath>
      <clipPath clipPathUnits="userSpaceOnUse" id="clipPath4">
        <path d="M36 73 L36 168 L188 168 L188 73 Z" />
      </clipPath>
      <clipPath clipPathUnits="userSpaceOnUse" id="clipPath5">
        <path d="M38 75 L38 167 L187 167 L187 75 Z" />
      </clipPath>
      <clipPath clipPathUnits="userSpaceOnUse" id="clipPath6">
        <path d="M170 250 L170 418 L321 418 L321 250 Z" />
      </clipPath>
      <clipPath clipPathUnits="userSpaceOnUse" id="clipPath7">
        <path d="M171 251 L171 265 L321 265 L321 251 Z" />
      </clipPath>
      <clipPath clipPathUnits="userSpaceOnUse" id="clipPath8">
        <path d="M170 300 L170 408 L321 408 L321 300 Z" />
      </clipPath>
      <clipPath clipPathUnits="userSpaceOnUse" id="clipPath9">
        <path d="M172 302 L172 407 L320 407 L320 302 Z" />
      </clipPath>
      <clipPath clipPathUnits="userSpaceOnUse" id="clipPath10">
        <path d="M306 20 L306 188 L457 188 L457 20 Z" />
      </clipPath>
      <clipPath clipPathUnits="userSpaceOnUse" id="clipPath11">
        <path d="M307 21 L307 35 L457 35 L457 21 Z" />
      </clipPath>
      <clipPath clipPathUnits="userSpaceOnUse" id="clipPath12">
        <path d="M306 70 L306 152 L457 152 L457 70 Z" />
      </clipPath>
      <clipPath clipPathUnits="userSpaceOnUse" id="clipPath13">
        <path d="M308 72 L308 151 L456 151 L456 72 Z" />
      </clipPath>
    </defs>
    <g style="fill:rgb(0,64,64); stroke:rgb(0,64,64);">
      <line x1="290" x2="190" y1="105" style="clip-path:url(#clipPath1); fill:none;" y2="105" />
      <line x1="323" x2="380" y1="320" style="clip-path:url(#clipPath1); fill:none;" y2="320" />
      <line x1="380" x2="380" y1="320" style="clip-path:url(#clipPath1); fill:none;" y2="190" />
      <polygon style="fill:white; clip-path:url(#clipPath1); stroke:none;" points=" 190 105 208 99 208 111" />
      <polygon style="fill:none; clip-path:url(#clipPath1);" points=" 190 105 208 99 208 111" />
      <line x1="208" x2="190" y1="111" style="clip-path:url(#clipPath1); fill:none;" y2="105" />
      <polygon style="fill:white; clip-path:url(#clipPath1); stroke:none;" points=" 380 190 386 208 374 208" />
      <polygon style="fill:none; clip-path:url(#clipPath1);" points=" 380 190 386 208 374 208" />
      <line x1="374" x2="380" y1="208" style="clip-path:url(#clipPath1); fill:none;" y2="190" />
      <polygon style="fill:navy; clip-path:url(#clipPath1); stroke:none;" points=" 31 23 190 23 190 193 31 193 31 37 23 37 23 29 31 29 31 23" />
      <polygon style="fill:white; clip-path:url(#clipPath1); stroke:none;" points=" 28 20 187 20 187 190 28 190 28 34 20 34 20 26 28 26 28 20" />
      <polygon style="fill:none; clip-path:url(#clipPath1); stroke:black;" points=" 28 20 187 20 187 190 28 190 28 34 20 34 20 26 28 26 28 20" />
      <line x1="28" x2="36" y1="34" style="clip-path:url(#clipPath1); fill:none; stroke:black;" y2="34" />
      <line x1="36" x2="36" y1="34" style="clip-path:url(#clipPath1); fill:none; stroke:black;" y2="26" />
      <line x1="36" x2="28" y1="26" style="clip-path:url(#clipPath1); fill:none; stroke:black;" y2="26" />
    </g>
    <g style="font-family:sans-serif;">
      <text x="41" y="31" style="clip-path:url(#clipPath3); stroke:none;">vjConfigChunkHandler
      </text>
      <text x="91" y="44" style="clip-path:url(#clipPath3); font-style:italic; stroke:none; font-weight:bold;">vjApp
      </text>
    </g>
    <g>
      <line x1="36" x2="187" y1="53" style="clip-path:url(#clipPath2); fill:none;" y2="53" />
      <line x1="36" x2="187" y1="66" style="clip-path:url(#clipPath2); fill:none;" y2="66" />
    </g>
    <g style="font-family:sans-serif;">
      <text x="42" y="85" style="clip-path:url(#clipPath5); stroke:none;">+vjApp
      </text>
      <text x="42" y="98" style="clip-path:url(#clipPath5); stroke:none;">+init:void
      </text>
      <text x="42" y="111" style="clip-path:url(#clipPath5); stroke:none;">+apiInit:void
      </text>
      <text x="42" y="124" style="clip-path:url(#clipPath5); stroke:none;">+exit:void
      </text>
      <text x="42" y="137" style="clip-path:url(#clipPath5); stroke:none;">+preFrame:void
      </text>
      <text x="42" y="150" style="clip-path:url(#clipPath5); stroke:none;">+intraFrame:void
      </text>
      <text x="42" y="163" style="clip-path:url(#clipPath5); stroke:none;">+postFrame:void
      </text>
    </g>
    <g>
      <line x1="36" x2="187" y1="173" style="clip-path:url(#clipPath2); fill:none;" y2="173" />
    </g>
    <g style="fill:navy; stroke:navy;">
      <rect x="173" y="253" width="150" style="clip-path:url(#clipPath1); stroke:none;" height="167" />
      <rect x="170" y="250" width="150" style="clip-path:url(#clipPath1); fill:white; stroke:none;" height="167" />
      <rect x="170" y="250" width="150" style="clip-path:url(#clipPath1); fill:none; stroke:black;" height="167" />
    </g>
    <g style="font-weight:bold; font-family:sans-serif;">
      <text x="203" y="261" style="clip-path:url(#clipPath7); stroke:none;">userOglApp
      </text>
    </g>
    <g>
      <line x1="170" x2="320" y1="270" style="clip-path:url(#clipPath6); fill:none;" y2="270" />
      <line x1="170" x2="320" y1="293" style="clip-path:url(#clipPath6); fill:none;" y2="293" />
    </g>
    <g style="font-family:sans-serif;">
      <text x="176" y="312" style="clip-path:url(#clipPath9); stroke:none;">+init:void
      </text>
      <text x="176" y="325" style="clip-path:url(#clipPath9); stroke:none;">+apiInit:void
      </text>
      <text x="176" y="338" style="clip-path:url(#clipPath9); stroke:none;">+preFrame:void
      </text>
      <text x="176" y="351" style="clip-path:url(#clipPath9); stroke:none;">+intraFrame:void
      </text>
      <text x="176" y="364" style="clip-path:url(#clipPath9); stroke:none;">+postFrame:void
      </text>
      <text x="176" y="377" style="clip-path:url(#clipPath9); stroke:none;">+draw:void
      </text>
      <text x="176" y="390" style="clip-path:url(#clipPath9); stroke:none;">+contextInit:void
      </text>
      <text x="176" y="403" style="clip-path:url(#clipPath9); stroke:none;">+contextPreDraw:void
      </text>
    </g>
    <g style="fill:navy; stroke:navy;">
      <polygon style="clip-path:url(#clipPath1); stroke:none;" points=" 301 23 459 23 459 190 301 190 301 37 293 37 293 29 301 29 301 23" />
      <polygon style="fill:white; clip-path:url(#clipPath1); stroke:none;" points=" 298 20 456 20 456 187 298 187 298 34 290 34 290 26 298 26 298 20" />
      <polygon style="fill:none; clip-path:url(#clipPath1); stroke:black;" points=" 298 20 456 20 456 187 298 187 298 34 290 34 290 26 298 26 298 20" />
      <line x1="298" x2="306" y1="34" style="clip-path:url(#clipPath1); fill:none; stroke:black;" y2="34" />
      <line x1="306" x2="306" y1="34" style="clip-path:url(#clipPath1); fill:none; stroke:black;" y2="26" />
      <line x1="306" x2="298" y1="26" style="clip-path:url(#clipPath1); fill:none; stroke:black;" y2="26" />
    </g>
    <g style="font-style:italic; font-weight:bold; font-family:sans-serif;">
      <text x="353" y="31" style="clip-path:url(#clipPath11); stroke:none;">vjGlApp
      </text>
    </g>
    <g>
      <line x1="306" x2="456" y1="40" style="clip-path:url(#clipPath10); fill:none;" y2="40" />
      <line x1="306" x2="456" y1="63" style="clip-path:url(#clipPath10); fill:none;" y2="63" />
    </g>
    <g style="font-family:sans-serif;">
      <text x="312" y="82" style="clip-path:url(#clipPath13); stroke:none;">+vjGlApp
      </text>
      <text x="312" y="95" style="font-style:italic; clip-path:url(#clipPath13); stroke:none;">+draw:void
      </text>
      <text x="312" y="108" style="clip-path:url(#clipPath13); stroke:none;">+contextInit:void
      </text>
      <text x="312" y="121" style="clip-path:url(#clipPath13); stroke:none;">+contextClose:void
      </text>
      <text x="312" y="134" style="clip-path:url(#clipPath13); stroke:none;">+contextPreDraw:void
      </text>
      <text x="312" y="147" style="clip-path:url(#clipPath13); stroke:none;">+pipePreDraw:void
      </text>
    </g>
    <g>
      <line x1="306" x2="456" y1="157" style="clip-path:url(#clipPath10); fill:none;" y2="157" />
    </g>
  </g>
</svg>
