<?xml version="1.0" encoding="UTF-8"?>

<!DOCTYPE svg PUBLIC '-//W3C//DTD SVG 20001102//EN' 'http://www.w3.org/TR/2000/CR-SVG-20001102/DTD/svg-20001102.dtd'>
<svg style="fill-opacity:1; color-rendering:auto; color-interpolation:sRGB; text-rendering:auto; stroke:black; stroke-linecap:square; stroke-miterlimit:10; shape-rendering:auto; stroke-opacity:1; fill:black; stroke-dasharray:none; font-weight:normal; stroke-width:1; font-family:&apos;sansserif&apos;; font-style:normal; stroke-linejoin:miter; font-size:12; stroke-dashoffset:0; image-rendering:auto;" width="521" height="508">
  <!--Generated by the Batik Graphics2D SVG Generator-->
  <defs id="genericDefs" />
  <g>
    <defs id="defs1">
      <clipPath clipPathUnits="userSpaceOnUse" id="clipPath1">
        <path d="M0 0 L521 0 L521 508 L0 508 L0 0 Z" />
      </clipPath>
      <clipPath clipPathUnits="userSpaceOnUse" id="clipPath2">
        <path d="M346 20 L346 278 L508 278 L508 20 Z" />
      </clipPath>
      <clipPath clipPathUnits="userSpaceOnUse" id="clipPath3">
        <path d="M347 21 L347 46 L508 46 L508 21 Z" />
      </clipPath>
      <clipPath clipPathUnits="userSpaceOnUse" id="clipPath4">
        <path d="M346 81 L346 237 L508 237 L508 81 Z" />
      </clipPath>
      <clipPath clipPathUnits="userSpaceOnUse" id="clipPath5">
        <path d="M348 83 L348 236 L507 236 L507 83 Z" />
      </clipPath>
      <clipPath clipPathUnits="userSpaceOnUse" id="clipPath6">
        <path d="M36 20 L36 248 L258 248 L258 20 Z" />
      </clipPath>
      <clipPath clipPathUnits="userSpaceOnUse" id="clipPath7">
        <path d="M37 21 L37 62 L258 62 L258 21 Z" />
      </clipPath>
      <clipPath clipPathUnits="userSpaceOnUse" id="clipPath8">
        <path d="M36 87 L36 219 L258 219 L258 87 Z" />
      </clipPath>
      <clipPath clipPathUnits="userSpaceOnUse" id="clipPath9">
        <path d="M38 89 L38 218 L257 218 L257 89 Z" />
      </clipPath>
      <clipPath clipPathUnits="userSpaceOnUse" id="clipPath10">
        <path d="M200 300 L200 495 L341 495 L341 300 Z" />
      </clipPath>
      <clipPath clipPathUnits="userSpaceOnUse" id="clipPath11">
        <path d="M201 301 L201 318 L341 318 L341 301 Z" />
      </clipPath>
      <clipPath clipPathUnits="userSpaceOnUse" id="clipPath12">
        <path d="M200 353 L200 485 L341 485 L341 353 Z" />
      </clipPath>
      <clipPath clipPathUnits="userSpaceOnUse" id="clipPath13">
        <path d="M202 355 L202 484 L340 484 L340 355 Z" />
      </clipPath>
    </defs>
    <g style="fill:rgb(0,64,64); stroke:rgb(0,64,64);">
      <line x1="330" x2="260" y1="135" style="clip-path:url(#clipPath1); fill:none;" y2="135" />
      <line x1="343" x2="380" y1="320" style="clip-path:url(#clipPath1); fill:none;" y2="320" />
      <line x1="380" x2="380" y1="320" style="clip-path:url(#clipPath1); fill:none;" y2="280" />
      <polygon style="fill:white; clip-path:url(#clipPath1); stroke:none;" points=" 260 135 278 129 278 141" />
      <polygon style="fill:none; clip-path:url(#clipPath1);" points=" 260 135 278 129 278 141" />
      <line x1="278" x2="260" y1="141" style="clip-path:url(#clipPath1); fill:none;" y2="135" />
      <polygon style="fill:white; clip-path:url(#clipPath1); stroke:none;" points=" 380 280 386 298 374 298" />
      <polygon style="fill:none; clip-path:url(#clipPath1);" points=" 380 280 386 298 374 298" />
      <line x1="374" x2="380" y1="298" style="clip-path:url(#clipPath1); fill:none;" y2="280" />
      <polygon style="fill:navy; clip-path:url(#clipPath1); stroke:none;" points=" 341 23 510 23 510 280 341 280 341 37 333 37 333 29 341 29 341 23" />
      <polygon style="fill:white; clip-path:url(#clipPath1); stroke:none;" points=" 338 20 507 20 507 277 338 277 338 34 330 34 330 26 338 26 338 20" />
      <polygon style="fill:none; clip-path:url(#clipPath1); stroke:black;" points=" 338 20 507 20 507 277 338 277 338 34 330 34 330 26 338 26 338 20" />
      <line x1="338" x2="346" y1="34" style="clip-path:url(#clipPath1); fill:none; stroke:black;" y2="34" />
      <line x1="346" x2="346" y1="34" style="clip-path:url(#clipPath1); fill:none; stroke:black;" y2="26" />
      <line x1="346" x2="338" y1="26" style="clip-path:url(#clipPath1); fill:none; stroke:black;" y2="26" />
    </g>
    <g style="font-style:italic; font-family:sans-serif; font-weight:bold;">
      <text x="397" y="35" style="clip-path:url(#clipPath3); stroke:none;">vrj::GlApp
      </text>
    </g>
    <g>
      <line x1="346" x2="507" y1="51" style="clip-path:url(#clipPath2); fill:none;" y2="51" />
      <line x1="346" x2="507" y1="74" style="clip-path:url(#clipPath2); fill:none;" y2="74" />
    </g>
    <g style="font-family:sans-serif;">
      <text x="352" y="95" style="clip-path:url(#clipPath5); stroke:none;">+GlApp
      </text>
      <text x="352" y="111" style="clip-path:url(#clipPath5); stroke:none;">+GlApp
      </text>
      <text x="352" y="130" style="font-style:italic; clip-path:url(#clipPath5); stroke:none;">+draw:void
      </text>
      <text x="352" y="151" style="clip-path:url(#clipPath5); stroke:none;">+contextInit:void
      </text>
      <text x="352" y="167" style="clip-path:url(#clipPath5); stroke:none;">+contextClose:void
      </text>
      <text x="352" y="183" style="clip-path:url(#clipPath5); stroke:none;">+contextPreDraw:void
      </text>
      <text x="352" y="199" style="clip-path:url(#clipPath5); stroke:none;">+contextPostDraw:void
      </text>
      <text x="352" y="215" style="clip-path:url(#clipPath5); stroke:none;">+bufferPreDraw:void
      </text>
      <text x="352" y="231" style="clip-path:url(#clipPath5); stroke:none;">+pipePreDraw:void
      </text>
    </g>
    <g>
      <line x1="346" x2="507" y1="242" style="clip-path:url(#clipPath2); fill:none;" y2="242" />
    </g>
    <g style="fill:navy; stroke:navy;">
      <polygon style="clip-path:url(#clipPath1); stroke:none;" points=" 31 23 260 23 260 250 31 250 31 37 23 37 23 29 31 29 31 23" />
      <polygon style="fill:white; clip-path:url(#clipPath1); stroke:none;" points=" 28 20 257 20 257 247 28 247 28 34 20 34 20 26 28 26 28 20" />
      <polygon style="fill:none; clip-path:url(#clipPath1); stroke:black;" points=" 28 20 257 20 257 247 28 247 28 34 20 34 20 26 28 26 28 20" />
      <line x1="28" x2="36" y1="34" style="clip-path:url(#clipPath1); fill:none; stroke:black;" y2="34" />
      <line x1="36" x2="36" y1="34" style="clip-path:url(#clipPath1); fill:none; stroke:black;" y2="26" />
      <line x1="36" x2="28" y1="26" style="clip-path:url(#clipPath1); fill:none; stroke:black;" y2="26" />
    </g>
    <g style="font-family:sans-serif;">
      <text x="108" y="33" style="clip-path:url(#clipPath7); stroke:none;">jccl::ConfigChunkHandler
      </text>
      <text x="123" y="51" style="clip-path:url(#clipPath7); font-style:italic; stroke:none; font-weight:bold;">vrj::App
      </text>
    </g>
    <g>
      <line x1="36" x2="257" y1="67" style="clip-path:url(#clipPath6); fill:none;" y2="67" />
      <line x1="36" x2="257" y1="80" style="clip-path:url(#clipPath6); fill:none;" y2="80" />
    </g>
    <g style="font-family:sans-serif;">
      <text x="42" y="101" style="clip-path:url(#clipPath9); stroke:none;">+App
      </text>
      <text x="42" y="117" style="clip-path:url(#clipPath9); stroke:none;">+App
      </text>
      <text x="42" y="133" style="clip-path:url(#clipPath9); stroke:none;">+init:void
      </text>
      <text x="42" y="149" style="clip-path:url(#clipPath9); stroke:none;">+apiInit:void
      </text>
      <text x="42" y="165" style="clip-path:url(#clipPath9); stroke:none;">+exit:void
      </text>
      <text x="42" y="181" style="clip-path:url(#clipPath9); stroke:none;">+preFrame:void
      </text>
      <text x="42" y="197" style="clip-path:url(#clipPath9); stroke:none;">+intraFrame:void
      </text>
      <text x="42" y="213" style="clip-path:url(#clipPath9); stroke:none;">+postFrame:void
      </text>
    </g>
    <g>
      <line x1="36" x2="257" y1="224" style="clip-path:url(#clipPath6); fill:none;" y2="224" />
    </g>
    <g style="fill:navy; stroke:navy;">
      <rect x="203" y="303" width="140" style="clip-path:url(#clipPath1); stroke:none;" height="194" />
      <rect x="200" y="300" width="140" style="clip-path:url(#clipPath1); fill:white; stroke:none;" height="194" />
      <rect x="200" y="300" width="140" style="clip-path:url(#clipPath1); fill:none; stroke:black;" height="194" />
    </g>
    <g style="font-family:sans-serif; font-weight:bold;">
      <text x="233" y="313" style="clip-path:url(#clipPath11); stroke:none;">userOglApp
      </text>
    </g>
    <g>
      <line x1="200" x2="340" y1="323" style="clip-path:url(#clipPath10); fill:none;" y2="323" />
      <line x1="200" x2="340" y1="346" style="clip-path:url(#clipPath10); fill:none;" y2="346" />
    </g>
    <g style="font-family:sans-serif;">
      <text x="206" y="367" style="clip-path:url(#clipPath13); stroke:none;">+init:void
      </text>
      <text x="206" y="383" style="clip-path:url(#clipPath13); stroke:none;">+apiInit:void
      </text>
      <text x="206" y="399" style="clip-path:url(#clipPath13); stroke:none;">+preFrame:void
      </text>
      <text x="206" y="415" style="clip-path:url(#clipPath13); stroke:none;">+intraFrame:void
      </text>
      <text x="206" y="431" style="clip-path:url(#clipPath13); stroke:none;">+postFrame:void
      </text>
      <text x="206" y="447" style="clip-path:url(#clipPath13); stroke:none;">+draw:void
      </text>
      <text x="206" y="463" style="clip-path:url(#clipPath13); stroke:none;">+contextInit:void
      </text>
      <text x="206" y="479" style="clip-path:url(#clipPath13); stroke:none;">+contextPreDraw:void
      </text>
    </g>
  </g>
</svg>
