<?xml version="1.0" encoding="UTF-8"?>

<!DOCTYPE svg PUBLIC '-//W3C//DTD SVG 20001102//EN' 'http://www.w3.org/TR/2000/CR-SVG-20001102/DTD/svg-20001102.dtd'>
<svg style="fill-opacity:1; color-interpolation:sRGB; color-rendering:auto; text-rendering:auto; stroke:black; stroke-linecap:square; stroke-miterlimit:10; stroke-opacity:1; shape-rendering:auto; fill:black; stroke-dasharray:none; font-weight:normal; stroke-width:1; font-family:&apos;Lucida Sans&apos;; font-style:normal; stroke-linejoin:miter; font-size:12; image-rendering:auto; stroke-dashoffset:0;" width="504" height="481">
  <!--Generated by the Batik Graphics2D SVG Generator-->
  <defs id="genericDefs" />
  <g>
    <defs id="defs1">
      <clipPath clipPathUnits="userSpaceOnUse" id="clipPath1">
        <path d="M0 0 L504 0 L504 481 L0 481 L0 0 Z" />
      </clipPath>
      <clipPath clipPathUnits="userSpaceOnUse" id="clipPath2">
        <path d="M340 260 L340 428 L491 428 L491 260 Z" />
      </clipPath>
      <clipPath clipPathUnits="userSpaceOnUse" id="clipPath3">
        <path d="M341 261 L341 275 L491 275 L491 261 Z" />
      </clipPath>
      <clipPath clipPathUnits="userSpaceOnUse" id="clipPath4">
        <path d="M340 310 L340 418 L491 418 L491 310 Z" />
      </clipPath>
      <clipPath clipPathUnits="userSpaceOnUse" id="clipPath5">
        <path d="M342 312 L342 417 L490 417 L490 312 Z" />
      </clipPath>
      <clipPath clipPathUnits="userSpaceOnUse" id="clipPath6">
        <path d="M86 260 L86 468 L248 468 L248 260 Z" />
      </clipPath>
      <clipPath clipPathUnits="userSpaceOnUse" id="clipPath7">
        <path d="M87 261 L87 275 L248 275 L248 261 Z" />
      </clipPath>
      <clipPath clipPathUnits="userSpaceOnUse" id="clipPath8">
        <path d="M86 310 L86 431 L248 431 L248 310 Z" />
      </clipPath>
      <clipPath clipPathUnits="userSpaceOnUse" id="clipPath9">
        <path d="M88 312 L88 430 L247 430 L247 312 Z" />
      </clipPath>
      <clipPath clipPathUnits="userSpaceOnUse" id="clipPath10">
        <path d="M36 20 L36 208 L258 208 L258 20 Z" />
      </clipPath>
      <clipPath clipPathUnits="userSpaceOnUse" id="clipPath11">
        <path d="M37 21 L37 48 L258 48 L258 21 Z" />
      </clipPath>
      <clipPath clipPathUnits="userSpaceOnUse" id="clipPath12">
        <path d="M36 73 L36 181 L258 181 L258 73 Z" />
      </clipPath>
      <clipPath clipPathUnits="userSpaceOnUse" id="clipPath13">
        <path d="M38 75 L38 180 L257 180 L257 75 Z" />
      </clipPath>
    </defs>
    <g style="fill:rgb(0,64,64); stroke:rgb(0,64,64);">
      <line x1="160" x2="160" y1="260" style="clip-path:url(#clipPath1); fill:none;" y2="210" />
      <line x1="340" x2="250" y1="345" style="clip-path:url(#clipPath1); fill:none;" y2="345" />
      <polygon style="fill:white; clip-path:url(#clipPath1); stroke:none;" points=" 160 210 166 228 154 228" />
      <polygon style="fill:none; clip-path:url(#clipPath1);" points=" 160 210 166 228 154 228" />
      <line x1="154" x2="160" y1="228" style="clip-path:url(#clipPath1); fill:none;" y2="210" />
      <polygon style="fill:white; clip-path:url(#clipPath1); stroke:none;" points=" 250 345 268 339 268 351" />
      <polygon style="fill:none; clip-path:url(#clipPath1);" points=" 250 345 268 339 268 351" />
      <line x1="268" x2="250" y1="351" style="clip-path:url(#clipPath1); fill:none;" y2="345" />
      <rect x="343" y="263" width="150" style="clip-path:url(#clipPath1); fill:navy; stroke:none;" height="167" />
      <rect x="340" y="260" width="150" style="clip-path:url(#clipPath1); fill:white; stroke:none;" height="167" />
      <rect x="340" y="260" width="150" style="clip-path:url(#clipPath1); fill:none; stroke:black;" height="167" />
    </g>
    <g style="font-weight:bold; font-family:sans-serif;">
      <text x="373" y="271" style="clip-path:url(#clipPath3); stroke:none;">userOglApp
      </text>
    </g>
    <g>
      <line x1="340" x2="490" y1="280" style="clip-path:url(#clipPath2); fill:none;" y2="280" />
      <line x1="340" x2="490" y1="303" style="clip-path:url(#clipPath2); fill:none;" y2="303" />
    </g>
    <g style="font-family:sans-serif;">
      <text x="346" y="322" style="clip-path:url(#clipPath5); stroke:none;">+init:void
      </text>
      <text x="346" y="335" style="clip-path:url(#clipPath5); stroke:none;">+apiInit:void
      </text>
      <text x="346" y="348" style="clip-path:url(#clipPath5); stroke:none;">+preFrame:void
      </text>
      <text x="346" y="361" style="clip-path:url(#clipPath5); stroke:none;">+intraFrame:void
      </text>
      <text x="346" y="374" style="clip-path:url(#clipPath5); stroke:none;">+postFrame:void
      </text>
      <text x="346" y="387" style="clip-path:url(#clipPath5); stroke:none;">+draw:void
      </text>
      <text x="346" y="400" style="clip-path:url(#clipPath5); stroke:none;">+contextInit:void
      </text>
      <text x="346" y="413" style="clip-path:url(#clipPath5); stroke:none;">+contextPreDraw:void
      </text>
    </g>
    <g style="fill:navy; stroke:navy;">
      <polygon style="clip-path:url(#clipPath1); stroke:none;" points=" 81 263 250 263 250 470 81 470 81 277 73 277 73 269 81 269 81 263" />
      <polygon style="fill:white; clip-path:url(#clipPath1); stroke:none;" points=" 78 260 247 260 247 467 78 467 78 274 70 274 70 266 78 266 78 260" />
      <polygon style="fill:none; clip-path:url(#clipPath1); stroke:black;" points=" 78 260 247 260 247 467 78 467 78 274 70 274 70 266 78 266 78 260" />
      <line x1="78" x2="86" y1="274" style="clip-path:url(#clipPath1); fill:none; stroke:black;" y2="274" />
      <line x1="86" x2="86" y1="274" style="clip-path:url(#clipPath1); fill:none; stroke:black;" y2="266" />
      <line x1="86" x2="78" y1="266" style="clip-path:url(#clipPath1); fill:none; stroke:black;" y2="266" />
    </g>
    <g style="font-style:italic; font-weight:bold; font-family:sans-serif;">
      <text x="132" y="271" style="clip-path:url(#clipPath7); stroke:none;">vrj::GlApp
      </text>
    </g>
    <g>
      <line x1="86" x2="247" y1="280" style="clip-path:url(#clipPath6); fill:none;" y2="280" />
      <line x1="86" x2="247" y1="303" style="clip-path:url(#clipPath6); fill:none;" y2="303" />
    </g>
    <g style="font-family:sans-serif;">
      <text x="92" y="322" style="clip-path:url(#clipPath9); stroke:none;">+GlApp
      </text>
      <text x="92" y="335" style="clip-path:url(#clipPath9); stroke:none;">+GlApp
      </text>
      <text x="92" y="348" style="font-style:italic; clip-path:url(#clipPath9); stroke:none;">+draw:void
      </text>
      <text x="92" y="361" style="clip-path:url(#clipPath9); stroke:none;">+contextInit:void
      </text>
      <text x="92" y="374" style="clip-path:url(#clipPath9); stroke:none;">+contextClose:void
      </text>
      <text x="92" y="387" style="clip-path:url(#clipPath9); stroke:none;">+contextPreDraw:void
      </text>
      <text x="92" y="400" style="clip-path:url(#clipPath9); stroke:none;">+contextPostDraw:void
      </text>
      <text x="92" y="413" style="clip-path:url(#clipPath9); stroke:none;">+bufferPreDraw:void
      </text>
      <text x="92" y="426" style="clip-path:url(#clipPath9); stroke:none;">+pipePreDraw:void
      </text>
    </g>
    <g>
      <line x1="86" x2="247" y1="436" style="clip-path:url(#clipPath6); fill:none;" y2="436" />
    </g>
    <g style="fill:navy; stroke:navy;">
      <polygon style="clip-path:url(#clipPath1); stroke:none;" points=" 31 23 260 23 260 210 31 210 31 37 23 37 23 29 31 29 31 23" />
      <polygon style="fill:white; clip-path:url(#clipPath1); stroke:none;" points=" 28 20 257 20 257 207 28 207 28 34 20 34 20 26 28 26 28 20" />
      <polygon style="fill:none; clip-path:url(#clipPath1); stroke:black;" points=" 28 20 257 20 257 207 28 207 28 34 20 34 20 26 28 26 28 20" />
      <line x1="28" x2="36" y1="34" style="clip-path:url(#clipPath1); fill:none; stroke:black;" y2="34" />
      <line x1="36" x2="36" y1="34" style="clip-path:url(#clipPath1); fill:none; stroke:black;" y2="26" />
      <line x1="36" x2="28" y1="26" style="clip-path:url(#clipPath1); fill:none; stroke:black;" y2="26" />
    </g>
    <g style="font-family:sans-serif;">
      <text x="92" y="31" style="clip-path:url(#clipPath11); stroke:none;">jccl::ConfigChunkHandler
      </text>
      <text x="119" y="44" style="clip-path:url(#clipPath11); font-style:italic; stroke:none; font-weight:bold;">vrj::App
      </text>
    </g>
    <g>
      <line x1="36" x2="257" y1="53" style="clip-path:url(#clipPath10); fill:none;" y2="53" />
      <line x1="36" x2="257" y1="66" style="clip-path:url(#clipPath10); fill:none;" y2="66" />
    </g>
    <g style="font-family:sans-serif;">
      <text x="42" y="85" style="clip-path:url(#clipPath13); stroke:none;">+App
      </text>
      <text x="42" y="98" style="clip-path:url(#clipPath13); stroke:none;">+App
      </text>
      <text x="42" y="111" style="clip-path:url(#clipPath13); stroke:none;">+init:void
      </text>
      <text x="42" y="124" style="clip-path:url(#clipPath13); stroke:none;">+apiInit:void
      </text>
      <text x="42" y="137" style="clip-path:url(#clipPath13); stroke:none;">+exit:void
      </text>
      <text x="42" y="150" style="clip-path:url(#clipPath13); stroke:none;">+preFrame:void
      </text>
      <text x="42" y="163" style="clip-path:url(#clipPath13); stroke:none;">+intraFrame:void
      </text>
      <text x="42" y="176" style="clip-path:url(#clipPath13); stroke:none;">+postFrame:void
      </text>
    </g>
    <g>
      <line x1="36" x2="257" y1="186" style="clip-path:url(#clipPath10); fill:none;" y2="186" />
    </g>
  </g>
</svg>
