<?xml version="1.0" encoding="UTF-8"?>

<!DOCTYPE svg PUBLIC '-//W3C//DTD SVG 20001102//EN' 'http://www.w3.org/TR/2000/CR-SVG-20001102/DTD/svg-20001102.dtd'>
<svg style="fill-opacity:1; color-interpolation:sRGB; color-rendering:auto; text-rendering:auto; stroke:black; stroke-linecap:square; stroke-miterlimit:10; stroke-opacity:1; shape-rendering:auto; fill:black; stroke-dasharray:none; font-weight:normal; stroke-width:1; font-family:&apos;Lucida Sans&apos;; font-style:normal; stroke-linejoin:miter; font-size:12; image-rendering:auto; stroke-dashoffset:0;" width="504" height="511">
  <!--Generated by the Batik Graphics2D SVG Generator-->
  <defs id="genericDefs" />
  <g>
    <defs id="defs1">
      <clipPath clipPathUnits="userSpaceOnUse" id="clipPath1">
        <path d="M0 0 L504 0 L504 511 L0 511 L0 0 Z" />
      </clipPath>
      <clipPath clipPathUnits="userSpaceOnUse" id="clipPath2">
        <path d="M20 20 L20 248 L258 248 L258 20 Z" />
      </clipPath>
      <clipPath clipPathUnits="userSpaceOnUse" id="clipPath3">
        <path d="M21 21 L21 48 L258 48 L258 21 Z" />
      </clipPath>
      <clipPath clipPathUnits="userSpaceOnUse" id="clipPath4">
        <path d="M20 73 L20 220 L258 220 L258 73 Z" />
      </clipPath>
      <clipPath clipPathUnits="userSpaceOnUse" id="clipPath5">
        <path d="M22 75 L22 219 L257 219 L257 75 Z" />
      </clipPath>
      <clipPath clipPathUnits="userSpaceOnUse" id="clipPath6">
        <path d="M340 290 L340 471 L491 471 L491 290 Z" />
      </clipPath>
      <clipPath clipPathUnits="userSpaceOnUse" id="clipPath7">
        <path d="M341 291 L341 305 L491 305 L491 291 Z" />
      </clipPath>
      <clipPath clipPathUnits="userSpaceOnUse" id="clipPath8">
        <path d="M340 340 L340 461 L491 461 L491 340 Z" />
      </clipPath>
      <clipPath clipPathUnits="userSpaceOnUse" id="clipPath9">
        <path d="M342 342 L342 460 L490 460 L490 342 Z" />
      </clipPath>
      <clipPath clipPathUnits="userSpaceOnUse" id="clipPath10">
        <path d="M20 290 L20 498 L248 498 L248 290 Z" />
      </clipPath>
      <clipPath clipPathUnits="userSpaceOnUse" id="clipPath11">
        <path d="M21 291 L21 305 L248 305 L248 291 Z" />
      </clipPath>
      <clipPath clipPathUnits="userSpaceOnUse" id="clipPath12">
        <path d="M20 340 L20 474 L248 474 L248 340 Z" />
      </clipPath>
      <clipPath clipPathUnits="userSpaceOnUse" id="clipPath13">
        <path d="M22 342 L22 473 L247 473 L247 342 Z" />
      </clipPath>
    </defs>
    <g style="fill:rgb(0,64,64); stroke:rgb(0,64,64);">
      <line x1="135" x2="135" y1="290" style="clip-path:url(#clipPath1); fill:none;" y2="250" />
      <line x1="340" x2="250" y1="381" style="clip-path:url(#clipPath1); fill:none;" y2="381" />
      <polygon style="fill:white; clip-path:url(#clipPath1); stroke:none;" points=" 135 250 141 268 129 268" />
      <polygon style="fill:none; clip-path:url(#clipPath1);" points=" 135 250 141 268 129 268" />
      <line x1="129" x2="135" y1="268" style="clip-path:url(#clipPath1); fill:none;" y2="250" />
      <polygon style="fill:white; clip-path:url(#clipPath1); stroke:none;" points=" 250 381 268 375 268 387" />
      <polygon style="fill:none; clip-path:url(#clipPath1);" points=" 250 381 268 375 268 387" />
      <line x1="268" x2="250" y1="387" style="clip-path:url(#clipPath1); fill:none;" y2="381" />
      <rect x="23" y="23" width="237" style="clip-path:url(#clipPath1); fill:navy; stroke:none;" height="227" />
      <rect x="20" y="20" width="237" style="clip-path:url(#clipPath1); fill:white; stroke:none;" height="227" />
      <rect x="20" y="20" width="237" style="clip-path:url(#clipPath1); fill:none; stroke:black;" height="227" />
    </g>
    <g style="font-family:sans-serif;">
      <text x="92" y="31" style="clip-path:url(#clipPath3); stroke:none;">jccl::ConfigChunkHandler
      </text>
      <text x="111" y="44" style="clip-path:url(#clipPath3); font-style:italic; stroke:none; font-weight:bold;">vrj::App
      </text>
    </g>
    <g>
      <line x1="20" x2="257" y1="53" style="clip-path:url(#clipPath2); fill:none;" y2="53" />
      <line x1="20" x2="257" y1="66" style="clip-path:url(#clipPath2); fill:none;" y2="66" />
    </g>
    <g style="font-family:sans-serif;">
      <text x="26" y="85" style="clip-path:url(#clipPath5); stroke:none;">+App
      </text>
      <text x="26" y="98" style="clip-path:url(#clipPath5); stroke:none;">+App
      </text>
      <text x="26" y="111" style="clip-path:url(#clipPath5); stroke:none;">+init:void
      </text>
      <text x="26" y="124" style="clip-path:url(#clipPath5); stroke:none;">+apiInit:void
      </text>
      <text x="26" y="137" style="clip-path:url(#clipPath5); stroke:none;">+exit:void
      </text>
      <text x="26" y="150" style="clip-path:url(#clipPath5); stroke:none;">+preFrame:void
      </text>
      <text x="26" y="163" style="clip-path:url(#clipPath5); stroke:none;">+intraFrame:void
      </text>
      <text x="26" y="176" style="clip-path:url(#clipPath5); stroke:none;">+postFrame:void
      </text>
      <text x="26" y="189" style="clip-path:url(#clipPath5); stroke:none;">+setFocus:void
      </text>
      <text x="26" y="202" style="font-style:italic; clip-path:url(#clipPath5); stroke:none;">+getDrawManager:DrawManager *
      </text>
      <text x="26" y="215" style="clip-path:url(#clipPath5); stroke:none;">+getSoundManager:SoundManager *
      </text>
    </g>
    <g>
      <line x1="20" x2="257" y1="225" style="clip-path:url(#clipPath2); fill:none;" y2="225" />
    </g>
    <g style="fill:navy; stroke:navy;">
      <rect x="343" y="293" width="150" style="clip-path:url(#clipPath1); stroke:none;" height="180" />
      <rect x="340" y="290" width="150" style="clip-path:url(#clipPath1); fill:white; stroke:none;" height="180" />
      <rect x="340" y="290" width="150" style="clip-path:url(#clipPath1); fill:none; stroke:black;" height="180" />
    </g>
    <g style="font-weight:bold; font-family:sans-serif;">
      <text x="373" y="301" style="clip-path:url(#clipPath7); stroke:none;">userOglApp
      </text>
    </g>
    <g>
      <line x1="340" x2="490" y1="310" style="clip-path:url(#clipPath6); fill:none;" y2="310" />
      <line x1="340" x2="490" y1="333" style="clip-path:url(#clipPath6); fill:none;" y2="333" />
    </g>
    <g style="font-family:sans-serif;">
      <text x="346" y="352" style="clip-path:url(#clipPath9); stroke:none;">+init:void
      </text>
      <text x="346" y="365" style="clip-path:url(#clipPath9); stroke:none;">+apiInit:void
      </text>
      <text x="346" y="378" style="clip-path:url(#clipPath9); stroke:none;">+preFrame:void
      </text>
      <text x="346" y="391" style="clip-path:url(#clipPath9); stroke:none;">+intraFrame:void
      </text>
      <text x="346" y="404" style="clip-path:url(#clipPath9); stroke:none;">+postFrame:void
      </text>
      <text x="346" y="417" style="clip-path:url(#clipPath9); stroke:none;">+bufferPreDraw:void
      </text>
      <text x="346" y="430" style="clip-path:url(#clipPath9); stroke:none;">+draw:void
      </text>
      <text x="346" y="443" style="clip-path:url(#clipPath9); stroke:none;">+contextInit:void
      </text>
      <text x="346" y="456" style="clip-path:url(#clipPath9); stroke:none;">+contextPreDraw:void
      </text>
    </g>
    <g style="fill:navy; stroke:navy;">
      <rect x="23" y="293" width="227" style="clip-path:url(#clipPath1); stroke:none;" height="207" />
      <rect x="20" y="290" width="227" style="clip-path:url(#clipPath1); fill:white; stroke:none;" height="207" />
      <rect x="20" y="290" width="227" style="clip-path:url(#clipPath1); fill:none; stroke:black;" height="207" />
    </g>
    <g style="font-style:italic; font-weight:bold; font-family:sans-serif;">
      <text x="99" y="301" style="clip-path:url(#clipPath11); stroke:none;">vrj::GlApp
      </text>
    </g>
    <g>
      <line x1="20" x2="247" y1="310" style="clip-path:url(#clipPath10); fill:none;" y2="310" />
      <line x1="20" x2="247" y1="333" style="clip-path:url(#clipPath10); fill:none;" y2="333" />
    </g>
    <g style="font-family:sans-serif;">
      <text x="26" y="352" style="clip-path:url(#clipPath13); stroke:none;">+GlApp
      </text>
      <text x="26" y="365" style="clip-path:url(#clipPath13); stroke:none;">+GlApp
      </text>
      <text x="26" y="378" style="font-style:italic; clip-path:url(#clipPath13); stroke:none;">+draw:void
      </text>
      <text x="26" y="391" style="clip-path:url(#clipPath13); stroke:none;">+contextInit:void
      </text>
      <text x="26" y="404" style="clip-path:url(#clipPath13); stroke:none;">+contextClose:void
      </text>
      <text x="26" y="417" style="clip-path:url(#clipPath13); stroke:none;">+contextPreDraw:void
      </text>
      <text x="26" y="430" style="clip-path:url(#clipPath13); stroke:none;">+contextPostDraw:void
      </text>
      <text x="26" y="443" style="clip-path:url(#clipPath13); stroke:none;">+bufferPreDraw:void
      </text>
      <text x="26" y="456" style="clip-path:url(#clipPath13); stroke:none;">+pipePreDraw:void
      </text>
      <text x="26" y="469" style="clip-path:url(#clipPath13); stroke:none;">+getDrawManager:DrawManager *
      </text>
    </g>
  </g>
</svg>
