<?xml version="1.0" encoding="UTF-8"?>

<!DOCTYPE svg PUBLIC '-//W3C//DTD SVG 20001102//EN' 'http://www.w3.org/TR/2000/CR-SVG-20001102/DTD/svg-20001102.dtd'>
<svg style="fill-opacity:1; color-interpolation:sRGB; color-rendering:auto; text-rendering:auto; stroke:black; stroke-linecap:square; stroke-miterlimit:10; stroke-opacity:1; shape-rendering:auto; fill:black; stroke-dasharray:none; font-weight:normal; stroke-width:1; font-family:&apos;Lucida Sans&apos;; font-style:normal; stroke-linejoin:miter; font-size:12; image-rendering:auto; stroke-dashoffset:0;" width="501" height="491">
  <!--Generated by the Batik Graphics2D SVG Generator-->
  <defs id="genericDefs" />
  <g>
    <defs id="defs1">
      <clipPath clipPathUnits="userSpaceOnUse" id="clipPath1">
        <path d="M0 0 L501 0 L501 491 L0 491 L0 0 Z" />
      </clipPath>
      <clipPath clipPathUnits="userSpaceOnUse" id="clipPath2">
        <path d="M120 20 L120 178 L298 178 L298 20 Z" />
      </clipPath>
      <clipPath clipPathUnits="userSpaceOnUse" id="clipPath3">
        <path d="M121 21 L121 48 L298 48 L298 21 Z" />
      </clipPath>
      <clipPath clipPathUnits="userSpaceOnUse" id="clipPath4">
        <path d="M120 83 L120 165 L298 165 L298 83 Z" />
      </clipPath>
      <clipPath clipPathUnits="userSpaceOnUse" id="clipPath5">
        <path d="M122 85 L122 164 L297 164 L297 85 Z" />
      </clipPath>
      <clipPath clipPathUnits="userSpaceOnUse" id="clipPath6">
        <path d="M200 220 L200 328 L348 328 L348 220 Z" />
      </clipPath>
      <clipPath clipPathUnits="userSpaceOnUse" id="clipPath7">
        <path d="M201 221 L201 235 L348 235 L348 221 Z" />
      </clipPath>
      <clipPath clipPathUnits="userSpaceOnUse" id="clipPath8">
        <path d="M200 270 L200 313 L348 313 L348 270 Z" />
      </clipPath>
      <clipPath clipPathUnits="userSpaceOnUse" id="clipPath9">
        <path d="M202 272 L202 312 L347 312 L347 272 Z" />
      </clipPath>
      <clipPath clipPathUnits="userSpaceOnUse" id="clipPath10">
        <path d="M20 220 L20 328 L178 328 L178 220 Z" />
      </clipPath>
      <clipPath clipPathUnits="userSpaceOnUse" id="clipPath11">
        <path d="M21 221 L21 235 L178 235 L178 221 Z" />
      </clipPath>
      <clipPath clipPathUnits="userSpaceOnUse" id="clipPath12">
        <path d="M20 270 L20 313 L178 313 L178 270 Z" />
      </clipPath>
      <clipPath clipPathUnits="userSpaceOnUse" id="clipPath13">
        <path d="M22 272 L22 312 L177 312 L177 272 Z" />
      </clipPath>
      <clipPath clipPathUnits="userSpaceOnUse" id="clipPath14">
        <path d="M290 370 L290 478 L488 478 L488 370 Z" />
      </clipPath>
      <clipPath clipPathUnits="userSpaceOnUse" id="clipPath15">
        <path d="M291 371 L291 385 L488 385 L488 371 Z" />
      </clipPath>
      <clipPath clipPathUnits="userSpaceOnUse" id="clipPath16">
        <path d="M290 420 L290 450 L488 450 L488 420 Z" />
      </clipPath>
      <clipPath clipPathUnits="userSpaceOnUse" id="clipPath17">
        <path d="M292 422 L292 449 L487 449 L487 422 Z" />
      </clipPath>
      <clipPath clipPathUnits="userSpaceOnUse" id="clipPath18">
        <path d="M100 370 L100 478 L268 478 L268 370 Z" />
      </clipPath>
      <clipPath clipPathUnits="userSpaceOnUse" id="clipPath19">
        <path d="M101 371 L101 385 L268 385 L268 371 Z" />
      </clipPath>
      <clipPath clipPathUnits="userSpaceOnUse" id="clipPath20">
        <path d="M100 420 L100 450 L268 450 L268 420 Z" />
      </clipPath>
      <clipPath clipPathUnits="userSpaceOnUse" id="clipPath21">
        <path d="M102 422 L102 449 L267 449 L267 422 Z" />
      </clipPath>
    </defs>
    <g style="fill:rgb(0,64,64); stroke:rgb(0,64,64);">
      <line x1="160" x2="160" y1="220" style="clip-path:url(#clipPath1); fill:none;" y2="180" />
      <line x1="260" x2="260" y1="220" style="clip-path:url(#clipPath1); fill:none;" y2="180" />
      <line x1="255" x2="255" y1="370" style="clip-path:url(#clipPath1); fill:none;" y2="330" />
      <line x1="310" x2="310" y1="370" style="clip-path:url(#clipPath1); fill:none;" y2="330" />
      <polygon style="fill:white; clip-path:url(#clipPath1); stroke:none;" points=" 160 180 166 198 154 198" />
      <polygon style="fill:none; clip-path:url(#clipPath1);" points=" 160 180 166 198 154 198" />
      <line x1="154" x2="160" y1="198" style="clip-path:url(#clipPath1); fill:none;" y2="180" />
      <polygon style="fill:white; clip-path:url(#clipPath1); stroke:none;" points=" 260 180 266 198 254 198" />
      <polygon style="fill:none; clip-path:url(#clipPath1);" points=" 260 180 266 198 254 198" />
      <line x1="254" x2="260" y1="198" style="clip-path:url(#clipPath1); fill:none;" y2="180" />
      <polygon style="fill:white; clip-path:url(#clipPath1); stroke:none;" points=" 255 330 261 348 249 348" />
      <polygon style="fill:none; clip-path:url(#clipPath1);" points=" 255 330 261 348 249 348" />
      <line x1="249" x2="255" y1="348" style="clip-path:url(#clipPath1); fill:none;" y2="330" />
      <polygon style="fill:white; clip-path:url(#clipPath1); stroke:none;" points=" 310 330 316 348 304 348" />
      <polygon style="fill:none; clip-path:url(#clipPath1);" points=" 310 330 316 348 304 348" />
      <line x1="304" x2="310" y1="348" style="clip-path:url(#clipPath1); fill:none;" y2="330" />
      <rect x="123" y="23" width="177" style="clip-path:url(#clipPath1); fill:navy; stroke:none;" height="157" />
      <rect x="120" y="20" width="177" style="clip-path:url(#clipPath1); fill:white; stroke:none;" height="157" />
      <rect x="120" y="20" width="177" style="clip-path:url(#clipPath1); fill:none; stroke:black;" height="157" />
    </g>
    <g style="font-family:sans-serif;">
      <text x="132" y="31" style="clip-path:url(#clipPath3); stroke:none;">jccl::ConfigChunkHandler
      </text>
      <text x="181" y="44" style="clip-path:url(#clipPath3); font-style:italic; stroke:none; font-weight:bold;">vrj::App
      </text>
    </g>
    <g>
      <line x1="120" x2="297" y1="53" style="clip-path:url(#clipPath2); fill:none;" y2="53" />
      <line x1="120" x2="297" y1="76" style="clip-path:url(#clipPath2); fill:none;" y2="76" />
    </g>
    <g style="font-family:sans-serif;">
      <text x="126" y="95" style="clip-path:url(#clipPath5); stroke:none;">+init:void
      </text>
      <text x="126" y="108" style="clip-path:url(#clipPath5); stroke:none;">+apiInit:void
      </text>
      <text x="126" y="121" style="clip-path:url(#clipPath5); stroke:none;">+exit:void
      </text>
      <text x="126" y="134" style="clip-path:url(#clipPath5); stroke:none;">+preFrame:void
      </text>
      <text x="126" y="147" style="clip-path:url(#clipPath5); stroke:none;">+intraFrame:void
      </text>
      <text x="126" y="160" style="clip-path:url(#clipPath5); stroke:none;">+postFrame:void
      </text>
    </g>
    <g style="fill:navy; stroke:navy;">
      <rect x="203" y="223" width="147" style="clip-path:url(#clipPath1); stroke:none;" height="107" />
      <rect x="200" y="220" width="147" style="clip-path:url(#clipPath1); fill:white; stroke:none;" height="107" />
      <rect x="200" y="220" width="147" style="clip-path:url(#clipPath1); fill:none; stroke:black;" height="107" />
    </g>
    <g style="font-style:italic; font-weight:bold; font-family:sans-serif;">
      <text x="239" y="231" style="clip-path:url(#clipPath7); stroke:none;">vrj::GlApp
      </text>
    </g>
    <g>
      <line x1="200" x2="347" y1="240" style="clip-path:url(#clipPath6); fill:none;" y2="240" />
      <line x1="200" x2="347" y1="263" style="clip-path:url(#clipPath6); fill:none;" y2="263" />
    </g>
    <g style="font-family:sans-serif; font-style:italic;">
      <text x="206" y="282" style="clip-path:url(#clipPath9); stroke:none;">+draw:void
      </text>
      <text x="206" y="295" style="font-style:normal; clip-path:url(#clipPath9); stroke:none;">+contextInit:void
      </text>
      <text x="206" y="308" style="font-style:normal; clip-path:url(#clipPath9); stroke:none;">+bufferPreDraw:void
      </text>
    </g>
    <g style="fill:navy; stroke:navy;">
      <rect x="23" y="223" width="157" style="clip-path:url(#clipPath1); stroke:none;" height="107" />
      <rect x="20" y="220" width="157" style="clip-path:url(#clipPath1); fill:white; stroke:none;" height="107" />
      <rect x="20" y="220" width="157" style="clip-path:url(#clipPath1); fill:none; stroke:black;" height="107" />
    </g>
    <g style="font-style:italic; font-weight:bold; font-family:sans-serif;">
      <text x="64" y="231" style="clip-path:url(#clipPath11); stroke:none;">vrj::PfApp
      </text>
    </g>
    <g>
      <line x1="20" x2="177" y1="240" style="clip-path:url(#clipPath10); fill:none;" y2="240" />
      <line x1="20" x2="177" y1="263" style="clip-path:url(#clipPath10); fill:none;" y2="263" />
    </g>
    <g style="font-family:sans-serif; font-style:italic;">
      <text x="26" y="282" style="clip-path:url(#clipPath13); stroke:none;">+initScene:void
      </text>
      <text x="26" y="295" style="clip-path:url(#clipPath13); stroke:none;">+getScene:pfGroup *
      </text>
      <text x="26" y="308" style="font-style:normal; clip-path:url(#clipPath13); stroke:none;">+drawChan:void
      </text>
    </g>
    <g style="fill:navy; stroke:navy;">
      <rect x="293" y="373" width="197" style="clip-path:url(#clipPath1); stroke:none;" height="107" />
      <rect x="290" y="370" width="197" style="clip-path:url(#clipPath1); fill:white; stroke:none;" height="107" />
      <rect x="290" y="370" width="197" style="clip-path:url(#clipPath1); fill:none; stroke:black;" height="107" />
    </g>
    <g style="font-style:italic; font-weight:bold; font-family:sans-serif;">
      <text x="334" y="381" style="clip-path:url(#clipPath15); stroke:none;">vrj::OpenSGApp
      </text>
    </g>
    <g>
      <line x1="290" x2="487" y1="390" style="clip-path:url(#clipPath14); fill:none;" y2="390" />
      <line x1="290" x2="487" y1="413" style="clip-path:url(#clipPath14); fill:none;" y2="413" />
    </g>
    <g style="font-family:sans-serif; font-style:italic;">
      <text x="296" y="432" style="clip-path:url(#clipPath17); stroke:none;">+initScene:void
      </text>
      <text x="296" y="445" style="clip-path:url(#clipPath17); stroke:none;">+getSceneRoot:OSG::NodePtr
      </text>
    </g>
    <g>
      <line x1="290" x2="487" y1="455" style="clip-path:url(#clipPath14); fill:none;" y2="455" />
    </g>
    <g style="fill:navy; stroke:navy;">
      <rect x="103" y="373" width="167" style="clip-path:url(#clipPath1); stroke:none;" height="107" />
      <rect x="100" y="370" width="167" style="clip-path:url(#clipPath1); fill:white; stroke:none;" height="107" />
      <rect x="100" y="370" width="167" style="clip-path:url(#clipPath1); fill:none; stroke:black;" height="107" />
    </g>
    <g style="font-style:italic; font-weight:bold; font-family:sans-serif;">
      <text x="142" y="381" style="clip-path:url(#clipPath19); stroke:none;">vrj::OsgApp
      </text>
    </g>
    <g>
      <line x1="100" x2="267" y1="390" style="clip-path:url(#clipPath18); fill:none;" y2="390" />
      <line x1="100" x2="267" y1="413" style="clip-path:url(#clipPath18); fill:none;" y2="413" />
    </g>
    <g style="font-family:sans-serif; font-style:italic;">
      <text x="106" y="432" style="clip-path:url(#clipPath21); stroke:none;">+initScene:void
      </text>
      <text x="106" y="445" style="clip-path:url(#clipPath21); stroke:none;">+getScene:osg::Group *
      </text>
    </g>
  </g>
</svg>
