<?xml version="1.0" encoding="UTF-8"?>

<!DOCTYPE svg PUBLIC '-//W3C//DTD SVG 20001102//EN' 'http://www.w3.org/TR/2000/CR-SVG-20001102/DTD/svg-20001102.dtd'>
<svg style="fill-opacity:1; color-rendering:auto; color-interpolation:sRGB; text-rendering:auto; stroke:black; stroke-linecap:square; stroke-miterlimit:10; shape-rendering:auto; stroke-opacity:1; fill:black; stroke-dasharray:none; font-weight:normal; stroke-width:1; font-family:&apos;sansserif&apos;; font-style:normal; stroke-linejoin:miter; font-size:12; stroke-dashoffset:0; image-rendering:auto;" width="607" height="970">
  <!--Generated by the Batik Graphics2D SVG Generator-->
  <defs id="genericDefs" />
  <g>
    <defs id="defs1">
      <clipPath clipPathUnits="userSpaceOnUse" id="clipPath1">
        <path d="M0 0 L607 0 L607 970 L0 970 L0 0 Z" />
      </clipPath>
      <clipPath clipPathUnits="userSpaceOnUse" id="clipPath2">
        <path d="M176 40 L176 323 L378 323 L378 40 Z" />
      </clipPath>
      <clipPath clipPathUnits="userSpaceOnUse" id="clipPath3">
        <path d="M177 41 L177 82 L378 82 L378 41 Z" />
      </clipPath>
      <clipPath clipPathUnits="userSpaceOnUse" id="clipPath4">
        <path d="M176 117 L176 249 L378 249 L378 117 Z" />
      </clipPath>
      <clipPath clipPathUnits="userSpaceOnUse" id="clipPath5">
        <path d="M178 119 L178 248 L377 248 L377 119 Z" />
      </clipPath>
      <clipPath clipPathUnits="userSpaceOnUse" id="clipPath6">
        <path d="M176 261 L176 313 L378 313 L378 261 Z" />
      </clipPath>
      <clipPath clipPathUnits="userSpaceOnUse" id="clipPath7">
        <path d="M178 263 L178 312 L377 312 L377 263 Z" />
      </clipPath>
      <clipPath clipPathUnits="userSpaceOnUse" id="clipPath8">
        <path d="M336 350 L336 600 L488 600 L488 350 Z" />
      </clipPath>
      <clipPath clipPathUnits="userSpaceOnUse" id="clipPath9">
        <path d="M337 351 L337 376 L488 376 L488 351 Z" />
      </clipPath>
      <clipPath clipPathUnits="userSpaceOnUse" id="clipPath10">
        <path d="M336 411 L336 567 L488 567 L488 411 Z" />
      </clipPath>
      <clipPath clipPathUnits="userSpaceOnUse" id="clipPath11">
        <path d="M338 413 L338 566 L487 566 L487 413 Z" />
      </clipPath>
      <clipPath clipPathUnits="userSpaceOnUse" id="clipPath12">
        <path d="M56 370 L56 581 L268 581 L268 370 Z" />
      </clipPath>
      <clipPath clipPathUnits="userSpaceOnUse" id="clipPath13">
        <path d="M57 371 L57 396 L268 396 L268 371 Z" />
      </clipPath>
      <clipPath clipPathUnits="userSpaceOnUse" id="clipPath14">
        <path d="M56 431 L56 507 L268 507 L268 431 Z" />
      </clipPath>
      <clipPath clipPathUnits="userSpaceOnUse" id="clipPath15">
        <path d="M58 433 L58 506 L267 506 L267 433 Z" />
      </clipPath>
      <clipPath clipPathUnits="userSpaceOnUse" id="clipPath16">
        <path d="M56 519 L56 571 L268 571 L268 519 Z" />
      </clipPath>
      <clipPath clipPathUnits="userSpaceOnUse" id="clipPath17">
        <path d="M58 521 L58 570 L267 570 L267 521 Z" />
      </clipPath>
      <clipPath clipPathUnits="userSpaceOnUse" id="clipPath18">
        <path d="M436 650 L436 957 L594 957 L594 650 Z" />
      </clipPath>
      <clipPath clipPathUnits="userSpaceOnUse" id="clipPath19">
        <path d="M437 651 L437 676 L594 676 L594 651 Z" />
      </clipPath>
      <clipPath clipPathUnits="userSpaceOnUse" id="clipPath20">
        <path d="M436 711 L436 883 L594 883 L594 711 Z" />
      </clipPath>
      <clipPath clipPathUnits="userSpaceOnUse" id="clipPath21">
        <path d="M438 713 L438 882 L593 882 L593 713 Z" />
      </clipPath>
      <clipPath clipPathUnits="userSpaceOnUse" id="clipPath22">
        <path d="M436 895 L436 915 L594 915 L594 895 Z" />
      </clipPath>
      <clipPath clipPathUnits="userSpaceOnUse" id="clipPath23">
        <path d="M438 897 L438 914 L593 914 L593 897 Z" />
      </clipPath>
      <clipPath clipPathUnits="userSpaceOnUse" id="clipPath24">
        <path d="M436 927 L436 947 L594 947 L594 927 Z" />
      </clipPath>
      <clipPath clipPathUnits="userSpaceOnUse" id="clipPath25">
        <path d="M438 929 L438 946 L593 946 L593 929 Z" />
      </clipPath>
      <clipPath clipPathUnits="userSpaceOnUse" id="clipPath26">
        <path d="M246 650 L246 941 L390 941 L390 650 Z" />
      </clipPath>
      <clipPath clipPathUnits="userSpaceOnUse" id="clipPath27">
        <path d="M247 651 L247 676 L390 676 L390 651 Z" />
      </clipPath>
      <clipPath clipPathUnits="userSpaceOnUse" id="clipPath28">
        <path d="M246 711 L246 899 L390 899 L390 711 Z" />
      </clipPath>
      <clipPath clipPathUnits="userSpaceOnUse" id="clipPath29">
        <path d="M248 713 L248 898 L389 898 L389 713 Z" />
      </clipPath>
      <clipPath clipPathUnits="userSpaceOnUse" id="clipPath30">
        <path d="M246 911 L246 931 L390 931 L390 911 Z" />
      </clipPath>
      <clipPath clipPathUnits="userSpaceOnUse" id="clipPath31">
        <path d="M248 913 L248 930 L389 930 L389 913 Z" />
      </clipPath>
    </defs>
    <g style="fill:rgb(0,64,64); stroke:rgb(0,64,64);">
      <line x1="215" x2="215" y1="370" style="clip-path:url(#clipPath1); fill:none;" y2="325" />
      <line x1="350" x2="350" y1="350" style="clip-path:url(#clipPath1); fill:none;" y2="325" />
      <line x1="356" x2="356" y1="650" style="clip-path:url(#clipPath1); fill:none;" y2="602" />
      <line x1="455" x2="455" y1="650" style="clip-path:url(#clipPath1); fill:none;" y2="602" />
      <polygon style="fill:white; clip-path:url(#clipPath1); stroke:none;" points=" 215 325 221 343 209 343" />
      <polygon style="fill:none; clip-path:url(#clipPath1);" points=" 215 325 221 343 209 343" />
      <line x1="209" x2="215" y1="343" style="clip-path:url(#clipPath1); fill:none;" y2="325" />
      <polygon style="fill:white; clip-path:url(#clipPath1); stroke:none;" points=" 350 325 356 343 344 343" />
      <polygon style="fill:none; clip-path:url(#clipPath1);" points=" 350 325 356 343 344 343" />
      <line x1="344" x2="350" y1="343" style="clip-path:url(#clipPath1); fill:none;" y2="325" />
      <polygon style="fill:white; clip-path:url(#clipPath1); stroke:none;" points=" 356 602 362 620 350 620" />
      <polygon style="fill:none; clip-path:url(#clipPath1);" points=" 356 602 362 620 350 620" />
      <line x1="350" x2="356" y1="620" style="clip-path:url(#clipPath1); fill:none;" y2="602" />
      <polygon style="fill:white; clip-path:url(#clipPath1); stroke:none;" points=" 455 602 461 620 449 620" />
      <polygon style="fill:none; clip-path:url(#clipPath1);" points=" 455 602 461 620 449 620" />
      <line x1="449" x2="455" y1="620" style="clip-path:url(#clipPath1); fill:none;" y2="602" />
      <polygon style="fill:navy; clip-path:url(#clipPath1); stroke:none;" points=" 171 43 380 43 380 325 171 325 171 57 163 57 163 49 171 49 171 43" />
      <polygon style="fill:white; clip-path:url(#clipPath1); stroke:none;" points=" 168 40 377 40 377 322 168 322 168 54 160 54 160 46 168 46 168 40" />
      <polygon style="fill:none; clip-path:url(#clipPath1); stroke:black;" points=" 168 40 377 40 377 322 168 322 168 54 160 54 160 46 168 46 168 40" />
      <line x1="168" x2="176" y1="54" style="clip-path:url(#clipPath1); fill:none; stroke:black;" y2="54" />
      <line x1="176" x2="176" y1="54" style="clip-path:url(#clipPath1); fill:none; stroke:black;" y2="46" />
      <line x1="176" x2="168" y1="46" style="clip-path:url(#clipPath1); fill:none; stroke:black;" y2="46" />
    </g>
    <g style="font-family:sans-serif;">
      <text x="228" y="53" style="clip-path:url(#clipPath3); stroke:none;">jccl::ConfigChunkHandler
      </text>
      <text x="253" y="71" style="clip-path:url(#clipPath3); font-style:italic; stroke:none; font-weight:bold;">vrj::App
      </text>
    </g>
    <g>
      <line x1="176" x2="377" y1="87" style="clip-path:url(#clipPath2); fill:none;" y2="87" />
      <line x1="176" x2="377" y1="110" style="clip-path:url(#clipPath2); fill:none;" y2="110" />
    </g>
    <g style="font-family:sans-serif;">
      <text x="182" y="131" style="clip-path:url(#clipPath5); stroke:none;">+App
      </text>
      <text x="182" y="147" style="clip-path:url(#clipPath5); stroke:none;">+App
      </text>
      <text x="182" y="163" style="clip-path:url(#clipPath5); stroke:none;">+init:void
      </text>
      <text x="182" y="179" style="clip-path:url(#clipPath5); stroke:none;">+apiInit:void
      </text>
      <text x="182" y="195" style="clip-path:url(#clipPath5); stroke:none;">+exit:void
      </text>
      <text x="182" y="211" style="clip-path:url(#clipPath5); stroke:none;">+preFrame:void
      </text>
      <text x="182" y="227" style="clip-path:url(#clipPath5); stroke:none;">+intraFrame:void
      </text>
      <text x="182" y="243" style="clip-path:url(#clipPath5); stroke:none;">+postFrame:void
      </text>
    </g>
    <g>
      <line x1="176" x2="377" y1="254" style="clip-path:url(#clipPath2); fill:none;" y2="254" />
    </g>
    <g style="font-family:sans-serif;">
      <text x="182" y="275" style="clip-path:url(#clipPath7); stroke:none;"> focus:bool
      </text>
      <text x="182" y="291" style="clip-path:url(#clipPath7); stroke:none;"> drawManager:DrawManager *
      </text>
      <text x="182" y="307" style="clip-path:url(#clipPath7); stroke:none;"> soundManager:SoundManager *
      </text>
    </g>
    <g style="fill:navy; stroke:navy;">
      <polygon style="clip-path:url(#clipPath1); stroke:none;" points=" 331 353 490 353 490 602 331 602 331 367 323 367 323 359 331 359 331 353" />
      <polygon style="fill:white; clip-path:url(#clipPath1); stroke:none;" points=" 328 350 487 350 487 599 328 599 328 364 320 364 320 356 328 356 328 350" />
      <polygon style="fill:none; clip-path:url(#clipPath1); stroke:black;" points=" 328 350 487 350 487 599 328 599 328 364 320 364 320 356 328 356 328 350" />
      <line x1="328" x2="336" y1="364" style="clip-path:url(#clipPath1); fill:none; stroke:black;" y2="364" />
      <line x1="336" x2="336" y1="364" style="clip-path:url(#clipPath1); fill:none; stroke:black;" y2="356" />
      <line x1="336" x2="328" y1="356" style="clip-path:url(#clipPath1); fill:none; stroke:black;" y2="356" />
    </g>
    <g style="font-style:italic; font-family:sans-serif; font-weight:bold;">
      <text x="382" y="365" style="clip-path:url(#clipPath9); stroke:none;">vrj::GlApp
      </text>
    </g>
    <g>
      <line x1="336" x2="487" y1="381" style="clip-path:url(#clipPath8); fill:none;" y2="381" />
      <line x1="336" x2="487" y1="404" style="clip-path:url(#clipPath8); fill:none;" y2="404" />
    </g>
    <g style="font-family:sans-serif;">
      <text x="342" y="425" style="clip-path:url(#clipPath11); stroke:none;">+GlApp
      </text>
      <text x="342" y="441" style="clip-path:url(#clipPath11); stroke:none;">+GlApp
      </text>
      <text x="342" y="460" style="font-style:italic; clip-path:url(#clipPath11); stroke:none;">+draw:void
      </text>
      <text x="342" y="481" style="clip-path:url(#clipPath11); stroke:none;">+contextInit:void
      </text>
      <text x="342" y="497" style="clip-path:url(#clipPath11); stroke:none;">+contextClose:void
      </text>
      <text x="342" y="513" style="clip-path:url(#clipPath11); stroke:none;">+contextPreDraw:void
      </text>
      <text x="342" y="529" style="clip-path:url(#clipPath11); stroke:none;">+contextPostDraw:void
      </text>
      <text x="342" y="545" style="clip-path:url(#clipPath11); stroke:none;">+bufferPreDraw:void
      </text>
      <text x="342" y="561" style="clip-path:url(#clipPath11); stroke:none;">+pipePreDraw:void
      </text>
    </g>
    <g>
      <line x1="336" x2="487" y1="572" style="clip-path:url(#clipPath8); fill:none;" y2="572" />
    </g>
    <g style="fill:navy; stroke:navy;">
      <polygon style="clip-path:url(#clipPath1); stroke:none;" points=" 51 373 270 373 270 583 51 583 51 387 43 387 43 379 51 379 51 373" />
      <polygon style="fill:white; clip-path:url(#clipPath1); stroke:none;" points=" 48 370 267 370 267 580 48 580 48 384 40 384 40 376 48 376 48 370" />
      <polygon style="fill:none; clip-path:url(#clipPath1); stroke:black;" points=" 48 370 267 370 267 580 48 580 48 384 40 384 40 376 48 376 48 370" />
      <line x1="48" x2="56" y1="384" style="clip-path:url(#clipPath1); fill:none; stroke:black;" y2="384" />
      <line x1="56" x2="56" y1="384" style="clip-path:url(#clipPath1); fill:none; stroke:black;" y2="376" />
      <line x1="56" x2="48" y1="376" style="clip-path:url(#clipPath1); fill:none; stroke:black;" y2="376" />
    </g>
    <g style="font-style:italic; font-family:sans-serif; font-weight:bold;">
      <text x="132" y="385" style="clip-path:url(#clipPath13); stroke:none;">vrj::PfApp
      </text>
    </g>
    <g>
      <line x1="56" x2="267" y1="401" style="clip-path:url(#clipPath12); fill:none;" y2="401" />
      <line x1="56" x2="267" y1="424" style="clip-path:url(#clipPath12); fill:none;" y2="424" />
    </g>
    <g style="font-family:sans-serif;">
      <text x="62" y="445" style="clip-path:url(#clipPath15); stroke:none;">+PfApp
      </text>
      <text x="62" y="461" style="clip-path:url(#clipPath15); stroke:none;">+PfApp
      </text>
      <text x="62" y="480" style="font-style:italic; clip-path:url(#clipPath15); stroke:none;">+initScene:void
      </text>
      <text x="62" y="501" style="clip-path:url(#clipPath15); stroke:none;">+drawChan:void
      </text>
    </g>
    <g>
      <line x1="56" x2="267" y1="512" style="clip-path:url(#clipPath12); fill:none;" y2="512" />
    </g>
    <g style="font-family:sans-serif;">
      <text x="62" y="533" style="clip-path:url(#clipPath17); stroke:none;"> scene:pfGroup *
      </text>
      <text x="62" y="549" style="clip-path:url(#clipPath17); stroke:none;"> frameBufferAttrs:std::vector&lt;int&gt;
      </text>
      <text x="62" y="565" style="clip-path:url(#clipPath17); stroke:none;"> drawManager:DrawManager *
      </text>
    </g>
    <g style="fill:navy; stroke:navy;">
      <polygon style="clip-path:url(#clipPath1); stroke:none;" points=" 431 653 596 653 596 959 431 959 431 667 423 667 423 659 431 659 431 653" />
      <polygon style="fill:white; clip-path:url(#clipPath1); stroke:none;" points=" 428 650 593 650 593 956 428 956 428 664 420 664 420 656 428 656 428 650" />
      <polygon style="fill:none; clip-path:url(#clipPath1); stroke:black;" points=" 428 650 593 650 593 956 428 956 428 664 420 664 420 656 428 656 428 650" />
      <line x1="428" x2="436" y1="664" style="clip-path:url(#clipPath1); fill:none; stroke:black;" y2="664" />
      <line x1="436" x2="436" y1="664" style="clip-path:url(#clipPath1); fill:none; stroke:black;" y2="656" />
      <line x1="436" x2="428" y1="656" style="clip-path:url(#clipPath1); fill:none; stroke:black;" y2="656" />
    </g>
    <g style="font-style:italic; font-family:sans-serif; font-weight:bold;">
      <text x="467" y="665" style="clip-path:url(#clipPath19); stroke:none;">vrj::OpenSGApp
      </text>
    </g>
    <g>
      <line x1="436" x2="593" y1="681" style="clip-path:url(#clipPath18); fill:none;" y2="681" />
      <line x1="436" x2="593" y1="704" style="clip-path:url(#clipPath18); fill:none;" y2="704" />
    </g>
    <g style="font-family:sans-serif;">
      <text x="442" y="725" style="clip-path:url(#clipPath21); stroke:none;">+OpenSGApp
      </text>
      <text x="442" y="741" style="clip-path:url(#clipPath21); stroke:none;">+~OpenSGApp
      </text>
      <text x="442" y="760" style="font-style:italic; clip-path:url(#clipPath21); stroke:none;">+initScene:void
      </text>
      <text x="442" y="781" style="clip-path:url(#clipPath21); stroke:none;">+init:void
      </text>
      <text x="442" y="797" style="clip-path:url(#clipPath21); stroke:none;">+apiInit:void
      </text>
      <text x="442" y="813" style="clip-path:url(#clipPath21); stroke:none;">+contextInit:void
      </text>
      <text x="442" y="829" style="clip-path:url(#clipPath21); stroke:none;">+contextPreDraw:void
      </text>
      <text x="442" y="845" style="clip-path:url(#clipPath21); stroke:none;">+contextPostDraw:void
      </text>
      <text x="442" y="861" style="clip-path:url(#clipPath21); stroke:none;">+draw:void
      </text>
      <text x="442" y="877" style="clip-path:url(#clipPath21); stroke:none;">+bufferPreDraw:void
      </text>
    </g>
    <g>
      <line x1="436" x2="593" y1="888" style="clip-path:url(#clipPath18); fill:none;" y2="888" />
    </g>
    <g style="font-family:sans-serif;">
      <text x="442" y="909" style="clip-path:url(#clipPath23); stroke:none;"> context data
      </text>
    </g>
    <g>
      <line x1="436" x2="593" y1="920" style="clip-path:url(#clipPath18); fill:none;" y2="920" />
    </g>
    <g style="font-family:sans-serif;">
      <text x="442" y="941" style="clip-path:url(#clipPath25); stroke:none;"> sceneRoot:OSG::NodePtr
      </text>
    </g>
    <g style="fill:navy; stroke:navy;">
      <polygon style="clip-path:url(#clipPath1); stroke:none;" points=" 241 653 392 653 392 943 241 943 241 667 233 667 233 659 241 659 241 653" />
      <polygon style="fill:white; clip-path:url(#clipPath1); stroke:none;" points=" 238 650 389 650 389 940 238 940 238 664 230 664 230 656 238 656 238 650" />
      <polygon style="fill:none; clip-path:url(#clipPath1); stroke:black;" points=" 238 650 389 650 389 940 238 940 238 664 230 664 230 656 238 656 238 650" />
      <line x1="238" x2="246" y1="664" style="clip-path:url(#clipPath1); fill:none; stroke:black;" y2="664" />
      <line x1="246" x2="246" y1="664" style="clip-path:url(#clipPath1); fill:none; stroke:black;" y2="656" />
      <line x1="246" x2="238" y1="656" style="clip-path:url(#clipPath1); fill:none; stroke:black;" y2="656" />
    </g>
    <g style="font-style:italic; font-family:sans-serif; font-weight:bold;">
      <text x="282" y="665" style="clip-path:url(#clipPath27); stroke:none;">vrj::OsgApp
      </text>
    </g>
    <g>
      <line x1="246" x2="389" y1="681" style="clip-path:url(#clipPath26); fill:none;" y2="681" />
      <line x1="246" x2="389" y1="704" style="clip-path:url(#clipPath26); fill:none;" y2="704" />
    </g>
    <g style="font-family:sans-serif;">
      <text x="252" y="725" style="clip-path:url(#clipPath29); stroke:none;">+OsgApp
      </text>
      <text x="252" y="741" style="clip-path:url(#clipPath29); stroke:none;">+~OsgApp
      </text>
      <text x="252" y="760" style="font-style:italic; clip-path:url(#clipPath29); stroke:none;">+initScene:void
      </text>
      <text x="252" y="781" style="clip-path:url(#clipPath29); stroke:none;">+configSceneView:void
      </text>
      <text x="252" y="797" style="clip-path:url(#clipPath29); stroke:none;">+draw:void
      </text>
      <text x="252" y="813" style="clip-path:url(#clipPath29); stroke:none;">+init:void
      </text>
      <text x="252" y="829" style="clip-path:url(#clipPath29); stroke:none;">+contextInit:void
      </text>
      <text x="252" y="845" style="clip-path:url(#clipPath29); stroke:none;">+contextClose:void
      </text>
      <text x="252" y="861" style="clip-path:url(#clipPath29); stroke:none;">+contextPreDraw:void
      </text>
      <text x="252" y="877" style="clip-path:url(#clipPath29); stroke:none;">+bufferPreDraw:void
      </text>
      <text x="252" y="893" style="clip-path:url(#clipPath29); stroke:none;">+pipePreDraw:void
      </text>
    </g>
    <g>
      <line x1="246" x2="389" y1="904" style="clip-path:url(#clipPath26); fill:none;" y2="904" />
    </g>
    <g style="font-family:sans-serif;">
      <text x="252" y="925" style="clip-path:url(#clipPath31); stroke:none;"> scene:osg::Group *
      </text>
    </g>
  </g>
</svg>
