<?xml version="1.0" encoding="UTF-8"?>

<!DOCTYPE svg PUBLIC '-//W3C//DTD SVG 20001102//EN' 'http://www.w3.org/TR/2000/CR-SVG-20001102/DTD/svg-20001102.dtd'>
<svg style="fill-opacity:1; color-interpolation:sRGB; color-rendering:auto; text-rendering:auto; stroke:black; stroke-linecap:square; stroke-miterlimit:10; stroke-opacity:1; shape-rendering:auto; fill:black; stroke-dasharray:none; font-weight:normal; stroke-width:1; font-family:&apos;Lucida Sans&apos;; font-style:normal; stroke-linejoin:miter; font-size:12; image-rendering:auto; stroke-dashoffset:0;" width="471" height="241">
  <!--Generated by the Batik Graphics2D SVG Generator-->
  <defs id="genericDefs" />
  <g>
    <defs id="defs1">
      <clipPath clipPathUnits="userSpaceOnUse" id="clipPath1">
        <path d="M0 0 L471 0 L471 241 L0 241 L0 0 Z" />
      </clipPath>
      <clipPath clipPathUnits="userSpaceOnUse" id="clipPath2">
        <path d="M26 70 L26 228 L178 228 L178 70 Z" />
      </clipPath>
      <clipPath clipPathUnits="userSpaceOnUse" id="clipPath3">
        <path d="M27 71 L27 98 L178 98 L178 71 Z" />
      </clipPath>
      <clipPath clipPathUnits="userSpaceOnUse" id="clipPath4">
        <path d="M26 123 L26 205 L178 205 L178 123 Z" />
      </clipPath>
      <clipPath clipPathUnits="userSpaceOnUse" id="clipPath5">
        <path d="M28 125 L28 204 L177 204 L177 125 Z" />
      </clipPath>
      <clipPath clipPathUnits="userSpaceOnUse" id="clipPath6">
        <path d="M254 14 L254 157 L443 157 L443 14 Z" />
      </clipPath>
    </defs>
    <g style="fill:purple; stroke:purple;">
      <line x1="250" x2="250" y1="130" style="clip-path:url(#clipPath1); fill:none;" y2="130" />
      <line x1="248" x2="240" y1="131" style="clip-path:url(#clipPath1); fill:none;" y2="137" />
      <line x1="236" x2="228" y1="140" style="clip-path:url(#clipPath1); fill:none;" y2="146" />
      <line x1="224" x2="216" y1="149" style="clip-path:url(#clipPath1); fill:none;" y2="154" />
      <line x1="212" x2="204" y1="157" style="clip-path:url(#clipPath1); fill:none;" y2="163" />
      <line x1="200" x2="191" y1="166" style="clip-path:url(#clipPath1); fill:none;" y2="172" />
      <line x1="187" x2="180" y1="175" style="clip-path:url(#clipPath1); fill:none;" y2="180" />
      <polygon style="fill:navy; clip-path:url(#clipPath1); stroke:none;" points=" 21 73 180 73 180 230 21 230 21 87 13 87 13 79 21 79 21 73" />
      <polygon style="fill:white; clip-path:url(#clipPath1); stroke:none;" points=" 18 70 177 70 177 227 18 227 18 84 10 84 10 76 18 76 18 70" />
      <polygon style="fill:none; clip-path:url(#clipPath1); stroke:black;" points=" 18 70 177 70 177 227 18 227 18 84 10 84 10 76 18 76 18 70" />
      <line x1="18" x2="26" y1="84" style="clip-path:url(#clipPath1); fill:none; stroke:black;" y2="84" />
      <line x1="26" x2="26" y1="84" style="clip-path:url(#clipPath1); fill:none; stroke:black;" y2="76" />
      <line x1="26" x2="18" y1="76" style="clip-path:url(#clipPath1); fill:none; stroke:black;" y2="76" />
    </g>
    <g style="font-family:sans-serif;">
      <text x="31" y="81" style="clip-path:url(#clipPath3); stroke:none;">vjConfigChunkHandler
      </text>
      <text x="81" y="94" style="clip-path:url(#clipPath3); font-style:italic; stroke:none; font-weight:bold;">vjApp
      </text>
    </g>
    <g>
      <line x1="26" x2="177" y1="103" style="clip-path:url(#clipPath2); fill:none;" y2="103" />
      <line x1="26" x2="177" y1="116" style="clip-path:url(#clipPath2); fill:none;" y2="116" />
    </g>
    <g style="font-family:sans-serif;">
      <text x="32" y="135" style="clip-path:url(#clipPath5); stroke:none;">+init:void
      </text>
      <text x="32" y="148" style="clip-path:url(#clipPath5); stroke:none;">+apiInit:void
      </text>
      <text x="32" y="161" style="clip-path:url(#clipPath5); stroke:none;">+exit:void
      </text>
      <text x="32" y="174" style="clip-path:url(#clipPath5); stroke:none;">+preFrame:void
      </text>
      <text x="32" y="187" style="clip-path:url(#clipPath5); stroke:none;">+intraFrame:void
      </text>
      <text x="32" y="200" style="clip-path:url(#clipPath5); stroke:none;">+postFrame:void
      </text>
    </g>
    <g>
      <line x1="26" x2="177" y1="210" style="clip-path:url(#clipPath2); fill:none;" y2="210" />
    </g>
    <g style="fill:navy; stroke:navy;">
      <polygon style="clip-path:url(#clipPath1); stroke:none;" points=" 253 13 446 13 461 28 461 161 253 161" />
      <polygon style="fill:white; clip-path:url(#clipPath1); stroke:none;" points=" 250 10 443 10 458 25 458 158 250 158" />
      <line x1="250" x2="443" y1="10" style="clip-path:url(#clipPath1); fill:none; stroke:black;" y2="10" />
      <line x1="443" x2="458" y1="10" style="clip-path:url(#clipPath1); fill:none; stroke:black;" y2="25" />
      <line x1="458" x2="458" y1="25" style="clip-path:url(#clipPath1); fill:none; stroke:black;" y2="158" />
      <line x1="458" x2="250" y1="158" style="clip-path:url(#clipPath1); fill:none; stroke:black;" y2="158" />
      <line x1="250" x2="250" y1="158" style="clip-path:url(#clipPath1); fill:none; stroke:black;" y2="10" />
      <line x1="443" x2="443" y1="10" style="clip-path:url(#clipPath1); fill:none; stroke:black;" y2="25" />
      <line x1="443" x2="458" y1="25" style="clip-path:url(#clipPath1); fill:none; stroke:black;" y2="25" />
    </g>
    <g style="font-family:sans-serif;">
      <text x="258" y="24" style="clip-path:url(#clipPath6); stroke:none;">class MyApp : public vjApp
      </text>
      <text x="258" y="37" style="clip-path:url(#clipPath6); stroke:none;">{
      </text>
      <text x="258" y="50" style="clip-path:url(#clipPath6); stroke:none;">   void init();
      </text>
      <text x="258" y="63" style="clip-path:url(#clipPath6); stroke:none;">   void apiInit();
      </text>
      <text x="258" y="76" style="clip-path:url(#clipPath6); stroke:none;">   void exit();
      </text>
      <text x="258" y="89" style="clip-path:url(#clipPath6); stroke:none;">   void preFrame();
      </text>
      <text x="258" y="102" style="clip-path:url(#clipPath6); stroke:none;">        .
      </text>
      <text x="258" y="115" style="clip-path:url(#clipPath6); stroke:none;">        .
      </text>
      <text x="258" y="128" style="clip-path:url(#clipPath6); stroke:none;">        .
      </text>
      <text x="258" y="141" style="clip-path:url(#clipPath6); stroke:none;">};
      </text>
    </g>
  </g>
</svg>
