<?xml version="1.0" encoding="UTF-8"?>

<!DOCTYPE svg PUBLIC '-//W3C//DTD SVG 20001102//EN' 'http://www.w3.org/TR/2000/CR-SVG-20001102/DTD/svg-20001102.dtd'>
<svg style="fill-opacity:1; color-rendering:auto; color-interpolation:sRGB; text-rendering:auto; stroke:black; stroke-linecap:square; stroke-miterlimit:10; shape-rendering:auto; stroke-opacity:1; fill:black; stroke-dasharray:none; font-weight:normal; stroke-width:1; font-family:&apos;sansserif&apos;; font-style:normal; stroke-linejoin:miter; font-size:12; stroke-dashoffset:0; image-rendering:auto;" width="471" height="291">
  <!--Generated by the Batik Graphics2D SVG Generator-->
  <defs id="genericDefs" />
  <g>
    <defs id="defs1">
      <clipPath clipPathUnits="userSpaceOnUse" id="clipPath1">
        <path d="M0 0 L471 0 L471 291 L0 291 L0 0 Z" />
      </clipPath>
      <clipPath clipPathUnits="userSpaceOnUse" id="clipPath2">
        <path d="M26 70 L26 278 L178 278 L178 70 Z" />
      </clipPath>
      <clipPath clipPathUnits="userSpaceOnUse" id="clipPath3">
        <path d="M27 71 L27 112 L178 112 L178 71 Z" />
      </clipPath>
      <clipPath clipPathUnits="userSpaceOnUse" id="clipPath4">
        <path d="M26 137 L26 253 L178 253 L178 137 Z" />
      </clipPath>
      <clipPath clipPathUnits="userSpaceOnUse" id="clipPath5">
        <path d="M28 139 L28 252 L177 252 L177 139 Z" />
      </clipPath>
      <clipPath clipPathUnits="userSpaceOnUse" id="clipPath6">
        <path d="M254 14 L254 197 L443 197 L443 14 Z" />
      </clipPath>
    </defs>
    <g style="fill:purple; stroke:purple;">
      <line x1="250" x2="250" y1="135" style="clip-path:url(#clipPath1); fill:none;" y2="135" />
      <line x1="245" x2="235" y1="135" style="clip-path:url(#clipPath1); fill:none;" y2="135" />
      <line x1="230" x2="220" y1="135" style="clip-path:url(#clipPath1); fill:none;" y2="135" />
      <line x1="215" x2="205" y1="135" style="clip-path:url(#clipPath1); fill:none;" y2="135" />
      <line x1="200" x2="190" y1="135" style="clip-path:url(#clipPath1); fill:none;" y2="135" />
      <line x1="185" x2="180" y1="135" style="clip-path:url(#clipPath1); fill:none;" y2="135" />
      <polygon style="fill:navy; clip-path:url(#clipPath1); stroke:none;" points=" 21 73 180 73 180 280 21 280 21 87 13 87 13 79 21 79 21 73" />
      <polygon style="fill:white; clip-path:url(#clipPath1); stroke:none;" points=" 18 70 177 70 177 277 18 277 18 84 10 84 10 76 18 76 18 70" />
      <polygon style="fill:none; clip-path:url(#clipPath1); stroke:black;" points=" 18 70 177 70 177 277 18 277 18 84 10 84 10 76 18 76 18 70" />
      <line x1="18" x2="26" y1="84" style="clip-path:url(#clipPath1); fill:none; stroke:black;" y2="84" />
      <line x1="26" x2="26" y1="84" style="clip-path:url(#clipPath1); fill:none; stroke:black;" y2="76" />
      <line x1="26" x2="18" y1="76" style="clip-path:url(#clipPath1); fill:none; stroke:black;" y2="76" />
    </g>
    <g style="font-family:sans-serif;">
      <text x="28" y="83" style="clip-path:url(#clipPath3); stroke:none;">jccl::ConfigChunkHandler
      </text>
      <text x="78" y="101" style="clip-path:url(#clipPath3); font-style:italic; stroke:none; font-weight:bold;">vrj::App
      </text>
    </g>
    <g>
      <line x1="26" x2="177" y1="117" style="clip-path:url(#clipPath2); fill:none;" y2="117" />
      <line x1="26" x2="177" y1="130" style="clip-path:url(#clipPath2); fill:none;" y2="130" />
    </g>
    <g style="font-family:sans-serif;">
      <text x="32" y="151" style="clip-path:url(#clipPath5); stroke:none;">+App
      </text>
      <text x="32" y="167" style="clip-path:url(#clipPath5); stroke:none;">+init:void
      </text>
      <text x="32" y="183" style="clip-path:url(#clipPath5); stroke:none;">+apiInit:void
      </text>
      <text x="32" y="199" style="clip-path:url(#clipPath5); stroke:none;">+exit:void
      </text>
      <text x="32" y="215" style="clip-path:url(#clipPath5); stroke:none;">+preFrame:void
      </text>
      <text x="32" y="231" style="clip-path:url(#clipPath5); stroke:none;">+intraFrame:void
      </text>
      <text x="32" y="247" style="clip-path:url(#clipPath5); stroke:none;">+postFrame:void
      </text>
    </g>
    <g>
      <line x1="26" x2="177" y1="258" style="clip-path:url(#clipPath2); fill:none;" y2="258" />
    </g>
    <g style="fill:navy; stroke:navy;">
      <polygon style="clip-path:url(#clipPath1); stroke:none;" points=" 253 13 446 13 461 28 461 201 253 201" />
      <polygon style="fill:white; clip-path:url(#clipPath1); stroke:none;" points=" 250 10 443 10 458 25 458 198 250 198" />
      <line x1="250" x2="443" y1="10" style="clip-path:url(#clipPath1); fill:none; stroke:black;" y2="10" />
      <line x1="443" x2="458" y1="10" style="clip-path:url(#clipPath1); fill:none; stroke:black;" y2="25" />
      <line x1="458" x2="458" y1="25" style="clip-path:url(#clipPath1); fill:none; stroke:black;" y2="198" />
      <line x1="458" x2="250" y1="198" style="clip-path:url(#clipPath1); fill:none; stroke:black;" y2="198" />
      <line x1="250" x2="250" y1="198" style="clip-path:url(#clipPath1); fill:none; stroke:black;" y2="10" />
      <line x1="443" x2="443" y1="10" style="clip-path:url(#clipPath1); fill:none; stroke:black;" y2="25" />
      <line x1="443" x2="458" y1="25" style="clip-path:url(#clipPath1); fill:none; stroke:black;" y2="25" />
    </g>
    <g style="font-family:sans-serif;">
      <text x="258" y="26" style="clip-path:url(#clipPath6); stroke:none;">class MyApp : public vrj::App
      </text>
      <text x="258" y="43" style="clip-path:url(#clipPath6); stroke:none;">{
      </text>
      <text x="258" y="60" style="clip-path:url(#clipPath6); stroke:none;">void init();
      </text>
      <text x="258" y="77" style="clip-path:url(#clipPath6); stroke:none;">void apiInit();
      </text>
      <text x="258" y="94" style="clip-path:url(#clipPath6); stroke:none;">void exit();
      </text>
      <text x="258" y="111" style="clip-path:url(#clipPath6); stroke:none;">void preFrame();
      </text>
      <text x="258" y="128" style="clip-path:url(#clipPath6); stroke:none;">.
      </text>
      <text x="258" y="145" style="clip-path:url(#clipPath6); stroke:none;">.
      </text>
      <text x="258" y="162" style="clip-path:url(#clipPath6); stroke:none;">.
      </text>
      <text x="258" y="179" style="clip-path:url(#clipPath6); stroke:none;">};
      </text>
    </g>
  </g>
</svg>
