<?xml version="1.0" encoding="UTF-8"?>

<!DOCTYPE svg PUBLIC '-//W3C//DTD SVG 20001102//EN' 'http://www.w3.org/TR/2000/CR-SVG-20001102/DTD/svg-20001102.dtd'>
<svg style="fill-opacity:1; color-interpolation:sRGB; color-rendering:auto; text-rendering:auto; stroke:black; stroke-linecap:square; stroke-miterlimit:10; stroke-opacity:1; shape-rendering:auto; fill:black; stroke-dasharray:none; font-weight:normal; stroke-width:1; font-family:&apos;Lucida Sans&apos;; font-style:normal; stroke-linejoin:miter; font-size:12; image-rendering:auto; stroke-dashoffset:0;" width="411" height="339">
  <!--Generated by the Batik Graphics2D SVG Generator-->
  <defs id="genericDefs" />
  <g>
    <defs id="defs1">
      <clipPath clipPathUnits="userSpaceOnUse" id="clipPath1">
        <path d="M0 0 L411 0 L411 339 L0 339 L0 0 Z" />
      </clipPath>
      <clipPath clipPathUnits="userSpaceOnUse" id="clipPath2">
        <path d="M20 230 L20 326 L203 326 L203 230 Z" />
      </clipPath>
      <clipPath clipPathUnits="userSpaceOnUse" id="clipPath3">
        <path d="M21 231 L21 245 L203 245 L203 231 Z" />
      </clipPath>
      <clipPath clipPathUnits="userSpaceOnUse" id="clipPath4">
        <path d="M20 257 L20 287 L203 287 L203 257 Z" />
      </clipPath>
      <clipPath clipPathUnits="userSpaceOnUse" id="clipPath5">
        <path d="M22 259 L22 286 L202 286 L202 259 Z" />
      </clipPath>
      <clipPath clipPathUnits="userSpaceOnUse" id="clipPath6">
        <path d="M260 230 L260 307 L374 307 L374 230 Z" />
      </clipPath>
      <clipPath clipPathUnits="userSpaceOnUse" id="clipPath7">
        <path d="M261 231 L261 245 L374 245 L374 231 Z" />
      </clipPath>
      <clipPath clipPathUnits="userSpaceOnUse" id="clipPath8">
        <path d="M90 20 L90 148 L398 148 L398 20 Z" />
      </clipPath>
      <clipPath clipPathUnits="userSpaceOnUse" id="clipPath9">
        <path d="M91 21 L91 35 L398 35 L398 21 Z" />
      </clipPath>
      <clipPath clipPathUnits="userSpaceOnUse" id="clipPath10">
        <path d="M90 47 L90 77 L398 77 L398 47 Z" />
      </clipPath>
      <clipPath clipPathUnits="userSpaceOnUse" id="clipPath11">
        <path d="M92 49 L92 76 L397 76 L397 49 Z" />
      </clipPath>
      <clipPath clipPathUnits="userSpaceOnUse" id="clipPath12">
        <path d="M90 89 L90 132 L398 132 L398 89 Z" />
      </clipPath>
      <clipPath clipPathUnits="userSpaceOnUse" id="clipPath13">
        <path d="M92 91 L92 131 L397 131 L397 91 Z" />
      </clipPath>
    </defs>
    <g style="fill:blue; stroke:blue;">
      <line x1="205" x2="260" y1="269" style="clip-path:url(#clipPath1); fill:none;" y2="269" />
      <line x1="318" x2="318" y1="150" style="clip-path:url(#clipPath1); fill:none;" y2="230" />
      <line x1="130" x2="130" y1="150" style="clip-path:url(#clipPath1); fill:none; stroke:rgb(0,0,130);" y2="230" />
      <line x1="260" x2="248" y1="269" style="clip-path:url(#clipPath1); fill:none;" y2="264" />
      <line x1="260" x2="248" y1="269" style="clip-path:url(#clipPath1); fill:none;" y2="274" />
      <text x="244" y="262" style="clip-path:url(#clipPath1); font-family:sans-serif; stroke:none;">1
      </text>
      <text x="286" y="223" style="clip-path:url(#clipPath1); font-family:sans-serif; stroke:none;">0..*
      </text>
      <polygon points=" 130 150 134 158 130 166 126 158" style="fill:white; clip-path:url(#clipPath1); font-family:sans-serif; stroke:none;" />
      <polygon points=" 130 150 134 158 130 166 126 158" style="fill:none; clip-path:url(#clipPath1); font-family:sans-serif; stroke:rgb(0,0,130);" />
      <line x1="126" x2="130" y1="158" style="clip-path:url(#clipPath1); fill:none; font-family:sans-serif; stroke:rgb(0,0,130);" y2="150" />
      <line x1="130" x2="135" y1="230" style="clip-path:url(#clipPath1); fill:none; font-family:sans-serif; stroke:rgb(0,0,130);" y2="218" />
      <line x1="130" x2="125" y1="230" style="clip-path:url(#clipPath1); fill:none; font-family:sans-serif; stroke:rgb(0,0,130);" y2="218" />
      <text x="100" y="223" style="clip-path:url(#clipPath1); fill:rgb(0,0,130); font-family:sans-serif; stroke:none;">1..*
      </text>
      <rect x="23" y="233" width="182" style="clip-path:url(#clipPath1); fill:navy; font-family:sans-serif; stroke:none;" height="95" />
      <rect x="20" y="230" width="182" style="clip-path:url(#clipPath1); fill:white; font-family:sans-serif; stroke:none;" height="95" />
      <rect x="20" y="230" width="182" style="clip-path:url(#clipPath1); fill:none; font-family:sans-serif; stroke:black;" height="95" />
    </g>
    <g style="font-weight:bold; font-family:sans-serif;">
      <text x="54" y="241" style="clip-path:url(#clipPath3); stroke:none;">vjPendingChunk
      </text>
    </g>
    <g style="font-family:sans-serif;">
      <line x1="20" x2="202" y1="250" style="clip-path:url(#clipPath2); fill:none;" y2="250" />
    </g>
    <g style="font-family:sans-serif;">
      <text x="26" y="269" style="clip-path:url(#clipPath5); stroke:none;">+mType:unsigned
      </text>
      <text x="26" y="282" style="clip-path:url(#clipPath5); stroke:none;">+mChunk:vjConfigChunk *
      </text>
    </g>
    <g style="font-family:sans-serif;">
      <line x1="20" x2="202" y1="292" style="clip-path:url(#clipPath2); fill:none;" y2="292" />
    </g>
    <g style="fill:navy; font-family:sans-serif; stroke:navy;">
      <rect x="263" y="233" width="113" style="clip-path:url(#clipPath1); stroke:none;" height="76" />
      <rect x="260" y="230" width="113" style="clip-path:url(#clipPath1); fill:white; stroke:none;" height="76" />
      <rect x="260" y="230" width="113" style="clip-path:url(#clipPath1); fill:none; stroke:black;" height="76" />
    </g>
    <g style="font-weight:bold; font-family:sans-serif;">
      <text x="265" y="241" style="clip-path:url(#clipPath7); stroke:none;">vjConfigChunk
      </text>
    </g>
    <g style="font-family:sans-serif;">
      <line x1="260" x2="373" y1="250" style="clip-path:url(#clipPath6); fill:none;" y2="250" />
      <line x1="260" x2="373" y1="273" style="clip-path:url(#clipPath6); fill:none;" y2="273" />
    </g>
    <g style="fill:navy; font-family:sans-serif; stroke:navy;">
      <rect x="93" y="23" width="307" style="clip-path:url(#clipPath1); stroke:none;" height="127" />
      <rect x="90" y="20" width="307" style="clip-path:url(#clipPath1); fill:white; stroke:none;" height="127" />
      <rect x="90" y="20" width="307" style="clip-path:url(#clipPath1); fill:none; stroke:black;" height="127" />
    </g>
    <g style="font-weight:bold; font-family:sans-serif;">
      <text x="184" y="31" style="clip-path:url(#clipPath9); stroke:none;">vjConfigManager
      </text>
    </g>
    <g style="font-family:sans-serif;">
      <line x1="90" x2="397" y1="40" style="clip-path:url(#clipPath8); fill:none;" y2="40" />
    </g>
    <g style="font-family:sans-serif;">
      <text x="96" y="59" style="clip-path:url(#clipPath11); stroke:none;">-mActiveConfig:vjConfigChunkDB
      </text>
      <text x="96" y="72" style="clip-path:url(#clipPath11); stroke:none;">-mPendingConfig:std::list&lt;vjPendingChunk&gt;
      </text>
    </g>
    <g style="font-family:sans-serif;">
      <line x1="90" x2="397" y1="82" style="clip-path:url(#clipPath8); fill:none;" y2="82" />
    </g>
    <g style="font-family:sans-serif;">
      <text x="96" y="101" style="clip-path:url(#clipPath13); stroke:none;">+pendingNeedsChecked:bool
      </text>
      <text x="96" y="114" style="clip-path:url(#clipPath13); stroke:none;">+addPending:void
      </text>
      <text x="96" y="127" style="clip-path:url(#clipPath13); stroke:none;">+scanForLostDependencies:int
      </text>
    </g>
  </g>
</svg>
