<?xml version="1.0" encoding="UTF-8"?>

<!DOCTYPE svg PUBLIC '-//W3C//DTD SVG 20001102//EN' 'http://www.w3.org/TR/2000/CR-SVG-20001102/DTD/svg-20001102.dtd'>
<svg style="fill-opacity:1; color-interpolation:sRGB; color-rendering:auto; text-rendering:auto; stroke:black; stroke-linecap:square; stroke-miterlimit:10; stroke-opacity:1; shape-rendering:auto; fill:black; stroke-dasharray:none; font-weight:normal; stroke-width:1; font-family:&apos;Lucida Sans&apos;; font-style:normal; stroke-linejoin:miter; font-size:12; image-rendering:auto; stroke-dashoffset:0;" width="594" height="411">
  <!--Generated by the Batik Graphics2D SVG Generator-->
  <defs id="genericDefs" />
  <g>
    <defs id="defs1">
      <clipPath clipPathUnits="userSpaceOnUse" id="clipPath1">
        <path d="M0 0 L594 0 L594 411 L0 411 L0 0 Z" />
      </clipPath>
      <clipPath clipPathUnits="userSpaceOnUse" id="clipPath2">
        <path d="M230 20 L230 136 L411 136 L411 20 Z" />
      </clipPath>
      <clipPath clipPathUnits="userSpaceOnUse" id="clipPath3">
        <path d="M231 21 L231 35 L411 35 L411 21 Z" />
      </clipPath>
      <clipPath clipPathUnits="userSpaceOnUse" id="clipPath4">
        <path d="M230 70 L230 126 L411 126 L411 70 Z" />
      </clipPath>
      <clipPath clipPathUnits="userSpaceOnUse" id="clipPath5">
        <path d="M232 72 L232 125 L410 125 L410 72 Z" />
      </clipPath>
      <clipPath clipPathUnits="userSpaceOnUse" id="clipPath6">
        <path d="M230 200 L230 316 L391 316 L391 200 Z" />
      </clipPath>
      <clipPath clipPathUnits="userSpaceOnUse" id="clipPath7">
        <path d="M231 201 L231 228 L391 228 L391 201 Z" />
      </clipPath>
      <clipPath clipPathUnits="userSpaceOnUse" id="clipPath8">
        <path d="M230 263 L230 306 L391 306 L391 263 Z" />
      </clipPath>
      <clipPath clipPathUnits="userSpaceOnUse" id="clipPath9">
        <path d="M232 265 L232 305 L390 305 L390 265 Z" />
      </clipPath>
      <clipPath clipPathUnits="userSpaceOnUse" id="clipPath10">
        <path d="M420 200 L420 303 L581 303 L581 200 Z" />
      </clipPath>
      <clipPath clipPathUnits="userSpaceOnUse" id="clipPath11">
        <path d="M421 201 L421 215 L581 215 L581 201 Z" />
      </clipPath>
      <clipPath clipPathUnits="userSpaceOnUse" id="clipPath12">
        <path d="M420 250 L420 293 L581 293 L581 250 Z" />
      </clipPath>
      <clipPath clipPathUnits="userSpaceOnUse" id="clipPath13">
        <path d="M422 252 L422 292 L580 292 L580 252 Z" />
      </clipPath>
      <clipPath clipPathUnits="userSpaceOnUse" id="clipPath14">
        <path d="M20 200 L20 329 L199 329 L199 200 Z" />
      </clipPath>
      <clipPath clipPathUnits="userSpaceOnUse" id="clipPath15">
        <path d="M21 201 L21 215 L199 215 L199 201 Z" />
      </clipPath>
      <clipPath clipPathUnits="userSpaceOnUse" id="clipPath16">
        <path d="M20 250 L20 319 L199 319 L199 250 Z" />
      </clipPath>
      <clipPath clipPathUnits="userSpaceOnUse" id="clipPath17">
        <path d="M22 252 L22 318 L198 318 L198 252 Z" />
      </clipPath>
      <clipPath clipPathUnits="userSpaceOnUse" id="clipPath18">
        <path d="M244 364 L244 397 L453 397 L453 364 Z" />
      </clipPath>
    </defs>
    <g style="fill:rgb(0,64,64); stroke:rgb(0,64,64);">
      <line x1="311" x2="311" y1="200" style="clip-path:url(#clipPath1); fill:none;" y2="138" />
      <line x1="501" x2="362" y1="200" style="clip-path:url(#clipPath1); fill:none;" y2="138" />
      <line x1="110" x2="270" y1="200" style="clip-path:url(#clipPath1); fill:none;" y2="138" />
      <line x1="240" x2="233" y1="370" style="clip-path:url(#clipPath1); fill:none; stroke:purple;" y2="368" />
      <line x1="228" x2="219" y1="367" style="clip-path:url(#clipPath1); fill:none; stroke:purple;" y2="364" />
      <line x1="214" x2="204" y1="363" style="clip-path:url(#clipPath1); fill:none; stroke:purple;" y2="360" />
      <line x1="200" x2="190" y1="358" style="clip-path:url(#clipPath1); fill:none; stroke:purple;" y2="356" />
      <line x1="185" x2="176" y1="354" style="clip-path:url(#clipPath1); fill:none; stroke:purple;" y2="352" />
      <line x1="171" x2="170" y1="350" style="clip-path:url(#clipPath1); fill:none; stroke:purple;" y2="350" />
      <line x1="170" x2="170" y1="350" style="clip-path:url(#clipPath1); fill:none; stroke:purple;" y2="350" />
      <line x1="170" x2="170" y1="350" style="clip-path:url(#clipPath1); fill:none; stroke:purple;" y2="340" />
      <line x1="170" x2="170" y1="335" style="clip-path:url(#clipPath1); fill:none; stroke:purple;" y2="331" />
      <polygon style="fill:white; clip-path:url(#clipPath1); stroke:none;" points=" 311 138 317 156 305 156" />
      <polygon style="fill:none; clip-path:url(#clipPath1);" points=" 311 138 317 156 305 156" />
      <line x1="305" x2="311" y1="156" style="clip-path:url(#clipPath1); fill:none;" y2="138" />
      <polygon style="fill:white; clip-path:url(#clipPath1); stroke:none;" points=" 362 138 381 140 376 151" />
      <polygon style="fill:none; clip-path:url(#clipPath1);" points=" 362 138 381 140 376 151" />
      <line x1="376" x2="362" y1="151" style="clip-path:url(#clipPath1); fill:none;" y2="138" />
      <polygon style="fill:white; clip-path:url(#clipPath1); stroke:none;" points=" 270 138 255 150 251 139" />
      <polygon style="fill:none; clip-path:url(#clipPath1);" points=" 270 138 255 150 251 139" />
      <line x1="251" x2="270" y1="139" style="clip-path:url(#clipPath1); fill:none;" y2="138" />
      <rect x="233" y="23" width="180" style="clip-path:url(#clipPath1); fill:navy; stroke:none;" height="115" />
      <rect x="230" y="20" width="180" style="clip-path:url(#clipPath1); fill:white; stroke:none;" height="115" />
      <rect x="230" y="20" width="180" style="clip-path:url(#clipPath1); fill:none; stroke:black;" height="115" />
    </g>
    <g style="font-style:italic; font-weight:bold; font-family:sans-serif;">
      <text x="241" y="31" style="clip-path:url(#clipPath3); stroke:none;">vjConfigChunkHandler
      </text>
    </g>
    <g>
      <line x1="230" x2="410" y1="40" style="clip-path:url(#clipPath2); fill:none;" y2="40" />
      <line x1="230" x2="410" y1="63" style="clip-path:url(#clipPath2); fill:none;" y2="63" />
    </g>
    <g style="font-family:sans-serif; font-style:italic;">
      <text x="236" y="82" style="clip-path:url(#clipPath5); stroke:none;">+configCanHandle:bool
      </text>
      <text x="236" y="95" style="font-style:normal; clip-path:url(#clipPath5); stroke:none;">+configProcessPending:int
      </text>
      <text x="236" y="108" style="clip-path:url(#clipPath5); stroke:none;">#configAdd:bool
      </text>
      <text x="236" y="121" style="clip-path:url(#clipPath5); stroke:none;">#configRemove:bool
      </text>
    </g>
    <g style="fill:navy; stroke:navy;">
      <rect x="233" y="203" width="160" style="clip-path:url(#clipPath1); stroke:none;" height="115" />
      <rect x="230" y="200" width="160" style="clip-path:url(#clipPath1); fill:white; stroke:none;" height="115" />
      <rect x="230" y="200" width="160" style="clip-path:url(#clipPath1); fill:none; stroke:black;" height="115" />
    </g>
    <g style="font-family:sans-serif;">
      <text x="264" y="211" style="clip-path:url(#clipPath7); stroke:none;">&lt;&lt;multiple&gt;&gt;
      </text>
      <text x="276" y="224" style="clip-path:url(#clipPath7); font-style:italic; stroke:none; font-weight:bold;">Managers
      </text>
    </g>
    <g>
      <line x1="230" x2="390" y1="233" style="clip-path:url(#clipPath6); fill:none;" y2="233" />
      <line x1="230" x2="390" y1="256" style="clip-path:url(#clipPath6); fill:none;" y2="256" />
    </g>
    <g style="font-family:sans-serif; font-style:italic;">
      <text x="236" y="275" style="clip-path:url(#clipPath9); stroke:none;">+configCanHandle:bool
      </text>
      <text x="236" y="288" style="clip-path:url(#clipPath9); stroke:none;">#configAdd:bool
      </text>
      <text x="236" y="301" style="clip-path:url(#clipPath9); stroke:none;">#configRemove:bool
      </text>
    </g>
    <g style="fill:navy; stroke:navy;">
      <rect x="423" y="203" width="160" style="clip-path:url(#clipPath1); stroke:none;" height="102" />
      <rect x="420" y="200" width="160" style="clip-path:url(#clipPath1); fill:white; stroke:none;" height="102" />
      <rect x="420" y="200" width="160" style="clip-path:url(#clipPath1); fill:none; stroke:black;" height="102" />
    </g>
    <g style="font-style:italic; font-weight:bold; font-family:sans-serif;">
      <text x="480" y="211" style="clip-path:url(#clipPath11); stroke:none;">vjApp
      </text>
    </g>
    <g>
      <line x1="420" x2="580" y1="220" style="clip-path:url(#clipPath10); fill:none;" y2="220" />
      <line x1="420" x2="580" y1="243" style="clip-path:url(#clipPath10); fill:none;" y2="243" />
    </g>
    <g style="font-family:sans-serif;">
      <text x="426" y="262" style="clip-path:url(#clipPath13); stroke:none;">+configCanHandle:bool
      </text>
      <text x="426" y="275" style="clip-path:url(#clipPath13); stroke:none;">#configAdd:bool
      </text>
      <text x="426" y="288" style="clip-path:url(#clipPath13); stroke:none;">#configRemove:bool
      </text>
    </g>
    <g style="fill:navy; stroke:navy;">
      <rect x="23" y="203" width="178" style="clip-path:url(#clipPath1); stroke:none;" height="128" />
      <rect x="20" y="200" width="178" style="clip-path:url(#clipPath1); fill:white; stroke:none;" height="128" />
      <rect x="20" y="200" width="178" style="clip-path:url(#clipPath1); fill:none; stroke:black;" height="128" />
    </g>
    <g style="font-weight:bold; font-family:sans-serif;">
      <text x="80" y="211" style="clip-path:url(#clipPath15); stroke:none;">vjKernel
      </text>
    </g>
    <g>
      <line x1="20" x2="198" y1="220" style="clip-path:url(#clipPath14); fill:none;" y2="220" />
      <line x1="20" x2="198" y1="243" style="clip-path:url(#clipPath14); fill:none;" y2="243" />
    </g>
    <g style="font-family:sans-serif;">
      <text x="26" y="262" style="clip-path:url(#clipPath17); stroke:none;">#configCanHandle:bool
      </text>
      <text x="26" y="275" style="clip-path:url(#clipPath17); stroke:none;">#configProcessPending:int
      </text>
      <text x="26" y="288" style="clip-path:url(#clipPath17); stroke:none;">#configAdd:bool
      </text>
      <text x="26" y="301" style="clip-path:url(#clipPath17); stroke:none;">#configRemove:bool
      </text>
      <text x="26" y="314" style="clip-path:url(#clipPath17); stroke:none;">#checkForReconfig:void
      </text>
    </g>
    <g style="fill:navy; stroke:navy;">
      <polygon style="clip-path:url(#clipPath1); stroke:none;" points=" 243 363 456 363 471 378 471 401 243 401" />
      <polygon style="fill:white; clip-path:url(#clipPath1); stroke:none;" points=" 240 360 453 360 468 375 468 398 240 398" />
      <line x1="240" x2="453" y1="360" style="clip-path:url(#clipPath1); fill:none; stroke:black;" y2="360" />
      <line x1="453" x2="468" y1="360" style="clip-path:url(#clipPath1); fill:none; stroke:black;" y2="375" />
      <line x1="468" x2="468" y1="375" style="clip-path:url(#clipPath1); fill:none; stroke:black;" y2="398" />
      <line x1="468" x2="240" y1="398" style="clip-path:url(#clipPath1); fill:none; stroke:black;" y2="398" />
      <line x1="240" x2="240" y1="398" style="clip-path:url(#clipPath1); fill:none; stroke:black;" y2="360" />
      <line x1="453" x2="453" y1="360" style="clip-path:url(#clipPath1); fill:none; stroke:black;" y2="375" />
      <line x1="453" x2="468" y1="375" style="clip-path:url(#clipPath1); fill:none; stroke:black;" y2="375" />
    </g>
    <g style="font-family:sans-serif;">
      <text x="248" y="374" style="clip-path:url(#clipPath18); stroke:none;">The kernel overrides the default
      </text>
      <text x="248" y="387" style="clip-path:url(#clipPath18); stroke:none;">configProcessPending method.
      </text>
    </g>
  </g>
</svg>
