<?xml version="1.0" encoding="UTF-8"?>

<!DOCTYPE svg PUBLIC '-//W3C//DTD SVG 20001102//EN' 'http://www.w3.org/TR/2000/CR-SVG-20001102/DTD/svg-20001102.dtd'>
<svg style="fill-opacity:1; color-interpolation:sRGB; color-rendering:auto; text-rendering:auto; stroke:black; stroke-linecap:square; stroke-miterlimit:10; stroke-opacity:1; shape-rendering:auto; fill:black; stroke-dasharray:none; font-weight:normal; stroke-width:1; font-family:&apos;Lucida Sans&apos;; font-style:normal; stroke-linejoin:miter; font-size:12; image-rendering:auto; stroke-dashoffset:0;" width="670" height="399">
  <!--Generated by the Batik Graphics2D SVG Generator-->
  <defs id="genericDefs" />
  <g>
    <defs id="defs1">
      <clipPath clipPathUnits="userSpaceOnUse" id="clipPath1">
        <path d="M0 0 L670 0 L670 399 L0 399 L0 0 Z" />
      </clipPath>
      <clipPath clipPathUnits="userSpaceOnUse" id="clipPath2">
        <path d="M40 70 L40 166 L348 166 L348 70 Z" />
      </clipPath>
      <clipPath clipPathUnits="userSpaceOnUse" id="clipPath3">
        <path d="M41 71 L41 85 L348 85 L348 71 Z" />
      </clipPath>
      <clipPath clipPathUnits="userSpaceOnUse" id="clipPath4">
        <path d="M40 97 L40 114 L348 114 L348 97 Z" />
      </clipPath>
      <clipPath clipPathUnits="userSpaceOnUse" id="clipPath5">
        <path d="M42 99 L42 113 L347 113 L347 99 Z" />
      </clipPath>
      <clipPath clipPathUnits="userSpaceOnUse" id="clipPath6">
        <path d="M40 126 L40 156 L348 156 L348 126 Z" />
      </clipPath>
      <clipPath clipPathUnits="userSpaceOnUse" id="clipPath7">
        <path d="M42 128 L42 155 L347 155 L347 128 Z" />
      </clipPath>
      <clipPath clipPathUnits="userSpaceOnUse" id="clipPath8">
        <path d="M460 70 L460 173 L657 173 L657 70 Z" />
      </clipPath>
      <clipPath clipPathUnits="userSpaceOnUse" id="clipPath9">
        <path d="M461 71 L461 85 L657 85 L657 71 Z" />
      </clipPath>
      <clipPath clipPathUnits="userSpaceOnUse" id="clipPath10">
        <path d="M460 120 L460 163 L657 163 L657 120 Z" />
      </clipPath>
      <clipPath clipPathUnits="userSpaceOnUse" id="clipPath11">
        <path d="M462 122 L462 162 L656 162 L656 122 Z" />
      </clipPath>
      <clipPath clipPathUnits="userSpaceOnUse" id="clipPath12">
        <path d="M460 270 L460 386 L657 386 L657 270 Z" />
      </clipPath>
      <clipPath clipPathUnits="userSpaceOnUse" id="clipPath13">
        <path d="M461 271 L461 298 L657 298 L657 271 Z" />
      </clipPath>
      <clipPath clipPathUnits="userSpaceOnUse" id="clipPath14">
        <path d="M460 333 L460 376 L657 376 L657 333 Z" />
      </clipPath>
      <clipPath clipPathUnits="userSpaceOnUse" id="clipPath15">
        <path d="M462 335 L462 375 L656 375 L656 335 Z" />
      </clipPath>
    </defs>
    <g style="fill:rgb(0,0,130); stroke:rgb(0,0,130);">
      <line x1="350" x2="460" y1="119" style="clip-path:url(#clipPath1); fill:none;" y2="119" />
      <line x1="559" x2="559" y1="270" style="clip-path:url(#clipPath1); fill:none; stroke:rgb(0,64,64);" y2="175" />
      <polygon style="fill:white; clip-path:url(#clipPath1); stroke:none;" points=" 350 119 358 115 366 119 358 123" />
      <polygon style="fill:none; clip-path:url(#clipPath1);" points=" 350 119 358 115 366 119 358 123" />
      <line x1="358" x2="350" y1="123" style="clip-path:url(#clipPath1); fill:none;" y2="119" />
      <line x1="460" x2="448" y1="119" style="clip-path:url(#clipPath1); fill:none;" y2="114" />
      <line x1="460" x2="448" y1="119" style="clip-path:url(#clipPath1); fill:none;" y2="124" />
      <text x="430" y="112" style="clip-path:url(#clipPath1); font-family:sans-serif; stroke:none;">0..*
      </text>
      <polygon points=" 559 175 565 193 553 193" style="fill:white; clip-path:url(#clipPath1); font-family:sans-serif; stroke:none;" />
      <polygon points=" 559 175 565 193 553 193" style="fill:none; clip-path:url(#clipPath1); font-family:sans-serif; stroke:rgb(0,64,64);" />
      <line x1="553" x2="559" y1="193" style="clip-path:url(#clipPath1); fill:none; font-family:sans-serif; stroke:rgb(0,64,64);" y2="175" />
      <rect x="43" y="73" width="307" style="clip-path:url(#clipPath1); fill:navy; font-family:sans-serif; stroke:none;" height="95" />
      <rect x="40" y="70" width="307" style="clip-path:url(#clipPath1); fill:white; font-family:sans-serif; stroke:none;" height="95" />
      <rect x="40" y="70" width="307" style="clip-path:url(#clipPath1); fill:none; font-family:sans-serif; stroke:black;" height="95" />
    </g>
    <g style="font-weight:bold; font-family:sans-serif;">
      <text x="115" y="81" style="clip-path:url(#clipPath3); stroke:none;">vjDependencyManager
      </text>
    </g>
    <g style="font-family:sans-serif;">
      <line x1="40" x2="347" y1="90" style="clip-path:url(#clipPath2); fill:none;" y2="90" />
    </g>
    <g style="font-family:sans-serif;">
      <text x="46" y="109" style="clip-path:url(#clipPath5); stroke:none;">-mDepCheckers:std::vector&lt;vjDepChecker*&gt;
      </text>
    </g>
    <g style="font-family:sans-serif;">
      <line x1="40" x2="347" y1="119" style="clip-path:url(#clipPath2); fill:none;" y2="119" />
    </g>
    <g style="font-family:sans-serif;">
      <text x="46" y="138" style="clip-path:url(#clipPath7); stroke:none;">+registerChecker:void
      </text>
      <text x="46" y="151" style="clip-path:url(#clipPath7); stroke:none;">+depSatisfied:bool
      </text>
    </g>
    <g style="fill:navy; font-family:sans-serif; stroke:navy;">
      <rect x="463" y="73" width="196" style="clip-path:url(#clipPath1); stroke:none;" height="102" />
      <rect x="460" y="70" width="196" style="clip-path:url(#clipPath1); fill:white; stroke:none;" height="102" />
      <rect x="460" y="70" width="196" style="clip-path:url(#clipPath1); fill:none; stroke:black;" height="102" />
    </g>
    <g style="font-weight:bold; font-family:sans-serif;">
      <text x="511" y="81" style="clip-path:url(#clipPath9); stroke:none;">vjDepChecker
      </text>
    </g>
    <g style="font-family:sans-serif;">
      <line x1="460" x2="656" y1="90" style="clip-path:url(#clipPath8); fill:none;" y2="90" />
      <line x1="460" x2="656" y1="113" style="clip-path:url(#clipPath8); fill:none;" y2="113" />
    </g>
    <g style="font-family:sans-serif;">
      <text x="466" y="132" style="clip-path:url(#clipPath11); stroke:none;">+getCheckerName:std::string
      </text>
      <text x="466" y="145" style="clip-path:url(#clipPath11); stroke:none;">+canHandle:bool
      </text>
      <text x="466" y="158" style="clip-path:url(#clipPath11); stroke:none;">+depSatisfied:bool
      </text>
    </g>
    <g style="fill:navy; font-family:sans-serif; stroke:navy;">
      <rect x="463" y="273" width="196" style="clip-path:url(#clipPath1); stroke:none;" height="115" />
      <rect x="460" y="270" width="196" style="clip-path:url(#clipPath1); fill:white; stroke:none;" height="115" />
      <rect x="460" y="270" width="196" style="clip-path:url(#clipPath1); fill:none; stroke:black;" height="115" />
    </g>
    <g style="font-family:sans-serif;">
      <text x="512" y="281" style="clip-path:url(#clipPath13); stroke:none;">&lt;&lt;multiple&gt;&gt;
      </text>
      <text x="486" y="294" style="font-weight:bold; clip-path:url(#clipPath13); stroke:none;">ConcreteDepChecker
      </text>
    </g>
    <g style="font-family:sans-serif;">
      <line x1="460" x2="656" y1="303" style="clip-path:url(#clipPath12); fill:none;" y2="303" />
      <line x1="460" x2="656" y1="326" style="clip-path:url(#clipPath12); fill:none;" y2="326" />
    </g>
    <g style="font-family:sans-serif;">
      <text x="466" y="345" style="clip-path:url(#clipPath15); stroke:none;">+getCheckerName:std::string
      </text>
      <text x="466" y="358" style="clip-path:url(#clipPath15); stroke:none;">+canHandle:bool
      </text>
      <text x="466" y="371" style="clip-path:url(#clipPath15); stroke:none;">+depSatisfied:bool
      </text>
    </g>
  </g>
</svg>
