<?xml version="1.0" encoding="UTF-8"?>

<!DOCTYPE svg PUBLIC '-//W3C//DTD SVG 20001102//EN' 'http://www.w3.org/TR/2000/CR-SVG-20001102/DTD/svg-20001102.dtd'>
<svg style="fill-opacity:1; color-interpolation:sRGB; color-rendering:auto; text-rendering:auto; stroke:black; stroke-linecap:square; stroke-miterlimit:10; stroke-opacity:1; shape-rendering:auto; fill:black; stroke-dasharray:none; font-weight:normal; stroke-width:1; font-family:&apos;Lucida Sans&apos;; font-style:normal; stroke-linejoin:miter; font-size:12; image-rendering:auto; stroke-dashoffset:0;" width="454" height="131">
  <!--Generated by the Batik Graphics2D SVG Generator-->
  <defs id="genericDefs" />
  <g>
    <defs id="defs1">
      <clipPath clipPathUnits="userSpaceOnUse" id="clipPath1">
        <path d="M0 0 L454 0 L454 131 L0 131 L0 0 Z" />
      </clipPath>
      <clipPath clipPathUnits="userSpaceOnUse" id="clipPath2">
        <path d="M10 10 L10 118 L178 118 L178 10 Z" />
      </clipPath>
      <clipPath clipPathUnits="userSpaceOnUse" id="clipPath3">
        <path d="M11 11 L11 25 L178 25 L178 11 Z" />
      </clipPath>
      <clipPath clipPathUnits="userSpaceOnUse" id="clipPath4">
        <path d="M10 60 L10 103 L178 103 L178 60 Z" />
      </clipPath>
      <clipPath clipPathUnits="userSpaceOnUse" id="clipPath5">
        <path d="M12 62 L12 102 L177 102 L177 62 Z" />
      </clipPath>
      <clipPath clipPathUnits="userSpaceOnUse" id="clipPath6">
        <path d="M266 10 L266 121 L444 121 L444 10 Z" />
      </clipPath>
      <clipPath clipPathUnits="userSpaceOnUse" id="clipPath7">
        <path d="M266 10 L266 25 L444 25 L444 10 Z" />
      </clipPath>
      <clipPath clipPathUnits="userSpaceOnUse" id="clipPath8">
        <path d="M266 10 L266 25 L376 25 L376 10 Z" />
      </clipPath>
      <clipPath clipPathUnits="userSpaceOnUse" id="clipPath9">
        <path d="M375 10 L375 24 L444 24 L444 10 Z" />
      </clipPath>
      <clipPath clipPathUnits="userSpaceOnUse" id="clipPath10">
        <path d="M266 24 L266 121 L444 121 L444 24 Z" />
      </clipPath>
      <clipPath clipPathUnits="userSpaceOnUse" id="clipPath11">
        <path d="M266 24 L266 118 L431 118 L431 24 Z" />
      </clipPath>
      <clipPath clipPathUnits="userSpaceOnUse" id="clipPath12">
        <path d="M267 25 L267 52 L431 52 L431 25 Z" />
      </clipPath>
      <clipPath clipPathUnits="userSpaceOnUse" id="clipPath13">
        <path d="M266 78 L266 95 L431 95 L431 78 Z" />
      </clipPath>
      <clipPath clipPathUnits="userSpaceOnUse" id="clipPath14">
        <path d="M268 80 L268 94 L430 94 L430 80 Z" />
      </clipPath>
    </defs>
    <g style="fill:blue; stroke:blue;">
      <line x1="180" x2="250" y1="60" style="clip-path:url(#clipPath1); fill:none;" y2="60" />
      <text x="220" y="53" style="clip-path:url(#clipPath1); font-family:sans-serif; stroke:none;">0..*
      </text>
      <rect x="13" y="13" width="167" style="clip-path:url(#clipPath1); fill:navy; font-family:sans-serif; stroke:none;" height="107" />
      <rect x="10" y="10" width="167" style="clip-path:url(#clipPath1); fill:white; font-family:sans-serif; stroke:none;" height="107" />
      <rect x="10" y="10" width="167" style="clip-path:url(#clipPath1); fill:none; font-family:sans-serif; stroke:black;" height="107" />
    </g>
    <g style="font-weight:bold; font-family:sans-serif;">
      <text x="38" y="21" style="clip-path:url(#clipPath3); stroke:none;">vjDeviceFactory
      </text>
    </g>
    <g style="font-family:sans-serif;">
      <line x1="10" x2="177" y1="30" style="clip-path:url(#clipPath2); fill:none;" y2="30" />
      <line x1="10" x2="177" y1="53" style="clip-path:url(#clipPath2); fill:none;" y2="53" />
    </g>
    <g style="font-family:sans-serif;">
      <text x="16" y="72" style="clip-path:url(#clipPath5); stroke:none;">+registerDevice:void
      </text>
      <text x="16" y="85" style="clip-path:url(#clipPath5); stroke:none;">+recognizeDevice:bool
      </text>
      <text x="16" y="98" style="clip-path:url(#clipPath5); stroke:none;">+loadDevice:vjInput *
      </text>
    </g>
    <g style="fill:white; font-family:sans-serif; stroke:white;">
      <polygon style="clip-path:url(#clipPath1); stroke:none;" points=" 258 10 443 10 443 120 258 120 258 24 250 24 250 16 258 16 258 10" />
      <polygon style="fill:none; clip-path:url(#clipPath1); stroke:black;" points=" 258 10 443 10 443 120 258 120 258 24 250 24 250 16 258 16 258 10" />
      <line x1="258" x2="266" y1="24" style="clip-path:url(#clipPath1); fill:none; stroke:black;" y2="24" />
      <line x1="266" x2="266" y1="24" style="clip-path:url(#clipPath1); fill:none; stroke:black;" y2="16" />
      <line x1="266" x2="258" y1="16" style="clip-path:url(#clipPath1); fill:none; stroke:black;" y2="16" />
    </g>
    <g style="fill:white; font-family:sans-serif; stroke:white;">
      <rect x="266" y="20" width="109" style="clip-path:url(#clipPath8); stroke:none;" height="4" />
      <line x1="266" x2="266" y1="20" style="clip-path:url(#clipPath8); fill:none; stroke:black;" y2="24" />
      <line x1="375" x2="375" y1="20" style="clip-path:url(#clipPath8); fill:none; stroke:black;" y2="24" />
      <line x1="266" x2="375" y1="20" style="clip-path:url(#clipPath8); fill:none; stroke:black;" y2="20" />
    </g>
    <g style="fill:white; font-family:sans-serif; stroke:white;">
      <rect x="375" y="10" width="68" style="clip-path:url(#clipPath9); stroke:none;" height="13" />
      <line x1="375" x2="385" y1="10" style="clip-path:url(#clipPath9); fill:none; stroke:black;" y2="10" />
      <line x1="390" x2="400" y1="10" style="clip-path:url(#clipPath9); fill:none; stroke:black;" y2="10" />
      <line x1="405" x2="415" y1="10" style="clip-path:url(#clipPath9); fill:none; stroke:black;" y2="10" />
      <line x1="420" x2="430" y1="10" style="clip-path:url(#clipPath9); fill:none; stroke:black;" y2="10" />
      <line x1="435" x2="443" y1="10" style="clip-path:url(#clipPath9); fill:none; stroke:black;" y2="10" />
      <line x1="443" x2="443" y1="11" style="clip-path:url(#clipPath9); fill:none; stroke:black;" y2="21" />
      <line x1="442" x2="432" y1="23" style="clip-path:url(#clipPath9); fill:none; stroke:black;" y2="23" />
      <line x1="427" x2="417" y1="23" style="clip-path:url(#clipPath9); fill:none; stroke:black;" y2="23" />
      <line x1="412" x2="402" y1="23" style="clip-path:url(#clipPath9); fill:none; stroke:black;" y2="23" />
      <line x1="397" x2="387" y1="23" style="clip-path:url(#clipPath9); fill:none; stroke:black;" y2="23" />
      <line x1="382" x2="375" y1="23" style="clip-path:url(#clipPath9); fill:none; stroke:black;" y2="23" />
      <line x1="375" x2="375" y1="22" style="clip-path:url(#clipPath9); fill:none; stroke:black;" y2="12" />
    </g>
    <g>
      <text x="379" y="20" style="clip-path:url(#clipPath9); stroke:none;">DEV:class
      </text>
    </g>
    <g style="fill:navy; font-family:sans-serif; stroke:navy;">
      <rect x="269" y="27" width="165" style="clip-path:url(#clipPath10); stroke:none;" height="94" />
      <rect x="266" y="24" width="165" style="clip-path:url(#clipPath10); fill:white; stroke:none;" height="94" />
      <line x1="266" x2="266" y1="24" style="clip-path:url(#clipPath10); fill:none; stroke:black;" y2="118" />
      <line x1="431" x2="431" y1="24" style="clip-path:url(#clipPath10); fill:none; stroke:black;" y2="118" />
      <line x1="266" x2="431" y1="118" style="clip-path:url(#clipPath10); fill:none; stroke:black;" y2="118" />
    </g>
    <g style="font-family:sans-serif;">
      <text x="271" y="35" style="clip-path:url(#clipPath12); stroke:none;">vjDeviceConstructorBase
      </text>
      <text x="277" y="48" style="font-weight:bold; clip-path:url(#clipPath12); stroke:none;">vjDeviceConstructor
      </text>
    </g>
    <g style="font-family:sans-serif;">
      <line x1="266" x2="430" y1="57" style="clip-path:url(#clipPath11); fill:none;" y2="57" />
      <line x1="266" x2="430" y1="71" style="clip-path:url(#clipPath11); fill:none;" y2="71" />
    </g>
    <g style="font-family:sans-serif;">
      <text x="272" y="90" style="clip-path:url(#clipPath14); stroke:none;">+createDevice:vjInput *
      </text>
    </g>
    <g style="font-family:sans-serif;">
      <line x1="266" x2="430" y1="100" style="clip-path:url(#clipPath11); fill:none;" y2="100" />
    </g>
  </g>
</svg>
