<?xml version="1.0" encoding="UTF-8"?>

<!DOCTYPE svg PUBLIC '-//W3C//DTD SVG 20001102//EN' 'http://www.w3.org/TR/2000/CR-SVG-20001102/DTD/svg-20001102.dtd'>
<svg style="fill-opacity:1; color-interpolation:sRGB; color-rendering:auto; text-rendering:auto; stroke:black; stroke-linecap:square; stroke-miterlimit:10; stroke-opacity:1; shape-rendering:auto; fill:black; stroke-dasharray:none; font-weight:normal; stroke-width:1; font-family:&apos;Lucida Sans&apos;; font-style:normal; stroke-linejoin:miter; font-size:12; image-rendering:auto; stroke-dashoffset:0;" width="619" height="680">
  <!--Generated by the Batik Graphics2D SVG Generator-->
  <defs id="genericDefs" />
  <g>
    <defs id="defs1">
      <clipPath clipPathUnits="userSpaceOnUse" id="clipPath1">
        <path d="M0 0 L619 0 L619 680 L0 680 L0 0 Z" />
      </clipPath>
      <clipPath clipPathUnits="userSpaceOnUse" id="clipPath2">
        <path d="M500 50 L500 116 L606 116 L606 50 Z" />
      </clipPath>
      <clipPath clipPathUnits="userSpaceOnUse" id="clipPath3">
        <path d="M500 50 L500 106 L606 106 L606 50 Z" />
      </clipPath>
      <clipPath clipPathUnits="userSpaceOnUse" id="clipPath4">
        <path d="M220 50 L220 116 L308 116 L308 50 Z" />
      </clipPath>
      <clipPath clipPathUnits="userSpaceOnUse" id="clipPath5">
        <path d="M220 50 L220 106 L308 106 L308 50 Z" />
      </clipPath>
      <clipPath clipPathUnits="userSpaceOnUse" id="clipPath6">
        <path d="M350 50 L350 116 L467 116 L467 50 Z" />
      </clipPath>
      <clipPath clipPathUnits="userSpaceOnUse" id="clipPath7">
        <path d="M350 50 L350 106 L467 106 L467 50 Z" />
      </clipPath>
      <clipPath clipPathUnits="userSpaceOnUse" id="clipPath8">
        <path d="M50 50 L50 116 L138 116 L138 50 Z" />
      </clipPath>
      <clipPath clipPathUnits="userSpaceOnUse" id="clipPath9">
        <path d="M50 50 L50 106 L138 106 L138 50 Z" />
      </clipPath>
      <clipPath clipPathUnits="userSpaceOnUse" id="clipPath10">
        <path d="M24 284 L24 302 L141 302 L141 284 Z" />
      </clipPath>
    </defs>
    <g style="fill:navy; stroke:navy;">
      <rect x="503" y="53" width="105" style="clip-path:url(#clipPath1); stroke:none;" height="65" />
      <rect x="500" y="50" width="105" style="clip-path:url(#clipPath1); fill:white; stroke:none;" height="65" />
      <rect x="500" y="50" width="105" style="clip-path:url(#clipPath1); fill:none; stroke:black;" height="65" />
    </g>
    <g style="font-family:sans-serif;">
      <text x="504" y="73" style="clip-path:url(#clipPath3); stroke:none;">vjInputManager
      </text>
    </g>
    <g>
      <line x1="554" x2="554" y1="118" style="clip-path:url(#clipPath1); fill:none;" y2="128" />
      <line x1="554" x2="554" y1="133" style="clip-path:url(#clipPath1); fill:none;" y2="143" />
      <line x1="554" x2="554" y1="148" style="clip-path:url(#clipPath1); fill:none;" y2="158" />
      <line x1="554" x2="554" y1="163" style="clip-path:url(#clipPath1); fill:none;" y2="173" />
      <line x1="554" x2="554" y1="178" style="clip-path:url(#clipPath1); fill:none;" y2="188" />
      <line x1="554" x2="554" y1="193" style="clip-path:url(#clipPath1); fill:none;" y2="203" />
      <line x1="554" x2="554" y1="208" style="clip-path:url(#clipPath1); fill:none;" y2="218" />
      <line x1="554" x2="554" y1="223" style="clip-path:url(#clipPath1); fill:none;" y2="233" />
      <line x1="554" x2="554" y1="238" style="clip-path:url(#clipPath1); fill:none;" y2="248" />
      <line x1="554" x2="554" y1="253" style="clip-path:url(#clipPath1); fill:none;" y2="263" />
      <line x1="554" x2="554" y1="268" style="clip-path:url(#clipPath1); fill:none;" y2="278" />
      <line x1="554" x2="554" y1="283" style="clip-path:url(#clipPath1); fill:none;" y2="293" />
      <line x1="554" x2="554" y1="298" style="clip-path:url(#clipPath1); fill:none;" y2="308" />
      <line x1="554" x2="554" y1="313" style="clip-path:url(#clipPath1); fill:none;" y2="323" />
      <line x1="554" x2="554" y1="328" style="clip-path:url(#clipPath1); fill:none;" y2="338" />
      <line x1="554" x2="554" y1="343" style="clip-path:url(#clipPath1); fill:none;" y2="353" />
      <line x1="554" x2="554" y1="358" style="clip-path:url(#clipPath1); fill:none;" y2="368" />
      <line x1="554" x2="554" y1="373" style="clip-path:url(#clipPath1); fill:none;" y2="383" />
      <line x1="554" x2="554" y1="388" style="clip-path:url(#clipPath1); fill:none;" y2="398" />
      <line x1="554" x2="554" y1="403" style="clip-path:url(#clipPath1); fill:none;" y2="413" />
      <line x1="554" x2="554" y1="418" style="clip-path:url(#clipPath1); fill:none;" y2="428" />
      <line x1="554" x2="554" y1="433" style="clip-path:url(#clipPath1); fill:none;" y2="443" />
      <line x1="554" x2="554" y1="448" style="clip-path:url(#clipPath1); fill:none;" y2="458" />
      <line x1="554" x2="554" y1="463" style="clip-path:url(#clipPath1); fill:none;" y2="473" />
      <line x1="554" x2="554" y1="478" style="clip-path:url(#clipPath1); fill:none;" y2="488" />
      <line x1="554" x2="554" y1="493" style="clip-path:url(#clipPath1); fill:none;" y2="503" />
      <line x1="554" x2="554" y1="508" style="clip-path:url(#clipPath1); fill:none;" y2="518" />
      <line x1="554" x2="554" y1="523" style="clip-path:url(#clipPath1); fill:none;" y2="533" />
      <line x1="554" x2="554" y1="538" style="clip-path:url(#clipPath1); fill:none;" y2="548" />
      <line x1="554" x2="554" y1="553" style="clip-path:url(#clipPath1); fill:none;" y2="563" />
      <line x1="554" x2="554" y1="568" style="clip-path:url(#clipPath1); fill:none;" y2="578" />
      <line x1="554" x2="554" y1="583" style="clip-path:url(#clipPath1); fill:none;" y2="593" />
      <line x1="554" x2="554" y1="598" style="clip-path:url(#clipPath1); fill:none;" y2="608" />
      <line x1="554" x2="554" y1="613" style="clip-path:url(#clipPath1); fill:none;" y2="623" />
      <line x1="554" x2="554" y1="628" style="clip-path:url(#clipPath1); fill:none;" y2="638" />
      <line x1="554" x2="554" y1="643" style="clip-path:url(#clipPath1); fill:none;" y2="653" />
      <line x1="554" x2="554" y1="658" style="clip-path:url(#clipPath1); fill:none;" y2="668" />
      <rect x="547" y="569" width="14" style="clip-path:url(#clipPath1); fill:none;" height="20" />
      <rect x="548" y="570" width="13" style="clip-path:url(#clipPath1); fill:white; stroke:none;" height="19" />
      <rect x="223" y="53" width="87" style="clip-path:url(#clipPath1); fill:navy; stroke:none;" height="65" />
      <rect x="220" y="50" width="87" style="clip-path:url(#clipPath1); fill:white; stroke:none;" height="65" />
      <rect x="220" y="50" width="87" style="clip-path:url(#clipPath1); fill:none;" height="65" />
    </g>
    <g style="font-family:sans-serif;">
      <text x="239" y="73" style="clip-path:url(#clipPath5); stroke:none;">vjGlApp
      </text>
    </g>
    <g>
      <line x1="265" x2="265" y1="118" style="clip-path:url(#clipPath1); fill:none;" y2="128" />
      <line x1="265" x2="265" y1="133" style="clip-path:url(#clipPath1); fill:none;" y2="143" />
      <line x1="265" x2="265" y1="148" style="clip-path:url(#clipPath1); fill:none;" y2="158" />
      <line x1="265" x2="265" y1="163" style="clip-path:url(#clipPath1); fill:none;" y2="173" />
      <line x1="265" x2="265" y1="178" style="clip-path:url(#clipPath1); fill:none;" y2="188" />
      <line x1="265" x2="265" y1="193" style="clip-path:url(#clipPath1); fill:none;" y2="203" />
      <line x1="265" x2="265" y1="208" style="clip-path:url(#clipPath1); fill:none;" y2="218" />
      <line x1="265" x2="265" y1="223" style="clip-path:url(#clipPath1); fill:none;" y2="233" />
      <line x1="265" x2="265" y1="238" style="clip-path:url(#clipPath1); fill:none;" y2="248" />
      <line x1="265" x2="265" y1="253" style="clip-path:url(#clipPath1); fill:none;" y2="263" />
      <line x1="265" x2="265" y1="268" style="clip-path:url(#clipPath1); fill:none;" y2="278" />
      <line x1="265" x2="265" y1="283" style="clip-path:url(#clipPath1); fill:none;" y2="293" />
      <line x1="265" x2="265" y1="298" style="clip-path:url(#clipPath1); fill:none;" y2="308" />
      <line x1="265" x2="265" y1="313" style="clip-path:url(#clipPath1); fill:none;" y2="323" />
      <line x1="265" x2="265" y1="328" style="clip-path:url(#clipPath1); fill:none;" y2="338" />
      <line x1="265" x2="265" y1="343" style="clip-path:url(#clipPath1); fill:none;" y2="353" />
      <line x1="265" x2="265" y1="358" style="clip-path:url(#clipPath1); fill:none;" y2="368" />
      <line x1="265" x2="265" y1="373" style="clip-path:url(#clipPath1); fill:none;" y2="383" />
      <line x1="265" x2="265" y1="388" style="clip-path:url(#clipPath1); fill:none;" y2="398" />
      <line x1="265" x2="265" y1="403" style="clip-path:url(#clipPath1); fill:none;" y2="413" />
      <line x1="265" x2="265" y1="418" style="clip-path:url(#clipPath1); fill:none;" y2="428" />
      <line x1="265" x2="265" y1="433" style="clip-path:url(#clipPath1); fill:none;" y2="443" />
      <line x1="265" x2="265" y1="448" style="clip-path:url(#clipPath1); fill:none;" y2="458" />
      <line x1="265" x2="265" y1="463" style="clip-path:url(#clipPath1); fill:none;" y2="473" />
      <line x1="265" x2="265" y1="478" style="clip-path:url(#clipPath1); fill:none;" y2="488" />
      <line x1="265" x2="265" y1="493" style="clip-path:url(#clipPath1); fill:none;" y2="503" />
      <line x1="265" x2="265" y1="508" style="clip-path:url(#clipPath1); fill:none;" y2="518" />
      <line x1="265" x2="265" y1="523" style="clip-path:url(#clipPath1); fill:none;" y2="533" />
      <line x1="265" x2="265" y1="538" style="clip-path:url(#clipPath1); fill:none;" y2="548" />
      <line x1="265" x2="265" y1="553" style="clip-path:url(#clipPath1); fill:none;" y2="563" />
      <line x1="265" x2="265" y1="568" style="clip-path:url(#clipPath1); fill:none;" y2="578" />
      <line x1="265" x2="265" y1="583" style="clip-path:url(#clipPath1); fill:none;" y2="593" />
      <line x1="265" x2="265" y1="598" style="clip-path:url(#clipPath1); fill:none;" y2="608" />
      <line x1="265" x2="265" y1="613" style="clip-path:url(#clipPath1); fill:none;" y2="623" />
      <line x1="265" x2="265" y1="628" style="clip-path:url(#clipPath1); fill:none;" y2="638" />
      <line x1="265" x2="265" y1="643" style="clip-path:url(#clipPath1); fill:none;" y2="653" />
      <line x1="265" x2="265" y1="658" style="clip-path:url(#clipPath1); fill:none;" y2="668" />
      <rect x="258" y="148" width="14" style="clip-path:url(#clipPath1); fill:none;" height="20" />
      <rect x="259" y="149" width="13" style="clip-path:url(#clipPath1); fill:white; stroke:none;" height="19" />
      <rect x="258" y="250" width="14" style="clip-path:url(#clipPath1); fill:none;" height="20" />
      <rect x="259" y="251" width="13" style="clip-path:url(#clipPath1); fill:white; stroke:none;" height="19" />
      <rect x="258" y="340" width="14" style="clip-path:url(#clipPath1); fill:none;" height="20" />
      <rect x="259" y="341" width="13" style="clip-path:url(#clipPath1); fill:white; stroke:none;" height="19" />
      <rect x="258" y="420" width="14" style="clip-path:url(#clipPath1); fill:none;" height="20" />
      <rect x="259" y="421" width="13" style="clip-path:url(#clipPath1); fill:white; stroke:none;" height="19" />
      <rect x="258" y="516" width="14" style="clip-path:url(#clipPath1); fill:none;" height="20" />
      <rect x="259" y="517" width="13" style="clip-path:url(#clipPath1); fill:white; stroke:none;" height="19" />
      <rect x="353" y="53" width="116" style="clip-path:url(#clipPath1); fill:navy; stroke:none;" height="65" />
      <rect x="350" y="50" width="116" style="clip-path:url(#clipPath1); fill:white; stroke:none;" height="65" />
      <rect x="350" y="50" width="116" style="clip-path:url(#clipPath1); fill:none;" height="65" />
    </g>
    <g style="font-family:sans-serif;">
      <text x="354" y="73" style="clip-path:url(#clipPath7); stroke:none;">vjGlDrawManager
      </text>
    </g>
    <g>
      <line x1="409" x2="409" y1="118" style="clip-path:url(#clipPath1); fill:none;" y2="128" />
      <line x1="409" x2="409" y1="133" style="clip-path:url(#clipPath1); fill:none;" y2="143" />
      <line x1="409" x2="409" y1="148" style="clip-path:url(#clipPath1); fill:none;" y2="158" />
      <line x1="409" x2="409" y1="163" style="clip-path:url(#clipPath1); fill:none;" y2="173" />
      <line x1="409" x2="409" y1="178" style="clip-path:url(#clipPath1); fill:none;" y2="188" />
      <line x1="409" x2="409" y1="193" style="clip-path:url(#clipPath1); fill:none;" y2="203" />
      <line x1="409" x2="409" y1="208" style="clip-path:url(#clipPath1); fill:none;" y2="218" />
      <line x1="409" x2="409" y1="223" style="clip-path:url(#clipPath1); fill:none;" y2="233" />
      <line x1="409" x2="409" y1="238" style="clip-path:url(#clipPath1); fill:none;" y2="248" />
      <line x1="409" x2="409" y1="253" style="clip-path:url(#clipPath1); fill:none;" y2="263" />
      <line x1="409" x2="409" y1="268" style="clip-path:url(#clipPath1); fill:none;" y2="278" />
      <line x1="409" x2="409" y1="283" style="clip-path:url(#clipPath1); fill:none;" y2="293" />
      <line x1="409" x2="409" y1="298" style="clip-path:url(#clipPath1); fill:none;" y2="308" />
      <line x1="409" x2="409" y1="313" style="clip-path:url(#clipPath1); fill:none;" y2="323" />
      <line x1="409" x2="409" y1="328" style="clip-path:url(#clipPath1); fill:none;" y2="338" />
      <line x1="409" x2="409" y1="343" style="clip-path:url(#clipPath1); fill:none;" y2="353" />
      <line x1="409" x2="409" y1="358" style="clip-path:url(#clipPath1); fill:none;" y2="368" />
      <line x1="409" x2="409" y1="373" style="clip-path:url(#clipPath1); fill:none;" y2="383" />
      <line x1="409" x2="409" y1="388" style="clip-path:url(#clipPath1); fill:none;" y2="398" />
      <line x1="409" x2="409" y1="403" style="clip-path:url(#clipPath1); fill:none;" y2="413" />
      <line x1="409" x2="409" y1="418" style="clip-path:url(#clipPath1); fill:none;" y2="428" />
      <line x1="409" x2="409" y1="433" style="clip-path:url(#clipPath1); fill:none;" y2="443" />
      <line x1="409" x2="409" y1="448" style="clip-path:url(#clipPath1); fill:none;" y2="458" />
      <line x1="409" x2="409" y1="463" style="clip-path:url(#clipPath1); fill:none;" y2="473" />
      <line x1="409" x2="409" y1="478" style="clip-path:url(#clipPath1); fill:none;" y2="488" />
      <line x1="409" x2="409" y1="493" style="clip-path:url(#clipPath1); fill:none;" y2="503" />
      <line x1="409" x2="409" y1="508" style="clip-path:url(#clipPath1); fill:none;" y2="518" />
      <line x1="409" x2="409" y1="523" style="clip-path:url(#clipPath1); fill:none;" y2="533" />
      <line x1="409" x2="409" y1="538" style="clip-path:url(#clipPath1); fill:none;" y2="548" />
      <line x1="409" x2="409" y1="553" style="clip-path:url(#clipPath1); fill:none;" y2="563" />
      <line x1="409" x2="409" y1="568" style="clip-path:url(#clipPath1); fill:none;" y2="578" />
      <line x1="409" x2="409" y1="583" style="clip-path:url(#clipPath1); fill:none;" y2="593" />
      <line x1="409" x2="409" y1="598" style="clip-path:url(#clipPath1); fill:none;" y2="608" />
      <line x1="409" x2="409" y1="613" style="clip-path:url(#clipPath1); fill:none;" y2="623" />
      <line x1="409" x2="409" y1="628" style="clip-path:url(#clipPath1); fill:none;" y2="638" />
      <line x1="409" x2="409" y1="643" style="clip-path:url(#clipPath1); fill:none;" y2="653" />
      <line x1="409" x2="409" y1="658" style="clip-path:url(#clipPath1); fill:none;" y2="668" />
      <rect x="402" y="192" width="14" style="clip-path:url(#clipPath1); fill:none;" height="20" />
      <rect x="403" y="193" width="13" style="clip-path:url(#clipPath1); fill:white; stroke:none;" height="19" />
      <line x1="409" x2="414" y1="430" style="clip-path:url(#clipPath1); fill:none;" y2="438" />
      <line x1="417" x2="422" y1="443" style="clip-path:url(#clipPath1); fill:none;" y2="451" />
      <line x1="425" x2="430" y1="455" style="clip-path:url(#clipPath1); fill:none;" y2="464" />
      <line x1="433" x2="434" y1="468" style="clip-path:url(#clipPath1); fill:none;" y2="470" />
      <line x1="434" x2="429" y1="490" style="clip-path:url(#clipPath1); fill:none;" y2="498" />
      <line x1="426" x2="421" y1="503" style="clip-path:url(#clipPath1); fill:none;" y2="511" />
      <line x1="418" x2="413" y1="515" style="clip-path:url(#clipPath1); fill:none;" y2="524" />
      <line x1="410" x2="409" y1="528" style="clip-path:url(#clipPath1); fill:none;" y2="530" />
      <rect x="402" y="387" width="14" style="clip-path:url(#clipPath1); fill:none;" height="93" />
      <rect x="403" y="388" width="13" style="clip-path:url(#clipPath1); fill:white; stroke:none;" height="92" />
      <rect x="427" y="470" width="14" style="clip-path:url(#clipPath1); fill:none;" height="20" />
      <rect x="428" y="471" width="13" style="clip-path:url(#clipPath1); fill:white; stroke:none;" height="19" />
      <rect x="53" y="53" width="87" style="clip-path:url(#clipPath1); fill:navy; stroke:none;" height="65" />
      <rect x="50" y="50" width="87" style="clip-path:url(#clipPath1); fill:white; stroke:none;" height="65" />
      <rect x="50" y="50" width="87" style="clip-path:url(#clipPath1); fill:none;" height="65" />
    </g>
    <g style="font-family:sans-serif;">
      <text x="68" y="73" style="clip-path:url(#clipPath9); stroke:none;">vjKernel
      </text>
    </g>
    <g>
      <rect x="88" y="119" width="14" style="clip-path:url(#clipPath1); fill:none;" height="549" />
      <rect x="89" y="120" width="13" style="clip-path:url(#clipPath1); fill:white; stroke:none;" height="548" />
      <line x1="102" x2="547" y1="569" style="clip-path:url(#clipPath1); fill:none; stroke:rgb(50,50,0);" y2="569" />
      <line x1="547" x2="537" y1="589" style="clip-path:url(#clipPath1); fill:none; stroke:rgb(50,50,0);" y2="589" />
      <line x1="532" x2="522" y1="589" style="clip-path:url(#clipPath1); fill:none; stroke:rgb(50,50,0);" y2="589" />
      <line x1="517" x2="507" y1="589" style="clip-path:url(#clipPath1); fill:none; stroke:rgb(50,50,0);" y2="589" />
      <line x1="502" x2="492" y1="589" style="clip-path:url(#clipPath1); fill:none; stroke:rgb(50,50,0);" y2="589" />
      <line x1="487" x2="477" y1="589" style="clip-path:url(#clipPath1); fill:none; stroke:rgb(50,50,0);" y2="589" />
      <line x1="472" x2="462" y1="589" style="clip-path:url(#clipPath1); fill:none; stroke:rgb(50,50,0);" y2="589" />
      <line x1="457" x2="447" y1="589" style="clip-path:url(#clipPath1); fill:none; stroke:rgb(50,50,0);" y2="589" />
      <line x1="442" x2="432" y1="589" style="clip-path:url(#clipPath1); fill:none; stroke:rgb(50,50,0);" y2="589" />
      <line x1="427" x2="417" y1="589" style="clip-path:url(#clipPath1); fill:none; stroke:rgb(50,50,0);" y2="589" />
      <line x1="412" x2="402" y1="589" style="clip-path:url(#clipPath1); fill:none; stroke:rgb(50,50,0);" y2="589" />
      <line x1="397" x2="387" y1="589" style="clip-path:url(#clipPath1); fill:none; stroke:rgb(50,50,0);" y2="589" />
      <line x1="382" x2="372" y1="589" style="clip-path:url(#clipPath1); fill:none; stroke:rgb(50,50,0);" y2="589" />
      <line x1="367" x2="357" y1="589" style="clip-path:url(#clipPath1); fill:none; stroke:rgb(50,50,0);" y2="589" />
      <line x1="352" x2="342" y1="589" style="clip-path:url(#clipPath1); fill:none; stroke:rgb(50,50,0);" y2="589" />
      <line x1="337" x2="327" y1="589" style="clip-path:url(#clipPath1); fill:none; stroke:rgb(50,50,0);" y2="589" />
      <line x1="322" x2="312" y1="589" style="clip-path:url(#clipPath1); fill:none; stroke:rgb(50,50,0);" y2="589" />
      <line x1="307" x2="297" y1="589" style="clip-path:url(#clipPath1); fill:none; stroke:rgb(50,50,0);" y2="589" />
      <line x1="292" x2="282" y1="589" style="clip-path:url(#clipPath1); fill:none; stroke:rgb(50,50,0);" y2="589" />
      <line x1="277" x2="267" y1="589" style="clip-path:url(#clipPath1); fill:none; stroke:rgb(50,50,0);" y2="589" />
      <line x1="262" x2="252" y1="589" style="clip-path:url(#clipPath1); fill:none; stroke:rgb(50,50,0);" y2="589" />
      <line x1="247" x2="237" y1="589" style="clip-path:url(#clipPath1); fill:none; stroke:rgb(50,50,0);" y2="589" />
      <line x1="232" x2="222" y1="589" style="clip-path:url(#clipPath1); fill:none; stroke:rgb(50,50,0);" y2="589" />
      <line x1="217" x2="207" y1="589" style="clip-path:url(#clipPath1); fill:none; stroke:rgb(50,50,0);" y2="589" />
      <line x1="202" x2="192" y1="589" style="clip-path:url(#clipPath1); fill:none; stroke:rgb(50,50,0);" y2="589" />
      <line x1="187" x2="177" y1="589" style="clip-path:url(#clipPath1); fill:none; stroke:rgb(50,50,0);" y2="589" />
      <line x1="172" x2="162" y1="589" style="clip-path:url(#clipPath1); fill:none; stroke:rgb(50,50,0);" y2="589" />
      <line x1="157" x2="147" y1="589" style="clip-path:url(#clipPath1); fill:none; stroke:rgb(50,50,0);" y2="589" />
      <line x1="142" x2="132" y1="589" style="clip-path:url(#clipPath1); fill:none; stroke:rgb(50,50,0);" y2="589" />
      <line x1="127" x2="117" y1="589" style="clip-path:url(#clipPath1); fill:none; stroke:rgb(50,50,0);" y2="589" />
      <line x1="112" x2="102" y1="589" style="clip-path:url(#clipPath1); fill:none; stroke:rgb(50,50,0);" y2="589" />
      <line x1="102" x2="114" y1="589" style="clip-path:url(#clipPath1); fill:none;" y2="592" />
      <line x1="102" x2="114" y1="589" style="clip-path:url(#clipPath1); fill:none;" y2="586" />
      <line x1="102" x2="258" y1="516" style="clip-path:url(#clipPath1); fill:none; stroke:rgb(50,50,0);" y2="516" />
      <line x1="258" x2="248" y1="536" style="clip-path:url(#clipPath1); fill:none; stroke:rgb(50,50,0);" y2="536" />
      <line x1="243" x2="233" y1="536" style="clip-path:url(#clipPath1); fill:none; stroke:rgb(50,50,0);" y2="536" />
      <line x1="228" x2="218" y1="536" style="clip-path:url(#clipPath1); fill:none; stroke:rgb(50,50,0);" y2="536" />
      <line x1="213" x2="203" y1="536" style="clip-path:url(#clipPath1); fill:none; stroke:rgb(50,50,0);" y2="536" />
      <line x1="198" x2="188" y1="536" style="clip-path:url(#clipPath1); fill:none; stroke:rgb(50,50,0);" y2="536" />
      <line x1="183" x2="173" y1="536" style="clip-path:url(#clipPath1); fill:none; stroke:rgb(50,50,0);" y2="536" />
      <line x1="168" x2="158" y1="536" style="clip-path:url(#clipPath1); fill:none; stroke:rgb(50,50,0);" y2="536" />
      <line x1="153" x2="143" y1="536" style="clip-path:url(#clipPath1); fill:none; stroke:rgb(50,50,0);" y2="536" />
      <line x1="138" x2="128" y1="536" style="clip-path:url(#clipPath1); fill:none; stroke:rgb(50,50,0);" y2="536" />
      <line x1="123" x2="113" y1="536" style="clip-path:url(#clipPath1); fill:none; stroke:rgb(50,50,0);" y2="536" />
      <line x1="108" x2="102" y1="536" style="clip-path:url(#clipPath1); fill:none; stroke:rgb(50,50,0);" y2="536" />
      <line x1="102" x2="114" y1="536" style="clip-path:url(#clipPath1); fill:none;" y2="539" />
      <line x1="102" x2="114" y1="536" style="clip-path:url(#clipPath1); fill:none;" y2="533" />
      <line x1="102" x2="427" y1="470" style="clip-path:url(#clipPath1); fill:none; stroke:rgb(50,50,0);" y2="470" />
      <line x1="427" x2="417" y1="490" style="clip-path:url(#clipPath1); fill:none; stroke:rgb(50,50,0);" y2="490" />
      <line x1="412" x2="402" y1="490" style="clip-path:url(#clipPath1); fill:none; stroke:rgb(50,50,0);" y2="490" />
      <line x1="397" x2="387" y1="490" style="clip-path:url(#clipPath1); fill:none; stroke:rgb(50,50,0);" y2="490" />
      <line x1="382" x2="372" y1="490" style="clip-path:url(#clipPath1); fill:none; stroke:rgb(50,50,0);" y2="490" />
      <line x1="367" x2="357" y1="490" style="clip-path:url(#clipPath1); fill:none; stroke:rgb(50,50,0);" y2="490" />
      <line x1="352" x2="342" y1="490" style="clip-path:url(#clipPath1); fill:none; stroke:rgb(50,50,0);" y2="490" />
      <line x1="337" x2="327" y1="490" style="clip-path:url(#clipPath1); fill:none; stroke:rgb(50,50,0);" y2="490" />
      <line x1="322" x2="312" y1="490" style="clip-path:url(#clipPath1); fill:none; stroke:rgb(50,50,0);" y2="490" />
      <line x1="307" x2="297" y1="490" style="clip-path:url(#clipPath1); fill:none; stroke:rgb(50,50,0);" y2="490" />
      <line x1="292" x2="282" y1="490" style="clip-path:url(#clipPath1); fill:none; stroke:rgb(50,50,0);" y2="490" />
      <line x1="277" x2="267" y1="490" style="clip-path:url(#clipPath1); fill:none; stroke:rgb(50,50,0);" y2="490" />
      <line x1="262" x2="252" y1="490" style="clip-path:url(#clipPath1); fill:none; stroke:rgb(50,50,0);" y2="490" />
      <line x1="247" x2="237" y1="490" style="clip-path:url(#clipPath1); fill:none; stroke:rgb(50,50,0);" y2="490" />
      <line x1="232" x2="222" y1="490" style="clip-path:url(#clipPath1); fill:none; stroke:rgb(50,50,0);" y2="490" />
      <line x1="217" x2="207" y1="490" style="clip-path:url(#clipPath1); fill:none; stroke:rgb(50,50,0);" y2="490" />
      <line x1="202" x2="192" y1="490" style="clip-path:url(#clipPath1); fill:none; stroke:rgb(50,50,0);" y2="490" />
      <line x1="187" x2="177" y1="490" style="clip-path:url(#clipPath1); fill:none; stroke:rgb(50,50,0);" y2="490" />
      <line x1="172" x2="162" y1="490" style="clip-path:url(#clipPath1); fill:none; stroke:rgb(50,50,0);" y2="490" />
      <line x1="157" x2="147" y1="490" style="clip-path:url(#clipPath1); fill:none; stroke:rgb(50,50,0);" y2="490" />
      <line x1="142" x2="132" y1="490" style="clip-path:url(#clipPath1); fill:none; stroke:rgb(50,50,0);" y2="490" />
      <line x1="127" x2="117" y1="490" style="clip-path:url(#clipPath1); fill:none; stroke:rgb(50,50,0);" y2="490" />
      <line x1="112" x2="102" y1="490" style="clip-path:url(#clipPath1); fill:none; stroke:rgb(50,50,0);" y2="490" />
      <line x1="102" x2="114" y1="490" style="clip-path:url(#clipPath1); fill:none;" y2="493" />
      <line x1="102" x2="114" y1="490" style="clip-path:url(#clipPath1); fill:none;" y2="487" />
      <line x1="102" x2="258" y1="420" style="clip-path:url(#clipPath1); fill:none; stroke:rgb(50,50,0);" y2="420" />
      <line x1="258" x2="248" y1="440" style="clip-path:url(#clipPath1); fill:none; stroke:rgb(50,50,0);" y2="440" />
      <line x1="243" x2="233" y1="440" style="clip-path:url(#clipPath1); fill:none; stroke:rgb(50,50,0);" y2="440" />
      <line x1="228" x2="218" y1="440" style="clip-path:url(#clipPath1); fill:none; stroke:rgb(50,50,0);" y2="440" />
      <line x1="213" x2="203" y1="440" style="clip-path:url(#clipPath1); fill:none; stroke:rgb(50,50,0);" y2="440" />
      <line x1="198" x2="188" y1="440" style="clip-path:url(#clipPath1); fill:none; stroke:rgb(50,50,0);" y2="440" />
      <line x1="183" x2="173" y1="440" style="clip-path:url(#clipPath1); fill:none; stroke:rgb(50,50,0);" y2="440" />
      <line x1="168" x2="158" y1="440" style="clip-path:url(#clipPath1); fill:none; stroke:rgb(50,50,0);" y2="440" />
      <line x1="153" x2="143" y1="440" style="clip-path:url(#clipPath1); fill:none; stroke:rgb(50,50,0);" y2="440" />
      <line x1="138" x2="128" y1="440" style="clip-path:url(#clipPath1); fill:none; stroke:rgb(50,50,0);" y2="440" />
      <line x1="123" x2="113" y1="440" style="clip-path:url(#clipPath1); fill:none; stroke:rgb(50,50,0);" y2="440" />
      <line x1="108" x2="102" y1="440" style="clip-path:url(#clipPath1); fill:none; stroke:rgb(50,50,0);" y2="440" />
      <line x1="102" x2="114" y1="440" style="clip-path:url(#clipPath1); fill:none;" y2="443" />
      <line x1="102" x2="114" y1="440" style="clip-path:url(#clipPath1); fill:none;" y2="437" />
      <line x1="102" x2="402" y1="387" style="clip-path:url(#clipPath1); fill:none; stroke:rgb(50,50,0);" y2="387" />
      <line x1="102" x2="258" y1="340" style="clip-path:url(#clipPath1); fill:none; stroke:rgb(50,50,0);" y2="340" />
      <line x1="258" x2="248" y1="360" style="clip-path:url(#clipPath1); fill:none; stroke:rgb(50,50,0);" y2="360" />
      <line x1="243" x2="233" y1="360" style="clip-path:url(#clipPath1); fill:none; stroke:rgb(50,50,0);" y2="360" />
      <line x1="228" x2="218" y1="360" style="clip-path:url(#clipPath1); fill:none; stroke:rgb(50,50,0);" y2="360" />
      <line x1="213" x2="203" y1="360" style="clip-path:url(#clipPath1); fill:none; stroke:rgb(50,50,0);" y2="360" />
      <line x1="198" x2="188" y1="360" style="clip-path:url(#clipPath1); fill:none; stroke:rgb(50,50,0);" y2="360" />
      <line x1="183" x2="173" y1="360" style="clip-path:url(#clipPath1); fill:none; stroke:rgb(50,50,0);" y2="360" />
      <line x1="168" x2="158" y1="360" style="clip-path:url(#clipPath1); fill:none; stroke:rgb(50,50,0);" y2="360" />
      <line x1="153" x2="143" y1="360" style="clip-path:url(#clipPath1); fill:none; stroke:rgb(50,50,0);" y2="360" />
      <line x1="138" x2="128" y1="360" style="clip-path:url(#clipPath1); fill:none; stroke:rgb(50,50,0);" y2="360" />
      <line x1="123" x2="113" y1="360" style="clip-path:url(#clipPath1); fill:none; stroke:rgb(50,50,0);" y2="360" />
      <line x1="108" x2="102" y1="360" style="clip-path:url(#clipPath1); fill:none; stroke:rgb(50,50,0);" y2="360" />
      <line x1="102" x2="114" y1="360" style="clip-path:url(#clipPath1); fill:none;" y2="363" />
      <line x1="102" x2="114" y1="360" style="clip-path:url(#clipPath1); fill:none;" y2="357" />
      <line x1="102" x2="402" y1="192" style="clip-path:url(#clipPath1); fill:none; stroke:rgb(50,50,0);" y2="192" />
      <line x1="402" x2="392" y1="212" style="clip-path:url(#clipPath1); fill:none; stroke:rgb(50,50,0);" y2="212" />
      <line x1="387" x2="377" y1="212" style="clip-path:url(#clipPath1); fill:none; stroke:rgb(50,50,0);" y2="212" />
      <line x1="372" x2="362" y1="212" style="clip-path:url(#clipPath1); fill:none; stroke:rgb(50,50,0);" y2="212" />
      <line x1="357" x2="347" y1="212" style="clip-path:url(#clipPath1); fill:none; stroke:rgb(50,50,0);" y2="212" />
      <line x1="342" x2="332" y1="212" style="clip-path:url(#clipPath1); fill:none; stroke:rgb(50,50,0);" y2="212" />
      <line x1="327" x2="317" y1="212" style="clip-path:url(#clipPath1); fill:none; stroke:rgb(50,50,0);" y2="212" />
      <line x1="312" x2="302" y1="212" style="clip-path:url(#clipPath1); fill:none; stroke:rgb(50,50,0);" y2="212" />
      <line x1="297" x2="287" y1="212" style="clip-path:url(#clipPath1); fill:none; stroke:rgb(50,50,0);" y2="212" />
      <line x1="282" x2="272" y1="212" style="clip-path:url(#clipPath1); fill:none; stroke:rgb(50,50,0);" y2="212" />
      <line x1="267" x2="257" y1="212" style="clip-path:url(#clipPath1); fill:none; stroke:rgb(50,50,0);" y2="212" />
      <line x1="252" x2="242" y1="212" style="clip-path:url(#clipPath1); fill:none; stroke:rgb(50,50,0);" y2="212" />
      <line x1="237" x2="227" y1="212" style="clip-path:url(#clipPath1); fill:none; stroke:rgb(50,50,0);" y2="212" />
      <line x1="222" x2="212" y1="212" style="clip-path:url(#clipPath1); fill:none; stroke:rgb(50,50,0);" y2="212" />
      <line x1="207" x2="197" y1="212" style="clip-path:url(#clipPath1); fill:none; stroke:rgb(50,50,0);" y2="212" />
      <line x1="192" x2="182" y1="212" style="clip-path:url(#clipPath1); fill:none; stroke:rgb(50,50,0);" y2="212" />
      <line x1="177" x2="167" y1="212" style="clip-path:url(#clipPath1); fill:none; stroke:rgb(50,50,0);" y2="212" />
      <line x1="162" x2="152" y1="212" style="clip-path:url(#clipPath1); fill:none; stroke:rgb(50,50,0);" y2="212" />
      <line x1="147" x2="137" y1="212" style="clip-path:url(#clipPath1); fill:none; stroke:rgb(50,50,0);" y2="212" />
      <line x1="132" x2="122" y1="212" style="clip-path:url(#clipPath1); fill:none; stroke:rgb(50,50,0);" y2="212" />
      <line x1="117" x2="107" y1="212" style="clip-path:url(#clipPath1); fill:none; stroke:rgb(50,50,0);" y2="212" />
      <line x1="102" x2="102" y1="212" style="clip-path:url(#clipPath1); fill:none; stroke:rgb(50,50,0);" y2="212" />
      <line x1="102" x2="114" y1="212" style="clip-path:url(#clipPath1); fill:none;" y2="215" />
      <line x1="102" x2="114" y1="212" style="clip-path:url(#clipPath1); fill:none;" y2="209" />
      <line x1="102" x2="258" y1="250" style="clip-path:url(#clipPath1); fill:none; stroke:rgb(50,50,0);" y2="250" />
      <line x1="258" x2="248" y1="270" style="clip-path:url(#clipPath1); fill:none; stroke:rgb(50,50,0);" y2="270" />
      <line x1="243" x2="233" y1="270" style="clip-path:url(#clipPath1); fill:none; stroke:rgb(50,50,0);" y2="270" />
      <line x1="228" x2="218" y1="270" style="clip-path:url(#clipPath1); fill:none; stroke:rgb(50,50,0);" y2="270" />
      <line x1="213" x2="203" y1="270" style="clip-path:url(#clipPath1); fill:none; stroke:rgb(50,50,0);" y2="270" />
      <line x1="198" x2="188" y1="270" style="clip-path:url(#clipPath1); fill:none; stroke:rgb(50,50,0);" y2="270" />
      <line x1="183" x2="173" y1="270" style="clip-path:url(#clipPath1); fill:none; stroke:rgb(50,50,0);" y2="270" />
      <line x1="168" x2="158" y1="270" style="clip-path:url(#clipPath1); fill:none; stroke:rgb(50,50,0);" y2="270" />
      <line x1="153" x2="143" y1="270" style="clip-path:url(#clipPath1); fill:none; stroke:rgb(50,50,0);" y2="270" />
      <line x1="138" x2="128" y1="270" style="clip-path:url(#clipPath1); fill:none; stroke:rgb(50,50,0);" y2="270" />
      <line x1="123" x2="113" y1="270" style="clip-path:url(#clipPath1); fill:none; stroke:rgb(50,50,0);" y2="270" />
      <line x1="108" x2="102" y1="270" style="clip-path:url(#clipPath1); fill:none; stroke:rgb(50,50,0);" y2="270" />
      <line x1="102" x2="114" y1="270" style="clip-path:url(#clipPath1); fill:none;" y2="273" />
      <line x1="102" x2="114" y1="270" style="clip-path:url(#clipPath1); fill:none;" y2="267" />
      <line x1="102" x2="258" y1="148" style="clip-path:url(#clipPath1); fill:none; stroke:rgb(50,50,0);" y2="148" />
      <line x1="258" x2="248" y1="168" style="clip-path:url(#clipPath1); fill:none; stroke:rgb(50,50,0);" y2="168" />
      <line x1="243" x2="233" y1="168" style="clip-path:url(#clipPath1); fill:none; stroke:rgb(50,50,0);" y2="168" />
      <line x1="228" x2="218" y1="168" style="clip-path:url(#clipPath1); fill:none; stroke:rgb(50,50,0);" y2="168" />
      <line x1="213" x2="203" y1="168" style="clip-path:url(#clipPath1); fill:none; stroke:rgb(50,50,0);" y2="168" />
      <line x1="198" x2="188" y1="168" style="clip-path:url(#clipPath1); fill:none; stroke:rgb(50,50,0);" y2="168" />
      <line x1="183" x2="173" y1="168" style="clip-path:url(#clipPath1); fill:none; stroke:rgb(50,50,0);" y2="168" />
      <line x1="168" x2="158" y1="168" style="clip-path:url(#clipPath1); fill:none; stroke:rgb(50,50,0);" y2="168" />
      <line x1="153" x2="143" y1="168" style="clip-path:url(#clipPath1); fill:none; stroke:rgb(50,50,0);" y2="168" />
      <line x1="138" x2="128" y1="168" style="clip-path:url(#clipPath1); fill:none; stroke:rgb(50,50,0);" y2="168" />
      <line x1="123" x2="113" y1="168" style="clip-path:url(#clipPath1); fill:none; stroke:rgb(50,50,0);" y2="168" />
      <line x1="108" x2="102" y1="168" style="clip-path:url(#clipPath1); fill:none; stroke:rgb(50,50,0);" y2="168" />
      <line x1="102" x2="114" y1="168" style="clip-path:url(#clipPath1); fill:none;" y2="171" />
      <line x1="102" x2="114" y1="168" style="clip-path:url(#clipPath1); fill:none;" y2="165" />
      <polygon style="fill:gray; clip-path:url(#clipPath1); stroke:none;" points=" 547 569 529 573 529 565" />
      <polygon style="fill:none; clip-path:url(#clipPath1); stroke:rgb(50,50,0);" points=" 547 569 529 573 529 565" />
      <line x1="529" x2="547" y1="565" style="clip-path:url(#clipPath1); fill:none; stroke:rgb(50,50,0);" y2="569" />
      <text x="110" y="562" style="clip-path:url(#clipPath1); fill:rgb(50,50,0); font-family:sans-serif; stroke:none;"> updateAllData():void
      </text>
      <polygon points=" 258 516 240 520 240 512" style="fill:gray; clip-path:url(#clipPath1); font-family:sans-serif; stroke:none;" />
      <polygon points=" 258 516 240 520 240 512" style="fill:none; clip-path:url(#clipPath1); font-family:sans-serif; stroke:rgb(50,50,0);" />
      <line x1="240" x2="258" y1="512" style="clip-path:url(#clipPath1); fill:none; font-family:sans-serif; stroke:rgb(50,50,0);" y2="516" />
      <text x="110" y="509" style="clip-path:url(#clipPath1); fill:rgb(50,50,0); font-family:sans-serif; stroke:none;"> postFrame():void
      </text>
      <polygon points=" 427 470 409 474 409 466" style="fill:gray; clip-path:url(#clipPath1); font-family:sans-serif; stroke:none;" />
      <polygon points=" 427 470 409 474 409 466" style="fill:none; clip-path:url(#clipPath1); font-family:sans-serif; stroke:rgb(50,50,0);" />
      <line x1="409" x2="427" y1="466" style="clip-path:url(#clipPath1); fill:none; font-family:sans-serif; stroke:rgb(50,50,0);" y2="470" />
      <text x="110" y="463" style="clip-path:url(#clipPath1); fill:rgb(50,50,0); font-family:sans-serif; stroke:none;"> sync():void
      </text>
      <polygon points=" 258 420 240 424 240 416" style="fill:gray; clip-path:url(#clipPath1); font-family:sans-serif; stroke:none;" />
      <polygon points=" 258 420 240 424 240 416" style="fill:none; clip-path:url(#clipPath1); font-family:sans-serif; stroke:rgb(50,50,0);" />
      <line x1="240" x2="258" y1="416" style="clip-path:url(#clipPath1); fill:none; font-family:sans-serif; stroke:rgb(50,50,0);" y2="420" />
      <text x="110" y="413" style="clip-path:url(#clipPath1); fill:rgb(50,50,0); font-family:sans-serif; stroke:none;"> intraFrame():void
      </text>
      <line x1="402" x2="384" y1="387" style="clip-path:url(#clipPath1); fill:none; font-family:sans-serif; stroke:rgb(50,50,0);" y2="383" />
      <text x="110" y="380" style="clip-path:url(#clipPath1); fill:rgb(50,50,0); font-family:sans-serif; stroke:none;"> draw():void
      </text>
      <polygon points=" 258 340 240 344 240 336" style="fill:gray; clip-path:url(#clipPath1); font-family:sans-serif; stroke:none;" />
      <polygon points=" 258 340 240 344 240 336" style="fill:none; clip-path:url(#clipPath1); font-family:sans-serif; stroke:rgb(50,50,0);" />
      <line x1="240" x2="258" y1="336" style="clip-path:url(#clipPath1); fill:none; font-family:sans-serif; stroke:rgb(50,50,0);" y2="340" />
      <text x="110" y="333" style="clip-path:url(#clipPath1); fill:rgb(50,50,0); font-family:sans-serif; stroke:none;"> preFrame():void
      </text>
      <polygon points=" 402 192 384 196 384 188" style="fill:gray; clip-path:url(#clipPath1); font-family:sans-serif; stroke:none;" />
      <polygon points=" 402 192 384 196 384 188" style="fill:none; clip-path:url(#clipPath1); font-family:sans-serif; stroke:rgb(50,50,0);" />
      <line x1="384" x2="402" y1="188" style="clip-path:url(#clipPath1); fill:none; font-family:sans-serif; stroke:rgb(50,50,0);" y2="192" />
      <text x="110" y="185" style="clip-path:url(#clipPath1); fill:rgb(50,50,0); font-family:sans-serif; stroke:none;"> initAPI():void
      </text>
      <polygon points=" 258 250 240 254 240 246" style="fill:gray; clip-path:url(#clipPath1); font-family:sans-serif; stroke:none;" />
      <polygon points=" 258 250 240 254 240 246" style="fill:none; clip-path:url(#clipPath1); font-family:sans-serif; stroke:rgb(50,50,0);" />
      <line x1="240" x2="258" y1="246" style="clip-path:url(#clipPath1); fill:none; font-family:sans-serif; stroke:rgb(50,50,0);" y2="250" />
      <text x="110" y="243" style="clip-path:url(#clipPath1); fill:rgb(50,50,0); font-family:sans-serif; stroke:none;"> apiInit():void
      </text>
      <polygon points=" 258 148 240 152 240 144" style="fill:gray; clip-path:url(#clipPath1); font-family:sans-serif; stroke:none;" />
      <polygon points=" 258 148 240 152 240 144" style="fill:none; clip-path:url(#clipPath1); font-family:sans-serif; stroke:rgb(50,50,0);" />
      <line x1="240" x2="258" y1="144" style="clip-path:url(#clipPath1); fill:none; font-family:sans-serif; stroke:rgb(50,50,0);" y2="148" />
      <text x="110" y="141" style="clip-path:url(#clipPath1); fill:rgb(50,50,0); font-family:sans-serif; stroke:none;"> init():void
      </text>
      <polygon points=" 23 283 144 283 159 298 159 306 23 306" style="fill:navy; clip-path:url(#clipPath1); font-family:sans-serif; stroke:none;" />
      <polygon points=" 20 280 141 280 156 295 156 303 20 303" style="fill:white; clip-path:url(#clipPath1); font-family:sans-serif; stroke:none;" />
      <line x1="20" x2="141" y1="280" style="clip-path:url(#clipPath1); fill:none; font-family:sans-serif;" y2="280" />
      <line x1="141" x2="156" y1="280" style="clip-path:url(#clipPath1); fill:none; font-family:sans-serif;" y2="295" />
      <line x1="156" x2="156" y1="295" style="clip-path:url(#clipPath1); fill:none; font-family:sans-serif;" y2="303" />
      <line x1="156" x2="20" y1="303" style="clip-path:url(#clipPath1); fill:none; font-family:sans-serif;" y2="303" />
      <line x1="20" x2="20" y1="303" style="clip-path:url(#clipPath1); fill:none; font-family:sans-serif;" y2="280" />
      <line x1="141" x2="141" y1="280" style="clip-path:url(#clipPath1); fill:none; font-family:sans-serif;" y2="295" />
      <line x1="141" x2="156" y1="295" style="clip-path:url(#clipPath1); fill:none; font-family:sans-serif;" y2="295" />
    </g>
    <g style="font-family:sans-serif;">
      <text x="28" y="294" style="clip-path:url(#clipPath10); stroke:none;">while(running)
      </text>
    </g>
  </g>
</svg>
