<?xml version="1.0" encoding="UTF-8"?>

<!DOCTYPE svg PUBLIC '-//W3C//DTD SVG 20001102//EN' 'http://www.w3.org/TR/2000/CR-SVG-20001102/DTD/svg-20001102.dtd'>
<svg style="fill-opacity:1; color-interpolation:sRGB; color-rendering:auto; text-rendering:auto; stroke:black; stroke-linecap:square; stroke-miterlimit:10; stroke-opacity:1; shape-rendering:auto; fill:black; stroke-dasharray:none; font-weight:normal; stroke-width:1; font-family:&apos;Lucida Sans&apos;; font-style:normal; stroke-linejoin:miter; font-size:12; image-rendering:auto; stroke-dashoffset:0;" width="973" height="693">
  <!--Generated by the Batik Graphics2D SVG Generator-->
  <defs id="genericDefs" />
  <g>
    <defs id="defs1">
      <clipPath clipPathUnits="userSpaceOnUse" id="clipPath1">
        <path d="M0 0 L973 0 L973 693 L0 693 L0 0 Z" />
      </clipPath>
      <clipPath clipPathUnits="userSpaceOnUse" id="clipPath2">
        <path d="M400 90 L400 167 L532 167 L532 90 Z" />
      </clipPath>
      <clipPath clipPathUnits="userSpaceOnUse" id="clipPath3">
        <path d="M401 91 L401 105 L532 105 L532 91 Z" />
      </clipPath>
      <clipPath clipPathUnits="userSpaceOnUse" id="clipPath4">
        <path d="M480 220 L480 310 L632 310 L632 220 Z" />
      </clipPath>
      <clipPath clipPathUnits="userSpaceOnUse" id="clipPath5">
        <path d="M481 221 L481 248 L632 248 L632 221 Z" />
      </clipPath>
      <clipPath clipPathUnits="userSpaceOnUse" id="clipPath6">
        <path d="M370 650 L370 680 L508 680 L508 650 Z" />
      </clipPath>
      <clipPath clipPathUnits="userSpaceOnUse" id="clipPath7">
        <path d="M374 650 L374 664 L504 664 L504 650 Z" />
      </clipPath>
      <clipPath clipPathUnits="userSpaceOnUse" id="clipPath8">
        <path d="M210 650 L210 680 L327 680 L327 650 Z" />
      </clipPath>
      <clipPath clipPathUnits="userSpaceOnUse" id="clipPath9">
        <path d="M214 650 L214 664 L323 664 L323 650 Z" />
      </clipPath>
      <clipPath clipPathUnits="userSpaceOnUse" id="clipPath10">
        <path d="M90 90 L90 167 L171 167 L171 90 Z" />
      </clipPath>
      <clipPath clipPathUnits="userSpaceOnUse" id="clipPath11">
        <path d="M91 91 L91 105 L171 105 L171 91 Z" />
      </clipPath>
      <clipPath clipPathUnits="userSpaceOnUse" id="clipPath12">
        <path d="M640 460 L640 550 L792 550 L792 460 Z" />
      </clipPath>
      <clipPath clipPathUnits="userSpaceOnUse" id="clipPath13">
        <path d="M641 461 L641 488 L792 488 L792 461 Z" />
      </clipPath>
      <clipPath clipPathUnits="userSpaceOnUse" id="clipPath14">
        <path d="M640 590 L640 680 L813 680 L813 590 Z" />
      </clipPath>
      <clipPath clipPathUnits="userSpaceOnUse" id="clipPath15">
        <path d="M641 591 L641 618 L813 618 L813 591 Z" />
      </clipPath>
      <clipPath clipPathUnits="userSpaceOnUse" id="clipPath16">
        <path d="M160 220 L160 310 L312 310 L312 220 Z" />
      </clipPath>
      <clipPath clipPathUnits="userSpaceOnUse" id="clipPath17">
        <path d="M161 221 L161 248 L312 248 L312 221 Z" />
      </clipPath>
      <clipPath clipPathUnits="userSpaceOnUse" id="clipPath18">
        <path d="M210 90 L210 167 L291 167 L291 90 Z" />
      </clipPath>
      <clipPath clipPathUnits="userSpaceOnUse" id="clipPath19">
        <path d="M211 91 L211 105 L291 105 L291 91 Z" />
      </clipPath>
      <clipPath clipPathUnits="userSpaceOnUse" id="clipPath20">
        <path d="M270 550 L270 580 L415 580 L415 550 Z" />
      </clipPath>
      <clipPath clipPathUnits="userSpaceOnUse" id="clipPath21">
        <path d="M274 550 L274 564 L411 564 L411 550 Z" />
      </clipPath>
      <clipPath clipPathUnits="userSpaceOnUse" id="clipPath22">
        <path d="M580 90 L580 167 L713 167 L713 90 Z" />
      </clipPath>
      <clipPath clipPathUnits="userSpaceOnUse" id="clipPath23">
        <path d="M581 91 L581 105 L713 105 L713 91 Z" />
      </clipPath>
      <clipPath clipPathUnits="userSpaceOnUse" id="clipPath24">
        <path d="M70 390 L70 467 L200 467 L200 390 Z" />
      </clipPath>
      <clipPath clipPathUnits="userSpaceOnUse" id="clipPath25">
        <path d="M71 391 L71 405 L200 405 L200 391 Z" />
      </clipPath>
      <clipPath clipPathUnits="userSpaceOnUse" id="clipPath26">
        <path d="M280 390 L280 480 L432 480 L432 390 Z" />
      </clipPath>
      <clipPath clipPathUnits="userSpaceOnUse" id="clipPath27">
        <path d="M281 391 L281 418 L432 418 L432 391 Z" />
      </clipPath>
      <clipPath clipPathUnits="userSpaceOnUse" id="clipPath28">
        <path d="M640 340 L640 430 L792 430 L792 340 Z" />
      </clipPath>
      <clipPath clipPathUnits="userSpaceOnUse" id="clipPath29">
        <path d="M641 341 L641 368 L792 368 L792 341 Z" />
      </clipPath>
      <clipPath clipPathUnits="userSpaceOnUse" id="clipPath30">
        <path d="M664 214 L664 247 L788 247 L788 214 Z" />
      </clipPath>
      <clipPath clipPathUnits="userSpaceOnUse" id="clipPath31">
        <path d="M824 474 L824 497 L945 497 L945 474 Z" />
      </clipPath>
    </defs>
    <g style="fill:purple; stroke:purple;">
      <line x1="881" x2="881" y1="500" style="clip-path:url(#clipPath1); fill:none;" y2="500" />
      <line x1="881" x2="873" y1="500" style="clip-path:url(#clipPath1); fill:none;" y2="506" />
      <line x1="869" x2="862" y1="509" style="clip-path:url(#clipPath1); fill:none;" y2="516" />
      <line x1="858" x2="850" y1="519" style="clip-path:url(#clipPath1); fill:none;" y2="525" />
      <line x1="846" x2="838" y1="528" style="clip-path:url(#clipPath1); fill:none;" y2="535" />
      <line x1="835" x2="827" y1="538" style="clip-path:url(#clipPath1); fill:none;" y2="544" />
      <line x1="823" x2="815" y1="547" style="clip-path:url(#clipPath1); fill:none;" y2="554" />
      <line x1="811" x2="804" y1="557" style="clip-path:url(#clipPath1); fill:none;" y2="563" />
      <line x1="800" x2="792" y1="566" style="clip-path:url(#clipPath1); fill:none;" y2="573" />
      <line x1="788" x2="780" y1="576" style="clip-path:url(#clipPath1); fill:none;" y2="582" />
      <line x1="777" x2="771" y1="585" style="clip-path:url(#clipPath1); fill:none;" y2="590" />
      <line x1="820" x2="820" y1="485" style="clip-path:url(#clipPath1); fill:none;" y2="485" />
      <line x1="815" x2="805" y1="485" style="clip-path:url(#clipPath1); fill:none;" y2="485" />
      <line x1="800" x2="794" y1="485" style="clip-path:url(#clipPath1); fill:none;" y2="485" />
      <line x1="881" x2="872" y1="470" style="clip-path:url(#clipPath1); fill:none;" y2="468" />
      <line x1="867" x2="858" y1="467" style="clip-path:url(#clipPath1); fill:none;" y2="465" />
      <line x1="853" x2="843" y1="463" style="clip-path:url(#clipPath1); fill:none;" y2="461" />
      <line x1="838" x2="828" y1="460" style="clip-path:url(#clipPath1); fill:none;" y2="458" />
      <line x1="824" x2="814" y1="457" style="clip-path:url(#clipPath1); fill:none;" y2="454" />
      <line x1="809" x2="799" y1="453" style="clip-path:url(#clipPath1); fill:none;" y2="451" />
      <line x1="794" x2="785" y1="450" style="clip-path:url(#clipPath1); fill:none;" y2="448" />
      <line x1="780" x2="770" y1="447" style="clip-path:url(#clipPath1); fill:none;" y2="444" />
      <line x1="765" x2="755" y1="443" style="clip-path:url(#clipPath1); fill:none;" y2="441" />
      <line x1="750" x2="741" y1="440" style="clip-path:url(#clipPath1); fill:none;" y2="437" />
      <line x1="736" x2="726" y1="436" style="clip-path:url(#clipPath1); fill:none;" y2="434" />
      <line x1="721" x2="717" y1="433" style="clip-path:url(#clipPath1); fill:none;" y2="432" />
      <line x1="670" x2="669" y1="210" style="clip-path:url(#clipPath1); fill:none;" y2="210" />
      <line x1="664" x2="655" y1="208" style="clip-path:url(#clipPath1); fill:none;" y2="206" />
      <line x1="650" x2="640" y1="204" style="clip-path:url(#clipPath1); fill:none;" y2="202" />
      <line x1="635" x2="626" y1="201" style="clip-path:url(#clipPath1); fill:none;" y2="198" />
      <line x1="621" x2="611" y1="197" style="clip-path:url(#clipPath1); fill:none;" y2="194" />
      <line x1="606" x2="597" y1="193" style="clip-path:url(#clipPath1); fill:none;" y2="190" />
      <line x1="592" x2="582" y1="189" style="clip-path:url(#clipPath1); fill:none;" y2="186" />
      <line x1="577" x2="568" y1="185" style="clip-path:url(#clipPath1); fill:none;" y2="182" />
      <line x1="563" x2="553" y1="181" style="clip-path:url(#clipPath1); fill:none;" y2="178" />
      <line x1="548" x2="539" y1="177" style="clip-path:url(#clipPath1); fill:none;" y2="174" />
      <line x1="534" x2="524" y1="173" style="clip-path:url(#clipPath1); fill:none;" y2="170" />
      <line x1="660" x2="655" y1="235" style="clip-path:url(#clipPath1); fill:none;" y2="235" />
      <line x1="650" x2="640" y1="235" style="clip-path:url(#clipPath1); fill:none;" y2="235" />
      <line x1="635" x2="634" y1="235" style="clip-path:url(#clipPath1); fill:none;" y2="235" />
      <line x1="701" x2="701" y1="210" style="clip-path:url(#clipPath1); fill:none;" y2="205" />
      <line x1="701" x2="701" y1="200" style="clip-path:url(#clipPath1); fill:none;" y2="190" />
      <line x1="701" x2="701" y1="185" style="clip-path:url(#clipPath1); fill:none;" y2="175" />
      <line x1="701" x2="701" y1="170" style="clip-path:url(#clipPath1); fill:none;" y2="169" />
      <line x1="647" x2="538" y1="169" style="clip-path:url(#clipPath1); fill:none; stroke:rgb(0,64,64);" y2="220" />
      <line x1="647" x2="580" y1="90" style="clip-path:url(#clipPath1); fill:none; stroke:blue;" y2="30" />
      <line x1="580" x2="170" y1="30" style="clip-path:url(#clipPath1); fill:none; stroke:blue;" y2="30" />
      <line x1="170" x2="131" y1="30" style="clip-path:url(#clipPath1); fill:none; stroke:blue;" y2="90" />
      <line x1="325" x2="325" y1="482" style="clip-path:url(#clipPath1); fill:none; stroke:black;" y2="482" />
      <line x1="325" x2="325" y1="485" style="clip-path:url(#clipPath1); fill:none; stroke:black;" y2="495" />
      <line x1="325" x2="325" y1="500" style="clip-path:url(#clipPath1); fill:none; stroke:black;" y2="510" />
      <line x1="325" x2="325" y1="515" style="clip-path:url(#clipPath1); fill:none; stroke:black;" y2="525" />
      <line x1="325" x2="325" y1="530" style="clip-path:url(#clipPath1); fill:none; stroke:black;" y2="530" />
      <line x1="289" x2="289" y1="582" style="clip-path:url(#clipPath1); fill:none; stroke:black;" y2="585" />
      <line x1="289" x2="289" y1="590" style="clip-path:url(#clipPath1); fill:none; stroke:black;" y2="600" />
      <line x1="289" x2="289" y1="605" style="clip-path:url(#clipPath1); fill:none; stroke:black;" y2="615" />
      <line x1="289" x2="289" y1="620" style="clip-path:url(#clipPath1); fill:none; stroke:black;" y2="630" />
      <line x1="393" x2="393" y1="582" style="clip-path:url(#clipPath1); fill:none; stroke:black;" y2="585" />
      <line x1="393" x2="393" y1="590" style="clip-path:url(#clipPath1); fill:none; stroke:black;" y2="600" />
      <line x1="393" x2="393" y1="605" style="clip-path:url(#clipPath1); fill:none; stroke:black;" y2="615" />
      <line x1="393" x2="393" y1="620" style="clip-path:url(#clipPath1); fill:none; stroke:black;" y2="630" />
      <line x1="251" x2="211" y1="169" style="clip-path:url(#clipPath1); fill:none; stroke:rgb(0,64,64);" y2="220" />
      <line x1="131" x2="200" y1="169" style="clip-path:url(#clipPath1); fill:none; stroke:rgb(0,64,64);" y2="220" />
      <line x1="507" x2="507" y1="169" style="clip-path:url(#clipPath1); fill:none; stroke:rgb(0,64,64);" y2="220" />
      <line x1="467" x2="400" y1="90" style="clip-path:url(#clipPath1); fill:none; stroke:blue;" y2="60" />
      <line x1="400" x2="290" y1="60" style="clip-path:url(#clipPath1); fill:none; stroke:blue;" y2="60" />
      <line x1="290" x2="251" y1="60" style="clip-path:url(#clipPath1); fill:none; stroke:blue;" y2="90" />
      <line x1="280" x2="202" y1="429" style="clip-path:url(#clipPath1); fill:none; stroke:blue;" y2="429" />
      <line x1="379" x2="705" y1="482" style="clip-path:url(#clipPath1); fill:none; stroke:blue;" y2="590" />
      <line x1="434" x2="640" y1="411" style="clip-path:url(#clipPath1); fill:none; stroke:blue;" y2="411" />
      <line x1="362" x2="557" y1="390" style="clip-path:url(#clipPath1); fill:none; stroke:blue;" y2="312" />
      <line x1="434" x2="640" y1="472" style="clip-path:url(#clipPath1); fill:none; stroke:blue;" y2="478" />
      <line x1="291" x2="291" y1="390" style="clip-path:url(#clipPath1); fill:none; stroke:blue;" y2="312" />
      <polygon style="fill:white; clip-path:url(#clipPath1); stroke:none;" points=" 538 220 552 207 557 218" />
      <polygon style="fill:none; clip-path:url(#clipPath1); stroke:rgb(0,64,64);" points=" 538 220 552 207 557 218" />
      <line x1="557" x2="538" y1="218" style="clip-path:url(#clipPath1); fill:none; stroke:rgb(0,64,64);" y2="220" />
      <line x1="131" x2="142" y1="90" style="clip-path:url(#clipPath1); fill:none; stroke:blue;" y2="83" />
      <line x1="131" x2="133" y1="90" style="clip-path:url(#clipPath1); fill:none; stroke:blue;" y2="77" />
      <text x="99" y="83" style="clip-path:url(#clipPath1); fill:blue; font-family:sans-serif; stroke:none;">0..1
      </text>
      <line x1="325" x2="330" y1="530" style="clip-path:url(#clipPath1); fill:none; font-family:sans-serif; stroke:black;" y2="518" />
      <line x1="325" x2="320" y1="530" style="clip-path:url(#clipPath1); fill:none; font-family:sans-serif; stroke:black;" y2="518" />
      <line x1="289" x2="294" y1="630" style="clip-path:url(#clipPath1); fill:none; font-family:sans-serif; stroke:black;" y2="618" />
      <line x1="289" x2="284" y1="630" style="clip-path:url(#clipPath1); fill:none; font-family:sans-serif; stroke:black;" y2="618" />
      <line x1="393" x2="398" y1="630" style="clip-path:url(#clipPath1); fill:none; font-family:sans-serif; stroke:black;" y2="618" />
      <line x1="393" x2="388" y1="630" style="clip-path:url(#clipPath1); fill:none; font-family:sans-serif; stroke:black;" y2="618" />
      <polygon points=" 211 220 217 202 227 210" style="fill:white; clip-path:url(#clipPath1); font-family:sans-serif; stroke:none;" />
      <polygon points=" 211 220 217 202 227 210" style="fill:none; clip-path:url(#clipPath1); font-family:sans-serif; stroke:rgb(0,64,64);" />
      <line x1="227" x2="211" y1="210" style="clip-path:url(#clipPath1); fill:none; font-family:sans-serif; stroke:rgb(0,64,64);" y2="220" />
      <polygon points=" 200 220 182 214 189 204" style="fill:white; clip-path:url(#clipPath1); font-family:sans-serif; stroke:none;" />
      <polygon points=" 200 220 182 214 189 204" style="fill:none; clip-path:url(#clipPath1); font-family:sans-serif; stroke:rgb(0,64,64);" />
      <line x1="189" x2="200" y1="204" style="clip-path:url(#clipPath1); fill:none; font-family:sans-serif; stroke:rgb(0,64,64);" y2="220" />
      <polygon points=" 507 220 501 202 513 202" style="fill:white; clip-path:url(#clipPath1); font-family:sans-serif; stroke:none;" />
      <polygon points=" 507 220 501 202 513 202" style="fill:none; clip-path:url(#clipPath1); font-family:sans-serif; stroke:rgb(0,64,64);" />
      <line x1="513" x2="507" y1="202" style="clip-path:url(#clipPath1); fill:none; font-family:sans-serif; stroke:rgb(0,64,64);" y2="220" />
      <line x1="251" x2="264" y1="90" style="clip-path:url(#clipPath1); fill:none; font-family:sans-serif; stroke:blue;" y2="87" />
      <line x1="251" x2="257" y1="90" style="clip-path:url(#clipPath1); fill:none; font-family:sans-serif; stroke:blue;" y2="79" />
      <text x="219" y="83" style="clip-path:url(#clipPath1); fill:blue; font-family:sans-serif; stroke:none;">0..1
      </text>
      <line x1="202" x2="214" y1="429" style="clip-path:url(#clipPath1); fill:none; font-family:sans-serif; stroke:blue;" y2="434" />
      <line x1="202" x2="214" y1="429" style="clip-path:url(#clipPath1); fill:none; font-family:sans-serif; stroke:blue;" y2="424" />
      <text x="210" y="422" style="clip-path:url(#clipPath1); fill:blue; font-family:sans-serif; stroke:none;">1
      </text>
      <line x1="705" x2="695" y1="590" style="clip-path:url(#clipPath1); fill:none; font-family:sans-serif; stroke:blue;" y2="581" />
      <line x1="705" x2="692" y1="590" style="clip-path:url(#clipPath1); fill:none; font-family:sans-serif; stroke:blue;" y2="591" />
      <text x="622" y="583" style="clip-path:url(#clipPath1); fill:blue; font-family:sans-serif; stroke:none;">0..1
      </text>
      <line x1="640" x2="628" y1="411" style="clip-path:url(#clipPath1); fill:none; font-family:sans-serif; stroke:blue;" y2="406" />
      <line x1="640" x2="628" y1="411" style="clip-path:url(#clipPath1); fill:none; font-family:sans-serif; stroke:blue;" y2="416" />
      <text x="608" y="404" style="clip-path:url(#clipPath1); fill:blue; font-family:sans-serif; stroke:none;">0..1
      </text>
      <line x1="557" x2="544" y1="312" style="clip-path:url(#clipPath1); fill:none; font-family:sans-serif; stroke:blue;" y2="312" />
      <line x1="557" x2="548" y1="312" style="clip-path:url(#clipPath1); fill:none; font-family:sans-serif; stroke:blue;" y2="321" />
      <text x="483" y="322" style="clip-path:url(#clipPath1); fill:blue; font-family:sans-serif; stroke:none;">0..1
      </text>
      <line x1="640" x2="628" y1="478" style="clip-path:url(#clipPath1); fill:none; font-family:sans-serif; stroke:blue;" y2="473" />
      <line x1="640" x2="628" y1="478" style="clip-path:url(#clipPath1); fill:none; font-family:sans-serif; stroke:blue;" y2="483" />
      <text x="608" y="470" style="clip-path:url(#clipPath1); fill:blue; font-family:sans-serif; stroke:none;">0..1
      </text>
      <line x1="291" x2="286" y1="312" style="clip-path:url(#clipPath1); fill:none; font-family:sans-serif; stroke:blue;" y2="324" />
      <line x1="291" x2="296" y1="312" style="clip-path:url(#clipPath1); fill:none; font-family:sans-serif; stroke:blue;" y2="324" />
      <text x="259" y="322" style="clip-path:url(#clipPath1); fill:blue; font-family:sans-serif; stroke:none;">0..1
      </text>
      <rect x="403" y="93" width="131" style="clip-path:url(#clipPath1); fill:navy; font-family:sans-serif; stroke:none;" height="76" />
      <rect x="400" y="90" width="131" style="clip-path:url(#clipPath1); fill:white; font-family:sans-serif; stroke:none;" height="76" />
      <rect x="400" y="90" width="131" style="clip-path:url(#clipPath1); fill:none; font-family:sans-serif; stroke:black;" height="76" />
    </g>
    <g style="font-weight:bold; font-family:sans-serif;">
      <text x="405" y="101" style="clip-path:url(#clipPath3); stroke:none;">vjPfDrawManager
      </text>
    </g>
    <g style="font-family:sans-serif;">
      <line x1="400" x2="531" y1="110" style="clip-path:url(#clipPath2); fill:none;" y2="110" />
      <line x1="400" x2="531" y1="133" style="clip-path:url(#clipPath2); fill:none;" y2="133" />
    </g>
    <g style="fill:navy; font-family:sans-serif; stroke:navy;">
      <rect x="483" y="223" width="151" style="clip-path:url(#clipPath1); stroke:none;" height="89" />
      <rect x="480" y="220" width="151" style="clip-path:url(#clipPath1); fill:white; stroke:none;" height="89" />
      <rect x="480" y="220" width="151" style="clip-path:url(#clipPath1); fill:none; stroke:black;" height="89" />
    </g>
    <g style="font-family:sans-serif;">
      <text x="485" y="231" style="clip-path:url(#clipPath5); stroke:none;">vjConfigChunkHandler
      </text>
      <text x="502" y="244" style="clip-path:url(#clipPath5); font-style:italic; stroke:none; font-weight:bold;">vjDrawManager
      </text>
    </g>
    <g style="font-family:sans-serif;">
      <line x1="480" x2="631" y1="253" style="clip-path:url(#clipPath4); fill:none;" y2="253" />
      <line x1="480" x2="631" y1="276" style="clip-path:url(#clipPath4); fill:none;" y2="276" />
    </g>
    <g style="fill:navy; font-family:sans-serif; stroke:navy;">
      <rect x="373" y="653" width="137" style="clip-path:url(#clipPath1); stroke:none;" height="29" />
      <rect x="373" y="633" width="54" style="clip-path:url(#clipPath1); stroke:none;" height="20" />
      <rect x="370" y="650" width="137" style="clip-path:url(#clipPath1); fill:white; stroke:none;" height="29" />
      <rect x="370" y="630" width="54" style="clip-path:url(#clipPath1); fill:white; stroke:none;" height="20" />
      <rect x="370" y="650" width="137" style="clip-path:url(#clipPath1); fill:none; stroke:black;" height="29" />
      <rect x="370" y="630" width="54" style="clip-path:url(#clipPath1); fill:none; stroke:black;" height="20" />
    </g>
    <g style="font-weight:bold; font-family:sans-serif;">
      <text x="378" y="660" style="clip-path:url(#clipPath7); stroke:none;">Win32 Primitives
      </text>
    </g>
    <g style="font-family:sans-serif;">
      <line x1="370" x2="507" y1="663" style="clip-path:url(#clipPath6); fill:none;" y2="663" />
    </g>
    <g style="fill:navy; font-family:sans-serif; stroke:navy;">
      <rect x="213" y="653" width="116" style="clip-path:url(#clipPath1); stroke:none;" height="29" />
      <rect x="213" y="633" width="46" style="clip-path:url(#clipPath1); stroke:none;" height="20" />
      <rect x="210" y="650" width="116" style="clip-path:url(#clipPath1); fill:white; stroke:none;" height="29" />
      <rect x="210" y="630" width="46" style="clip-path:url(#clipPath1); fill:white; stroke:none;" height="20" />
      <rect x="210" y="650" width="116" style="clip-path:url(#clipPath1); fill:none; stroke:black;" height="29" />
      <rect x="210" y="630" width="46" style="clip-path:url(#clipPath1); fill:none; stroke:black;" height="20" />
    </g>
    <g style="font-weight:bold; font-family:sans-serif;">
      <text x="218" y="660" style="clip-path:url(#clipPath9); stroke:none;">SGI Primitives
      </text>
    </g>
    <g style="font-family:sans-serif;">
      <line x1="210" x2="326" y1="663" style="clip-path:url(#clipPath8); fill:none;" y2="663" />
    </g>
    <g style="fill:navy; font-family:sans-serif; stroke:navy;">
      <rect x="93" y="93" width="80" style="clip-path:url(#clipPath1); stroke:none;" height="76" />
      <rect x="90" y="90" width="80" style="clip-path:url(#clipPath1); fill:white; stroke:none;" height="76" />
      <rect x="90" y="90" width="80" style="clip-path:url(#clipPath1); fill:none; stroke:black;" height="76" />
    </g>
    <g style="font-style:italic; font-weight:bold; font-family:sans-serif;">
      <text x="102" y="101" style="clip-path:url(#clipPath11); stroke:none;">vjGlApp
      </text>
    </g>
    <g style="font-family:sans-serif;">
      <line x1="90" x2="170" y1="110" style="clip-path:url(#clipPath10); fill:none;" y2="110" />
      <line x1="90" x2="170" y1="133" style="clip-path:url(#clipPath10); fill:none;" y2="133" />
    </g>
    <g style="fill:navy; font-family:sans-serif; stroke:navy;">
      <rect x="643" y="463" width="151" style="clip-path:url(#clipPath1); stroke:none;" height="89" />
      <rect x="640" y="460" width="151" style="clip-path:url(#clipPath1); fill:white; stroke:none;" height="89" />
      <rect x="640" y="460" width="151" style="clip-path:url(#clipPath1); fill:none; stroke:black;" height="89" />
    </g>
    <g style="font-family:sans-serif;">
      <text x="645" y="471" style="clip-path:url(#clipPath13); stroke:none;">vjConfigChunkHandler
      </text>
      <text x="660" y="484" style="font-weight:bold; clip-path:url(#clipPath13); stroke:none;">vjInputManager
      </text>
    </g>
    <g style="font-family:sans-serif;">
      <line x1="640" x2="791" y1="493" style="clip-path:url(#clipPath12); fill:none;" y2="493" />
      <line x1="640" x2="791" y1="516" style="clip-path:url(#clipPath12); fill:none;" y2="516" />
    </g>
    <g style="fill:navy; font-family:sans-serif; stroke:navy;">
      <rect x="643" y="593" width="172" style="clip-path:url(#clipPath1); stroke:none;" height="89" />
      <rect x="640" y="590" width="172" style="clip-path:url(#clipPath1); fill:white; stroke:none;" height="89" />
      <rect x="640" y="590" width="172" style="clip-path:url(#clipPath1); fill:none; stroke:black;" height="89" />
    </g>
    <g style="font-family:sans-serif;">
      <text x="666" y="601" style="clip-path:url(#clipPath15); stroke:none;">vjConfigChunkHandler
      </text>
      <text x="645" y="614" style="font-weight:bold; clip-path:url(#clipPath15); stroke:none;">vjEnvironmentManager
      </text>
    </g>
    <g style="font-family:sans-serif;">
      <line x1="640" x2="812" y1="623" style="clip-path:url(#clipPath14); fill:none;" y2="623" />
      <line x1="640" x2="812" y1="646" style="clip-path:url(#clipPath14); fill:none;" y2="646" />
    </g>
    <g style="fill:navy; font-family:sans-serif; stroke:navy;">
      <rect x="163" y="223" width="151" style="clip-path:url(#clipPath1); stroke:none;" height="89" />
      <rect x="160" y="220" width="151" style="clip-path:url(#clipPath1); fill:white; stroke:none;" height="89" />
      <rect x="160" y="220" width="151" style="clip-path:url(#clipPath1); fill:none; stroke:black;" height="89" />
    </g>
    <g style="font-family:sans-serif;">
      <text x="165" y="231" style="clip-path:url(#clipPath17); stroke:none;">vjConfigChunkHandler
      </text>
      <text x="215" y="244" style="clip-path:url(#clipPath17); font-style:italic; stroke:none; font-weight:bold;">vjApp
      </text>
    </g>
    <g style="font-family:sans-serif;">
      <line x1="160" x2="311" y1="253" style="clip-path:url(#clipPath16); fill:none;" y2="253" />
      <line x1="160" x2="311" y1="276" style="clip-path:url(#clipPath16); fill:none;" y2="276" />
    </g>
    <g style="fill:navy; font-family:sans-serif; stroke:navy;">
      <rect x="213" y="93" width="80" style="clip-path:url(#clipPath1); stroke:none;" height="76" />
      <rect x="210" y="90" width="80" style="clip-path:url(#clipPath1); fill:white; stroke:none;" height="76" />
      <rect x="210" y="90" width="80" style="clip-path:url(#clipPath1); fill:none; stroke:black;" height="76" />
    </g>
    <g style="font-style:italic; font-weight:bold; font-family:sans-serif;">
      <text x="223" y="101" style="clip-path:url(#clipPath19); stroke:none;">vjPfApp
      </text>
    </g>
    <g style="font-family:sans-serif;">
      <line x1="210" x2="290" y1="110" style="clip-path:url(#clipPath18); fill:none;" y2="110" />
      <line x1="210" x2="290" y1="133" style="clip-path:url(#clipPath18); fill:none;" y2="133" />
    </g>
    <g style="fill:navy; font-family:sans-serif; stroke:navy;">
      <rect x="273" y="553" width="144" style="clip-path:url(#clipPath1); stroke:none;" height="29" />
      <rect x="273" y="533" width="57" style="clip-path:url(#clipPath1); stroke:none;" height="20" />
      <rect x="270" y="550" width="144" style="clip-path:url(#clipPath1); fill:white; stroke:none;" height="29" />
      <rect x="270" y="530" width="57" style="clip-path:url(#clipPath1); fill:white; stroke:none;" height="20" />
      <rect x="270" y="550" width="144" style="clip-path:url(#clipPath1); fill:none; stroke:black;" height="29" />
      <rect x="270" y="530" width="57" style="clip-path:url(#clipPath1); fill:none; stroke:black;" height="20" />
    </g>
    <g style="font-weight:bold; font-family:sans-serif;">
      <text x="278" y="560" style="clip-path:url(#clipPath21); stroke:none;">System Primitives
      </text>
    </g>
    <g style="font-family:sans-serif;">
      <line x1="270" x2="414" y1="563" style="clip-path:url(#clipPath20); fill:none;" y2="563" />
    </g>
    <g style="fill:navy; font-family:sans-serif; stroke:navy;">
      <rect x="583" y="93" width="132" style="clip-path:url(#clipPath1); stroke:none;" height="76" />
      <rect x="580" y="90" width="132" style="clip-path:url(#clipPath1); fill:white; stroke:none;" height="76" />
      <rect x="580" y="90" width="132" style="clip-path:url(#clipPath1); fill:none; stroke:black;" height="76" />
    </g>
    <g style="font-weight:bold; font-family:sans-serif;">
      <text x="585" y="101" style="clip-path:url(#clipPath23); stroke:none;">vjGlDrawManager
      </text>
    </g>
    <g style="font-family:sans-serif;">
      <line x1="580" x2="712" y1="110" style="clip-path:url(#clipPath22); fill:none;" y2="110" />
      <line x1="580" x2="712" y1="133" style="clip-path:url(#clipPath22); fill:none;" y2="133" />
    </g>
    <g style="fill:navy; font-family:sans-serif; stroke:navy;">
      <rect x="73" y="393" width="129" style="clip-path:url(#clipPath1); stroke:none;" height="76" />
      <rect x="70" y="390" width="129" style="clip-path:url(#clipPath1); fill:white; stroke:none;" height="76" />
      <rect x="70" y="390" width="129" style="clip-path:url(#clipPath1); fill:none; stroke:black;" height="76" />
    </g>
    <g style="font-weight:bold; font-family:sans-serif;">
      <text x="75" y="401" style="clip-path:url(#clipPath25); stroke:none;">vjConfigManager
      </text>
    </g>
    <g style="font-family:sans-serif;">
      <line x1="70" x2="199" y1="410" style="clip-path:url(#clipPath24); fill:none;" y2="410" />
      <line x1="70" x2="199" y1="433" style="clip-path:url(#clipPath24); fill:none;" y2="433" />
    </g>
    <g style="fill:navy; font-family:sans-serif; stroke:navy;">
      <rect x="283" y="393" width="151" style="clip-path:url(#clipPath1); stroke:none;" height="89" />
      <rect x="280" y="390" width="151" style="clip-path:url(#clipPath1); fill:white; stroke:none;" height="89" />
      <rect x="280" y="390" width="151" style="clip-path:url(#clipPath1); fill:none; stroke:black;" height="89" />
    </g>
    <g style="font-family:sans-serif;">
      <text x="285" y="401" style="clip-path:url(#clipPath27); stroke:none;">vjConfigChunkHandler
      </text>
      <text x="327" y="414" style="font-weight:bold; clip-path:url(#clipPath27); stroke:none;">vjKernel
      </text>
    </g>
    <g style="font-family:sans-serif;">
      <line x1="280" x2="431" y1="423" style="clip-path:url(#clipPath26); fill:none;" y2="423" />
      <line x1="280" x2="431" y1="446" style="clip-path:url(#clipPath26); fill:none;" y2="446" />
    </g>
    <g style="fill:navy; font-family:sans-serif; stroke:navy;">
      <rect x="643" y="343" width="151" style="clip-path:url(#clipPath1); stroke:none;" height="89" />
      <rect x="640" y="340" width="151" style="clip-path:url(#clipPath1); fill:white; stroke:none;" height="89" />
      <rect x="640" y="340" width="151" style="clip-path:url(#clipPath1); fill:none; stroke:black;" height="89" />
    </g>
    <g style="font-family:sans-serif;">
      <text x="645" y="351" style="clip-path:url(#clipPath29); stroke:none;">vjConfigChunkHandler
      </text>
      <text x="653" y="364" style="font-weight:bold; clip-path:url(#clipPath29); stroke:none;">vjDisplayManager
      </text>
    </g>
    <g style="font-family:sans-serif;">
      <line x1="640" x2="791" y1="373" style="clip-path:url(#clipPath28); fill:none;" y2="373" />
      <line x1="640" x2="791" y1="396" style="clip-path:url(#clipPath28); fill:none;" y2="396" />
    </g>
    <g style="fill:navy; font-family:sans-serif; stroke:navy;">
      <polygon style="clip-path:url(#clipPath1); stroke:none;" points=" 663 213 791 213 806 228 806 251 663 251" />
      <polygon style="fill:white; clip-path:url(#clipPath1); stroke:none;" points=" 660 210 788 210 803 225 803 248 660 248" />
      <line x1="660" x2="788" y1="210" style="clip-path:url(#clipPath1); fill:none; stroke:black;" y2="210" />
      <line x1="788" x2="803" y1="210" style="clip-path:url(#clipPath1); fill:none; stroke:black;" y2="225" />
      <line x1="803" x2="803" y1="225" style="clip-path:url(#clipPath1); fill:none; stroke:black;" y2="248" />
      <line x1="803" x2="660" y1="248" style="clip-path:url(#clipPath1); fill:none; stroke:black;" y2="248" />
      <line x1="660" x2="660" y1="248" style="clip-path:url(#clipPath1); fill:none; stroke:black;" y2="210" />
      <line x1="788" x2="788" y1="210" style="clip-path:url(#clipPath1); fill:none; stroke:black;" y2="225" />
      <line x1="788" x2="803" y1="225" style="clip-path:url(#clipPath1); fill:none; stroke:black;" y2="225" />
    </g>
    <g style="font-family:sans-serif;">
      <text x="668" y="224" style="clip-path:url(#clipPath30); stroke:none;">External Managers
      </text>
    </g>
    <g style="fill:navy; font-family:sans-serif; stroke:navy;">
      <polygon style="clip-path:url(#clipPath1); stroke:none;" points=" 823 473 948 473 963 488 963 501 823 501" />
      <polygon style="fill:white; clip-path:url(#clipPath1); stroke:none;" points=" 820 470 945 470 960 485 960 498 820 498" />
      <line x1="820" x2="945" y1="470" style="clip-path:url(#clipPath1); fill:none; stroke:black;" y2="470" />
      <line x1="945" x2="960" y1="470" style="clip-path:url(#clipPath1); fill:none; stroke:black;" y2="485" />
      <line x1="960" x2="960" y1="485" style="clip-path:url(#clipPath1); fill:none; stroke:black;" y2="498" />
      <line x1="960" x2="820" y1="498" style="clip-path:url(#clipPath1); fill:none; stroke:black;" y2="498" />
      <line x1="820" x2="820" y1="498" style="clip-path:url(#clipPath1); fill:none; stroke:black;" y2="470" />
      <line x1="945" x2="945" y1="470" style="clip-path:url(#clipPath1); fill:none; stroke:black;" y2="485" />
      <line x1="945" x2="960" y1="485" style="clip-path:url(#clipPath1); fill:none; stroke:black;" y2="485" />
    </g>
    <g style="font-family:sans-serif;">
      <text x="828" y="484" style="clip-path:url(#clipPath31); stroke:none;">Internal Managers
      </text>
    </g>
  </g>
</svg>
