<?xml version="1.0" encoding="UTF-8"?>

<!DOCTYPE svg PUBLIC '-//W3C//DTD SVG 20001102//EN' 'http://www.w3.org/TR/2000/CR-SVG-20001102/DTD/svg-20001102.dtd'>
<svg style="fill-opacity:1; color-interpolation:sRGB; color-rendering:auto; text-rendering:auto; stroke:black; stroke-linecap:square; stroke-miterlimit:10; stroke-opacity:1; shape-rendering:auto; fill:black; stroke-dasharray:none; font-weight:normal; stroke-width:1; font-family:&apos;Lucida Sans&apos;; font-style:normal; stroke-linejoin:miter; font-size:12; image-rendering:auto; stroke-dashoffset:0;" width="1013" height="570">
  <!--Generated by the Batik Graphics2D SVG Generator-->
  <defs id="genericDefs" />
  <g>
    <defs id="defs1">
      <clipPath clipPathUnits="userSpaceOnUse" id="clipPath1">
        <path d="M0 0 L1013 0 L1013 570 L0 570 L0 0 Z" />
      </clipPath>
      <clipPath clipPathUnits="userSpaceOnUse" id="clipPath2">
        <path d="M90 90 L90 167 L171 167 L171 90 Z" />
      </clipPath>
      <clipPath clipPathUnits="userSpaceOnUse" id="clipPath3">
        <path d="M91 91 L91 105 L171 105 L171 91 Z" />
      </clipPath>
      <clipPath clipPathUnits="userSpaceOnUse" id="clipPath4">
        <path d="M210 90 L210 167 L291 167 L291 90 Z" />
      </clipPath>
      <clipPath clipPathUnits="userSpaceOnUse" id="clipPath5">
        <path d="M211 91 L211 105 L291 105 L291 91 Z" />
      </clipPath>
      <clipPath clipPathUnits="userSpaceOnUse" id="clipPath6">
        <path d="M160 220 L160 310 L331 310 L331 220 Z" />
      </clipPath>
      <clipPath clipPathUnits="userSpaceOnUse" id="clipPath7">
        <path d="M161 221 L161 248 L331 248 L331 221 Z" />
      </clipPath>
      <clipPath clipPathUnits="userSpaceOnUse" id="clipPath8">
        <path d="M460 270 L460 360 L631 360 L631 270 Z" />
      </clipPath>
      <clipPath clipPathUnits="userSpaceOnUse" id="clipPath9">
        <path d="M461 271 L461 298 L631 298 L631 271 Z" />
      </clipPath>
      <clipPath clipPathUnits="userSpaceOnUse" id="clipPath10">
        <path d="M280 390 L280 480 L451 480 L451 390 Z" />
      </clipPath>
      <clipPath clipPathUnits="userSpaceOnUse" id="clipPath11">
        <path d="M281 391 L281 418 L451 418 L451 391 Z" />
      </clipPath>
      <clipPath clipPathUnits="userSpaceOnUse" id="clipPath12">
        <path d="M640 340 L640 430 L811 430 L811 340 Z" />
      </clipPath>
      <clipPath clipPathUnits="userSpaceOnUse" id="clipPath13">
        <path d="M641 341 L641 368 L811 368 L811 341 Z" />
      </clipPath>
      <clipPath clipPathUnits="userSpaceOnUse" id="clipPath14">
        <path d="M640 450 L640 557 L811 557 L811 450 Z" />
      </clipPath>
      <clipPath clipPathUnits="userSpaceOnUse" id="clipPath15">
        <path d="M641 451 L641 478 L811 478 L811 451 Z" />
      </clipPath>
      <clipPath clipPathUnits="userSpaceOnUse" id="clipPath16">
        <path d="M640 542 L640 557 L811 557 L811 542 Z" />
      </clipPath>
      <clipPath clipPathUnits="userSpaceOnUse" id="clipPath17">
        <path d="M70 390 L70 484 L219 484 L219 390 Z" />
      </clipPath>
      <clipPath clipPathUnits="userSpaceOnUse" id="clipPath18">
        <path d="M71 391 L71 405 L219 405 L219 391 Z" />
      </clipPath>
      <clipPath clipPathUnits="userSpaceOnUse" id="clipPath19">
        <path d="M70 469 L70 484 L219 484 L219 469 Z" />
      </clipPath>
      <clipPath clipPathUnits="userSpaceOnUse" id="clipPath20">
        <path d="M400 90 L400 180 L546 180 L546 90 Z" />
      </clipPath>
      <clipPath clipPathUnits="userSpaceOnUse" id="clipPath21">
        <path d="M401 91 L401 105 L546 105 L546 91 Z" />
      </clipPath>
      <clipPath clipPathUnits="userSpaceOnUse" id="clipPath22">
        <path d="M580 90 L580 178 L727 178 L727 90 Z" />
      </clipPath>
      <clipPath clipPathUnits="userSpaceOnUse" id="clipPath23">
        <path d="M581 91 L581 105 L727 105 L727 91 Z" />
      </clipPath>
      <clipPath clipPathUnits="userSpaceOnUse" id="clipPath24">
        <path d="M664 214 L664 247 L788 247 L788 214 Z" />
      </clipPath>
      <clipPath clipPathUnits="userSpaceOnUse" id="clipPath25">
        <path d="M864 424 L864 447 L985 447 L985 424 Z" />
      </clipPath>
    </defs>
    <g style="fill:purple; stroke:purple;">
      <line x1="860" x2="858" y1="440" style="clip-path:url(#clipPath1); fill:none;" y2="442" />
      <line x1="854" x2="846" y1="445" style="clip-path:url(#clipPath1); fill:none;" y2="452" />
      <line x1="843" x2="835" y1="455" style="clip-path:url(#clipPath1); fill:none;" y2="462" />
      <line x1="831" x2="824" y1="465" style="clip-path:url(#clipPath1); fill:none;" y2="472" />
      <line x1="820" x2="813" y1="475" style="clip-path:url(#clipPath1); fill:none;" y2="481" />
      <line x1="860" x2="851" y1="430" style="clip-path:url(#clipPath1); fill:none;" y2="428" />
      <line x1="846" x2="836" y1="428" style="clip-path:url(#clipPath1); fill:none;" y2="426" />
      <line x1="831" x2="822" y1="425" style="clip-path:url(#clipPath1); fill:none;" y2="423" />
      <line x1="817" x2="813" y1="423" style="clip-path:url(#clipPath1); fill:none;" y2="422" />
      <line x1="660" x2="660" y1="240" style="clip-path:url(#clipPath1); fill:none;" y2="240" />
      <line x1="658" x2="653" y1="243" style="clip-path:url(#clipPath1); fill:none;" y2="252" />
      <line x1="651" x2="646" y1="257" style="clip-path:url(#clipPath1); fill:none;" y2="265" />
      <line x1="643" x2="638" y1="270" style="clip-path:url(#clipPath1); fill:none;" y2="278" />
      <line x1="636" x2="633" y1="283" style="clip-path:url(#clipPath1); fill:none;" y2="288" />
      <line x1="694" x2="694" y1="210" style="clip-path:url(#clipPath1); fill:none;" y2="205" />
      <line x1="694" x2="694" y1="200" style="clip-path:url(#clipPath1); fill:none;" y2="190" />
      <line x1="694" x2="694" y1="185" style="clip-path:url(#clipPath1); fill:none;" y2="180" />
      <line x1="453" x2="640" y1="411" style="clip-path:url(#clipPath1); fill:none; stroke:blue;" y2="411" />
      <line x1="399" x2="546" y1="390" style="clip-path:url(#clipPath1); fill:none; stroke:blue;" y2="362" />
      <line x1="453" x2="640" y1="470" style="clip-path:url(#clipPath1); fill:none; stroke:blue;" y2="470" />
      <line x1="293" x2="293" y1="390" style="clip-path:url(#clipPath1); fill:none; stroke:blue;" y2="312" />
      <line x1="313" x2="346" y1="312" style="clip-path:url(#clipPath1); fill:none; stroke:blue;" y2="390" />
      <line x1="251" x2="251" y1="169" style="clip-path:url(#clipPath1); fill:none; stroke:rgb(0,64,64);" y2="220" />
      <line x1="131" x2="205" y1="169" style="clip-path:url(#clipPath1); fill:none; stroke:rgb(0,64,64);" y2="220" />
      <line x1="606" x2="606" y1="180" style="clip-path:url(#clipPath1); fill:none; stroke:rgb(0,64,64);" y2="270" />
      <line x1="654" x2="580" y1="90" style="clip-path:url(#clipPath1); fill:none; stroke:blue;" y2="30" />
      <line x1="580" x2="170" y1="30" style="clip-path:url(#clipPath1); fill:none; stroke:blue;" y2="30" />
      <line x1="170" x2="131" y1="30" style="clip-path:url(#clipPath1); fill:none; stroke:blue;" y2="90" />
      <line x1="504" x2="504" y1="182" style="clip-path:url(#clipPath1); fill:none; stroke:rgb(0,64,64);" y2="270" />
      <line x1="467" x2="400" y1="90" style="clip-path:url(#clipPath1); fill:none; stroke:blue;" y2="60" />
      <line x1="400" x2="290" y1="60" style="clip-path:url(#clipPath1); fill:none; stroke:blue;" y2="60" />
      <line x1="290" x2="251" y1="60" style="clip-path:url(#clipPath1); fill:none; stroke:blue;" y2="90" />
      <line x1="660" x2="657" y1="220" style="clip-path:url(#clipPath1); fill:none;" y2="219" />
      <line x1="653" x2="644" y1="216" style="clip-path:url(#clipPath1); fill:none;" y2="212" />
      <line x1="639" x2="630" y1="210" style="clip-path:url(#clipPath1); fill:none;" y2="205" />
      <line x1="626" x2="617" y1="203" style="clip-path:url(#clipPath1); fill:none;" y2="199" />
      <line x1="613" x2="604" y1="196" style="clip-path:url(#clipPath1); fill:none;" y2="192" />
      <line x1="599" x2="590" y1="190" style="clip-path:url(#clipPath1); fill:none;" y2="185" />
      <line x1="586" x2="577" y1="183" style="clip-path:url(#clipPath1); fill:none;" y2="178" />
      <line x1="572" x2="563" y1="176" style="clip-path:url(#clipPath1); fill:none;" y2="172" />
      <line x1="559" x2="550" y1="169" style="clip-path:url(#clipPath1); fill:none;" y2="165" />
      <line x1="640" x2="628" y1="411" style="clip-path:url(#clipPath1); fill:none; stroke:blue;" y2="406" />
      <line x1="640" x2="628" y1="411" style="clip-path:url(#clipPath1); fill:none; stroke:blue;" y2="416" />
      <text x="608" y="404" style="clip-path:url(#clipPath1); fill:blue; font-family:sans-serif; stroke:none;">0..1
      </text>
      <line x1="546" x2="533" y1="362" style="clip-path:url(#clipPath1); fill:none; font-family:sans-serif; stroke:blue;" y2="359" />
      <line x1="546" x2="535" y1="362" style="clip-path:url(#clipPath1); fill:none; font-family:sans-serif; stroke:blue;" y2="369" />
      <text x="425" y="372" style="clip-path:url(#clipPath1); fill:blue; font-family:sans-serif; stroke:none;">0..1
      </text>
      <line x1="640" x2="628" y1="470" style="clip-path:url(#clipPath1); fill:none; font-family:sans-serif; stroke:blue;" y2="465" />
      <line x1="640" x2="628" y1="470" style="clip-path:url(#clipPath1); fill:none; font-family:sans-serif; stroke:blue;" y2="475" />
      <text x="608" y="463" style="clip-path:url(#clipPath1); fill:blue; font-family:sans-serif; stroke:none;">0..1
      </text>
      <line x1="293" x2="288" y1="312" style="clip-path:url(#clipPath1); fill:none; font-family:sans-serif; stroke:blue;" y2="324" />
      <line x1="293" x2="298" y1="312" style="clip-path:url(#clipPath1); fill:none; font-family:sans-serif; stroke:blue;" y2="324" />
      <text x="261" y="322" style="clip-path:url(#clipPath1); fill:blue; font-family:sans-serif; stroke:none;">0..1
      </text>
      <line x1="346" x2="346" y1="390" style="clip-path:url(#clipPath1); fill:none; font-family:sans-serif; stroke:blue;" y2="377" />
      <line x1="346" x2="337" y1="390" style="clip-path:url(#clipPath1); fill:none; font-family:sans-serif; stroke:blue;" y2="381" />
      <text x="307" y="383" style="clip-path:url(#clipPath1); fill:blue; font-family:sans-serif; stroke:none;">0..1
      </text>
      <polygon points=" 251 220 245 202 257 202" style="fill:white; clip-path:url(#clipPath1); font-family:sans-serif; stroke:none;" />
      <polygon points=" 251 220 245 202 257 202" style="fill:none; clip-path:url(#clipPath1); font-family:sans-serif; stroke:rgb(0,64,64);" />
      <line x1="257" x2="251" y1="202" style="clip-path:url(#clipPath1); fill:none; font-family:sans-serif; stroke:rgb(0,64,64);" y2="220" />
      <polygon points=" 205 220 187 215 194 205" style="fill:white; clip-path:url(#clipPath1); font-family:sans-serif; stroke:none;" />
      <polygon points=" 205 220 187 215 194 205" style="fill:none; clip-path:url(#clipPath1); font-family:sans-serif; stroke:rgb(0,64,64);" />
      <line x1="194" x2="205" y1="205" style="clip-path:url(#clipPath1); fill:none; font-family:sans-serif; stroke:rgb(0,64,64);" y2="220" />
      <polygon points=" 606 270 600 252 612 252" style="fill:white; clip-path:url(#clipPath1); font-family:sans-serif; stroke:none;" />
      <polygon points=" 606 270 600 252 612 252" style="fill:none; clip-path:url(#clipPath1); font-family:sans-serif; stroke:rgb(0,64,64);" />
      <line x1="612" x2="606" y1="252" style="clip-path:url(#clipPath1); fill:none; font-family:sans-serif; stroke:rgb(0,64,64);" y2="270" />
      <line x1="131" x2="142" y1="90" style="clip-path:url(#clipPath1); fill:none; font-family:sans-serif; stroke:blue;" y2="83" />
      <line x1="131" x2="133" y1="90" style="clip-path:url(#clipPath1); fill:none; font-family:sans-serif; stroke:blue;" y2="77" />
      <text x="99" y="83" style="clip-path:url(#clipPath1); fill:blue; font-family:sans-serif; stroke:none;">0..1
      </text>
      <polygon points=" 504 270 498 252 510 252" style="fill:white; clip-path:url(#clipPath1); font-family:sans-serif; stroke:none;" />
      <polygon points=" 504 270 498 252 510 252" style="fill:none; clip-path:url(#clipPath1); font-family:sans-serif; stroke:rgb(0,64,64);" />
      <line x1="510" x2="504" y1="252" style="clip-path:url(#clipPath1); fill:none; font-family:sans-serif; stroke:rgb(0,64,64);" y2="270" />
      <line x1="251" x2="264" y1="90" style="clip-path:url(#clipPath1); fill:none; font-family:sans-serif; stroke:blue;" y2="87" />
      <line x1="251" x2="257" y1="90" style="clip-path:url(#clipPath1); fill:none; font-family:sans-serif; stroke:blue;" y2="79" />
      <text x="219" y="83" style="clip-path:url(#clipPath1); fill:blue; font-family:sans-serif; stroke:none;">0..1
      </text>
      <rect x="93" y="93" width="80" style="clip-path:url(#clipPath1); fill:navy; font-family:sans-serif; stroke:none;" height="76" />
      <rect x="90" y="90" width="80" style="clip-path:url(#clipPath1); fill:white; font-family:sans-serif; stroke:none;" height="76" />
      <rect x="90" y="90" width="80" style="clip-path:url(#clipPath1); fill:none; font-family:sans-serif; stroke:black;" height="76" />
    </g>
    <g style="font-style:italic; font-weight:bold; font-family:sans-serif;">
      <text x="95" y="101" style="clip-path:url(#clipPath3); stroke:none;">vrj::GlApp
      </text>
    </g>
    <g style="font-family:sans-serif;">
      <line x1="90" x2="170" y1="110" style="clip-path:url(#clipPath2); fill:none;" y2="110" />
      <line x1="90" x2="170" y1="133" style="clip-path:url(#clipPath2); fill:none;" y2="133" />
    </g>
    <g style="fill:navy; font-family:sans-serif; stroke:navy;">
      <rect x="213" y="93" width="80" style="clip-path:url(#clipPath1); stroke:none;" height="76" />
      <rect x="210" y="90" width="80" style="clip-path:url(#clipPath1); fill:white; stroke:none;" height="76" />
      <rect x="210" y="90" width="80" style="clip-path:url(#clipPath1); fill:none; stroke:black;" height="76" />
    </g>
    <g style="font-style:italic; font-weight:bold; font-family:sans-serif;">
      <text x="216" y="101" style="clip-path:url(#clipPath5); stroke:none;">vrj::PfApp
      </text>
    </g>
    <g style="font-family:sans-serif;">
      <line x1="210" x2="290" y1="110" style="clip-path:url(#clipPath4); fill:none;" y2="110" />
      <line x1="210" x2="290" y1="133" style="clip-path:url(#clipPath4); fill:none;" y2="133" />
    </g>
    <g style="fill:navy; font-family:sans-serif; stroke:navy;">
      <rect x="163" y="223" width="170" style="clip-path:url(#clipPath1); stroke:none;" height="89" />
      <rect x="160" y="220" width="170" style="clip-path:url(#clipPath1); fill:white; stroke:none;" height="89" />
      <rect x="160" y="220" width="170" style="clip-path:url(#clipPath1); fill:none; stroke:black;" height="89" />
    </g>
    <g style="font-family:sans-serif;">
      <text x="165" y="231" style="clip-path:url(#clipPath7); stroke:none;">jccl::ConfigChunkHandler
      </text>
      <text x="218" y="244" style="clip-path:url(#clipPath7); font-style:italic; stroke:none; font-weight:bold;">vrj::App
      </text>
    </g>
    <g style="font-family:sans-serif;">
      <line x1="160" x2="330" y1="253" style="clip-path:url(#clipPath6); fill:none;" y2="253" />
      <line x1="160" x2="330" y1="276" style="clip-path:url(#clipPath6); fill:none;" y2="276" />
    </g>
    <g style="fill:navy; font-family:sans-serif; stroke:navy;">
      <rect x="463" y="273" width="170" style="clip-path:url(#clipPath1); stroke:none;" height="89" />
      <rect x="460" y="270" width="170" style="clip-path:url(#clipPath1); fill:white; stroke:none;" height="89" />
      <rect x="460" y="270" width="170" style="clip-path:url(#clipPath1); fill:none; stroke:black;" height="89" />
    </g>
    <g style="font-family:sans-serif;">
      <text x="465" y="281" style="clip-path:url(#clipPath9); stroke:none;">jccl::ConfigChunkHandler
      </text>
      <text x="484" y="294" style="clip-path:url(#clipPath9); font-style:italic; stroke:none; font-weight:bold;">vrj::DrawManager
      </text>
    </g>
    <g style="font-family:sans-serif;">
      <line x1="460" x2="630" y1="303" style="clip-path:url(#clipPath8); fill:none;" y2="303" />
      <line x1="460" x2="630" y1="326" style="clip-path:url(#clipPath8); fill:none;" y2="326" />
    </g>
    <g style="fill:navy; font-family:sans-serif; stroke:navy;">
      <rect x="283" y="393" width="170" style="clip-path:url(#clipPath1); stroke:none;" height="89" />
      <rect x="280" y="390" width="170" style="clip-path:url(#clipPath1); fill:white; stroke:none;" height="89" />
      <rect x="280" y="390" width="170" style="clip-path:url(#clipPath1); fill:none; stroke:black;" height="89" />
    </g>
    <g style="font-family:sans-serif;">
      <text x="285" y="401" style="clip-path:url(#clipPath11); stroke:none;">jccl::ConfigChunkHandler
      </text>
      <text x="329" y="414" style="font-weight:bold; clip-path:url(#clipPath11); stroke:none;">vrj::Kernel
      </text>
    </g>
    <g style="font-family:sans-serif;">
      <line x1="280" x2="450" y1="423" style="clip-path:url(#clipPath10); fill:none;" y2="423" />
      <line x1="280" x2="450" y1="446" style="clip-path:url(#clipPath10); fill:none;" y2="446" />
    </g>
    <g style="fill:navy; font-family:sans-serif; stroke:navy;">
      <rect x="643" y="343" width="170" style="clip-path:url(#clipPath1); stroke:none;" height="89" />
      <rect x="640" y="340" width="170" style="clip-path:url(#clipPath1); fill:white; stroke:none;" height="89" />
      <rect x="640" y="340" width="170" style="clip-path:url(#clipPath1); fill:none; stroke:black;" height="89" />
    </g>
    <g style="font-family:sans-serif;">
      <text x="645" y="351" style="clip-path:url(#clipPath13); stroke:none;">jccl::ConfigChunkHandler
      </text>
      <text x="655" y="364" style="font-weight:bold; clip-path:url(#clipPath13); stroke:none;">vrj::DisplayManager
      </text>
    </g>
    <g style="font-family:sans-serif;">
      <line x1="640" x2="810" y1="373" style="clip-path:url(#clipPath12); fill:none;" y2="373" />
      <line x1="640" x2="810" y1="396" style="clip-path:url(#clipPath12); fill:none;" y2="396" />
    </g>
    <g style="fill:navy; font-family:sans-serif; stroke:navy;">
      <rect x="643" y="453" width="170" style="clip-path:url(#clipPath1); stroke:none;" height="106" />
      <rect x="640" y="450" width="170" style="clip-path:url(#clipPath1); fill:white; stroke:none;" height="106" />
      <rect x="640" y="450" width="170" style="clip-path:url(#clipPath1); fill:none; stroke:black;" height="106" />
    </g>
    <g style="font-family:sans-serif;">
      <text x="645" y="461" style="clip-path:url(#clipPath15); stroke:none;">jccl::ConfigChunkHandler
      </text>
      <text x="648" y="474" style="font-weight:bold; clip-path:url(#clipPath15); stroke:none;">gadget::InputManager
      </text>
    </g>
    <g style="font-family:sans-serif;">
      <line x1="640" x2="810" y1="483" style="clip-path:url(#clipPath14); fill:none;" y2="483" />
      <line x1="640" x2="810" y1="506" style="clip-path:url(#clipPath14); fill:none;" y2="506" />
      <line x1="640" x2="810" y1="535" style="clip-path:url(#clipPath14); fill:none;" y2="535" />
    </g>
    <g style="font-family:sans-serif;">
      <polygon style="fill:none; clip-path:url(#clipPath16);" points=" 803 547 804 547 804 545 805 544 805 544 806 545 806 547 807 547 807 550 803 550 803 547" />
      <line x1="803" x2="807" y1="547" style="clip-path:url(#clipPath16); fill:none;" y2="547" />
    </g>
    <g style="fill:navy; font-family:sans-serif; stroke:navy;">
      <rect x="73" y="393" width="148" style="clip-path:url(#clipPath1); stroke:none;" height="93" />
      <rect x="70" y="390" width="148" style="clip-path:url(#clipPath1); fill:white; stroke:none;" height="93" />
      <rect x="70" y="390" width="148" style="clip-path:url(#clipPath1); fill:none; stroke:black;" height="93" />
    </g>
    <g style="font-weight:bold; font-family:sans-serif;">
      <text x="75" y="401" style="clip-path:url(#clipPath18); stroke:none;">jccl::ConfigManager
      </text>
    </g>
    <g style="font-family:sans-serif;">
      <line x1="70" x2="218" y1="410" style="clip-path:url(#clipPath17); fill:none;" y2="410" />
      <line x1="70" x2="218" y1="433" style="clip-path:url(#clipPath17); fill:none;" y2="433" />
      <line x1="70" x2="218" y1="462" style="clip-path:url(#clipPath17); fill:none;" y2="462" />
    </g>
    <g style="font-family:sans-serif;">
      <polygon style="fill:none; clip-path:url(#clipPath19);" points=" 211 474 212 474 212 472 213 471 213 471 214 472 214 474 215 474 215 477 211 477 211 474" />
      <line x1="211" x2="215" y1="474" style="clip-path:url(#clipPath19); fill:none;" y2="474" />
    </g>
    <g style="fill:navy; font-family:sans-serif; stroke:navy;">
      <rect x="403" y="93" width="145" style="clip-path:url(#clipPath1); stroke:none;" height="89" />
      <rect x="400" y="90" width="145" style="clip-path:url(#clipPath1); fill:white; stroke:none;" height="89" />
      <rect x="400" y="90" width="145" style="clip-path:url(#clipPath1); fill:none; stroke:black;" height="89" />
    </g>
    <g style="font-weight:bold; font-family:sans-serif;">
      <text x="405" y="101" style="clip-path:url(#clipPath21); stroke:none;">vrj::PfDrawManager
      </text>
    </g>
    <g style="font-family:sans-serif;">
      <line x1="400" x2="545" y1="110" style="clip-path:url(#clipPath20); fill:none;" y2="110" />
      <line x1="400" x2="545" y1="133" style="clip-path:url(#clipPath20); fill:none;" y2="133" />
      <line x1="400" x2="545" y1="162" style="clip-path:url(#clipPath20); fill:none;" y2="162" />
    </g>
    <g style="fill:navy; font-family:sans-serif; stroke:navy;">
      <rect x="583" y="93" width="146" style="clip-path:url(#clipPath1); stroke:none;" height="87" />
      <rect x="580" y="90" width="146" style="clip-path:url(#clipPath1); fill:white; stroke:none;" height="87" />
      <rect x="580" y="90" width="146" style="clip-path:url(#clipPath1); fill:none; stroke:black;" height="87" />
    </g>
    <g style="font-weight:bold; font-family:sans-serif;">
      <text x="585" y="101" style="clip-path:url(#clipPath23); stroke:none;">vrj::GlDrawManager
      </text>
    </g>
    <g style="font-family:sans-serif;">
      <line x1="580" x2="726" y1="110" style="clip-path:url(#clipPath22); fill:none;" y2="110" />
      <line x1="580" x2="726" y1="133" style="clip-path:url(#clipPath22); fill:none;" y2="133" />
    </g>
    <g style="fill:navy; font-family:sans-serif; stroke:navy;">
      <polygon style="clip-path:url(#clipPath1); stroke:none;" points=" 663 213 791 213 806 228 806 251 663 251" />
      <polygon style="fill:white; clip-path:url(#clipPath1); stroke:none;" points=" 660 210 788 210 803 225 803 248 660 248" />
      <line x1="660" x2="788" y1="210" style="clip-path:url(#clipPath1); fill:none; stroke:black;" y2="210" />
      <line x1="788" x2="803" y1="210" style="clip-path:url(#clipPath1); fill:none; stroke:black;" y2="225" />
      <line x1="803" x2="803" y1="225" style="clip-path:url(#clipPath1); fill:none; stroke:black;" y2="248" />
      <line x1="803" x2="660" y1="248" style="clip-path:url(#clipPath1); fill:none; stroke:black;" y2="248" />
      <line x1="660" x2="660" y1="248" style="clip-path:url(#clipPath1); fill:none; stroke:black;" y2="210" />
      <line x1="788" x2="788" y1="210" style="clip-path:url(#clipPath1); fill:none; stroke:black;" y2="225" />
      <line x1="788" x2="803" y1="225" style="clip-path:url(#clipPath1); fill:none; stroke:black;" y2="225" />
    </g>
    <g style="font-family:sans-serif;">
      <text x="668" y="224" style="clip-path:url(#clipPath24); stroke:none;">External Managers
      </text>
    </g>
    <g style="fill:navy; font-family:sans-serif; stroke:navy;">
      <polygon style="clip-path:url(#clipPath1); stroke:none;" points=" 863 423 988 423 1003 438 1003 451 863 451" />
      <polygon style="fill:white; clip-path:url(#clipPath1); stroke:none;" points=" 860 420 985 420 1000 435 1000 448 860 448" />
      <line x1="860" x2="985" y1="420" style="clip-path:url(#clipPath1); fill:none; stroke:black;" y2="420" />
      <line x1="985" x2="1000" y1="420" style="clip-path:url(#clipPath1); fill:none; stroke:black;" y2="435" />
      <line x1="1000" x2="1000" y1="435" style="clip-path:url(#clipPath1); fill:none; stroke:black;" y2="448" />
      <line x1="1000" x2="860" y1="448" style="clip-path:url(#clipPath1); fill:none; stroke:black;" y2="448" />
      <line x1="860" x2="860" y1="448" style="clip-path:url(#clipPath1); fill:none; stroke:black;" y2="420" />
      <line x1="985" x2="985" y1="420" style="clip-path:url(#clipPath1); fill:none; stroke:black;" y2="435" />
      <line x1="985" x2="1000" y1="435" style="clip-path:url(#clipPath1); fill:none; stroke:black;" y2="435" />
    </g>
    <g style="font-family:sans-serif;">
      <text x="868" y="434" style="clip-path:url(#clipPath25); stroke:none;">Internal Managers
      </text>
    </g>
  </g>
</svg>
