<?xml version="1.0" encoding="UTF-8"?>

<!DOCTYPE svg PUBLIC '-//W3C//DTD SVG 20001102//EN' 'http://www.w3.org/TR/2000/CR-SVG-20001102/DTD/svg-20001102.dtd'>
<svg style="fill-opacity:1; color-interpolation:sRGB; color-rendering:auto; text-rendering:auto; stroke:black; stroke-linecap:square; stroke-miterlimit:10; stroke-opacity:1; shape-rendering:auto; fill:black; stroke-dasharray:none; font-weight:normal; stroke-width:1; font-family:&apos;Lucida Sans&apos;; font-style:normal; stroke-linejoin:miter; font-size:12; image-rendering:auto; stroke-dashoffset:0;" width="948" height="662">
  <!--Generated by the Batik Graphics2D SVG Generator-->
  <defs id="genericDefs" />
  <g>
    <defs id="defs1">
      <clipPath clipPathUnits="userSpaceOnUse" id="clipPath1">
        <path d="M0 0 L948 0 L948 662 L0 662 L0 0 Z" />
      </clipPath>
      <clipPath clipPathUnits="userSpaceOnUse" id="clipPath2">
        <path d="M74 50 L74 116 L189 116 L189 50 Z" />
      </clipPath>
      <clipPath clipPathUnits="userSpaceOnUse" id="clipPath3">
        <path d="M74 50 L74 106 L189 106 L189 50 Z" />
      </clipPath>
      <clipPath clipPathUnits="userSpaceOnUse" id="clipPath4">
        <path d="M240 50 L240 116 L349 116 L349 50 Z" />
      </clipPath>
      <clipPath clipPathUnits="userSpaceOnUse" id="clipPath5">
        <path d="M240 50 L240 106 L349 106 L349 50 Z" />
      </clipPath>
      <clipPath clipPathUnits="userSpaceOnUse" id="clipPath6">
        <path d="M306 180 L306 562 L321 562 L321 180 Z" />
      </clipPath>
      <clipPath clipPathUnits="userSpaceOnUse" id="clipPath7">
        <path d="M315 390 L315 552 L330 552 L330 390 Z" />
      </clipPath>
      <clipPath clipPathUnits="userSpaceOnUse" id="clipPath8">
        <path d="M324 411 L324 511 L339 511 L339 411 Z" />
      </clipPath>
      <clipPath clipPathUnits="userSpaceOnUse" id="clipPath9">
        <path d="M434 50 L434 116 L585 116 L585 50 Z" />
      </clipPath>
      <clipPath clipPathUnits="userSpaceOnUse" id="clipPath10">
        <path d="M434 50 L434 106 L585 106 L585 50 Z" />
      </clipPath>
      <clipPath clipPathUnits="userSpaceOnUse" id="clipPath11">
        <path d="M610 50 L610 116 L759 116 L759 50 Z" />
      </clipPath>
      <clipPath clipPathUnits="userSpaceOnUse" id="clipPath12">
        <path d="M610 50 L610 106 L759 106 L759 50 Z" />
      </clipPath>
      <clipPath clipPathUnits="userSpaceOnUse" id="clipPath13">
        <path d="M687 247 L687 351 L702 351 L702 247 Z" />
      </clipPath>
      <clipPath clipPathUnits="userSpaceOnUse" id="clipPath14">
        <path d="M840 50 L840 116 L935 116 L935 50 Z" />
      </clipPath>
      <clipPath clipPathUnits="userSpaceOnUse" id="clipPath15">
        <path d="M840 50 L840 106 L935 106 L935 50 Z" />
      </clipPath>
    </defs>
    <g style="fill:navy; stroke:navy;">
      <rect x="77" y="53" width="114" style="clip-path:url(#clipPath1); stroke:none;" height="65" />
      <rect x="74" y="50" width="114" style="clip-path:url(#clipPath1); fill:white; stroke:none;" height="65" />
      <rect x="74" y="50" width="114" style="clip-path:url(#clipPath1); fill:none; stroke:black;" height="65" />
    </g>
    <g style="font-weight:bold; font-family:sans-serif;">
      <text x="95" y="60" style="clip-path:url(#clipPath3); stroke:none;">configMgr
      </text>
      <line x1="95" x2="167" y1="62" style="clip-path:url(#clipPath3); fill:none;" y2="62" />
      <text x="78" y="73" style="font-weight:normal; clip-path:url(#clipPath3); stroke:none;">vjConfigManager
      </text>
    </g>
    <g>
      <line x1="132" x2="132" y1="118" style="clip-path:url(#clipPath1); fill:none;" y2="128" />
      <line x1="132" x2="132" y1="133" style="clip-path:url(#clipPath1); fill:none;" y2="143" />
      <line x1="132" x2="132" y1="148" style="clip-path:url(#clipPath1); fill:none;" y2="158" />
      <line x1="132" x2="132" y1="163" style="clip-path:url(#clipPath1); fill:none;" y2="173" />
      <line x1="132" x2="132" y1="178" style="clip-path:url(#clipPath1); fill:none;" y2="188" />
      <line x1="132" x2="132" y1="193" style="clip-path:url(#clipPath1); fill:none;" y2="203" />
      <line x1="132" x2="132" y1="208" style="clip-path:url(#clipPath1); fill:none;" y2="218" />
      <line x1="132" x2="132" y1="223" style="clip-path:url(#clipPath1); fill:none;" y2="233" />
      <line x1="132" x2="132" y1="238" style="clip-path:url(#clipPath1); fill:none;" y2="248" />
      <line x1="132" x2="132" y1="253" style="clip-path:url(#clipPath1); fill:none;" y2="263" />
      <line x1="132" x2="132" y1="268" style="clip-path:url(#clipPath1); fill:none;" y2="278" />
      <line x1="132" x2="132" y1="283" style="clip-path:url(#clipPath1); fill:none;" y2="293" />
      <line x1="132" x2="132" y1="298" style="clip-path:url(#clipPath1); fill:none;" y2="308" />
      <line x1="132" x2="132" y1="313" style="clip-path:url(#clipPath1); fill:none;" y2="323" />
      <line x1="132" x2="132" y1="328" style="clip-path:url(#clipPath1); fill:none;" y2="338" />
      <line x1="132" x2="132" y1="343" style="clip-path:url(#clipPath1); fill:none;" y2="353" />
      <line x1="132" x2="132" y1="358" style="clip-path:url(#clipPath1); fill:none;" y2="368" />
      <line x1="132" x2="132" y1="373" style="clip-path:url(#clipPath1); fill:none;" y2="383" />
      <line x1="132" x2="132" y1="388" style="clip-path:url(#clipPath1); fill:none;" y2="398" />
      <line x1="132" x2="132" y1="403" style="clip-path:url(#clipPath1); fill:none;" y2="413" />
      <line x1="132" x2="132" y1="418" style="clip-path:url(#clipPath1); fill:none;" y2="428" />
      <line x1="132" x2="132" y1="433" style="clip-path:url(#clipPath1); fill:none;" y2="443" />
      <line x1="132" x2="132" y1="448" style="clip-path:url(#clipPath1); fill:none;" y2="458" />
      <line x1="132" x2="132" y1="463" style="clip-path:url(#clipPath1); fill:none;" y2="473" />
      <line x1="132" x2="132" y1="478" style="clip-path:url(#clipPath1); fill:none;" y2="488" />
      <line x1="132" x2="132" y1="493" style="clip-path:url(#clipPath1); fill:none;" y2="503" />
      <line x1="132" x2="132" y1="508" style="clip-path:url(#clipPath1); fill:none;" y2="518" />
      <line x1="132" x2="132" y1="523" style="clip-path:url(#clipPath1); fill:none;" y2="533" />
      <line x1="132" x2="132" y1="538" style="clip-path:url(#clipPath1); fill:none;" y2="548" />
      <line x1="132" x2="132" y1="553" style="clip-path:url(#clipPath1); fill:none;" y2="563" />
      <line x1="132" x2="132" y1="568" style="clip-path:url(#clipPath1); fill:none;" y2="578" />
      <line x1="132" x2="132" y1="583" style="clip-path:url(#clipPath1); fill:none;" y2="593" />
      <line x1="132" x2="132" y1="598" style="clip-path:url(#clipPath1); fill:none;" y2="608" />
      <line x1="132" x2="132" y1="613" style="clip-path:url(#clipPath1); fill:none;" y2="623" />
      <line x1="132" x2="132" y1="628" style="clip-path:url(#clipPath1); fill:none;" y2="638" />
      <line x1="132" x2="132" y1="643" style="clip-path:url(#clipPath1); fill:none;" y2="651" />
      <rect x="125" y="199" width="14" style="clip-path:url(#clipPath1); fill:none;" height="20" />
      <rect x="126" y="200" width="13" style="clip-path:url(#clipPath1); fill:white; stroke:none;" height="19" />
      <rect x="125" y="521" width="14" style="clip-path:url(#clipPath1); fill:none;" height="20" />
      <rect x="126" y="522" width="13" style="clip-path:url(#clipPath1); fill:white; stroke:none;" height="19" />
      <rect x="243" y="53" width="108" style="clip-path:url(#clipPath1); fill:navy; stroke:none;" height="65" />
      <rect x="240" y="50" width="108" style="clip-path:url(#clipPath1); fill:white; stroke:none;" height="65" />
      <rect x="240" y="50" width="108" style="clip-path:url(#clipPath1); fill:none;" height="65" />
    </g>
    <g style="font-weight:bold; font-family:sans-serif;">
      <text x="272" y="60" style="clip-path:url(#clipPath5); stroke:none;">kernel
      </text>
      <line x1="272" x2="316" y1="62" style="clip-path:url(#clipPath5); fill:none;" y2="62" />
      <text x="269" y="73" style="font-weight:normal; clip-path:url(#clipPath5); stroke:none;">vjKernel
      </text>
    </g>
    <g>
      <rect x="288" y="119" width="14" style="clip-path:url(#clipPath1); fill:none;" height="531" />
      <rect x="289" y="120" width="13" style="clip-path:url(#clipPath1); fill:white; stroke:none;" height="530" />
      <rect x="297" y="145" width="14" style="clip-path:url(#clipPath1); fill:none;" height="426" />
      <rect x="298" y="146" width="13" style="clip-path:url(#clipPath1); fill:white; stroke:none;" height="425" />
      <rect x="306" y="180" width="14" style="clip-path:url(#clipPath1); fill:none;" height="381" />
      <rect x="307" y="181" width="13" style="clip-path:url(#clipPath1); fill:rgb(178,178,178); stroke:none;" height="380" />
      <rect x="315" y="390" width="14" style="clip-path:url(#clipPath1); fill:none;" height="161" />
      <rect x="316" y="391" width="13" style="clip-path:url(#clipPath1); fill:rgb(178,178,178); stroke:none;" height="160" />
      <rect x="324" y="411" width="14" style="clip-path:url(#clipPath1); fill:none;" height="99" />
      <rect x="325" y="412" width="13" style="clip-path:url(#clipPath1); fill:rgb(178,178,178); stroke:none;" height="98" />
    </g>
    <g style="fill:rgb(50,50,0); font-family:sans-serif; stroke:rgb(50,50,0);">
      <text x="326" y="175" style="clip-path:url(#clipPath6); stroke:none;">while(pending chunks)
      </text>
    </g>
    <g style="fill:rgb(50,50,0); font-family:sans-serif; stroke:rgb(50,50,0);">
      <text x="335" y="385" style="clip-path:url(#clipPath7); stroke:none;">if(depsSatisfied)
      </text>
    </g>
    <g style="fill:rgb(50,50,0); font-family:sans-serif; stroke:rgb(50,50,0);">
      <text x="344" y="406" style="clip-path:url(#clipPath8); stroke:none;">for(all handlers)
      </text>
    </g>
    <g style="fill:navy; stroke:navy;">
      <rect x="437" y="53" width="150" style="clip-path:url(#clipPath1); stroke:none;" height="65" />
      <rect x="434" y="50" width="150" style="clip-path:url(#clipPath1); fill:white; stroke:none;" height="65" />
      <rect x="434" y="50" width="150" style="clip-path:url(#clipPath1); fill:none; stroke:black;" height="65" />
    </g>
    <g style="font-weight:bold; font-family:sans-serif;">
      <text x="460" y="60" style="clip-path:url(#clipPath10); stroke:none;">chunkHandler
      </text>
      <line x1="460" x2="557" y1="62" style="clip-path:url(#clipPath10); fill:none;" y2="62" />
      <text x="438" y="73" style="font-weight:normal; clip-path:url(#clipPath10); stroke:none;">vjConfigChunkHandler
      </text>
    </g>
    <g>
      <line x1="510" x2="510" y1="118" style="clip-path:url(#clipPath1); fill:none;" y2="128" />
      <line x1="510" x2="510" y1="133" style="clip-path:url(#clipPath1); fill:none;" y2="143" />
      <line x1="510" x2="510" y1="148" style="clip-path:url(#clipPath1); fill:none;" y2="158" />
      <line x1="510" x2="510" y1="163" style="clip-path:url(#clipPath1); fill:none;" y2="173" />
      <line x1="510" x2="510" y1="178" style="clip-path:url(#clipPath1); fill:none;" y2="188" />
      <line x1="510" x2="510" y1="193" style="clip-path:url(#clipPath1); fill:none;" y2="203" />
      <line x1="510" x2="510" y1="208" style="clip-path:url(#clipPath1); fill:none;" y2="218" />
      <line x1="510" x2="510" y1="223" style="clip-path:url(#clipPath1); fill:none;" y2="233" />
      <line x1="510" x2="510" y1="238" style="clip-path:url(#clipPath1); fill:none;" y2="248" />
      <line x1="510" x2="510" y1="253" style="clip-path:url(#clipPath1); fill:none;" y2="263" />
      <line x1="510" x2="510" y1="268" style="clip-path:url(#clipPath1); fill:none;" y2="278" />
      <line x1="510" x2="510" y1="283" style="clip-path:url(#clipPath1); fill:none;" y2="293" />
      <line x1="510" x2="510" y1="298" style="clip-path:url(#clipPath1); fill:none;" y2="308" />
      <line x1="510" x2="510" y1="313" style="clip-path:url(#clipPath1); fill:none;" y2="323" />
      <line x1="510" x2="510" y1="328" style="clip-path:url(#clipPath1); fill:none;" y2="338" />
      <line x1="510" x2="510" y1="343" style="clip-path:url(#clipPath1); fill:none;" y2="353" />
      <line x1="510" x2="510" y1="358" style="clip-path:url(#clipPath1); fill:none;" y2="368" />
      <line x1="510" x2="510" y1="373" style="clip-path:url(#clipPath1); fill:none;" y2="383" />
      <line x1="510" x2="510" y1="388" style="clip-path:url(#clipPath1); fill:none;" y2="398" />
      <line x1="510" x2="510" y1="403" style="clip-path:url(#clipPath1); fill:none;" y2="413" />
      <line x1="510" x2="510" y1="418" style="clip-path:url(#clipPath1); fill:none;" y2="428" />
      <line x1="510" x2="510" y1="433" style="clip-path:url(#clipPath1); fill:none;" y2="443" />
      <line x1="510" x2="510" y1="448" style="clip-path:url(#clipPath1); fill:none;" y2="458" />
      <line x1="510" x2="510" y1="463" style="clip-path:url(#clipPath1); fill:none;" y2="473" />
      <line x1="510" x2="510" y1="478" style="clip-path:url(#clipPath1); fill:none;" y2="488" />
      <line x1="510" x2="510" y1="493" style="clip-path:url(#clipPath1); fill:none;" y2="503" />
      <line x1="510" x2="510" y1="508" style="clip-path:url(#clipPath1); fill:none;" y2="518" />
      <line x1="510" x2="510" y1="523" style="clip-path:url(#clipPath1); fill:none;" y2="533" />
      <line x1="510" x2="510" y1="538" style="clip-path:url(#clipPath1); fill:none;" y2="548" />
      <line x1="510" x2="510" y1="553" style="clip-path:url(#clipPath1); fill:none;" y2="563" />
      <line x1="510" x2="510" y1="568" style="clip-path:url(#clipPath1); fill:none;" y2="578" />
      <line x1="510" x2="510" y1="583" style="clip-path:url(#clipPath1); fill:none;" y2="593" />
      <line x1="510" x2="510" y1="598" style="clip-path:url(#clipPath1); fill:none;" y2="608" />
      <line x1="510" x2="510" y1="613" style="clip-path:url(#clipPath1); fill:none;" y2="623" />
      <line x1="510" x2="510" y1="628" style="clip-path:url(#clipPath1); fill:none;" y2="638" />
      <line x1="510" x2="510" y1="643" style="clip-path:url(#clipPath1); fill:none;" y2="651" />
      <rect x="503" y="430" width="14" style="clip-path:url(#clipPath1); fill:none;" height="20" />
      <rect x="504" y="431" width="13" style="clip-path:url(#clipPath1); fill:white; stroke:none;" height="19" />
      <rect x="503" y="480" width="14" style="clip-path:url(#clipPath1); fill:none;" height="20" />
      <rect x="504" y="481" width="13" style="clip-path:url(#clipPath1); fill:white; stroke:none;" height="19" />
      <rect x="613" y="53" width="148" style="clip-path:url(#clipPath1); fill:navy; stroke:none;" height="65" />
      <rect x="610" y="50" width="148" style="clip-path:url(#clipPath1); fill:white; stroke:none;" height="65" />
      <rect x="610" y="50" width="148" style="clip-path:url(#clipPath1); fill:none;" height="65" />
    </g>
    <g style="font-weight:bold; font-family:sans-serif;">
      <text x="641" y="60" style="clip-path:url(#clipPath12); stroke:none;">depManager
      </text>
      <line x1="641" x2="727" y1="62" style="clip-path:url(#clipPath12); fill:none;" y2="62" />
      <text x="614" y="73" style="font-weight:normal; clip-path:url(#clipPath12); stroke:none;">vjDependencyManager
      </text>
    </g>
    <g>
      <line x1="685" x2="685" y1="118" style="clip-path:url(#clipPath1); fill:none;" y2="128" />
      <line x1="685" x2="685" y1="133" style="clip-path:url(#clipPath1); fill:none;" y2="143" />
      <line x1="685" x2="685" y1="148" style="clip-path:url(#clipPath1); fill:none;" y2="158" />
      <line x1="685" x2="685" y1="163" style="clip-path:url(#clipPath1); fill:none;" y2="173" />
      <line x1="685" x2="685" y1="178" style="clip-path:url(#clipPath1); fill:none;" y2="188" />
      <line x1="685" x2="685" y1="193" style="clip-path:url(#clipPath1); fill:none;" y2="203" />
      <line x1="685" x2="685" y1="208" style="clip-path:url(#clipPath1); fill:none;" y2="218" />
      <line x1="685" x2="685" y1="223" style="clip-path:url(#clipPath1); fill:none;" y2="233" />
      <line x1="685" x2="685" y1="238" style="clip-path:url(#clipPath1); fill:none;" y2="248" />
      <line x1="685" x2="685" y1="253" style="clip-path:url(#clipPath1); fill:none;" y2="263" />
      <line x1="685" x2="685" y1="268" style="clip-path:url(#clipPath1); fill:none;" y2="278" />
      <line x1="685" x2="685" y1="283" style="clip-path:url(#clipPath1); fill:none;" y2="293" />
      <line x1="685" x2="685" y1="298" style="clip-path:url(#clipPath1); fill:none;" y2="308" />
      <line x1="685" x2="685" y1="313" style="clip-path:url(#clipPath1); fill:none;" y2="323" />
      <line x1="685" x2="685" y1="328" style="clip-path:url(#clipPath1); fill:none;" y2="338" />
      <line x1="685" x2="685" y1="343" style="clip-path:url(#clipPath1); fill:none;" y2="353" />
      <line x1="685" x2="685" y1="358" style="clip-path:url(#clipPath1); fill:none;" y2="368" />
      <line x1="685" x2="685" y1="373" style="clip-path:url(#clipPath1); fill:none;" y2="383" />
      <line x1="685" x2="685" y1="388" style="clip-path:url(#clipPath1); fill:none;" y2="398" />
      <line x1="685" x2="685" y1="403" style="clip-path:url(#clipPath1); fill:none;" y2="413" />
      <line x1="685" x2="685" y1="418" style="clip-path:url(#clipPath1); fill:none;" y2="428" />
      <line x1="685" x2="685" y1="433" style="clip-path:url(#clipPath1); fill:none;" y2="443" />
      <line x1="685" x2="685" y1="448" style="clip-path:url(#clipPath1); fill:none;" y2="458" />
      <line x1="685" x2="685" y1="463" style="clip-path:url(#clipPath1); fill:none;" y2="473" />
      <line x1="685" x2="685" y1="478" style="clip-path:url(#clipPath1); fill:none;" y2="488" />
      <line x1="685" x2="685" y1="493" style="clip-path:url(#clipPath1); fill:none;" y2="503" />
      <line x1="685" x2="685" y1="508" style="clip-path:url(#clipPath1); fill:none;" y2="518" />
      <line x1="685" x2="685" y1="523" style="clip-path:url(#clipPath1); fill:none;" y2="533" />
      <line x1="685" x2="685" y1="538" style="clip-path:url(#clipPath1); fill:none;" y2="548" />
      <line x1="685" x2="685" y1="553" style="clip-path:url(#clipPath1); fill:none;" y2="563" />
      <line x1="685" x2="685" y1="568" style="clip-path:url(#clipPath1); fill:none;" y2="578" />
      <line x1="685" x2="685" y1="583" style="clip-path:url(#clipPath1); fill:none;" y2="593" />
      <line x1="685" x2="685" y1="598" style="clip-path:url(#clipPath1); fill:none;" y2="608" />
      <line x1="685" x2="685" y1="613" style="clip-path:url(#clipPath1); fill:none;" y2="623" />
      <line x1="685" x2="685" y1="628" style="clip-path:url(#clipPath1); fill:none;" y2="638" />
      <line x1="685" x2="685" y1="643" style="clip-path:url(#clipPath1); fill:none;" y2="651" />
      <rect x="678" y="231" width="14" style="clip-path:url(#clipPath1); fill:none;" height="129" />
      <rect x="679" y="232" width="13" style="clip-path:url(#clipPath1); fill:white; stroke:none;" height="128" />
      <rect x="687" y="247" width="14" style="clip-path:url(#clipPath1); fill:none;" height="103" />
      <rect x="688" y="248" width="13" style="clip-path:url(#clipPath1); fill:rgb(178,178,178); stroke:none;" height="102" />
    </g>
    <g style="fill:rgb(50,50,0); font-family:sans-serif; stroke:rgb(50,50,0);">
      <text x="707" y="242" style="clip-path:url(#clipPath13); stroke:none;">for(all checkers)
      </text>
    </g>
    <g style="fill:navy; stroke:navy;">
      <rect x="843" y="53" width="94" style="clip-path:url(#clipPath1); stroke:none;" height="65" />
      <rect x="840" y="50" width="94" style="clip-path:url(#clipPath1); fill:white; stroke:none;" height="65" />
      <rect x="840" y="50" width="94" style="clip-path:url(#clipPath1); fill:none; stroke:black;" height="65" />
    </g>
    <g style="font-weight:bold; font-family:sans-serif;">
      <text x="846" y="60" style="clip-path:url(#clipPath15); stroke:none;">depChecker
      </text>
      <line x1="846" x2="927" y1="62" style="clip-path:url(#clipPath15); fill:none;" y2="62" />
      <text x="844" y="73" style="font-weight:normal; clip-path:url(#clipPath15); stroke:none;">vjDepChecker
      </text>
    </g>
    <g>
      <line x1="888" x2="888" y1="118" style="clip-path:url(#clipPath1); fill:none;" y2="128" />
      <line x1="888" x2="888" y1="133" style="clip-path:url(#clipPath1); fill:none;" y2="143" />
      <line x1="888" x2="888" y1="148" style="clip-path:url(#clipPath1); fill:none;" y2="158" />
      <line x1="888" x2="888" y1="163" style="clip-path:url(#clipPath1); fill:none;" y2="173" />
      <line x1="888" x2="888" y1="178" style="clip-path:url(#clipPath1); fill:none;" y2="188" />
      <line x1="888" x2="888" y1="193" style="clip-path:url(#clipPath1); fill:none;" y2="203" />
      <line x1="888" x2="888" y1="208" style="clip-path:url(#clipPath1); fill:none;" y2="218" />
      <line x1="888" x2="888" y1="223" style="clip-path:url(#clipPath1); fill:none;" y2="233" />
      <line x1="888" x2="888" y1="238" style="clip-path:url(#clipPath1); fill:none;" y2="248" />
      <line x1="888" x2="888" y1="253" style="clip-path:url(#clipPath1); fill:none;" y2="263" />
      <line x1="888" x2="888" y1="268" style="clip-path:url(#clipPath1); fill:none;" y2="278" />
      <line x1="888" x2="888" y1="283" style="clip-path:url(#clipPath1); fill:none;" y2="293" />
      <line x1="888" x2="888" y1="298" style="clip-path:url(#clipPath1); fill:none;" y2="308" />
      <line x1="888" x2="888" y1="313" style="clip-path:url(#clipPath1); fill:none;" y2="323" />
      <line x1="888" x2="888" y1="328" style="clip-path:url(#clipPath1); fill:none;" y2="338" />
      <line x1="888" x2="888" y1="343" style="clip-path:url(#clipPath1); fill:none;" y2="353" />
      <line x1="888" x2="888" y1="358" style="clip-path:url(#clipPath1); fill:none;" y2="368" />
      <line x1="888" x2="888" y1="373" style="clip-path:url(#clipPath1); fill:none;" y2="383" />
      <line x1="888" x2="888" y1="388" style="clip-path:url(#clipPath1); fill:none;" y2="398" />
      <line x1="888" x2="888" y1="403" style="clip-path:url(#clipPath1); fill:none;" y2="413" />
      <line x1="888" x2="888" y1="418" style="clip-path:url(#clipPath1); fill:none;" y2="428" />
      <line x1="888" x2="888" y1="433" style="clip-path:url(#clipPath1); fill:none;" y2="443" />
      <line x1="888" x2="888" y1="448" style="clip-path:url(#clipPath1); fill:none;" y2="458" />
      <line x1="888" x2="888" y1="463" style="clip-path:url(#clipPath1); fill:none;" y2="473" />
      <line x1="888" x2="888" y1="478" style="clip-path:url(#clipPath1); fill:none;" y2="488" />
      <line x1="888" x2="888" y1="493" style="clip-path:url(#clipPath1); fill:none;" y2="503" />
      <line x1="888" x2="888" y1="508" style="clip-path:url(#clipPath1); fill:none;" y2="518" />
      <line x1="888" x2="888" y1="523" style="clip-path:url(#clipPath1); fill:none;" y2="533" />
      <line x1="888" x2="888" y1="538" style="clip-path:url(#clipPath1); fill:none;" y2="548" />
      <line x1="888" x2="888" y1="553" style="clip-path:url(#clipPath1); fill:none;" y2="563" />
      <line x1="888" x2="888" y1="568" style="clip-path:url(#clipPath1); fill:none;" y2="578" />
      <line x1="888" x2="888" y1="583" style="clip-path:url(#clipPath1); fill:none;" y2="593" />
      <line x1="888" x2="888" y1="598" style="clip-path:url(#clipPath1); fill:none;" y2="608" />
      <line x1="888" x2="888" y1="613" style="clip-path:url(#clipPath1); fill:none;" y2="623" />
      <line x1="888" x2="888" y1="628" style="clip-path:url(#clipPath1); fill:none;" y2="638" />
      <line x1="888" x2="888" y1="643" style="clip-path:url(#clipPath1); fill:none;" y2="651" />
      <rect x="881" y="270" width="14" style="clip-path:url(#clipPath1); fill:none;" height="20" />
      <rect x="882" y="271" width="13" style="clip-path:url(#clipPath1); fill:white; stroke:none;" height="19" />
      <rect x="881" y="320" width="14" style="clip-path:url(#clipPath1); fill:none;" height="20" />
      <rect x="882" y="321" width="13" style="clip-path:url(#clipPath1); fill:white; stroke:none;" height="19" />
      <line x1="701" x2="881" y1="320" style="clip-path:url(#clipPath1); fill:none; stroke:rgb(50,50,0);" y2="320" />
      <line x1="881" x2="871" y1="340" style="clip-path:url(#clipPath1); fill:none; stroke:rgb(50,50,0);" y2="340" />
      <line x1="866" x2="856" y1="340" style="clip-path:url(#clipPath1); fill:none; stroke:rgb(50,50,0);" y2="340" />
      <line x1="851" x2="841" y1="340" style="clip-path:url(#clipPath1); fill:none; stroke:rgb(50,50,0);" y2="340" />
      <line x1="836" x2="826" y1="340" style="clip-path:url(#clipPath1); fill:none; stroke:rgb(50,50,0);" y2="340" />
      <line x1="821" x2="811" y1="340" style="clip-path:url(#clipPath1); fill:none; stroke:rgb(50,50,0);" y2="340" />
      <line x1="806" x2="796" y1="340" style="clip-path:url(#clipPath1); fill:none; stroke:rgb(50,50,0);" y2="340" />
      <line x1="791" x2="781" y1="340" style="clip-path:url(#clipPath1); fill:none; stroke:rgb(50,50,0);" y2="340" />
      <line x1="776" x2="766" y1="340" style="clip-path:url(#clipPath1); fill:none; stroke:rgb(50,50,0);" y2="340" />
      <line x1="761" x2="751" y1="340" style="clip-path:url(#clipPath1); fill:none; stroke:rgb(50,50,0);" y2="340" />
      <line x1="746" x2="736" y1="340" style="clip-path:url(#clipPath1); fill:none; stroke:rgb(50,50,0);" y2="340" />
      <line x1="731" x2="721" y1="340" style="clip-path:url(#clipPath1); fill:none; stroke:rgb(50,50,0);" y2="340" />
      <line x1="716" x2="706" y1="340" style="clip-path:url(#clipPath1); fill:none; stroke:rgb(50,50,0);" y2="340" />
      <line x1="701" x2="701" y1="340" style="clip-path:url(#clipPath1); fill:none; stroke:rgb(50,50,0);" y2="340" />
      <line x1="701" x2="713" y1="340" style="clip-path:url(#clipPath1); fill:none;" y2="343" />
      <line x1="701" x2="713" y1="340" style="clip-path:url(#clipPath1); fill:none;" y2="337" />
      <line x1="701" x2="881" y1="270" style="clip-path:url(#clipPath1); fill:none; stroke:rgb(50,50,0);" y2="270" />
      <line x1="881" x2="871" y1="290" style="clip-path:url(#clipPath1); fill:none; stroke:rgb(50,50,0);" y2="290" />
      <line x1="866" x2="856" y1="290" style="clip-path:url(#clipPath1); fill:none; stroke:rgb(50,50,0);" y2="290" />
      <line x1="851" x2="841" y1="290" style="clip-path:url(#clipPath1); fill:none; stroke:rgb(50,50,0);" y2="290" />
      <line x1="836" x2="826" y1="290" style="clip-path:url(#clipPath1); fill:none; stroke:rgb(50,50,0);" y2="290" />
      <line x1="821" x2="811" y1="290" style="clip-path:url(#clipPath1); fill:none; stroke:rgb(50,50,0);" y2="290" />
      <line x1="806" x2="796" y1="290" style="clip-path:url(#clipPath1); fill:none; stroke:rgb(50,50,0);" y2="290" />
      <line x1="791" x2="781" y1="290" style="clip-path:url(#clipPath1); fill:none; stroke:rgb(50,50,0);" y2="290" />
      <line x1="776" x2="766" y1="290" style="clip-path:url(#clipPath1); fill:none; stroke:rgb(50,50,0);" y2="290" />
      <line x1="761" x2="751" y1="290" style="clip-path:url(#clipPath1); fill:none; stroke:rgb(50,50,0);" y2="290" />
      <line x1="746" x2="736" y1="290" style="clip-path:url(#clipPath1); fill:none; stroke:rgb(50,50,0);" y2="290" />
      <line x1="731" x2="721" y1="290" style="clip-path:url(#clipPath1); fill:none; stroke:rgb(50,50,0);" y2="290" />
      <line x1="716" x2="706" y1="290" style="clip-path:url(#clipPath1); fill:none; stroke:rgb(50,50,0);" y2="290" />
      <line x1="701" x2="701" y1="290" style="clip-path:url(#clipPath1); fill:none; stroke:rgb(50,50,0);" y2="290" />
      <line x1="701" x2="713" y1="290" style="clip-path:url(#clipPath1); fill:none;" y2="293" />
      <line x1="701" x2="713" y1="290" style="clip-path:url(#clipPath1); fill:none;" y2="287" />
      <line x1="315" x2="139" y1="521" style="clip-path:url(#clipPath1); fill:none; stroke:rgb(50,50,0);" y2="521" />
      <line x1="139" x2="149" y1="541" style="clip-path:url(#clipPath1); fill:none; stroke:rgb(50,50,0);" y2="541" />
      <line x1="154" x2="164" y1="541" style="clip-path:url(#clipPath1); fill:none; stroke:rgb(50,50,0);" y2="541" />
      <line x1="169" x2="179" y1="541" style="clip-path:url(#clipPath1); fill:none; stroke:rgb(50,50,0);" y2="541" />
      <line x1="184" x2="194" y1="541" style="clip-path:url(#clipPath1); fill:none; stroke:rgb(50,50,0);" y2="541" />
      <line x1="199" x2="209" y1="541" style="clip-path:url(#clipPath1); fill:none; stroke:rgb(50,50,0);" y2="541" />
      <line x1="214" x2="224" y1="541" style="clip-path:url(#clipPath1); fill:none; stroke:rgb(50,50,0);" y2="541" />
      <line x1="229" x2="239" y1="541" style="clip-path:url(#clipPath1); fill:none; stroke:rgb(50,50,0);" y2="541" />
      <line x1="244" x2="254" y1="541" style="clip-path:url(#clipPath1); fill:none; stroke:rgb(50,50,0);" y2="541" />
      <line x1="259" x2="269" y1="541" style="clip-path:url(#clipPath1); fill:none; stroke:rgb(50,50,0);" y2="541" />
      <line x1="274" x2="284" y1="541" style="clip-path:url(#clipPath1); fill:none; stroke:rgb(50,50,0);" y2="541" />
      <line x1="289" x2="299" y1="541" style="clip-path:url(#clipPath1); fill:none; stroke:rgb(50,50,0);" y2="541" />
      <line x1="304" x2="314" y1="541" style="clip-path:url(#clipPath1); fill:none; stroke:rgb(50,50,0);" y2="541" />
      <line x1="315" x2="303" y1="541" style="clip-path:url(#clipPath1); fill:none;" y2="538" />
      <line x1="315" x2="303" y1="541" style="clip-path:url(#clipPath1); fill:none;" y2="544" />
      <line x1="338" x2="503" y1="480" style="clip-path:url(#clipPath1); fill:none; stroke:rgb(50,50,0);" y2="480" />
      <line x1="503" x2="493" y1="500" style="clip-path:url(#clipPath1); fill:none; stroke:rgb(50,50,0);" y2="500" />
      <line x1="488" x2="478" y1="500" style="clip-path:url(#clipPath1); fill:none; stroke:rgb(50,50,0);" y2="500" />
      <line x1="473" x2="463" y1="500" style="clip-path:url(#clipPath1); fill:none; stroke:rgb(50,50,0);" y2="500" />
      <line x1="458" x2="448" y1="500" style="clip-path:url(#clipPath1); fill:none; stroke:rgb(50,50,0);" y2="500" />
      <line x1="443" x2="433" y1="500" style="clip-path:url(#clipPath1); fill:none; stroke:rgb(50,50,0);" y2="500" />
      <line x1="428" x2="418" y1="500" style="clip-path:url(#clipPath1); fill:none; stroke:rgb(50,50,0);" y2="500" />
      <line x1="413" x2="403" y1="500" style="clip-path:url(#clipPath1); fill:none; stroke:rgb(50,50,0);" y2="500" />
      <line x1="398" x2="388" y1="500" style="clip-path:url(#clipPath1); fill:none; stroke:rgb(50,50,0);" y2="500" />
      <line x1="383" x2="373" y1="500" style="clip-path:url(#clipPath1); fill:none; stroke:rgb(50,50,0);" y2="500" />
      <line x1="368" x2="358" y1="500" style="clip-path:url(#clipPath1); fill:none; stroke:rgb(50,50,0);" y2="500" />
      <line x1="353" x2="343" y1="500" style="clip-path:url(#clipPath1); fill:none; stroke:rgb(50,50,0);" y2="500" />
      <line x1="338" x2="338" y1="500" style="clip-path:url(#clipPath1); fill:none; stroke:rgb(50,50,0);" y2="500" />
      <line x1="338" x2="350" y1="500" style="clip-path:url(#clipPath1); fill:none;" y2="503" />
      <line x1="338" x2="350" y1="500" style="clip-path:url(#clipPath1); fill:none;" y2="497" />
      <line x1="338" x2="503" y1="430" style="clip-path:url(#clipPath1); fill:none; stroke:rgb(50,50,0);" y2="430" />
      <line x1="503" x2="493" y1="450" style="clip-path:url(#clipPath1); fill:none; stroke:rgb(50,50,0);" y2="450" />
      <line x1="488" x2="478" y1="450" style="clip-path:url(#clipPath1); fill:none; stroke:rgb(50,50,0);" y2="450" />
      <line x1="473" x2="463" y1="450" style="clip-path:url(#clipPath1); fill:none; stroke:rgb(50,50,0);" y2="450" />
      <line x1="458" x2="448" y1="450" style="clip-path:url(#clipPath1); fill:none; stroke:rgb(50,50,0);" y2="450" />
      <line x1="443" x2="433" y1="450" style="clip-path:url(#clipPath1); fill:none; stroke:rgb(50,50,0);" y2="450" />
      <line x1="428" x2="418" y1="450" style="clip-path:url(#clipPath1); fill:none; stroke:rgb(50,50,0);" y2="450" />
      <line x1="413" x2="403" y1="450" style="clip-path:url(#clipPath1); fill:none; stroke:rgb(50,50,0);" y2="450" />
      <line x1="398" x2="388" y1="450" style="clip-path:url(#clipPath1); fill:none; stroke:rgb(50,50,0);" y2="450" />
      <line x1="383" x2="373" y1="450" style="clip-path:url(#clipPath1); fill:none; stroke:rgb(50,50,0);" y2="450" />
      <line x1="368" x2="358" y1="450" style="clip-path:url(#clipPath1); fill:none; stroke:rgb(50,50,0);" y2="450" />
      <line x1="353" x2="343" y1="450" style="clip-path:url(#clipPath1); fill:none; stroke:rgb(50,50,0);" y2="450" />
      <line x1="338" x2="338" y1="450" style="clip-path:url(#clipPath1); fill:none; stroke:rgb(50,50,0);" y2="450" />
      <line x1="338" x2="350" y1="450" style="clip-path:url(#clipPath1); fill:none;" y2="453" />
      <line x1="338" x2="350" y1="450" style="clip-path:url(#clipPath1); fill:none;" y2="447" />
      <line x1="320" x2="678" y1="231" style="clip-path:url(#clipPath1); fill:none; stroke:rgb(50,50,0);" y2="231" />
      <line x1="678" x2="668" y1="360" style="clip-path:url(#clipPath1); fill:none; stroke:rgb(50,50,0);" y2="360" />
      <line x1="663" x2="653" y1="360" style="clip-path:url(#clipPath1); fill:none; stroke:rgb(50,50,0);" y2="360" />
      <line x1="648" x2="638" y1="360" style="clip-path:url(#clipPath1); fill:none; stroke:rgb(50,50,0);" y2="360" />
      <line x1="633" x2="623" y1="360" style="clip-path:url(#clipPath1); fill:none; stroke:rgb(50,50,0);" y2="360" />
      <line x1="618" x2="608" y1="360" style="clip-path:url(#clipPath1); fill:none; stroke:rgb(50,50,0);" y2="360" />
      <line x1="603" x2="593" y1="360" style="clip-path:url(#clipPath1); fill:none; stroke:rgb(50,50,0);" y2="360" />
      <line x1="588" x2="578" y1="360" style="clip-path:url(#clipPath1); fill:none; stroke:rgb(50,50,0);" y2="360" />
      <line x1="573" x2="563" y1="360" style="clip-path:url(#clipPath1); fill:none; stroke:rgb(50,50,0);" y2="360" />
      <line x1="558" x2="548" y1="360" style="clip-path:url(#clipPath1); fill:none; stroke:rgb(50,50,0);" y2="360" />
      <line x1="543" x2="533" y1="360" style="clip-path:url(#clipPath1); fill:none; stroke:rgb(50,50,0);" y2="360" />
      <line x1="528" x2="518" y1="360" style="clip-path:url(#clipPath1); fill:none; stroke:rgb(50,50,0);" y2="360" />
      <line x1="513" x2="503" y1="360" style="clip-path:url(#clipPath1); fill:none; stroke:rgb(50,50,0);" y2="360" />
      <line x1="498" x2="488" y1="360" style="clip-path:url(#clipPath1); fill:none; stroke:rgb(50,50,0);" y2="360" />
      <line x1="483" x2="473" y1="360" style="clip-path:url(#clipPath1); fill:none; stroke:rgb(50,50,0);" y2="360" />
      <line x1="468" x2="458" y1="360" style="clip-path:url(#clipPath1); fill:none; stroke:rgb(50,50,0);" y2="360" />
      <line x1="453" x2="443" y1="360" style="clip-path:url(#clipPath1); fill:none; stroke:rgb(50,50,0);" y2="360" />
      <line x1="438" x2="428" y1="360" style="clip-path:url(#clipPath1); fill:none; stroke:rgb(50,50,0);" y2="360" />
      <line x1="423" x2="413" y1="360" style="clip-path:url(#clipPath1); fill:none; stroke:rgb(50,50,0);" y2="360" />
      <line x1="408" x2="398" y1="360" style="clip-path:url(#clipPath1); fill:none; stroke:rgb(50,50,0);" y2="360" />
      <line x1="393" x2="383" y1="360" style="clip-path:url(#clipPath1); fill:none; stroke:rgb(50,50,0);" y2="360" />
      <line x1="378" x2="368" y1="360" style="clip-path:url(#clipPath1); fill:none; stroke:rgb(50,50,0);" y2="360" />
      <line x1="363" x2="353" y1="360" style="clip-path:url(#clipPath1); fill:none; stroke:rgb(50,50,0);" y2="360" />
      <line x1="348" x2="338" y1="360" style="clip-path:url(#clipPath1); fill:none; stroke:rgb(50,50,0);" y2="360" />
      <line x1="333" x2="323" y1="360" style="clip-path:url(#clipPath1); fill:none; stroke:rgb(50,50,0);" y2="360" />
      <line x1="320" x2="332" y1="360" style="clip-path:url(#clipPath1); fill:none;" y2="363" />
      <line x1="320" x2="332" y1="360" style="clip-path:url(#clipPath1); fill:none;" y2="357" />
      <line x1="306" x2="139" y1="199" style="clip-path:url(#clipPath1); fill:none; stroke:rgb(50,50,0);" y2="199" />
      <line x1="139" x2="149" y1="219" style="clip-path:url(#clipPath1); fill:none; stroke:rgb(50,50,0);" y2="219" />
      <line x1="154" x2="164" y1="219" style="clip-path:url(#clipPath1); fill:none; stroke:rgb(50,50,0);" y2="219" />
      <line x1="169" x2="179" y1="219" style="clip-path:url(#clipPath1); fill:none; stroke:rgb(50,50,0);" y2="219" />
      <line x1="184" x2="194" y1="219" style="clip-path:url(#clipPath1); fill:none; stroke:rgb(50,50,0);" y2="219" />
      <line x1="199" x2="209" y1="219" style="clip-path:url(#clipPath1); fill:none; stroke:rgb(50,50,0);" y2="219" />
      <line x1="214" x2="224" y1="219" style="clip-path:url(#clipPath1); fill:none; stroke:rgb(50,50,0);" y2="219" />
      <line x1="229" x2="239" y1="219" style="clip-path:url(#clipPath1); fill:none; stroke:rgb(50,50,0);" y2="219" />
      <line x1="244" x2="254" y1="219" style="clip-path:url(#clipPath1); fill:none; stroke:rgb(50,50,0);" y2="219" />
      <line x1="259" x2="269" y1="219" style="clip-path:url(#clipPath1); fill:none; stroke:rgb(50,50,0);" y2="219" />
      <line x1="274" x2="284" y1="219" style="clip-path:url(#clipPath1); fill:none; stroke:rgb(50,50,0);" y2="219" />
      <line x1="289" x2="299" y1="219" style="clip-path:url(#clipPath1); fill:none; stroke:rgb(50,50,0);" y2="219" />
      <line x1="304" x2="306" y1="219" style="clip-path:url(#clipPath1); fill:none; stroke:rgb(50,50,0);" y2="219" />
      <line x1="306" x2="294" y1="219" style="clip-path:url(#clipPath1); fill:none;" y2="216" />
      <line x1="306" x2="294" y1="219" style="clip-path:url(#clipPath1); fill:none;" y2="222" />
      <line x1="302" x2="302" y1="145" style="clip-path:url(#clipPath1); fill:none; stroke:rgb(50,50,0);" y2="139" />
      <line x1="302" x2="342" y1="139" style="clip-path:url(#clipPath1); fill:none; stroke:rgb(50,50,0);" y2="139" />
      <line x1="342" x2="342" y1="139" style="clip-path:url(#clipPath1); fill:none; stroke:rgb(50,50,0);" y2="151" />
      <line x1="342" x2="311" y1="151" style="clip-path:url(#clipPath1); fill:none; stroke:rgb(50,50,0);" y2="151" />
      <text x="707" y="242" style="clip-path:url(#clipPath1); fill:rgb(50,50,0); font-family:sans-serif; stroke:none;">for(all checkers)
      </text>
      <polygon points=" 881 320 863 324 863 316" style="fill:gray; clip-path:url(#clipPath1); font-family:sans-serif; stroke:none;" />
      <polygon points=" 881 320 863 324 863 316" style="fill:none; clip-path:url(#clipPath1); font-family:sans-serif; stroke:rgb(50,50,0);" />
      <line x1="863" x2="881" y1="316" style="clip-path:url(#clipPath1); fill:none; font-family:sans-serif; stroke:rgb(50,50,0);" y2="320" />
      <text x="709" y="313" style="clip-path:url(#clipPath1); fill:rgb(50,50,0); font-family:sans-serif; stroke:none;">[can handle] //depSatisfied
      </text>
      <polygon points=" 881 270 863 274 863 266" style="fill:gray; clip-path:url(#clipPath1); font-family:sans-serif; stroke:none;" />
      <polygon points=" 881 270 863 274 863 266" style="fill:none; clip-path:url(#clipPath1); font-family:sans-serif; stroke:rgb(50,50,0);" />
      <line x1="863" x2="881" y1="266" style="clip-path:url(#clipPath1); fill:none; font-family:sans-serif; stroke:rgb(50,50,0);" y2="270" />
      <text x="709" y="263" style="clip-path:url(#clipPath1); fill:rgb(50,50,0); font-family:sans-serif; stroke:none;"> canHandle
      </text>
      <text x="326" y="175" style="clip-path:url(#clipPath1); fill:rgb(50,50,0); font-family:sans-serif; stroke:none;">while(pending chunks)
      </text>
      <text x="335" y="385" style="clip-path:url(#clipPath1); fill:rgb(50,50,0); font-family:sans-serif; stroke:none;">if(depsSatisfied)
      </text>
      <text x="344" y="406" style="clip-path:url(#clipPath1); fill:rgb(50,50,0); font-family:sans-serif; stroke:none;">for(all handlers)
      </text>
      <polygon points=" 139 521 157 517 157 525" style="fill:gray; clip-path:url(#clipPath1); font-family:sans-serif; stroke:none;" />
      <polygon points=" 139 521 157 517 157 525" style="fill:none; clip-path:url(#clipPath1); font-family:sans-serif; stroke:rgb(50,50,0);" />
      <line x1="157" x2="139" y1="525" style="clip-path:url(#clipPath1); fill:none; font-family:sans-serif; stroke:rgb(50,50,0);" y2="521" />
      <polygon points=" 503 480 485 484 485 476" style="fill:gray; clip-path:url(#clipPath1); font-family:sans-serif; stroke:none;" />
      <polygon points=" 503 480 485 484 485 476" style="fill:none; clip-path:url(#clipPath1); font-family:sans-serif; stroke:rgb(50,50,0);" />
      <line x1="485" x2="503" y1="476" style="clip-path:url(#clipPath1); fill:none; font-family:sans-serif; stroke:rgb(50,50,0);" y2="480" />
      <text x="346" y="473" style="clip-path:url(#clipPath1); fill:rgb(50,50,0); font-family:sans-serif; stroke:none;">[canHandle] //configAdd
      </text>
      <polygon points=" 503 430 485 434 485 426" style="fill:gray; clip-path:url(#clipPath1); font-family:sans-serif; stroke:none;" />
      <polygon points=" 503 430 485 434 485 426" style="fill:none; clip-path:url(#clipPath1); font-family:sans-serif; stroke:rgb(50,50,0);" />
      <line x1="485" x2="503" y1="426" style="clip-path:url(#clipPath1); fill:none; font-family:sans-serif; stroke:rgb(50,50,0);" y2="430" />
      <text x="346" y="423" style="clip-path:url(#clipPath1); fill:rgb(50,50,0); font-family:sans-serif; stroke:none;"> configCanHandle
      </text>
      <polygon points=" 678 231 660 235 660 227" style="fill:gray; clip-path:url(#clipPath1); font-family:sans-serif; stroke:none;" />
      <polygon points=" 678 231 660 235 660 227" style="fill:none; clip-path:url(#clipPath1); font-family:sans-serif; stroke:rgb(50,50,0);" />
      <line x1="660" x2="678" y1="227" style="clip-path:url(#clipPath1); fill:none; font-family:sans-serif; stroke:rgb(50,50,0);" y2="231" />
      <text x="328" y="224" style="clip-path:url(#clipPath1); fill:rgb(50,50,0); font-family:sans-serif; stroke:none;"> depSatisfied
      </text>
      <polygon points=" 139 199 157 195 157 203" style="fill:gray; clip-path:url(#clipPath1); font-family:sans-serif; stroke:none;" />
      <polygon points=" 139 199 157 195 157 203" style="fill:none; clip-path:url(#clipPath1); font-family:sans-serif; stroke:rgb(50,50,0);" />
      <line x1="157" x2="139" y1="203" style="clip-path:url(#clipPath1); fill:none; font-family:sans-serif; stroke:rgb(50,50,0);" y2="199" />
      <text x="224" y="192" style="clip-path:url(#clipPath1); fill:rgb(50,50,0); font-family:sans-serif; stroke:none;"> getPending
      </text>
      <polygon points=" 311 151 329 147 329 155" style="fill:gray; clip-path:url(#clipPath1); font-family:sans-serif; stroke:none;" />
      <polygon points=" 311 151 329 147 329 155" style="fill:none; clip-path:url(#clipPath1); font-family:sans-serif; stroke:rgb(50,50,0);" />
      <line x1="329" x2="311" y1="155" style="clip-path:url(#clipPath1); fill:none; font-family:sans-serif; stroke:rgb(50,50,0);" y2="151" />
      <text x="135" y="514" style="clip-path:url(#clipPath1); fill:rgb(50,50,0); font-family:sans-serif; stroke:none;">[success] //removePending
      </text>
      <text x="319" y="161" style="clip-path:url(#clipPath1); fill:rgb(50,50,0); font-family:sans-serif; stroke:none;"> checkForReconfig
      </text>
    </g>
  </g>
</svg>
