<?xml version="1.0" encoding="UTF-8"?>

<!DOCTYPE svg PUBLIC '-//W3C//DTD SVG 20001102//EN' 'http://www.w3.org/TR/2000/CR-SVG-20001102/DTD/svg-20001102.dtd'>
<svg style="fill-opacity:1; color-interpolation:sRGB; color-rendering:auto; text-rendering:auto; stroke:black; stroke-linecap:square; stroke-miterlimit:10; stroke-opacity:1; shape-rendering:auto; fill:black; stroke-dasharray:none; font-weight:normal; stroke-width:1; font-family:&apos;Lucida Sans&apos;; font-style:normal; stroke-linejoin:miter; font-size:12; image-rendering:auto; stroke-dashoffset:0;" width="943" height="662">
  <!--Generated by the Batik Graphics2D SVG Generator-->
  <defs id="genericDefs" />
  <g>
    <defs id="defs1">
      <clipPath clipPathUnits="userSpaceOnUse" id="clipPath1">
        <path d="M0 0 L943 0 L943 662 L0 662 L0 0 Z" />
      </clipPath>
      <clipPath clipPathUnits="userSpaceOnUse" id="clipPath2">
        <path d="M203 50 L203 116 L312 116 L312 50 Z" />
      </clipPath>
      <clipPath clipPathUnits="userSpaceOnUse" id="clipPath3">
        <path d="M203 50 L203 106 L312 106 L312 50 Z" />
      </clipPath>
      <clipPath clipPathUnits="userSpaceOnUse" id="clipPath4">
        <path d="M269 180 L269 562 L284 562 L284 180 Z" />
      </clipPath>
      <clipPath clipPathUnits="userSpaceOnUse" id="clipPath5">
        <path d="M278 390 L278 552 L293 552 L293 390 Z" />
      </clipPath>
      <clipPath clipPathUnits="userSpaceOnUse" id="clipPath6">
        <path d="M287 411 L287 511 L302 511 L302 411 Z" />
      </clipPath>
      <clipPath clipPathUnits="userSpaceOnUse" id="clipPath7">
        <path d="M74 50 L74 116 L178 116 L178 50 Z" />
      </clipPath>
      <clipPath clipPathUnits="userSpaceOnUse" id="clipPath8">
        <path d="M74 50 L74 106 L178 106 L178 50 Z" />
      </clipPath>
      <clipPath clipPathUnits="userSpaceOnUse" id="clipPath9">
        <path d="M434 50 L434 116 L574 116 L574 50 Z" />
      </clipPath>
      <clipPath clipPathUnits="userSpaceOnUse" id="clipPath10">
        <path d="M434 50 L434 106 L574 106 L574 50 Z" />
      </clipPath>
      <clipPath clipPathUnits="userSpaceOnUse" id="clipPath11">
        <path d="M610 50 L610 116 L748 116 L748 50 Z" />
      </clipPath>
      <clipPath clipPathUnits="userSpaceOnUse" id="clipPath12">
        <path d="M610 50 L610 106 L748 106 L748 50 Z" />
      </clipPath>
      <clipPath clipPathUnits="userSpaceOnUse" id="clipPath13">
        <path d="M682 247 L682 351 L697 351 L697 247 Z" />
      </clipPath>
      <clipPath clipPathUnits="userSpaceOnUse" id="clipPath14">
        <path d="M840 50 L840 116 L930 116 L930 50 Z" />
      </clipPath>
      <clipPath clipPathUnits="userSpaceOnUse" id="clipPath15">
        <path d="M840 50 L840 106 L930 106 L930 50 Z" />
      </clipPath>
    </defs>
    <g style="fill:navy; stroke:navy;">
      <rect x="206" y="53" width="108" style="clip-path:url(#clipPath1); stroke:none;" height="65" />
      <rect x="203" y="50" width="108" style="clip-path:url(#clipPath1); fill:white; stroke:none;" height="65" />
      <rect x="203" y="50" width="108" style="clip-path:url(#clipPath1); fill:none; stroke:black;" height="65" />
    </g>
    <g style="font-weight:bold; font-family:sans-serif;">
      <text x="235" y="60" style="clip-path:url(#clipPath3); stroke:none;">kernel
      </text>
      <line x1="235" x2="279" y1="62" style="clip-path:url(#clipPath3); fill:none;" y2="62" />
      <text x="237" y="73" style="font-weight:normal; clip-path:url(#clipPath3); stroke:none;">Kernel
      </text>
    </g>
    <g>
      <rect x="251" y="119" width="14" style="clip-path:url(#clipPath1); fill:none;" height="531" />
      <rect x="252" y="120" width="13" style="clip-path:url(#clipPath1); fill:white; stroke:none;" height="530" />
      <rect x="260" y="145" width="14" style="clip-path:url(#clipPath1); fill:none;" height="426" />
      <rect x="261" y="146" width="13" style="clip-path:url(#clipPath1); fill:white; stroke:none;" height="425" />
      <rect x="269" y="180" width="14" style="clip-path:url(#clipPath1); fill:none;" height="381" />
      <rect x="270" y="181" width="13" style="clip-path:url(#clipPath1); fill:rgb(178,178,178); stroke:none;" height="380" />
      <rect x="278" y="390" width="14" style="clip-path:url(#clipPath1); fill:none;" height="161" />
      <rect x="279" y="391" width="13" style="clip-path:url(#clipPath1); fill:rgb(178,178,178); stroke:none;" height="160" />
      <rect x="287" y="411" width="14" style="clip-path:url(#clipPath1); fill:none;" height="99" />
      <rect x="288" y="412" width="13" style="clip-path:url(#clipPath1); fill:rgb(178,178,178); stroke:none;" height="98" />
    </g>
    <g style="fill:rgb(50,50,0); font-family:sans-serif; stroke:rgb(50,50,0);">
      <text x="289" y="175" style="clip-path:url(#clipPath4); stroke:none;">while(pending chunks)
      </text>
    </g>
    <g style="fill:rgb(50,50,0); font-family:sans-serif; stroke:rgb(50,50,0);">
      <text x="298" y="385" style="clip-path:url(#clipPath5); stroke:none;">if(depsSatisfied)
      </text>
    </g>
    <g style="fill:rgb(50,50,0); font-family:sans-serif; stroke:rgb(50,50,0);">
      <text x="307" y="406" style="clip-path:url(#clipPath6); stroke:none;">for(all handlers)
      </text>
    </g>
    <g style="fill:navy; stroke:navy;">
      <rect x="77" y="53" width="103" style="clip-path:url(#clipPath1); stroke:none;" height="65" />
      <rect x="74" y="50" width="103" style="clip-path:url(#clipPath1); fill:white; stroke:none;" height="65" />
      <rect x="74" y="50" width="103" style="clip-path:url(#clipPath1); fill:none; stroke:black;" height="65" />
    </g>
    <g style="font-weight:bold; font-family:sans-serif;">
      <text x="89" y="60" style="clip-path:url(#clipPath8); stroke:none;">configMgr
      </text>
      <line x1="89" x2="161" y1="62" style="clip-path:url(#clipPath8); fill:none;" y2="62" />
      <text x="78" y="73" style="font-weight:normal; clip-path:url(#clipPath8); stroke:none;">ConfigManager
      </text>
    </g>
    <g>
      <line x1="127" x2="127" y1="118" style="clip-path:url(#clipPath1); fill:none;" y2="128" />
      <line x1="127" x2="127" y1="133" style="clip-path:url(#clipPath1); fill:none;" y2="143" />
      <line x1="127" x2="127" y1="148" style="clip-path:url(#clipPath1); fill:none;" y2="158" />
      <line x1="127" x2="127" y1="163" style="clip-path:url(#clipPath1); fill:none;" y2="173" />
      <line x1="127" x2="127" y1="178" style="clip-path:url(#clipPath1); fill:none;" y2="188" />
      <line x1="127" x2="127" y1="193" style="clip-path:url(#clipPath1); fill:none;" y2="203" />
      <line x1="127" x2="127" y1="208" style="clip-path:url(#clipPath1); fill:none;" y2="218" />
      <line x1="127" x2="127" y1="223" style="clip-path:url(#clipPath1); fill:none;" y2="233" />
      <line x1="127" x2="127" y1="238" style="clip-path:url(#clipPath1); fill:none;" y2="248" />
      <line x1="127" x2="127" y1="253" style="clip-path:url(#clipPath1); fill:none;" y2="263" />
      <line x1="127" x2="127" y1="268" style="clip-path:url(#clipPath1); fill:none;" y2="278" />
      <line x1="127" x2="127" y1="283" style="clip-path:url(#clipPath1); fill:none;" y2="293" />
      <line x1="127" x2="127" y1="298" style="clip-path:url(#clipPath1); fill:none;" y2="308" />
      <line x1="127" x2="127" y1="313" style="clip-path:url(#clipPath1); fill:none;" y2="323" />
      <line x1="127" x2="127" y1="328" style="clip-path:url(#clipPath1); fill:none;" y2="338" />
      <line x1="127" x2="127" y1="343" style="clip-path:url(#clipPath1); fill:none;" y2="353" />
      <line x1="127" x2="127" y1="358" style="clip-path:url(#clipPath1); fill:none;" y2="368" />
      <line x1="127" x2="127" y1="373" style="clip-path:url(#clipPath1); fill:none;" y2="383" />
      <line x1="127" x2="127" y1="388" style="clip-path:url(#clipPath1); fill:none;" y2="398" />
      <line x1="127" x2="127" y1="403" style="clip-path:url(#clipPath1); fill:none;" y2="413" />
      <line x1="127" x2="127" y1="418" style="clip-path:url(#clipPath1); fill:none;" y2="428" />
      <line x1="127" x2="127" y1="433" style="clip-path:url(#clipPath1); fill:none;" y2="443" />
      <line x1="127" x2="127" y1="448" style="clip-path:url(#clipPath1); fill:none;" y2="458" />
      <line x1="127" x2="127" y1="463" style="clip-path:url(#clipPath1); fill:none;" y2="473" />
      <line x1="127" x2="127" y1="478" style="clip-path:url(#clipPath1); fill:none;" y2="488" />
      <line x1="127" x2="127" y1="493" style="clip-path:url(#clipPath1); fill:none;" y2="503" />
      <line x1="127" x2="127" y1="508" style="clip-path:url(#clipPath1); fill:none;" y2="518" />
      <line x1="127" x2="127" y1="523" style="clip-path:url(#clipPath1); fill:none;" y2="533" />
      <line x1="127" x2="127" y1="538" style="clip-path:url(#clipPath1); fill:none;" y2="548" />
      <line x1="127" x2="127" y1="553" style="clip-path:url(#clipPath1); fill:none;" y2="563" />
      <line x1="127" x2="127" y1="568" style="clip-path:url(#clipPath1); fill:none;" y2="578" />
      <line x1="127" x2="127" y1="583" style="clip-path:url(#clipPath1); fill:none;" y2="593" />
      <line x1="127" x2="127" y1="598" style="clip-path:url(#clipPath1); fill:none;" y2="608" />
      <line x1="127" x2="127" y1="613" style="clip-path:url(#clipPath1); fill:none;" y2="623" />
      <line x1="127" x2="127" y1="628" style="clip-path:url(#clipPath1); fill:none;" y2="638" />
      <line x1="127" x2="127" y1="643" style="clip-path:url(#clipPath1); fill:none;" y2="651" />
      <rect x="120" y="199" width="14" style="clip-path:url(#clipPath1); fill:none;" height="20" />
      <rect x="121" y="200" width="13" style="clip-path:url(#clipPath1); fill:white; stroke:none;" height="19" />
      <rect x="120" y="521" width="14" style="clip-path:url(#clipPath1); fill:none;" height="20" />
      <rect x="121" y="522" width="13" style="clip-path:url(#clipPath1); fill:white; stroke:none;" height="19" />
      <rect x="437" y="53" width="139" style="clip-path:url(#clipPath1); fill:navy; stroke:none;" height="65" />
      <rect x="434" y="50" width="139" style="clip-path:url(#clipPath1); fill:white; stroke:none;" height="65" />
      <rect x="434" y="50" width="139" style="clip-path:url(#clipPath1); fill:none;" height="65" />
    </g>
    <g style="font-weight:bold; font-family:sans-serif;">
      <text x="455" y="60" style="clip-path:url(#clipPath10); stroke:none;">chunkHandler
      </text>
      <line x1="455" x2="552" y1="62" style="clip-path:url(#clipPath10); fill:none;" y2="62" />
      <text x="438" y="73" style="font-weight:normal; clip-path:url(#clipPath10); stroke:none;">ConfigChunkHandler
      </text>
    </g>
    <g>
      <line x1="505" x2="505" y1="118" style="clip-path:url(#clipPath1); fill:none;" y2="128" />
      <line x1="505" x2="505" y1="133" style="clip-path:url(#clipPath1); fill:none;" y2="143" />
      <line x1="505" x2="505" y1="148" style="clip-path:url(#clipPath1); fill:none;" y2="158" />
      <line x1="505" x2="505" y1="163" style="clip-path:url(#clipPath1); fill:none;" y2="173" />
      <line x1="505" x2="505" y1="178" style="clip-path:url(#clipPath1); fill:none;" y2="188" />
      <line x1="505" x2="505" y1="193" style="clip-path:url(#clipPath1); fill:none;" y2="203" />
      <line x1="505" x2="505" y1="208" style="clip-path:url(#clipPath1); fill:none;" y2="218" />
      <line x1="505" x2="505" y1="223" style="clip-path:url(#clipPath1); fill:none;" y2="233" />
      <line x1="505" x2="505" y1="238" style="clip-path:url(#clipPath1); fill:none;" y2="248" />
      <line x1="505" x2="505" y1="253" style="clip-path:url(#clipPath1); fill:none;" y2="263" />
      <line x1="505" x2="505" y1="268" style="clip-path:url(#clipPath1); fill:none;" y2="278" />
      <line x1="505" x2="505" y1="283" style="clip-path:url(#clipPath1); fill:none;" y2="293" />
      <line x1="505" x2="505" y1="298" style="clip-path:url(#clipPath1); fill:none;" y2="308" />
      <line x1="505" x2="505" y1="313" style="clip-path:url(#clipPath1); fill:none;" y2="323" />
      <line x1="505" x2="505" y1="328" style="clip-path:url(#clipPath1); fill:none;" y2="338" />
      <line x1="505" x2="505" y1="343" style="clip-path:url(#clipPath1); fill:none;" y2="353" />
      <line x1="505" x2="505" y1="358" style="clip-path:url(#clipPath1); fill:none;" y2="368" />
      <line x1="505" x2="505" y1="373" style="clip-path:url(#clipPath1); fill:none;" y2="383" />
      <line x1="505" x2="505" y1="388" style="clip-path:url(#clipPath1); fill:none;" y2="398" />
      <line x1="505" x2="505" y1="403" style="clip-path:url(#clipPath1); fill:none;" y2="413" />
      <line x1="505" x2="505" y1="418" style="clip-path:url(#clipPath1); fill:none;" y2="428" />
      <line x1="505" x2="505" y1="433" style="clip-path:url(#clipPath1); fill:none;" y2="443" />
      <line x1="505" x2="505" y1="448" style="clip-path:url(#clipPath1); fill:none;" y2="458" />
      <line x1="505" x2="505" y1="463" style="clip-path:url(#clipPath1); fill:none;" y2="473" />
      <line x1="505" x2="505" y1="478" style="clip-path:url(#clipPath1); fill:none;" y2="488" />
      <line x1="505" x2="505" y1="493" style="clip-path:url(#clipPath1); fill:none;" y2="503" />
      <line x1="505" x2="505" y1="508" style="clip-path:url(#clipPath1); fill:none;" y2="518" />
      <line x1="505" x2="505" y1="523" style="clip-path:url(#clipPath1); fill:none;" y2="533" />
      <line x1="505" x2="505" y1="538" style="clip-path:url(#clipPath1); fill:none;" y2="548" />
      <line x1="505" x2="505" y1="553" style="clip-path:url(#clipPath1); fill:none;" y2="563" />
      <line x1="505" x2="505" y1="568" style="clip-path:url(#clipPath1); fill:none;" y2="578" />
      <line x1="505" x2="505" y1="583" style="clip-path:url(#clipPath1); fill:none;" y2="593" />
      <line x1="505" x2="505" y1="598" style="clip-path:url(#clipPath1); fill:none;" y2="608" />
      <line x1="505" x2="505" y1="613" style="clip-path:url(#clipPath1); fill:none;" y2="623" />
      <line x1="505" x2="505" y1="628" style="clip-path:url(#clipPath1); fill:none;" y2="638" />
      <line x1="505" x2="505" y1="643" style="clip-path:url(#clipPath1); fill:none;" y2="651" />
      <rect x="498" y="430" width="14" style="clip-path:url(#clipPath1); fill:none;" height="20" />
      <rect x="499" y="431" width="13" style="clip-path:url(#clipPath1); fill:white; stroke:none;" height="19" />
      <rect x="498" y="480" width="14" style="clip-path:url(#clipPath1); fill:none;" height="20" />
      <rect x="499" y="481" width="13" style="clip-path:url(#clipPath1); fill:white; stroke:none;" height="19" />
      <rect x="613" y="53" width="137" style="clip-path:url(#clipPath1); fill:navy; stroke:none;" height="65" />
      <rect x="610" y="50" width="137" style="clip-path:url(#clipPath1); fill:white; stroke:none;" height="65" />
      <rect x="610" y="50" width="137" style="clip-path:url(#clipPath1); fill:none;" height="65" />
    </g>
    <g style="font-weight:bold; font-family:sans-serif;">
      <text x="635" y="60" style="clip-path:url(#clipPath12); stroke:none;">depManager
      </text>
      <line x1="635" x2="721" y1="62" style="clip-path:url(#clipPath12); fill:none;" y2="62" />
      <text x="614" y="73" style="font-weight:normal; clip-path:url(#clipPath12); stroke:none;">DependencyManager
      </text>
    </g>
    <g>
      <line x1="680" x2="680" y1="118" style="clip-path:url(#clipPath1); fill:none;" y2="128" />
      <line x1="680" x2="680" y1="133" style="clip-path:url(#clipPath1); fill:none;" y2="143" />
      <line x1="680" x2="680" y1="148" style="clip-path:url(#clipPath1); fill:none;" y2="158" />
      <line x1="680" x2="680" y1="163" style="clip-path:url(#clipPath1); fill:none;" y2="173" />
      <line x1="680" x2="680" y1="178" style="clip-path:url(#clipPath1); fill:none;" y2="188" />
      <line x1="680" x2="680" y1="193" style="clip-path:url(#clipPath1); fill:none;" y2="203" />
      <line x1="680" x2="680" y1="208" style="clip-path:url(#clipPath1); fill:none;" y2="218" />
      <line x1="680" x2="680" y1="223" style="clip-path:url(#clipPath1); fill:none;" y2="233" />
      <line x1="680" x2="680" y1="238" style="clip-path:url(#clipPath1); fill:none;" y2="248" />
      <line x1="680" x2="680" y1="253" style="clip-path:url(#clipPath1); fill:none;" y2="263" />
      <line x1="680" x2="680" y1="268" style="clip-path:url(#clipPath1); fill:none;" y2="278" />
      <line x1="680" x2="680" y1="283" style="clip-path:url(#clipPath1); fill:none;" y2="293" />
      <line x1="680" x2="680" y1="298" style="clip-path:url(#clipPath1); fill:none;" y2="308" />
      <line x1="680" x2="680" y1="313" style="clip-path:url(#clipPath1); fill:none;" y2="323" />
      <line x1="680" x2="680" y1="328" style="clip-path:url(#clipPath1); fill:none;" y2="338" />
      <line x1="680" x2="680" y1="343" style="clip-path:url(#clipPath1); fill:none;" y2="353" />
      <line x1="680" x2="680" y1="358" style="clip-path:url(#clipPath1); fill:none;" y2="368" />
      <line x1="680" x2="680" y1="373" style="clip-path:url(#clipPath1); fill:none;" y2="383" />
      <line x1="680" x2="680" y1="388" style="clip-path:url(#clipPath1); fill:none;" y2="398" />
      <line x1="680" x2="680" y1="403" style="clip-path:url(#clipPath1); fill:none;" y2="413" />
      <line x1="680" x2="680" y1="418" style="clip-path:url(#clipPath1); fill:none;" y2="428" />
      <line x1="680" x2="680" y1="433" style="clip-path:url(#clipPath1); fill:none;" y2="443" />
      <line x1="680" x2="680" y1="448" style="clip-path:url(#clipPath1); fill:none;" y2="458" />
      <line x1="680" x2="680" y1="463" style="clip-path:url(#clipPath1); fill:none;" y2="473" />
      <line x1="680" x2="680" y1="478" style="clip-path:url(#clipPath1); fill:none;" y2="488" />
      <line x1="680" x2="680" y1="493" style="clip-path:url(#clipPath1); fill:none;" y2="503" />
      <line x1="680" x2="680" y1="508" style="clip-path:url(#clipPath1); fill:none;" y2="518" />
      <line x1="680" x2="680" y1="523" style="clip-path:url(#clipPath1); fill:none;" y2="533" />
      <line x1="680" x2="680" y1="538" style="clip-path:url(#clipPath1); fill:none;" y2="548" />
      <line x1="680" x2="680" y1="553" style="clip-path:url(#clipPath1); fill:none;" y2="563" />
      <line x1="680" x2="680" y1="568" style="clip-path:url(#clipPath1); fill:none;" y2="578" />
      <line x1="680" x2="680" y1="583" style="clip-path:url(#clipPath1); fill:none;" y2="593" />
      <line x1="680" x2="680" y1="598" style="clip-path:url(#clipPath1); fill:none;" y2="608" />
      <line x1="680" x2="680" y1="613" style="clip-path:url(#clipPath1); fill:none;" y2="623" />
      <line x1="680" x2="680" y1="628" style="clip-path:url(#clipPath1); fill:none;" y2="638" />
      <line x1="680" x2="680" y1="643" style="clip-path:url(#clipPath1); fill:none;" y2="651" />
      <rect x="673" y="231" width="14" style="clip-path:url(#clipPath1); fill:none;" height="129" />
      <rect x="674" y="232" width="13" style="clip-path:url(#clipPath1); fill:white; stroke:none;" height="128" />
      <rect x="682" y="247" width="14" style="clip-path:url(#clipPath1); fill:none;" height="103" />
      <rect x="683" y="248" width="13" style="clip-path:url(#clipPath1); fill:rgb(178,178,178); stroke:none;" height="102" />
    </g>
    <g style="fill:rgb(50,50,0); font-family:sans-serif; stroke:rgb(50,50,0);">
      <text x="702" y="242" style="clip-path:url(#clipPath13); stroke:none;">for(all checkers)
      </text>
    </g>
    <g style="fill:navy; stroke:navy;">
      <rect x="843" y="53" width="89" style="clip-path:url(#clipPath1); stroke:none;" height="65" />
      <rect x="840" y="50" width="89" style="clip-path:url(#clipPath1); fill:white; stroke:none;" height="65" />
      <rect x="840" y="50" width="89" style="clip-path:url(#clipPath1); fill:none; stroke:black;" height="65" />
    </g>
    <g style="font-weight:bold; font-family:sans-serif;">
      <text x="844" y="60" style="clip-path:url(#clipPath15); stroke:none;">depChecker
      </text>
      <line x1="844" x2="925" y1="62" style="clip-path:url(#clipPath15); fill:none;" y2="62" />
      <text x="847" y="73" style="font-weight:normal; clip-path:url(#clipPath15); stroke:none;">DepChecker
      </text>
    </g>
    <g>
      <line x1="886" x2="886" y1="118" style="clip-path:url(#clipPath1); fill:none;" y2="128" />
      <line x1="886" x2="886" y1="133" style="clip-path:url(#clipPath1); fill:none;" y2="143" />
      <line x1="886" x2="886" y1="148" style="clip-path:url(#clipPath1); fill:none;" y2="158" />
      <line x1="886" x2="886" y1="163" style="clip-path:url(#clipPath1); fill:none;" y2="173" />
      <line x1="886" x2="886" y1="178" style="clip-path:url(#clipPath1); fill:none;" y2="188" />
      <line x1="886" x2="886" y1="193" style="clip-path:url(#clipPath1); fill:none;" y2="203" />
      <line x1="886" x2="886" y1="208" style="clip-path:url(#clipPath1); fill:none;" y2="218" />
      <line x1="886" x2="886" y1="223" style="clip-path:url(#clipPath1); fill:none;" y2="233" />
      <line x1="886" x2="886" y1="238" style="clip-path:url(#clipPath1); fill:none;" y2="248" />
      <line x1="886" x2="886" y1="253" style="clip-path:url(#clipPath1); fill:none;" y2="263" />
      <line x1="886" x2="886" y1="268" style="clip-path:url(#clipPath1); fill:none;" y2="278" />
      <line x1="886" x2="886" y1="283" style="clip-path:url(#clipPath1); fill:none;" y2="293" />
      <line x1="886" x2="886" y1="298" style="clip-path:url(#clipPath1); fill:none;" y2="308" />
      <line x1="886" x2="886" y1="313" style="clip-path:url(#clipPath1); fill:none;" y2="323" />
      <line x1="886" x2="886" y1="328" style="clip-path:url(#clipPath1); fill:none;" y2="338" />
      <line x1="886" x2="886" y1="343" style="clip-path:url(#clipPath1); fill:none;" y2="353" />
      <line x1="886" x2="886" y1="358" style="clip-path:url(#clipPath1); fill:none;" y2="368" />
      <line x1="886" x2="886" y1="373" style="clip-path:url(#clipPath1); fill:none;" y2="383" />
      <line x1="886" x2="886" y1="388" style="clip-path:url(#clipPath1); fill:none;" y2="398" />
      <line x1="886" x2="886" y1="403" style="clip-path:url(#clipPath1); fill:none;" y2="413" />
      <line x1="886" x2="886" y1="418" style="clip-path:url(#clipPath1); fill:none;" y2="428" />
      <line x1="886" x2="886" y1="433" style="clip-path:url(#clipPath1); fill:none;" y2="443" />
      <line x1="886" x2="886" y1="448" style="clip-path:url(#clipPath1); fill:none;" y2="458" />
      <line x1="886" x2="886" y1="463" style="clip-path:url(#clipPath1); fill:none;" y2="473" />
      <line x1="886" x2="886" y1="478" style="clip-path:url(#clipPath1); fill:none;" y2="488" />
      <line x1="886" x2="886" y1="493" style="clip-path:url(#clipPath1); fill:none;" y2="503" />
      <line x1="886" x2="886" y1="508" style="clip-path:url(#clipPath1); fill:none;" y2="518" />
      <line x1="886" x2="886" y1="523" style="clip-path:url(#clipPath1); fill:none;" y2="533" />
      <line x1="886" x2="886" y1="538" style="clip-path:url(#clipPath1); fill:none;" y2="548" />
      <line x1="886" x2="886" y1="553" style="clip-path:url(#clipPath1); fill:none;" y2="563" />
      <line x1="886" x2="886" y1="568" style="clip-path:url(#clipPath1); fill:none;" y2="578" />
      <line x1="886" x2="886" y1="583" style="clip-path:url(#clipPath1); fill:none;" y2="593" />
      <line x1="886" x2="886" y1="598" style="clip-path:url(#clipPath1); fill:none;" y2="608" />
      <line x1="886" x2="886" y1="613" style="clip-path:url(#clipPath1); fill:none;" y2="623" />
      <line x1="886" x2="886" y1="628" style="clip-path:url(#clipPath1); fill:none;" y2="638" />
      <line x1="886" x2="886" y1="643" style="clip-path:url(#clipPath1); fill:none;" y2="651" />
      <rect x="879" y="270" width="14" style="clip-path:url(#clipPath1); fill:none;" height="20" />
      <rect x="880" y="271" width="13" style="clip-path:url(#clipPath1); fill:white; stroke:none;" height="19" />
      <rect x="879" y="320" width="14" style="clip-path:url(#clipPath1); fill:none;" height="20" />
      <rect x="880" y="321" width="13" style="clip-path:url(#clipPath1); fill:white; stroke:none;" height="19" />
      <line x1="265" x2="265" y1="145" style="clip-path:url(#clipPath1); fill:none; stroke:rgb(50,50,0);" y2="139" />
      <line x1="265" x2="305" y1="139" style="clip-path:url(#clipPath1); fill:none; stroke:rgb(50,50,0);" y2="139" />
      <line x1="305" x2="305" y1="139" style="clip-path:url(#clipPath1); fill:none; stroke:rgb(50,50,0);" y2="151" />
      <line x1="305" x2="274" y1="151" style="clip-path:url(#clipPath1); fill:none; stroke:rgb(50,50,0);" y2="151" />
      <line x1="278" x2="134" y1="521" style="clip-path:url(#clipPath1); fill:none; stroke:rgb(50,50,0);" y2="521" />
      <line x1="134" x2="144" y1="541" style="clip-path:url(#clipPath1); fill:none; stroke:rgb(50,50,0);" y2="541" />
      <line x1="149" x2="159" y1="541" style="clip-path:url(#clipPath1); fill:none; stroke:rgb(50,50,0);" y2="541" />
      <line x1="164" x2="174" y1="541" style="clip-path:url(#clipPath1); fill:none; stroke:rgb(50,50,0);" y2="541" />
      <line x1="179" x2="189" y1="541" style="clip-path:url(#clipPath1); fill:none; stroke:rgb(50,50,0);" y2="541" />
      <line x1="194" x2="204" y1="541" style="clip-path:url(#clipPath1); fill:none; stroke:rgb(50,50,0);" y2="541" />
      <line x1="209" x2="219" y1="541" style="clip-path:url(#clipPath1); fill:none; stroke:rgb(50,50,0);" y2="541" />
      <line x1="224" x2="234" y1="541" style="clip-path:url(#clipPath1); fill:none; stroke:rgb(50,50,0);" y2="541" />
      <line x1="239" x2="249" y1="541" style="clip-path:url(#clipPath1); fill:none; stroke:rgb(50,50,0);" y2="541" />
      <line x1="254" x2="264" y1="541" style="clip-path:url(#clipPath1); fill:none; stroke:rgb(50,50,0);" y2="541" />
      <line x1="269" x2="278" y1="541" style="clip-path:url(#clipPath1); fill:none; stroke:rgb(50,50,0);" y2="541" />
      <line x1="278" x2="266" y1="541" style="clip-path:url(#clipPath1); fill:none;" y2="538" />
      <line x1="278" x2="266" y1="541" style="clip-path:url(#clipPath1); fill:none;" y2="544" />
      <line x1="269" x2="134" y1="199" style="clip-path:url(#clipPath1); fill:none; stroke:rgb(50,50,0);" y2="199" />
      <line x1="134" x2="144" y1="219" style="clip-path:url(#clipPath1); fill:none; stroke:rgb(50,50,0);" y2="219" />
      <line x1="149" x2="159" y1="219" style="clip-path:url(#clipPath1); fill:none; stroke:rgb(50,50,0);" y2="219" />
      <line x1="164" x2="174" y1="219" style="clip-path:url(#clipPath1); fill:none; stroke:rgb(50,50,0);" y2="219" />
      <line x1="179" x2="189" y1="219" style="clip-path:url(#clipPath1); fill:none; stroke:rgb(50,50,0);" y2="219" />
      <line x1="194" x2="204" y1="219" style="clip-path:url(#clipPath1); fill:none; stroke:rgb(50,50,0);" y2="219" />
      <line x1="209" x2="219" y1="219" style="clip-path:url(#clipPath1); fill:none; stroke:rgb(50,50,0);" y2="219" />
      <line x1="224" x2="234" y1="219" style="clip-path:url(#clipPath1); fill:none; stroke:rgb(50,50,0);" y2="219" />
      <line x1="239" x2="249" y1="219" style="clip-path:url(#clipPath1); fill:none; stroke:rgb(50,50,0);" y2="219" />
      <line x1="254" x2="264" y1="219" style="clip-path:url(#clipPath1); fill:none; stroke:rgb(50,50,0);" y2="219" />
      <line x1="269" x2="269" y1="219" style="clip-path:url(#clipPath1); fill:none; stroke:rgb(50,50,0);" y2="219" />
      <line x1="269" x2="257" y1="219" style="clip-path:url(#clipPath1); fill:none;" y2="216" />
      <line x1="269" x2="257" y1="219" style="clip-path:url(#clipPath1); fill:none;" y2="222" />
      <line x1="301" x2="498" y1="480" style="clip-path:url(#clipPath1); fill:none; stroke:rgb(50,50,0);" y2="480" />
      <line x1="498" x2="488" y1="500" style="clip-path:url(#clipPath1); fill:none; stroke:rgb(50,50,0);" y2="500" />
      <line x1="483" x2="473" y1="500" style="clip-path:url(#clipPath1); fill:none; stroke:rgb(50,50,0);" y2="500" />
      <line x1="468" x2="458" y1="500" style="clip-path:url(#clipPath1); fill:none; stroke:rgb(50,50,0);" y2="500" />
      <line x1="453" x2="443" y1="500" style="clip-path:url(#clipPath1); fill:none; stroke:rgb(50,50,0);" y2="500" />
      <line x1="438" x2="428" y1="500" style="clip-path:url(#clipPath1); fill:none; stroke:rgb(50,50,0);" y2="500" />
      <line x1="423" x2="413" y1="500" style="clip-path:url(#clipPath1); fill:none; stroke:rgb(50,50,0);" y2="500" />
      <line x1="408" x2="398" y1="500" style="clip-path:url(#clipPath1); fill:none; stroke:rgb(50,50,0);" y2="500" />
      <line x1="393" x2="383" y1="500" style="clip-path:url(#clipPath1); fill:none; stroke:rgb(50,50,0);" y2="500" />
      <line x1="378" x2="368" y1="500" style="clip-path:url(#clipPath1); fill:none; stroke:rgb(50,50,0);" y2="500" />
      <line x1="363" x2="353" y1="500" style="clip-path:url(#clipPath1); fill:none; stroke:rgb(50,50,0);" y2="500" />
      <line x1="348" x2="338" y1="500" style="clip-path:url(#clipPath1); fill:none; stroke:rgb(50,50,0);" y2="500" />
      <line x1="333" x2="323" y1="500" style="clip-path:url(#clipPath1); fill:none; stroke:rgb(50,50,0);" y2="500" />
      <line x1="318" x2="308" y1="500" style="clip-path:url(#clipPath1); fill:none; stroke:rgb(50,50,0);" y2="500" />
      <line x1="303" x2="301" y1="500" style="clip-path:url(#clipPath1); fill:none; stroke:rgb(50,50,0);" y2="500" />
      <line x1="301" x2="313" y1="500" style="clip-path:url(#clipPath1); fill:none;" y2="503" />
      <line x1="301" x2="313" y1="500" style="clip-path:url(#clipPath1); fill:none;" y2="497" />
      <line x1="301" x2="498" y1="430" style="clip-path:url(#clipPath1); fill:none; stroke:rgb(50,50,0);" y2="430" />
      <line x1="498" x2="488" y1="450" style="clip-path:url(#clipPath1); fill:none; stroke:rgb(50,50,0);" y2="450" />
      <line x1="483" x2="473" y1="450" style="clip-path:url(#clipPath1); fill:none; stroke:rgb(50,50,0);" y2="450" />
      <line x1="468" x2="458" y1="450" style="clip-path:url(#clipPath1); fill:none; stroke:rgb(50,50,0);" y2="450" />
      <line x1="453" x2="443" y1="450" style="clip-path:url(#clipPath1); fill:none; stroke:rgb(50,50,0);" y2="450" />
      <line x1="438" x2="428" y1="450" style="clip-path:url(#clipPath1); fill:none; stroke:rgb(50,50,0);" y2="450" />
      <line x1="423" x2="413" y1="450" style="clip-path:url(#clipPath1); fill:none; stroke:rgb(50,50,0);" y2="450" />
      <line x1="408" x2="398" y1="450" style="clip-path:url(#clipPath1); fill:none; stroke:rgb(50,50,0);" y2="450" />
      <line x1="393" x2="383" y1="450" style="clip-path:url(#clipPath1); fill:none; stroke:rgb(50,50,0);" y2="450" />
      <line x1="378" x2="368" y1="450" style="clip-path:url(#clipPath1); fill:none; stroke:rgb(50,50,0);" y2="450" />
      <line x1="363" x2="353" y1="450" style="clip-path:url(#clipPath1); fill:none; stroke:rgb(50,50,0);" y2="450" />
      <line x1="348" x2="338" y1="450" style="clip-path:url(#clipPath1); fill:none; stroke:rgb(50,50,0);" y2="450" />
      <line x1="333" x2="323" y1="450" style="clip-path:url(#clipPath1); fill:none; stroke:rgb(50,50,0);" y2="450" />
      <line x1="318" x2="308" y1="450" style="clip-path:url(#clipPath1); fill:none; stroke:rgb(50,50,0);" y2="450" />
      <line x1="303" x2="301" y1="450" style="clip-path:url(#clipPath1); fill:none; stroke:rgb(50,50,0);" y2="450" />
      <line x1="301" x2="313" y1="450" style="clip-path:url(#clipPath1); fill:none;" y2="453" />
      <line x1="301" x2="313" y1="450" style="clip-path:url(#clipPath1); fill:none;" y2="447" />
      <line x1="283" x2="673" y1="231" style="clip-path:url(#clipPath1); fill:none; stroke:rgb(50,50,0);" y2="231" />
      <line x1="673" x2="663" y1="360" style="clip-path:url(#clipPath1); fill:none; stroke:rgb(50,50,0);" y2="360" />
      <line x1="658" x2="648" y1="360" style="clip-path:url(#clipPath1); fill:none; stroke:rgb(50,50,0);" y2="360" />
      <line x1="643" x2="633" y1="360" style="clip-path:url(#clipPath1); fill:none; stroke:rgb(50,50,0);" y2="360" />
      <line x1="628" x2="618" y1="360" style="clip-path:url(#clipPath1); fill:none; stroke:rgb(50,50,0);" y2="360" />
      <line x1="613" x2="603" y1="360" style="clip-path:url(#clipPath1); fill:none; stroke:rgb(50,50,0);" y2="360" />
      <line x1="598" x2="588" y1="360" style="clip-path:url(#clipPath1); fill:none; stroke:rgb(50,50,0);" y2="360" />
      <line x1="583" x2="573" y1="360" style="clip-path:url(#clipPath1); fill:none; stroke:rgb(50,50,0);" y2="360" />
      <line x1="568" x2="558" y1="360" style="clip-path:url(#clipPath1); fill:none; stroke:rgb(50,50,0);" y2="360" />
      <line x1="553" x2="543" y1="360" style="clip-path:url(#clipPath1); fill:none; stroke:rgb(50,50,0);" y2="360" />
      <line x1="538" x2="528" y1="360" style="clip-path:url(#clipPath1); fill:none; stroke:rgb(50,50,0);" y2="360" />
      <line x1="523" x2="513" y1="360" style="clip-path:url(#clipPath1); fill:none; stroke:rgb(50,50,0);" y2="360" />
      <line x1="508" x2="498" y1="360" style="clip-path:url(#clipPath1); fill:none; stroke:rgb(50,50,0);" y2="360" />
      <line x1="493" x2="483" y1="360" style="clip-path:url(#clipPath1); fill:none; stroke:rgb(50,50,0);" y2="360" />
      <line x1="478" x2="468" y1="360" style="clip-path:url(#clipPath1); fill:none; stroke:rgb(50,50,0);" y2="360" />
      <line x1="463" x2="453" y1="360" style="clip-path:url(#clipPath1); fill:none; stroke:rgb(50,50,0);" y2="360" />
      <line x1="448" x2="438" y1="360" style="clip-path:url(#clipPath1); fill:none; stroke:rgb(50,50,0);" y2="360" />
      <line x1="433" x2="423" y1="360" style="clip-path:url(#clipPath1); fill:none; stroke:rgb(50,50,0);" y2="360" />
      <line x1="418" x2="408" y1="360" style="clip-path:url(#clipPath1); fill:none; stroke:rgb(50,50,0);" y2="360" />
      <line x1="403" x2="393" y1="360" style="clip-path:url(#clipPath1); fill:none; stroke:rgb(50,50,0);" y2="360" />
      <line x1="388" x2="378" y1="360" style="clip-path:url(#clipPath1); fill:none; stroke:rgb(50,50,0);" y2="360" />
      <line x1="373" x2="363" y1="360" style="clip-path:url(#clipPath1); fill:none; stroke:rgb(50,50,0);" y2="360" />
      <line x1="358" x2="348" y1="360" style="clip-path:url(#clipPath1); fill:none; stroke:rgb(50,50,0);" y2="360" />
      <line x1="343" x2="333" y1="360" style="clip-path:url(#clipPath1); fill:none; stroke:rgb(50,50,0);" y2="360" />
      <line x1="328" x2="318" y1="360" style="clip-path:url(#clipPath1); fill:none; stroke:rgb(50,50,0);" y2="360" />
      <line x1="313" x2="303" y1="360" style="clip-path:url(#clipPath1); fill:none; stroke:rgb(50,50,0);" y2="360" />
      <line x1="298" x2="288" y1="360" style="clip-path:url(#clipPath1); fill:none; stroke:rgb(50,50,0);" y2="360" />
      <line x1="283" x2="283" y1="360" style="clip-path:url(#clipPath1); fill:none; stroke:rgb(50,50,0);" y2="360" />
      <line x1="283" x2="295" y1="360" style="clip-path:url(#clipPath1); fill:none;" y2="363" />
      <line x1="283" x2="295" y1="360" style="clip-path:url(#clipPath1); fill:none;" y2="357" />
      <line x1="696" x2="879" y1="320" style="clip-path:url(#clipPath1); fill:none; stroke:rgb(50,50,0);" y2="320" />
      <line x1="879" x2="869" y1="340" style="clip-path:url(#clipPath1); fill:none; stroke:rgb(50,50,0);" y2="340" />
      <line x1="864" x2="854" y1="340" style="clip-path:url(#clipPath1); fill:none; stroke:rgb(50,50,0);" y2="340" />
      <line x1="849" x2="839" y1="340" style="clip-path:url(#clipPath1); fill:none; stroke:rgb(50,50,0);" y2="340" />
      <line x1="834" x2="824" y1="340" style="clip-path:url(#clipPath1); fill:none; stroke:rgb(50,50,0);" y2="340" />
      <line x1="819" x2="809" y1="340" style="clip-path:url(#clipPath1); fill:none; stroke:rgb(50,50,0);" y2="340" />
      <line x1="804" x2="794" y1="340" style="clip-path:url(#clipPath1); fill:none; stroke:rgb(50,50,0);" y2="340" />
      <line x1="789" x2="779" y1="340" style="clip-path:url(#clipPath1); fill:none; stroke:rgb(50,50,0);" y2="340" />
      <line x1="774" x2="764" y1="340" style="clip-path:url(#clipPath1); fill:none; stroke:rgb(50,50,0);" y2="340" />
      <line x1="759" x2="749" y1="340" style="clip-path:url(#clipPath1); fill:none; stroke:rgb(50,50,0);" y2="340" />
      <line x1="744" x2="734" y1="340" style="clip-path:url(#clipPath1); fill:none; stroke:rgb(50,50,0);" y2="340" />
      <line x1="729" x2="719" y1="340" style="clip-path:url(#clipPath1); fill:none; stroke:rgb(50,50,0);" y2="340" />
      <line x1="714" x2="704" y1="340" style="clip-path:url(#clipPath1); fill:none; stroke:rgb(50,50,0);" y2="340" />
      <line x1="699" x2="696" y1="340" style="clip-path:url(#clipPath1); fill:none; stroke:rgb(50,50,0);" y2="340" />
      <line x1="696" x2="708" y1="340" style="clip-path:url(#clipPath1); fill:none;" y2="343" />
      <line x1="696" x2="708" y1="340" style="clip-path:url(#clipPath1); fill:none;" y2="337" />
      <line x1="696" x2="879" y1="270" style="clip-path:url(#clipPath1); fill:none; stroke:rgb(50,50,0);" y2="270" />
      <line x1="879" x2="869" y1="290" style="clip-path:url(#clipPath1); fill:none; stroke:rgb(50,50,0);" y2="290" />
      <line x1="864" x2="854" y1="290" style="clip-path:url(#clipPath1); fill:none; stroke:rgb(50,50,0);" y2="290" />
      <line x1="849" x2="839" y1="290" style="clip-path:url(#clipPath1); fill:none; stroke:rgb(50,50,0);" y2="290" />
      <line x1="834" x2="824" y1="290" style="clip-path:url(#clipPath1); fill:none; stroke:rgb(50,50,0);" y2="290" />
      <line x1="819" x2="809" y1="290" style="clip-path:url(#clipPath1); fill:none; stroke:rgb(50,50,0);" y2="290" />
      <line x1="804" x2="794" y1="290" style="clip-path:url(#clipPath1); fill:none; stroke:rgb(50,50,0);" y2="290" />
      <line x1="789" x2="779" y1="290" style="clip-path:url(#clipPath1); fill:none; stroke:rgb(50,50,0);" y2="290" />
      <line x1="774" x2="764" y1="290" style="clip-path:url(#clipPath1); fill:none; stroke:rgb(50,50,0);" y2="290" />
      <line x1="759" x2="749" y1="290" style="clip-path:url(#clipPath1); fill:none; stroke:rgb(50,50,0);" y2="290" />
      <line x1="744" x2="734" y1="290" style="clip-path:url(#clipPath1); fill:none; stroke:rgb(50,50,0);" y2="290" />
      <line x1="729" x2="719" y1="290" style="clip-path:url(#clipPath1); fill:none; stroke:rgb(50,50,0);" y2="290" />
      <line x1="714" x2="704" y1="290" style="clip-path:url(#clipPath1); fill:none; stroke:rgb(50,50,0);" y2="290" />
      <line x1="699" x2="696" y1="290" style="clip-path:url(#clipPath1); fill:none; stroke:rgb(50,50,0);" y2="290" />
      <line x1="696" x2="708" y1="290" style="clip-path:url(#clipPath1); fill:none;" y2="293" />
      <line x1="696" x2="708" y1="290" style="clip-path:url(#clipPath1); fill:none;" y2="287" />
      <text x="289" y="175" style="clip-path:url(#clipPath1); fill:rgb(50,50,0); font-family:sans-serif; stroke:none;">while(pending chunks)
      </text>
      <text x="298" y="385" style="clip-path:url(#clipPath1); fill:rgb(50,50,0); font-family:sans-serif; stroke:none;">if(depsSatisfied)
      </text>
      <text x="307" y="406" style="clip-path:url(#clipPath1); fill:rgb(50,50,0); font-family:sans-serif; stroke:none;">for(all handlers)
      </text>
      <polygon points=" 274 151 292 147 292 155" style="fill:gray; clip-path:url(#clipPath1); font-family:sans-serif; stroke:none;" />
      <polygon points=" 274 151 292 147 292 155" style="fill:none; clip-path:url(#clipPath1); font-family:sans-serif; stroke:rgb(50,50,0);" />
      <line x1="292" x2="274" y1="155" style="clip-path:url(#clipPath1); fill:none; font-family:sans-serif; stroke:rgb(50,50,0);" y2="151" />
      <text x="282" y="161" style="clip-path:url(#clipPath1); fill:rgb(50,50,0); font-family:sans-serif; stroke:none;"> checkForReconfig
      </text>
      <polygon points=" 134 521 152 517 152 525" style="fill:gray; clip-path:url(#clipPath1); font-family:sans-serif; stroke:none;" />
      <polygon points=" 134 521 152 517 152 525" style="fill:none; clip-path:url(#clipPath1); font-family:sans-serif; stroke:rgb(50,50,0);" />
      <line x1="152" x2="134" y1="525" style="clip-path:url(#clipPath1); fill:none; font-family:sans-serif; stroke:rgb(50,50,0);" y2="521" />
      <text x="98" y="514" style="clip-path:url(#clipPath1); fill:rgb(50,50,0); font-family:sans-serif; stroke:none;">[success] //removePending
      </text>
      <polygon points=" 134 199 152 195 152 203" style="fill:gray; clip-path:url(#clipPath1); font-family:sans-serif; stroke:none;" />
      <polygon points=" 134 199 152 195 152 203" style="fill:none; clip-path:url(#clipPath1); font-family:sans-serif; stroke:rgb(50,50,0);" />
      <line x1="152" x2="134" y1="203" style="clip-path:url(#clipPath1); fill:none; font-family:sans-serif; stroke:rgb(50,50,0);" y2="199" />
      <text x="187" y="192" style="clip-path:url(#clipPath1); fill:rgb(50,50,0); font-family:sans-serif; stroke:none;"> getPending
      </text>
      <polygon points=" 498 480 480 484 480 476" style="fill:gray; clip-path:url(#clipPath1); font-family:sans-serif; stroke:none;" />
      <polygon points=" 498 480 480 484 480 476" style="fill:none; clip-path:url(#clipPath1); font-family:sans-serif; stroke:rgb(50,50,0);" />
      <line x1="480" x2="498" y1="476" style="clip-path:url(#clipPath1); fill:none; font-family:sans-serif; stroke:rgb(50,50,0);" y2="480" />
      <text x="309" y="473" style="clip-path:url(#clipPath1); fill:rgb(50,50,0); font-family:sans-serif; stroke:none;">[canHandle] //configAdd
      </text>
      <polygon points=" 498 430 480 434 480 426" style="fill:gray; clip-path:url(#clipPath1); font-family:sans-serif; stroke:none;" />
      <polygon points=" 498 430 480 434 480 426" style="fill:none; clip-path:url(#clipPath1); font-family:sans-serif; stroke:rgb(50,50,0);" />
      <line x1="480" x2="498" y1="426" style="clip-path:url(#clipPath1); fill:none; font-family:sans-serif; stroke:rgb(50,50,0);" y2="430" />
      <text x="309" y="423" style="clip-path:url(#clipPath1); fill:rgb(50,50,0); font-family:sans-serif; stroke:none;"> configCanHandle
      </text>
      <text x="702" y="242" style="clip-path:url(#clipPath1); fill:rgb(50,50,0); font-family:sans-serif; stroke:none;">for(all checkers)
      </text>
      <polygon points=" 673 231 655 235 655 227" style="fill:gray; clip-path:url(#clipPath1); font-family:sans-serif; stroke:none;" />
      <polygon points=" 673 231 655 235 655 227" style="fill:none; clip-path:url(#clipPath1); font-family:sans-serif; stroke:rgb(50,50,0);" />
      <line x1="655" x2="673" y1="227" style="clip-path:url(#clipPath1); fill:none; font-family:sans-serif; stroke:rgb(50,50,0);" y2="231" />
      <text x="291" y="224" style="clip-path:url(#clipPath1); fill:rgb(50,50,0); font-family:sans-serif; stroke:none;"> depSatisfied
      </text>
      <polygon points=" 879 320 861 324 861 316" style="fill:gray; clip-path:url(#clipPath1); font-family:sans-serif; stroke:none;" />
      <polygon points=" 879 320 861 324 861 316" style="fill:none; clip-path:url(#clipPath1); font-family:sans-serif; stroke:rgb(50,50,0);" />
      <line x1="861" x2="879" y1="316" style="clip-path:url(#clipPath1); fill:none; font-family:sans-serif; stroke:rgb(50,50,0);" y2="320" />
      <text x="704" y="313" style="clip-path:url(#clipPath1); fill:rgb(50,50,0); font-family:sans-serif; stroke:none;">[can handle] //depSatisfied
      </text>
      <polygon points=" 879 270 861 274 861 266" style="fill:gray; clip-path:url(#clipPath1); font-family:sans-serif; stroke:none;" />
      <polygon points=" 879 270 861 274 861 266" style="fill:none; clip-path:url(#clipPath1); font-family:sans-serif; stroke:rgb(50,50,0);" />
      <line x1="861" x2="879" y1="266" style="clip-path:url(#clipPath1); fill:none; font-family:sans-serif; stroke:rgb(50,50,0);" y2="270" />
      <text x="704" y="263" style="clip-path:url(#clipPath1); fill:rgb(50,50,0); font-family:sans-serif; stroke:none;"> canHandle
      </text>
    </g>
  </g>
</svg>
