<?xml version="1.0" encoding="UTF-8"?>

<!DOCTYPE svg PUBLIC '-//W3C//DTD SVG 20001102//EN' 'http://www.w3.org/TR/2000/CR-SVG-20001102/DTD/svg-20001102.dtd'>
<svg style="fill-opacity:1; color-interpolation:sRGB; color-rendering:auto; text-rendering:auto; stroke:black; stroke-linecap:square; stroke-miterlimit:10; stroke-opacity:1; shape-rendering:auto; fill:black; stroke-dasharray:none; font-weight:normal; stroke-width:1; font-family:&apos;Lucida Sans&apos;; font-style:normal; stroke-linejoin:miter; font-size:12; image-rendering:auto; stroke-dashoffset:0;" width="421" height="411">
  <!--Generated by the Batik Graphics2D SVG Generator-->
  <defs id="genericDefs" />
  <g>
    <defs id="defs1">
      <clipPath clipPathUnits="userSpaceOnUse" id="clipPath1">
        <path d="M0 0 L421 0 L421 411 L0 411 L0 0 Z" />
      </clipPath>
      <clipPath clipPathUnits="userSpaceOnUse" id="clipPath2">
        <path d="M20 20 L20 178 L208 178 L208 20 Z" />
      </clipPath>
      <clipPath clipPathUnits="userSpaceOnUse" id="clipPath3">
        <path d="M21 21 L21 48 L208 48 L208 21 Z" />
      </clipPath>
      <clipPath clipPathUnits="userSpaceOnUse" id="clipPath4">
        <path d="M20 73 L20 155 L208 155 L208 73 Z" />
      </clipPath>
      <clipPath clipPathUnits="userSpaceOnUse" id="clipPath5">
        <path d="M22 75 L22 154 L207 154 L207 75 Z" />
      </clipPath>
      <clipPath clipPathUnits="userSpaceOnUse" id="clipPath6">
        <path d="M30 230 L30 338 L198 338 L198 230 Z" />
      </clipPath>
      <clipPath clipPathUnits="userSpaceOnUse" id="clipPath7">
        <path d="M31 231 L31 245 L198 245 L198 231 Z" />
      </clipPath>
      <clipPath clipPathUnits="userSpaceOnUse" id="clipPath8">
        <path d="M30 280 L30 323 L198 323 L198 280 Z" />
      </clipPath>
      <clipPath clipPathUnits="userSpaceOnUse" id="clipPath9">
        <path d="M32 282 L32 322 L197 322 L197 282 Z" />
      </clipPath>
      <clipPath clipPathUnits="userSpaceOnUse" id="clipPath10">
        <path d="M250 230 L250 398 L408 398 L408 230 Z" />
      </clipPath>
      <clipPath clipPathUnits="userSpaceOnUse" id="clipPath11">
        <path d="M251 231 L251 245 L408 245 L408 231 Z" />
      </clipPath>
      <clipPath clipPathUnits="userSpaceOnUse" id="clipPath12">
        <path d="M250 280 L250 388 L408 388 L408 280 Z" />
      </clipPath>
      <clipPath clipPathUnits="userSpaceOnUse" id="clipPath13">
        <path d="M252 282 L252 387 L407 387 L407 282 Z" />
      </clipPath>
    </defs>
    <g style="fill:rgb(0,64,64); stroke:rgb(0,64,64);">
      <line x1="115" x2="115" y1="230" style="clip-path:url(#clipPath1); fill:none;" y2="180" />
      <line x1="250" x2="200" y1="285" style="clip-path:url(#clipPath1); fill:none;" y2="285" />
      <polygon style="fill:white; clip-path:url(#clipPath1); stroke:none;" points=" 115 180 121 198 109 198" />
      <polygon style="fill:none; clip-path:url(#clipPath1);" points=" 115 180 121 198 109 198" />
      <line x1="109" x2="115" y1="198" style="clip-path:url(#clipPath1); fill:none;" y2="180" />
      <polygon style="fill:white; clip-path:url(#clipPath1); stroke:none;" points=" 200 285 218 279 218 291" />
      <polygon style="fill:none; clip-path:url(#clipPath1);" points=" 200 285 218 279 218 291" />
      <line x1="218" x2="200" y1="291" style="clip-path:url(#clipPath1); fill:none;" y2="285" />
      <rect x="23" y="23" width="187" style="clip-path:url(#clipPath1); fill:navy; stroke:none;" height="157" />
      <rect x="20" y="20" width="187" style="clip-path:url(#clipPath1); fill:white; stroke:none;" height="157" />
      <rect x="20" y="20" width="187" style="clip-path:url(#clipPath1); fill:none; stroke:black;" height="157" />
    </g>
    <g style="font-family:sans-serif;">
      <text x="42" y="31" style="clip-path:url(#clipPath3); stroke:none;">jccl::ConfigChunkHandler
      </text>
      <text x="86" y="44" style="clip-path:url(#clipPath3); font-style:italic; stroke:none; font-weight:bold;">vrj::App
      </text>
    </g>
    <g>
      <line x1="20" x2="207" y1="53" style="clip-path:url(#clipPath2); fill:none;" y2="53" />
      <line x1="20" x2="207" y1="66" style="clip-path:url(#clipPath2); fill:none;" y2="66" />
    </g>
    <g style="font-family:sans-serif;">
      <text x="26" y="85" style="clip-path:url(#clipPath5); stroke:none;">+init:void
      </text>
      <text x="26" y="98" style="clip-path:url(#clipPath5); stroke:none;">+apiInit:void
      </text>
      <text x="26" y="111" style="clip-path:url(#clipPath5); stroke:none;">+exit:void
      </text>
      <text x="26" y="124" style="clip-path:url(#clipPath5); stroke:none;">+preFrame:void
      </text>
      <text x="26" y="137" style="clip-path:url(#clipPath5); stroke:none;">+intraFrame:void
      </text>
      <text x="26" y="150" style="clip-path:url(#clipPath5); stroke:none;">+postFrame:void
      </text>
    </g>
    <g>
      <line x1="20" x2="207" y1="160" style="clip-path:url(#clipPath2); fill:none;" y2="160" />
    </g>
    <g style="fill:navy; stroke:navy;">
      <rect x="33" y="233" width="167" style="clip-path:url(#clipPath1); stroke:none;" height="107" />
      <rect x="30" y="230" width="167" style="clip-path:url(#clipPath1); fill:white; stroke:none;" height="107" />
      <rect x="30" y="230" width="167" style="clip-path:url(#clipPath1); fill:none; stroke:black;" height="107" />
    </g>
    <g style="font-style:italic; font-weight:bold; font-family:sans-serif;">
      <text x="79" y="241" style="clip-path:url(#clipPath7); stroke:none;">vrj::GlApp
      </text>
    </g>
    <g>
      <line x1="30" x2="197" y1="250" style="clip-path:url(#clipPath6); fill:none;" y2="250" />
      <line x1="30" x2="197" y1="273" style="clip-path:url(#clipPath6); fill:none;" y2="273" />
    </g>
    <g style="font-family:sans-serif; font-style:italic;">
      <text x="36" y="292" style="clip-path:url(#clipPath9); stroke:none;">+draw:void
      </text>
      <text x="36" y="305" style="font-style:normal; clip-path:url(#clipPath9); stroke:none;">+contextInit:void
      </text>
      <text x="36" y="318" style="font-style:normal; clip-path:url(#clipPath9); stroke:none;">+bufferPreDraw:void
      </text>
    </g>
    <g style="fill:navy; stroke:navy;">
      <rect x="253" y="233" width="157" style="clip-path:url(#clipPath1); stroke:none;" height="167" />
      <rect x="250" y="230" width="157" style="clip-path:url(#clipPath1); fill:white; stroke:none;" height="167" />
      <rect x="250" y="230" width="157" style="clip-path:url(#clipPath1); fill:none; stroke:black;" height="167" />
    </g>
    <g style="font-weight:bold; font-family:sans-serif;">
      <text x="287" y="241" style="clip-path:url(#clipPath11); stroke:none;">userOglApp
      </text>
    </g>
    <g>
      <line x1="250" x2="407" y1="250" style="clip-path:url(#clipPath10); fill:none;" y2="250" />
      <line x1="250" x2="407" y1="273" style="clip-path:url(#clipPath10); fill:none;" y2="273" />
    </g>
    <g style="font-family:sans-serif;">
      <text x="256" y="292" style="clip-path:url(#clipPath13); stroke:none;">+init:void
      </text>
      <text x="256" y="305" style="clip-path:url(#clipPath13); stroke:none;">+apiInit:void
      </text>
      <text x="256" y="318" style="clip-path:url(#clipPath13); stroke:none;">+preFrame:void
      </text>
      <text x="256" y="331" style="clip-path:url(#clipPath13); stroke:none;">+intraFrame:void
      </text>
      <text x="256" y="344" style="clip-path:url(#clipPath13); stroke:none;">+postFrame:void
      </text>
      <text x="256" y="357" style="clip-path:url(#clipPath13); stroke:none;">+bufferPreDraw:void
      </text>
      <text x="256" y="370" style="clip-path:url(#clipPath13); stroke:none;">+draw:void
      </text>
      <text x="256" y="383" style="clip-path:url(#clipPath13); stroke:none;">+contextInit:void
      </text>
    </g>
  </g>
</svg>
