<?xml version="1.0" encoding="UTF-8"?>

<!DOCTYPE svg PUBLIC '-//W3C//DTD SVG 20001102//EN' 'http://www.w3.org/TR/2000/CR-SVG-20001102/DTD/svg-20001102.dtd'>
<svg style="fill-opacity:1; color-interpolation:sRGB; color-rendering:auto; text-rendering:auto; stroke:black; stroke-linecap:square; stroke-miterlimit:10; stroke-opacity:1; shape-rendering:auto; fill:black; stroke-dasharray:none; font-weight:normal; stroke-width:1; font-family:&apos;Lucida Sans&apos;; font-style:normal; stroke-linejoin:miter; font-size:12; image-rendering:auto; stroke-dashoffset:0;" width="501" height="468">
  <!--Generated by the Batik Graphics2D SVG Generator-->
  <defs id="genericDefs" />
  <g>
    <defs id="defs1">
      <clipPath clipPathUnits="userSpaceOnUse" id="clipPath1">
        <path d="M0 0 L501 0 L501 468 L0 468 L0 0 Z" />
      </clipPath>
      <clipPath clipPathUnits="userSpaceOnUse" id="clipPath2">
        <path d="M160 40 L160 221 L358 221 L358 40 Z" />
      </clipPath>
      <clipPath clipPathUnits="userSpaceOnUse" id="clipPath3">
        <path d="M161 41 L161 68 L358 68 L358 41 Z" />
      </clipPath>
      <clipPath clipPathUnits="userSpaceOnUse" id="clipPath4">
        <path d="M160 103 L160 211 L358 211 L358 103 Z" />
      </clipPath>
      <clipPath clipPathUnits="userSpaceOnUse" id="clipPath5">
        <path d="M162 105 L162 210 L357 210 L357 105 Z" />
      </clipPath>
      <clipPath clipPathUnits="userSpaceOnUse" id="clipPath6">
        <path d="M50 300 L50 429 L248 429 L248 300 Z" />
      </clipPath>
      <clipPath clipPathUnits="userSpaceOnUse" id="clipPath7">
        <path d="M51 301 L51 315 L248 315 L248 301 Z" />
      </clipPath>
      <clipPath clipPathUnits="userSpaceOnUse" id="clipPath8">
        <path d="M50 350 L50 419 L248 419 L248 350 Z" />
      </clipPath>
      <clipPath clipPathUnits="userSpaceOnUse" id="clipPath9">
        <path d="M52 352 L52 418 L247 418 L247 352 Z" />
      </clipPath>
      <clipPath clipPathUnits="userSpaceOnUse" id="clipPath10">
        <path d="M290 300 L290 455 L488 455 L488 300 Z" />
      </clipPath>
      <clipPath clipPathUnits="userSpaceOnUse" id="clipPath11">
        <path d="M291 301 L291 315 L488 315 L488 301 Z" />
      </clipPath>
      <clipPath clipPathUnits="userSpaceOnUse" id="clipPath12">
        <path d="M290 350 L290 445 L488 445 L488 350 Z" />
      </clipPath>
      <clipPath clipPathUnits="userSpaceOnUse" id="clipPath13">
        <path d="M292 352 L292 444 L487 444 L487 352 Z" />
      </clipPath>
    </defs>
    <g style="fill:rgb(0,64,64); stroke:rgb(0,64,64);">
      <line x1="150" x2="260" y1="300" style="clip-path:url(#clipPath1); fill:none;" y2="223" />
      <line x1="390" x2="290" y1="300" style="clip-path:url(#clipPath1); fill:none;" y2="223" />
      <polygon style="fill:white; clip-path:url(#clipPath1); stroke:none;" points=" 260 223 249 238 242 228" />
      <polygon style="fill:none; clip-path:url(#clipPath1);" points=" 260 223 249 238 242 228" />
      <line x1="242" x2="260" y1="228" style="clip-path:url(#clipPath1); fill:none;" y2="223" />
      <polygon style="fill:white; clip-path:url(#clipPath1); stroke:none;" points=" 290 223 308 229 301 239" />
      <polygon style="fill:none; clip-path:url(#clipPath1);" points=" 290 223 308 229 301 239" />
      <line x1="301" x2="290" y1="239" style="clip-path:url(#clipPath1); fill:none;" y2="223" />
      <rect x="163" y="43" width="197" style="clip-path:url(#clipPath1); fill:navy; stroke:none;" height="180" />
      <rect x="160" y="40" width="197" style="clip-path:url(#clipPath1); fill:white; stroke:none;" height="180" />
      <rect x="160" y="40" width="197" style="clip-path:url(#clipPath1); fill:none; stroke:black;" height="180" />
    </g>
    <g style="font-family:sans-serif;">
      <text x="211" y="51" style="clip-path:url(#clipPath3); stroke:none;">vjConfigChunkHandler
      </text>
      <text x="238" y="64" style="clip-path:url(#clipPath3); font-style:italic; stroke:none; font-weight:bold;">vjApp
      </text>
    </g>
    <g>
      <line x1="160" x2="357" y1="73" style="clip-path:url(#clipPath2); fill:none;" y2="73" />
      <line x1="160" x2="357" y1="96" style="clip-path:url(#clipPath2); fill:none;" y2="96" />
    </g>
    <g style="font-family:sans-serif;">
      <text x="166" y="115" style="clip-path:url(#clipPath5); stroke:none;">+vjApp
      </text>
      <text x="166" y="128" style="clip-path:url(#clipPath5); stroke:none;">+init:void
      </text>
      <text x="166" y="141" style="clip-path:url(#clipPath5); stroke:none;">+apiInit:void
      </text>
      <text x="166" y="154" style="clip-path:url(#clipPath5); stroke:none;">+exit:void
      </text>
      <text x="166" y="167" style="clip-path:url(#clipPath5); stroke:none;">+preFrame:void
      </text>
      <text x="166" y="180" style="clip-path:url(#clipPath5); stroke:none;">+intraFrame:void
      </text>
      <text x="166" y="193" style="clip-path:url(#clipPath5); stroke:none;">+postFrame:void
      </text>
      <text x="166" y="206" style="font-style:italic; clip-path:url(#clipPath5); stroke:none;">+getDrawManager:vjDrawManager *
      </text>
    </g>
    <g style="fill:navy; stroke:navy;">
      <rect x="53" y="303" width="197" style="clip-path:url(#clipPath1); stroke:none;" height="128" />
      <rect x="50" y="300" width="197" style="clip-path:url(#clipPath1); fill:white; stroke:none;" height="128" />
      <rect x="50" y="300" width="197" style="clip-path:url(#clipPath1); fill:none; stroke:black;" height="128" />
    </g>
    <g style="font-style:italic; font-weight:bold; font-family:sans-serif;">
      <text x="121" y="311" style="clip-path:url(#clipPath7); stroke:none;">vjPfApp
      </text>
    </g>
    <g>
      <line x1="50" x2="247" y1="320" style="clip-path:url(#clipPath6); fill:none;" y2="320" />
      <line x1="50" x2="247" y1="343" style="clip-path:url(#clipPath6); fill:none;" y2="343" />
    </g>
    <g style="font-family:sans-serif;">
      <text x="56" y="362" style="clip-path:url(#clipPath9); stroke:none;">+vjPfApp
      </text>
      <text x="56" y="375" style="font-style:italic; clip-path:url(#clipPath9); stroke:none;">+initScene:void
      </text>
      <text x="56" y="388" style="font-style:italic; clip-path:url(#clipPath9); stroke:none;">+getScene:pfGroup *
      </text>
      <text x="56" y="401" style="clip-path:url(#clipPath9); stroke:none;">+drawChan:void
      </text>
      <text x="56" y="414" style="clip-path:url(#clipPath9); stroke:none;">+getDrawManager:vjDrawManager *
      </text>
    </g>
    <g style="fill:navy; stroke:navy;">
      <rect x="293" y="303" width="197" style="clip-path:url(#clipPath1); stroke:none;" height="154" />
      <rect x="290" y="300" width="197" style="clip-path:url(#clipPath1); fill:white; stroke:none;" height="154" />
      <rect x="290" y="300" width="197" style="clip-path:url(#clipPath1); fill:none; stroke:black;" height="154" />
    </g>
    <g style="font-style:italic; font-weight:bold; font-family:sans-serif;">
      <text x="361" y="311" style="clip-path:url(#clipPath11); stroke:none;">vjGlApp
      </text>
    </g>
    <g>
      <line x1="290" x2="487" y1="320" style="clip-path:url(#clipPath10); fill:none;" y2="320" />
      <line x1="290" x2="487" y1="343" style="clip-path:url(#clipPath10); fill:none;" y2="343" />
    </g>
    <g style="font-family:sans-serif;">
      <text x="296" y="362" style="clip-path:url(#clipPath13); stroke:none;">+vjGlApp
      </text>
      <text x="296" y="375" style="font-style:italic; clip-path:url(#clipPath13); stroke:none;">+draw:void
      </text>
      <text x="296" y="388" style="clip-path:url(#clipPath13); stroke:none;">+contextInit:void
      </text>
      <text x="296" y="401" style="clip-path:url(#clipPath13); stroke:none;">+contextClose:void
      </text>
      <text x="296" y="414" style="clip-path:url(#clipPath13); stroke:none;">+contextPreDraw:void
      </text>
      <text x="296" y="427" style="clip-path:url(#clipPath13); stroke:none;">+pipePreDraw:void
      </text>
      <text x="296" y="440" style="clip-path:url(#clipPath13); stroke:none;">+getDrawManager:vjDrawManager *
      </text>
    </g>
  </g>
</svg>
