<?xml version="1.0" encoding="iso-8859-1"?>
<!DOCTYPE svg PUBLIC "-//W3C//DTD SVG 20000303 Stylable//EN"
"http://www.w3.org/TR/2000/03/WD-SVG-20000303/DTD/svg-20000303-stylable.dtd">

<svg width="2.4066in" height="2.3519in" viewBox="0 0 220 215">

<path style="fill:#fff;stroke:#000;stroke-width:2" d="M1,118 l57,0 -57,0z" />
<path style="fill:#fff;stroke:#000;stroke-width:2" d="M1,118 l57,0 -57,0z" />
<path style="fill:#fff;stroke:#000;stroke-width:2" d="M1,118 l57,0 -57,0z" />
<path style="fill:#fff;fill-rule:evenodd;stroke:#000;stroke-width:2" d="M1,118 l57,0 0,-40 -57,0 0,40z M1,78 l57,0 0,40 0,-40 -57,0z " />
<path style="fill:#fff;stroke:#000;stroke-width:2" d="M18,41 l103,0 -103,0z" />
<path style="fill:#fff;stroke:#000;stroke-width:2" d="M18,41 l103,0 -103,0z" />
<path style="fill:#fff;stroke:#000;stroke-width:2" d="M18,41 l103,0 -103,0z" />
<path style="fill:#fff;fill-rule:evenodd;stroke:#000;stroke-width:2" d="M18,41 l103,0 0,-40 -103,0 0,40z M18,1 l103,0 0,40 0,-40 -103,0z " />
<path style="fill:none;stroke:#000;stroke-width:2" d="M44,41 l0,37" />
<path style="fill:#fff;stroke:#000;stroke-width:2" d="M18,195 l103,0 -103,0z" />
<path style="fill:#fff;stroke:#000;stroke-width:2" d="M18,195 l103,0 -103,0z" />
<path style="fill:#fff;stroke:#000;stroke-width:2" d="M18,195 l103,0 -103,0z" />
<path style="fill:#fff;fill-rule:evenodd;stroke:#000;stroke-width:2" d="M18,195 l103,0 0,-40 -103,0 0,40z M18,155 l103,0 0,40 0,-40 -103,0z " />
<path style="fill:none;stroke:#000;stroke-width:2" d="M44,118 l0,37" />
<path style="fill:none;stroke:#000;stroke-width:2" d="M95,41 l0,114" />
<path style="fill:#fff" d="M100,59 l7,0 0,-14 -7,0 0,14z" />
<path style="fill:none;stroke:#000;stroke-width:2" d="M95,41 l0,114" />
<path style="fill:#fff" d="M99,151 l9,0 0,-15 -9,0 0,15z" />
<path style="fill:#fff" d="M31,151 l8,0 0,-15 -8,0 0,15z" />
<path style="fill:#fff" d="M44,133 l8,0 0,-15 -8,0 0,15z" />
<path style="fill:#fff" d="M42,71 l3,0 0,-15 -3,0 0,15z" />
<path style="fill:#fff" d="M32,59 l6,0 0,-14 -6,0 0,14z" />
<path style="fill:#fff" d="M31,74 l8,0 0,-15 -8,0 0,15z" />
<path style="fill:none;stroke:#000;stroke-width:2" d="M1,53 l211,0" />
<path style="fill:#fff" d="M142,71 l71,0 0,-15 -71,0 0,15z" />

</svg>
